<svg width="17" height="8" viewBox="0 0 17 8" fill="none" xmlns="http://www.w3.org/2000/svg">
<path d="M5.86361e-05 0.460058H4.14006V1.34006H0.930059V3.49006H3.54006V4.37006H0.930059V6.68006H4.14006V7.56006H5.86361e-05V0.460058ZM7.34021 7.66006C6.98688 7.66006 6.66021 7.59339 6.36021 7.46006C6.06688 7.32006 5.81021 7.13339 5.59021 6.90006C5.37021 6.66006 5.19688 6.38339 5.07021 6.07006C4.95021 5.75673 4.89021 5.42006 4.89021 5.06006C4.89021 4.70006 4.95021 4.36339 5.07021 4.05006C5.19688 3.73673 5.37021 3.46339 5.59021 3.23006C5.81021 2.99006 6.06688 2.80339 6.36021 2.67006C6.66021 2.53006 6.98688 2.46006 7.34021 2.46006C7.72021 2.46006 8.06688 2.54672 8.38022 2.72006C8.69355 2.88673 8.93355 3.09006 9.10022 3.33006V0.060058H9.96022V7.56006H9.10022V6.79006C8.93355 7.03006 8.69355 7.23673 8.38022 7.41006C8.06688 7.57673 7.72021 7.66006 7.34021 7.66006ZM7.47021 6.87006C7.72355 6.87006 7.95355 6.82339 8.16022 6.73006C8.36688 6.63673 8.54355 6.51006 8.69022 6.35006C8.84355 6.18339 8.96022 5.99006 9.04022 5.77006C9.12688 5.55006 9.17022 5.31339 9.17022 5.06006C9.17022 4.80673 9.12688 4.57006 9.04022 4.35006C8.96022 4.13006 8.84355 3.94006 8.69022 3.78006C8.54355 3.61339 8.36688 3.48339 8.16022 3.39006C7.95355 3.29673 7.72355 3.25006 7.47021 3.25006C7.21688 3.25006 6.98355 3.29673 6.77021 3.39006C6.56355 3.48339 6.38355 3.61339 6.23021 3.78006C6.08355 3.94006 5.96688 4.13006 5.88021 4.35006C5.80021 4.57006 5.76021 4.80673 5.76021 5.06006C5.76021 5.31339 5.80021 5.55006 5.88021 5.77006C5.96688 5.99006 6.08355 6.18339 6.23021 6.35006C6.38355 6.51006 6.56355 6.63673 6.77021 6.73006C6.98355 6.82339 7.21688 6.87006 7.47021 6.87006ZM12.019 1.22006C11.8457 1.22006 11.699 1.16339 11.579 1.05006C11.459 0.930058 11.399 0.783392 11.399 0.610058C11.399 0.443392 11.459 0.300058 11.579 0.180058C11.699 0.0600582 11.8457 5.81741e-05 12.019 5.81741e-05C12.1924 5.81741e-05 12.3357 0.0600582 12.449 0.180058C12.5624 0.300058 12.619 0.443392 12.619 0.610058C12.619 0.783392 12.5624 0.930058 12.449 1.05006C12.3357 1.16339 12.1924 1.22006 12.019 1.22006ZM11.579 2.56006H12.439V7.56006H11.579V2.56006ZM16.0093 7.61006C15.7893 7.61006 15.5859 7.58006 15.3993 7.52006C15.2126 7.45339 15.0493 7.36006 14.9093 7.24006C14.7759 7.11339 14.6693 6.95339 14.5893 6.76006C14.5159 6.56673 14.4793 6.34006 14.4793 6.08006V3.35006H13.4193V2.56006H14.4793V1.17006H15.3393V2.56006H16.7793V3.35006H15.3393V5.97006C15.3393 6.29006 15.4093 6.51339 15.5493 6.64006C15.6893 6.76006 15.8959 6.82006 16.1693 6.82006C16.2759 6.82006 16.3826 6.81339 16.4893 6.80006C16.6026 6.78006 16.6993 6.75339 16.7793 6.72006V7.49006C16.6726 7.52339 16.5559 7.55006 16.4293 7.57006C16.3026 7.59673 16.1626 7.61006 16.0093 7.61006Z" fill="black"/>
</svg>
