<svg width="24" height="24" viewBox="0 0 24 24" fill="none" xmlns="http://www.w3.org/2000/svg">
<path d="M5 22H2V19M5 19L2.43048 21.5695M19 22H22V19M19 19L21.5695 21.5695" stroke="#141414" stroke-width="1.5" stroke-linecap="round" stroke-linejoin="round"/>
<path d="M20 11C20 15.4183 16.4183 19 12 19C7.58173 19 4 15.4183 4 11C4 6.58173 7.58173 3 12 3C16.4183 3 20 6.58173 20 11Z" stroke="#141414" stroke-width="1.5"/>
<path d="M10.9 8C11.776 8 12.7647 8.86419 12.7 10.3333C12.6381 11.7397 11.8 12.3333 10 12.3333L13 15" stroke="#141414" stroke-width="1.5" stroke-linecap="round" stroke-linejoin="round"/>
<path d="M10 10.2134H13.8432" stroke="#141414" stroke-width="1.5" stroke-linecap="round" stroke-linejoin="round"/>
<path d="M10 8H13.9" stroke="#141414" stroke-width="1.5" stroke-linecap="round" stroke-linejoin="round"/>
</svg>
