<svg width="24" height="24" viewBox="0 0 24 24" fill="none" xmlns="http://www.w3.org/2000/svg">
<path d="M3.12012 8.21014H7.76012C8.51012 8.21014 9.12012 7.59014 9.12012 6.83014V2.14014" stroke="#141414" stroke-width="1.5" stroke-linecap="round" stroke-linejoin="round"/>
<path d="M20 9.58V3.76C20 2.24 18.78 2 17.28 2H9.68C9.32 2 8.97 2.14 8.72 2.4L3.4 7.8C3.14 8.06 3 8.41 3 8.78V19.24C3 20.76 4.22 22 5.72 22H10" stroke="#141414" stroke-width="1.5" stroke-linecap="round" stroke-linejoin="round"/>
<path d="M14.6094 5.51001V8.21001" stroke="#141414" stroke-width="1.5" stroke-linecap="round" stroke-linejoin="round"/>
<path d="M15.9595 6.86011H13.2695" stroke="#141414" stroke-width="1.5" stroke-linecap="round" stroke-linejoin="round"/>
<path d="M16.4805 14.7244V16.5537M16.489 18.9689H16.4796M21.6525 16.9C21.6525 19.7567 19.3363 22.0719 16.4805 22.0719C13.6247 22.0719 11.3086 19.7558 11.3086 16.9C11.3086 14.0442 13.6247 11.728 16.4805 11.728C19.3363 11.728 21.6525 14.0442 21.6525 16.9Z" stroke="#141414" stroke-width="1.5" stroke-linecap="round"/>
<path d="M7.03027 12.5H9.45027" stroke="#141414" stroke-width="1.5" stroke-linecap="round"/>
<path d="M7.03027 16.3501H8.00027" stroke="#141414" stroke-width="1.5" stroke-linecap="round"/>
</svg>
