<svg width="24" height="24" viewBox="0 0 24 24" fill="none" xmlns="http://www.w3.org/2000/svg">
<path d="M10.3101 11.0496C9.21658 11.0496 8.33008 11.9361 8.33008 13.0296V14.0296C8.33008 16.0396 9.96008 17.6696 11.9701 17.6696C13.9801 17.6696 15.6101 16.0396 15.6101 14.0296V13.0296C15.6101 11.9361 14.7236 11.0496 13.6301 11.0496" stroke="#141414" stroke-width="1.5" stroke-linecap="round" stroke-linejoin="round"/>
<path d="M18.2502 18.9994V19.8294C18.2502 21.5694 16.8402 22.9794 15.1002 22.9794C13.3602 22.9794 11.9502 21.5694 11.9502 19.8294V17.6794" stroke="#141414" stroke-width="1.5" stroke-linecap="round" stroke-linejoin="round"/>
<path d="M13.6201 10.5V11.5" stroke="#141414" stroke-width="1.5" stroke-linecap="round" stroke-linejoin="round"/>
<path d="M10.3105 10.5V11.5" stroke="#141414" stroke-width="1.5" stroke-linecap="round" stroke-linejoin="round"/>
<path d="M19.5795 17.6796C19.5795 18.4096 18.9895 18.9996 18.2595 18.9996C17.5295 18.9996 16.9395 18.4096 16.9395 17.6796C16.9395 16.9496 17.5295 16.3596 18.2595 16.3596C18.9895 16.3596 19.5795 16.9496 19.5795 17.6796Z" stroke="#141414" stroke-width="1.5"/>
<path d="M12.4499 21.4894H7C5.34314 21.4894 4 20.1462 4 18.4894V5.99975C4 4.3429 5.34315 2.99976 7 2.99976H12.6199C14.2768 2.99976 15.6199 4.3429 15.6199 5.99976V7.95935" stroke="#141414" stroke-width="1.5" stroke-linecap="round" stroke-linejoin="round"/>
</svg>
