<svg width="24" height="24" viewBox="0 0 24 24" fill="none" xmlns="http://www.w3.org/2000/svg">
<path d="M3.12252 8.20683H7.76012C8.51084 8.20683 9.12012 7.5889 9.12012 6.82752V2.14062" stroke="#141414" stroke-width="1.5" stroke-linecap="round" stroke-linejoin="round"/>
<path d="M14 20V17.4286M14 17.4286V14H15.2857C16.2325 14 17 14.7675 17 15.7143V15.9286C17 16.757 16.3284 17.4286 15.5 17.4286M14 17.4286H15.5M15.5 17.4286L20 22M17 22L20 19" stroke="#141414" stroke-width="1.5" stroke-linecap="round" stroke-linejoin="round"/>
<path d="M20 15V4.99999C20 3.34314 18.6569 2 17 2C14.561 2 12.122 2 9.68304 2C9.32264 2 8.97584 2.14483 8.72152 2.40414L3.39848 7.80276C3.1428 8.06207 3 8.41241 3 8.77793V19.2414C3 20.7655 4.2172 22 5.72 22H11" stroke="#141414" stroke-width="1.5" stroke-linecap="round" stroke-linejoin="round"/>
</svg>
