<svg width="24" height="24" viewBox="0 0 24 24" fill="none" xmlns="http://www.w3.org/2000/svg">
<path d="M11.51 1.75H11.92C13.0246 1.75 13.92 2.64543 13.92 3.75V7.3C13.92 10.32 11.47 12.76 8.46 12.76C5.44 12.76 3 10.31 3 7.3V3.75C3 2.64543 3.89543 1.75 5 1.75H5.37" stroke="#141414" stroke-width="1.5" stroke-linecap="round" stroke-linejoin="round"/>
<path d="M19.5795 12.49V16.26C19.5795 19.31 17.0995 21.79 14.0495 21.79C10.9995 21.79 8.51953 19.31 8.51953 16.26V12.77" stroke="#141414" stroke-width="1.5" stroke-linecap="round"/>
<path d="M19.5202 11.9902C20.6414 11.9902 21.5502 11.0813 21.5502 9.96018C21.5502 8.83904 20.6414 7.93018 19.5202 7.93018C18.3991 7.93018 17.4902 8.83904 17.4902 9.96018C17.4902 11.0813 18.3991 11.9902 19.5202 11.9902Z" stroke="#141414" stroke-width="1.5" stroke-linecap="round"/>
</svg>
