<svg width="24" height="24" viewBox="0 0 24 24" fill="none" xmlns="http://www.w3.org/2000/svg">
<path d="M20.768 18C21.518 18 22.118 17.53 22.648 16.87C23.748 15.52 21.948 14.44 21.258 13.91C20.558 13.37 19.778 13.07 18.988 13M17.998 11C19.378 11 20.498 9.88 20.498 8.5C20.498 7.12 19.378 6 17.998 6" stroke="#141414" stroke-width="1.5" stroke-linecap="round"/>
<path d="M3.22785 18C2.47785 18 1.87785 17.53 1.34785 16.87C0.247854 15.52 2.04785 14.44 2.72785 13.91C3.42785 13.37 4.20785 13.07 4.99785 13M5.49785 11C4.11785 11 2.99785 9.88 2.99785 8.5C2.99785 7.12 4.11785 6 5.49785 6" stroke="#141414" stroke-width="1.5" stroke-linecap="round"/>
<path d="M8.07782 15.11C7.05782 15.74 4.37782 17.03 6.00782 18.65C6.80782 19.44 7.68783 20 8.80783 20H15.1778C16.2978 20 17.1778 19.44 17.9778 18.65C19.6078 17.04 16.9278 15.75 15.9078 15.11C13.5078 13.63 10.4678 13.63 8.07782 15.11Z" stroke="#141414" stroke-width="1.5" stroke-linecap="round" stroke-linejoin="round"/>
<path d="M15.498 7.5C15.498 9.43 13.928 11 11.998 11C10.068 11 8.49805 9.43 8.49805 7.5C8.49805 5.57 10.068 4 11.998 4C13.928 4 15.498 5.57 15.498 7.5Z" stroke="#141414" stroke-width="1.5"/>
</svg>
