<svg width="24" height="24" viewBox="0 0 24 24" fill="none" xmlns="http://www.w3.org/2000/svg">
<path d="M10.6336 11H9.54198C9.24427 11 9 11.2443 9 11.542V13.4504C9 15.1069 10.3435 16.4504 12 16.4504C13.6565 16.4504 15 15.1069 15 13.4504V11.542C15 11.2443 14.7557 11 14.458 11H13.3664" stroke="#141414" stroke-width="1.5" stroke-linecap="round" stroke-linejoin="round"/>
<path d="M18.8904 17.71V18.6C18.8904 20.47 17.3704 21.99 15.5004 21.99C13.6304 21.99 12.1104 20.47 12.1104 18.6V16.5" stroke="#141414" stroke-width="1.5" stroke-linecap="round" stroke-linejoin="round"/>
<path d="M20.32 16.2801C20.32 17.0701 19.68 17.7101 18.89 17.7101C18.1 17.7101 17.46 17.0701 17.46 16.2801C17.46 15.4901 18.1 14.8501 18.89 14.8501C19.68 14.8501 20.32 15.4901 20.32 16.2801Z" stroke="#141414" stroke-width="1.5"/>
<path d="M8.15 4.18995C7.43334 4.18995 6.71667 4.18995 6.00001 4.18995C4.89544 4.18995 4 5.08538 4 6.18995V19.1099C4 20.2145 4.89543 21.1099 6 21.1099C7.36 21.1099 8.72 21.1099 10.08 21.1099" stroke="#141414" stroke-width="1.5" stroke-linecap="round" stroke-linejoin="round"/>
<path d="M19.0104 12.1V6.19013C19.0104 5.08549 18.1148 4.19002 17.0102 4.19002C16.2936 4.19002 15.577 4.19 14.8604 4.19" stroke="#141414" stroke-width="1.5" stroke-linecap="round" stroke-linejoin="round"/>
<path d="M13.9903 2H9.00969C8.72819 2 8.5 2.22109 8.5 2.49381V5.00619C8.5 5.27891 8.72819 5.5 9.00969 5.5H13.9903C14.2718 5.5 14.5 5.27891 14.5 5.00619V2.49381C14.5 2.22109 14.2718 2 13.9903 2Z" stroke="#141414" stroke-width="1.5" stroke-linecap="round" stroke-linejoin="round"/>
</svg>
