<svg width="24" height="24" viewBox="0 0 24 24" fill="none" xmlns="http://www.w3.org/2000/svg">
<path d="M3.12012 8.21014H7.76012C8.51012 8.21014 9.12012 7.59014 9.12012 6.83014V2.14014" stroke="#141414" stroke-width="1.5" stroke-linecap="round" stroke-linejoin="round"/>
<path d="M20 11.45V3.76C20 2.24 18.78 2 17.28 2H9.68C9.32 2 8.97 2.14 8.72 2.4L3.4 7.8C3.14 8.06 3 8.41 3 8.78V19.24C3 20.76 4.22 22 5.72 22H10" stroke="#141414" stroke-width="1.5" stroke-linecap="round" stroke-linejoin="round"/>
<path d="M19.9998 21.9998L16.5898 18.5898" stroke="#141414" stroke-width="1.5" stroke-linecap="round" stroke-linejoin="round"/>
<path d="M13.5598 19.85C15.9298 19.85 17.8598 17.93 17.8598 15.55C17.8598 13.17 15.9398 11.25 13.5598 11.25C11.1798 11.25 9.25977 13.17 9.25977 15.55C9.25977 17.93 11.1798 19.85 13.5598 19.85Z" stroke="#141414" stroke-width="1.5" stroke-linecap="round" stroke-linejoin="round"/>
<path d="M15.5098 4.96997V7.66997" stroke="#141414" stroke-width="1.5" stroke-linecap="round" stroke-linejoin="round"/>
<path d="M16.8599 6.31982H14.1699" stroke="#141414" stroke-width="1.5" stroke-linecap="round" stroke-linejoin="round"/>
</svg>
