<svg width="24" height="24" viewBox="0 0 24 24" fill="none" xmlns="http://www.w3.org/2000/svg">
<path d="M12 4.5V6M12 6V7.5M12 6H13.5M12 6H10.5" stroke="#141414" stroke-width="1.5" stroke-linecap="round"/>
<path d="M8.59 2.59C8 3.18 8 4.12 8 6C8 7.88 8 8.83 8.59 9.41C9.18 10 10.12 10 12 10C13.88 10 14.83 10 15.41 9.41C16 8.82 16 7.88 16 6C16 4.12 16 3.17 15.41 2.59C14.82 2 13.88 2 12 2C10.12 2 9.17 2 8.59 2.59Z" stroke="#141414" stroke-width="1.5" stroke-linecap="round" stroke-linejoin="round"/>
<path d="M16 5H18C19.1046 5 20 5.89543 20 7V22" stroke="#141414" stroke-width="1.5" stroke-linecap="round" stroke-linejoin="round"/>
<path d="M4 22V7C4 5.89543 4.89543 5 6 5H8" stroke="#141414" stroke-width="1.5" stroke-linecap="round" stroke-linejoin="round"/>
<path d="M3 22H21" stroke="#141414" stroke-width="1.5" stroke-linecap="round" stroke-linejoin="round"/>
<path d="M9.5 22V19.5C9.5 18.57 9.5 18.1 9.7 17.75C9.83 17.52 10.02 17.33 10.25 17.2C10.6 17 11.07 17 12 17C12.93 17 13.4 17 13.75 17.2C13.98 17.33 14.17 17.52 14.3 17.75C14.5 18.1 14.5 18.57 14.5 19.5V22" stroke="#141414" stroke-width="1.5" stroke-linecap="round"/>
<path d="M7.97988 14H7.87988" stroke="#141414" stroke-width="1.5" stroke-linecap="round" stroke-linejoin="round"/>
<path d="M12.0805 14H11.9805" stroke="#141414" stroke-width="1.5" stroke-linecap="round" stroke-linejoin="round"/>
<path d="M16.1801 14H16.0801" stroke="#141414" stroke-width="1.5" stroke-linecap="round" stroke-linejoin="round"/>
</svg>
