<svg width="24" height="24" viewBox="0 0 24 24" fill="none" xmlns="http://www.w3.org/2000/svg">
<path d="M20.1853 12.9989C21.8453 15.8689 20.8553 19.5389 17.9853 21.1989C15.1153 22.8589 11.4453 21.8689 9.78526 18.9989C8.13526 16.1289 9.11526 12.4589 11.9853 10.7989C14.8553 9.14893 18.5253 10.1289 20.1853 12.9989ZM20.1853 12.9989L9.79526 18.9989" stroke="#141414" stroke-width="1.5"/>
<path d="M10.0349 5.53897L15.1249 2.53897C16.9949 1.42897 19.3949 2.08897 20.4749 4.00897C21.3449 5.54897 21.1049 7.42897 20.0049 8.68897M10.0349 5.53897L4.95489 8.53897C3.08489 9.64897 2.44489 12.099 3.52489 14.009C4.17489 15.159 5.29489 15.859 6.49489 15.989M10.0349 5.53897L11.4949 7.99897" stroke="#141414" stroke-width="1.5" stroke-linecap="round" stroke-linejoin="round"/>
</svg>
