<svg width="24" height="24" viewBox="0 0 24 24" fill="none" xmlns="http://www.w3.org/2000/svg">
<path d="M14.2102 22.0907C14.9902 19.2907 15.8002 16.0207 15.8202 14.4107C15.8802 10.6207 13.9502 8.2207 13.9502 8.2207" stroke="#141414" stroke-width="1.5" stroke-linecap="round"/>
<path d="M16.4502 6.94067C16.4502 6.94067 17.7202 9.28067 20.0902 8.56067C20.5602 8.42067 21.0602 8.62067 21.2502 9.07067L22.0402 11.0207C22.1802 11.3707 22.1002 11.7707 21.8202 12.0307C20.9202 12.8507 19.3702 13.3907 17.4902 19.9807C17.2502 20.8107 17.0402 21.5507 16.8502 22.2007" stroke="#141414" stroke-width="1.5" stroke-linecap="round" stroke-linejoin="round"/>
<path d="M17.1197 4.54063C17.7697 5.71063 16.7097 6.72063 15.1797 7.57063C13.6497 8.42063 12.2297 8.78063 11.5797 7.61063C10.9297 6.44063 11.2997 4.19063 12.8297 3.34063C14.3597 2.49063 16.4697 3.36063 17.1197 4.53063V4.54063Z" stroke="#141414" stroke-width="1.5" stroke-linecap="round"/>
<path d="M9.15926 18.0207C10.91 18.0207 12.3293 16.6014 12.3293 14.8507C12.3293 13.0999 10.91 11.6807 9.15926 11.6807C7.40851 11.6807 5.98926 13.0999 5.98926 14.8507C5.98926 16.6014 7.40851 18.0207 9.15926 18.0207Z" stroke="#141414" stroke-width="1.5" stroke-linecap="round" stroke-linejoin="round"/>
<path d="M3.18945 21.9508L7.11945 17.2808" stroke="#141414" stroke-width="1.5" stroke-linecap="round" stroke-linejoin="round"/>
<path d="M6.95965 20.8507L5.29965 19.4507L3.88965 21.1307L5.02965 22.0907" stroke="#141414" stroke-width="1.5" stroke-linecap="round" stroke-linejoin="round"/>
<path d="M3 3.60059L7.76 8.36059" stroke="#141414" stroke-width="1.5" stroke-linecap="round" stroke-linejoin="round"/>
<path d="M7.76 3.60059L3 8.36059" stroke="#141414" stroke-width="1.5" stroke-linecap="round" stroke-linejoin="round"/>
</svg>
