<svg width="24" height="24" viewBox="0 0 24 24" fill="none" xmlns="http://www.w3.org/2000/svg">
<path d="M13.7107 10.4272C13.7107 10.4272 13.7212 10.3325 13.7212 10.2799C13.616 8.19674 12.8795 2 12.8795 2H4.84166C4.84166 2 4.10521 8.20726 4 10.2799C4 10.2799 4.01052 10.3745 4.01052 10.4272C3.96844 12.6891 5.66228 14.5723 7.84009 15.0353C8.16623 15.1089 8.51342 15.151 8.8606 15.151C9.20779 15.151 9.55498 15.1089 9.88112 15.0353C12.0589 14.5723 13.7528 12.6891 13.7107 10.4272Z" stroke="#141414" stroke-width="1.5" stroke-linecap="round" stroke-linejoin="round"/>
<path d="M4.76758 21.979C5.63028 20.6323 7.14528 19.738 8.86016 19.738C10.5751 19.738 12.1111 20.6428 12.9738 22H4.76758" stroke="#141414" stroke-width="1.5" stroke-linecap="round" stroke-linejoin="round"/>
<path d="M8.86035 19.7379V15.1509" stroke="#141414" stroke-width="1.5" stroke-linecap="round" stroke-linejoin="round"/>
<path d="M4 10.2798H13.7107" stroke="#141414" stroke-width="1.5" stroke-linecap="round" stroke-linejoin="round"/>
<path d="M16.1934 14.8774L20.5595 19.2436" stroke="#141414" stroke-width="1.5" stroke-linecap="round" stroke-linejoin="round"/>
<path d="M20.5595 14.8774L16.1934 19.2436" stroke="#141414" stroke-width="1.5" stroke-linecap="round" stroke-linejoin="round"/>
</svg>
