<svg width="24" height="24" viewBox="0 0 24 24" fill="none" xmlns="http://www.w3.org/2000/svg">
<path d="M12 13.842C10.0134 13.6564 7.97752 14.0869 6.21981 15.1335C4.94652 15.8916 1.60803 17.4397 3.64139 19.377C4.63468 20.3232 5.74094 21 7.13178 21H12.9" stroke="#141414" stroke-width="1.5" stroke-linecap="round" stroke-linejoin="round"/>
<path d="M15.1498 7.05C15.1498 9.28675 13.3366 11.1 11.0998 11.1C8.86305 11.1 7.0498 9.28675 7.0498 7.05C7.0498 4.81325 8.86305 3 11.0998 3C13.3366 3 15.1498 4.81325 15.1498 7.05Z" stroke="#141414" stroke-width="1.5"/>
<path d="M21.0002 16.95V14.7C19.2002 14.7 17.8502 13.8 17.8502 13.8C17.8502 13.8 16.5002 14.7 14.7002 14.7V16.95C14.7002 20.1 17.8502 21 17.8502 21C17.8502 21 21.0002 20.1 21.0002 16.95Z" stroke="#141414" stroke-width="1.5" stroke-linecap="round" stroke-linejoin="round"/>
</svg>
