<svg width="24" height="24" viewBox="0 0 24 24" fill="none" xmlns="http://www.w3.org/2000/svg">
<path d="M5 4.94814V18.4281C5 18.8781 5.3 19.2681 5.73 19.3881L12.73 21.3281C13.37 21.5081 14 21.0281 14 20.3681V2.99814C14 2.33814 13.37 1.85814 12.73 2.03814L5.73 3.97814C5.3 4.09814 5 4.48814 5 4.93814V4.94814Z" stroke="#141414" stroke-width="1.5" stroke-linecap="round" stroke-linejoin="round"/>
<path d="M17.94 5.77822V3.67822H14V19.6782H19" stroke="#141414" stroke-width="1.5" stroke-linecap="round" stroke-linejoin="round"/>
<path d="M11 12.6782V10.6782" stroke="#141414" stroke-width="1.5" stroke-linecap="round" stroke-linejoin="round"/>
<path d="M19 19.6782H22" stroke="#141414" stroke-width="1.5" stroke-linecap="round" stroke-linejoin="round"/>
<path d="M2 19.6782H6.5" stroke="#141414" stroke-width="1.5" stroke-linecap="round" stroke-linejoin="round"/>
<path d="M20.6094 9.4082H17.1094" stroke="#141414" stroke-width="1.5" stroke-linecap="round" stroke-linejoin="round"/>
<path d="M20.6094 11.8782H17.1094" stroke="#141414" stroke-width="1.5" stroke-linecap="round" stroke-linejoin="round"/>
<path d="M20.3096 16.9082L17.0996 14.3082H17.5396C20.4996 14.3082 20.4996 9.4082 17.5396 9.4082" stroke="#141414" stroke-width="1.5" stroke-linecap="round" stroke-linejoin="round"/>
</svg>
