<svg width="24" height="24" viewBox="0 0 24 24" fill="none" xmlns="http://www.w3.org/2000/svg">
<path d="M19.9195 14.4472V9.36719H15.0195V19.5172C15.0195 20.8672 16.1195 21.9672 17.4695 21.9672C17.9895 21.9672 18.4695 21.8072 18.8695 21.5272" stroke="#141414" stroke-width="1.5" stroke-linecap="round"/>
<path d="M16.0695 21.5428C16.4695 21.8228 16.9495 21.9828 17.4695 21.9828C18.8195 21.9828 19.9195 20.8828 19.9195 19.5328V9.38281H15.0195V14.4628" stroke="#141414" stroke-width="1.5" stroke-linecap="round"/>
<path d="M14.3203 9.38281H20.6203" stroke="#141414" stroke-width="1.5" stroke-linecap="round"/>
<path d="M19.9195 14.6305C19.1595 14.0205 18.3095 14.1905 17.2795 14.8105C16.4195 15.3305 15.6995 14.7805 15.0195 14.2805" stroke="#141414" stroke-width="1.5" stroke-linecap="round"/>
<path d="M14.3301 4H15.6701C17.1401 4 18.3301 5.2 18.3301 6.67" stroke="#141414" stroke-width="1.5" stroke-linecap="round" stroke-linejoin="round"/>
<path d="M12.26 22H5.67C4.19 22 3 20.81 3 19.34V6.67C3 5.2 4.19 4 5.67 4H7" stroke="#141414" stroke-width="1.5" stroke-linecap="round" stroke-linejoin="round"/>
<path d="M13 2H8.33C7.59 2 7 2.6 7 3.33V4.66C7 5.4 7.6 5.99 8.33 5.99H13C13.74 5.99 14.33 5.39 14.33 4.66V3.33C14.33 2.59 13.73 2 13 2Z" stroke="#141414" stroke-width="1.5" stroke-linecap="round" stroke-linejoin="round"/>
<path d="M6.80859 12.2031H11.2686" stroke="#141414" stroke-width="1.5" stroke-linecap="round" stroke-linejoin="round"/>
<path d="M6.80859 16.2969H11.2686" stroke="#141414" stroke-width="1.5" stroke-linecap="round" stroke-linejoin="round"/>
</svg>
