<svg width="24" height="24" viewBox="0 0 24 24" fill="none" xmlns="http://www.w3.org/2000/svg">
<path d="M15.0205 11.1899C15.0205 12.8599 13.6705 14.2099 12.0005 14.2099C10.3305 14.2099 8.98047 12.8599 8.98047 11.1899C8.98047 9.51992 10.3305 8.16992 12.0005 8.16992C13.6705 8.16992 15.0205 9.51992 15.0205 11.1899Z" stroke="#141414" stroke-width="1.5"/>
<path d="M4.86035 21.62L5.48035 20.54C6.46035 18.83 8.28035 17.77 10.2504 17.77H13.7604C15.7304 17.77 17.5504 18.83 18.5304 20.54L19.1504 21.62" stroke="#141414" stroke-width="1.5" stroke-linecap="round" stroke-linejoin="round"/>
<path d="M18.45 15.88C20.38 13.89 21.99 11.2 21.99 7.87C21.99 4.54 19.53 2 16.5 2C14.87 2 13.41 2.76 12.4 3.96C12.26 4.13 12 4.5 12 4.5C12 4.5 11.74 4.13 11.6 3.96C10.59 2.76 9.13 2 7.5 2C4.46 2 2 4.63 2 7.86C2 11.19 3.61 13.88 5.54 15.87" stroke="#141414" stroke-width="1.5" stroke-linecap="round" stroke-linejoin="round"/>
</svg>
