<svg width="24" height="24" viewBox="0 0 24 24" fill="none" xmlns="http://www.w3.org/2000/svg">
<path d="M21 17.3333C19.5267 17.3333 18.3333 16.14 18.3333 14.6667V8.33333C18.3333 4.836 15.4973 2 12 2C8.50267 2 5.66667 4.836 5.66667 8.33333V14.6667C5.66667 16.14 4.47333 17.3333 3 17.3333H21Z" stroke="#141414" stroke-width="1.5" stroke-linecap="round" stroke-linejoin="round"/>
<path d="M14.1176 19.9134C13.991 19.7574 13.8016 19.6667 13.6003 19.6667H10.4016C10.2003 19.6667 10.011 19.7574 9.88431 19.9134C9.75765 20.0694 9.70831 20.2747 9.74965 20.4707C9.98031 21.5667 10.907 22.3334 12.0016 22.3334C13.0963 22.3334 14.023 21.5667 14.2536 20.4707C14.295 20.2747 14.2443 20.0694 14.1176 19.9134Z" fill="#141414"/>
</svg>
