<svg width="24" height="24" viewBox="0 0 24 24" fill="none" xmlns="http://www.w3.org/2000/svg">
<path d="M12.8573 16.1773L13.8933 15.308C14.1333 15.1067 14.4373 14.996 14.7506 14.996H16.1026C16.7493 14.996 17.304 14.532 17.416 13.8947L17.6506 12.5627C17.7053 12.2533 17.8666 11.9747 18.1066 11.7733L19.1426 10.904C19.6386 10.488 19.7639 9.776 19.4399 9.216L18.7639 8.044C18.6066 7.772 18.5506 7.45467 18.6053 7.14534L18.8399 5.81334C18.9519 5.176 18.5906 4.55067 17.9826 4.32934L16.712 3.86667C16.4173 3.76 16.1706 3.552 16.0133 3.28L15.3373 2.108C15.0133 1.548 14.3346 1.3 13.7266 1.52134L12.456 1.984C12.1613 2.09067 11.8386 2.09067 11.544 1.984L10.2733 1.52134C9.66528 1.3 8.98662 1.54667 8.66262 2.108L7.98662 3.28C7.82928 3.552 7.58262 3.75867 7.28795 3.86667L6.01729 4.32934C5.40929 4.55067 5.04795 5.176 5.15995 5.81334L5.39462 7.14534C5.44929 7.45467 5.39329 7.772 5.23595 8.044L4.55995 9.216C4.23595 9.776 4.36129 10.488 4.85729 10.904L5.89329 11.7733C6.13329 11.9747 6.29462 12.2547 6.34929 12.5627L6.58395 13.8947C6.69595 14.532 7.25062 14.996 7.89728 14.996H9.24928C9.56262 14.996 9.86662 15.1067 10.1066 15.308L11.1426 16.1773C11.6386 16.5933 12.3613 16.5933 12.8573 16.1773Z" stroke="#141414" stroke-width="1.5" stroke-linecap="round" stroke-linejoin="round"/>
<path d="M16.3337 18.3334V23L12.0003 19.6667L7.66699 23V18.3334" stroke="#141414" stroke-width="1.5" stroke-linecap="round" stroke-linejoin="round"/>
<path d="M11.9997 11.632C13.4724 11.632 14.6663 10.4381 14.6663 8.96537C14.6663 7.49261 13.4724 6.29871 11.9997 6.29871C10.5269 6.29871 9.33301 7.49261 9.33301 8.96537C9.33301 10.4381 10.5269 11.632 11.9997 11.632Z" stroke="#141414" stroke-width="1.5" stroke-linecap="round" stroke-linejoin="round"/>
</svg>
