<svg width="24" height="24" viewBox="0 0 24 24" fill="none" xmlns="http://www.w3.org/2000/svg">
<path d="M9.66686 5H4.7002" stroke="#141414" stroke-width="1.5" stroke-linecap="round" stroke-linejoin="round"/>
<path d="M14.333 5H19.2997" stroke="#141414" stroke-width="1.5" stroke-linecap="round" stroke-linejoin="round"/>
<path d="M1.03333 12.3333C1.02267 12.4439 1 12.5519 1 12.6666C1 14.6919 2.64133 16.3333 4.66667 16.3333C6.692 16.3333 8.33333 14.6919 8.33333 12.6666C8.33333 12.5519 8.30933 12.4439 8.3 12.3333H1.03333Z" stroke="#141414" stroke-width="1.5" stroke-linecap="round" stroke-linejoin="round"/>
<path d="M22.967 12.3333C22.9777 12.4439 23.0003 12.5519 23.0003 12.6666C23.0003 14.6919 21.359 16.3333 19.3337 16.3333C17.3083 16.3333 15.667 14.6919 15.667 12.6666C15.667 12.5519 15.691 12.4439 15.7003 12.3333H22.967Z" stroke="#141414" stroke-width="1.5" stroke-linecap="round" stroke-linejoin="round"/>
<path d="M8.29987 12.3333L4.69987 5L1.0332 12.3333" stroke="#141414" stroke-width="1.5" stroke-linecap="round" stroke-linejoin="round"/>
<path d="M15.7002 12.3333L19.3002 5L22.9669 12.3333" stroke="#141414" stroke-width="1.5" stroke-linecap="round" stroke-linejoin="round"/>
<path d="M12.0003 7.33329C13.289 7.33329 14.3337 6.28862 14.3337 4.99996C14.3337 3.7113 13.289 2.66663 12.0003 2.66663C10.7117 2.66663 9.66699 3.7113 9.66699 4.99996C9.66699 6.28862 10.7117 7.33329 12.0003 7.33329Z" stroke="#141414" stroke-width="1.5" stroke-linecap="round" stroke-linejoin="round"/>
<path d="M12 7.33325V20.9999" stroke="#141414" stroke-width="1.5" stroke-linecap="round" stroke-linejoin="round"/>
<path d="M17.6663 21H6.33301" stroke="#141414" stroke-width="1.5" stroke-linecap="round" stroke-linejoin="round"/>
</svg>
