<svg width="24" height="24" viewBox="0 0 24 24" fill="none" xmlns="http://www.w3.org/2000/svg">
<path d="M20.02 2C18.91 2 18 4.69 18 8H20.02C20.99 8 21.48 8 21.78 7.66C22.08 7.32 22.03 6.88 21.92 6C21.64 3.67 20.9 2 20.02 2Z" stroke="#141414" stroke-width="1.5"/>
<path d="M18 8.05V18.64C18 20.15 18 20.91 17.54 21.21C16.79 21.7 15.62 20.68 15.03 20.31C14.54 20 14.3 19.85 14.03 19.84C13.74 19.84 13.49 19.98 12.97 20.31L11.06 21.52C10.54 21.85 10.29 22.01 10 22.01C9.71 22.01 9.46 21.85 8.94 21.52L7.03 20.31C6.55 20 6.3 19.85 6.03 19.84C5.74 19.84 5.49 19.98 4.97 20.31C4.38 20.68 3.22 21.7 2.46 21.21C2 20.91 2 20.16 2 18.64V8.05C2 5.2 2 3.77 2.88 2.89C3.76 2 5.17 2 8 2H20" stroke="#141414" stroke-width="1.5" stroke-linecap="round" stroke-linejoin="round"/>
<path d="M8.88047 8C9.76047 8 10.7405 8.86 10.6805 10.33C10.6205 11.74 9.78047 12.33 7.98047 12.33L10.9805 15" stroke="#141414" stroke-width="1.5" stroke-linecap="round" stroke-linejoin="round"/>
<path d="M7.98047 10.21H11.8205" stroke="#141414" stroke-width="1.5" stroke-linecap="round" stroke-linejoin="round"/>
<path d="M7.98047 8H11.8805" stroke="#141414" stroke-width="1.5" stroke-linecap="round" stroke-linejoin="round"/>
</svg>
