<svg width="24" height="24" viewBox="0 0 24 24" fill="none" xmlns="http://www.w3.org/2000/svg">
<path d="M12.0004 20.068C12.227 20.068 12.4524 20.008 12.659 19.8893C13.5164 19.3946 14.9684 18.76 16.847 18.7626C18.0457 18.764 19.0697 19.0253 19.8737 19.3426C20.7377 19.6826 21.6657 19.0226 21.6657 18.0933V5.98264C21.6657 5.51064 21.4244 5.07597 21.0177 4.83597C20.1684 4.33464 18.7164 3.6853 16.831 3.6853C14.311 3.6853 12.567 4.84797 11.999 5.2613" stroke="#141414" stroke-width="1.5" stroke-linecap="round" stroke-linejoin="round"/>
<path d="M12.0003 20.0679C11.7736 20.0679 11.5483 20.0079 11.3416 19.8892C10.4843 19.3945 9.03229 18.7599 7.15363 18.7625C5.95496 18.7639 4.93096 19.0252 4.12696 19.3425C3.26296 19.6825 2.33496 19.0265 2.33496 18.0985C2.33496 14.6412 2.33496 8.13586 2.33496 5.97852C2.33496 5.50652 2.57629 5.07719 2.98296 4.83719C3.83229 4.33586 5.28429 3.68652 7.16963 3.68652C9.68963 3.68652 11.4336 4.84919 12.0016 5.26252V20.0679H12.0003Z" stroke="#141414" stroke-width="1.5" stroke-linecap="round" stroke-linejoin="round"/>
</svg>
