<svg width="24" height="24" viewBox="0 0 24 24" fill="none" xmlns="http://www.w3.org/2000/svg">
<path d="M19 10.5899V15.0099C19 18.3099 19 19.9599 17.97 20.9799C16.94 22.0099 15.29 22.0099 12 22.0099C8.71 22.0099 7.05 22.0099 6.03 20.9799C5 19.9499 5 18.2999 5 15.0099V9.00989C5 5.70989 5 4.05989 6.03 3.03989C7.05 2.00989 8.7 2.00989 12 2.00989C15.3 2.00989 16.95 2.00989 17.97 3.03989C18.82 3.88989 18.97 5.16989 18.99 7.44989" stroke="#141414" stroke-width="1.5" stroke-linecap="round"/>
<path d="M11 19.0099H13" stroke="#141414" stroke-width="1.5" stroke-linecap="round" stroke-linejoin="round"/>
<path d="M9 2.00988L9.09 2.53988C9.29 3.74988 9.4 4.31988 9.83 4.66988C10.24 4.99988 10.83 4.99988 12 4.99988C13.17 4.99988 13.81 4.98988 14.22 4.61988C14.62 4.26988 14.71 3.68988 14.91 2.52988L15 1.99988" stroke="#141414" stroke-width="1.5" stroke-linejoin="round"/>
<path d="M18.9999 10.6799L17.1599 13.5199L13.7199 12.1499L12.7299 14.6699L10.6699 14.3799" stroke="#141414" stroke-width="1.5" stroke-linecap="round"/>
</svg>
