<svg width="24" height="24" viewBox="0 0 24 24" fill="none" xmlns="http://www.w3.org/2000/svg">
<path d="M7.66699 3.66667V1" stroke="#141414" stroke-width="1.5" stroke-linecap="round" stroke-linejoin="round"/>
<path d="M16.333 3.66667V1" stroke="#141414" stroke-width="1.5" stroke-linecap="round" stroke-linejoin="round"/>
<path d="M18.3333 3.66663H5.66667C4.19391 3.66663 3 4.86053 3 6.33329V17.6666C3 19.1394 4.19391 20.3333 5.66667 20.3333H18.3333C19.8061 20.3333 21 19.1394 21 17.6666V6.33329C21 4.86053 19.8061 3.66663 18.3333 3.66663Z" stroke="#141414" stroke-width="1.5" stroke-linecap="round" stroke-linejoin="round"/>
<path d="M3 8.33337H21" stroke="#141414" stroke-width="1.5" stroke-linecap="round" stroke-linejoin="round"/>
<path d="M12.0003 11C11.2657 11 10.667 11.5987 10.667 12.3333C10.667 13.068 11.2657 13.6667 12.0003 13.6667C12.735 13.6667 13.3337 13.068 13.3337 12.3333C13.3337 11.5987 12.735 11 12.0003 11Z" fill="#141414"/>
<path d="M16.6663 13.6667C17.401 13.6667 17.9997 13.068 17.9997 12.3333C17.9997 11.5987 17.401 11 16.6663 11C15.9317 11 15.333 11.5987 15.333 12.3333C15.333 13.068 15.9317 13.6667 16.6663 13.6667Z" fill="#141414"/>
<path d="M12.0003 15C11.2657 15 10.667 15.5987 10.667 16.3333C10.667 17.068 11.2657 17.6667 12.0003 17.6667C12.735 17.6667 13.3337 17.068 13.3337 16.3333C13.3337 15.5987 12.735 15 12.0003 15Z" fill="#141414"/>
<path d="M7.33333 15C6.59867 15 6 15.5987 6 16.3333C6 17.068 6.59867 17.6667 7.33333 17.6667C8.068 17.6667 8.66667 17.068 8.66667 16.3333C8.66667 15.5987 8.068 15 7.33333 15Z" fill="#141414"/>
<path d="M7.33333 11C6.59867 11 6 11.5987 6 12.3333C6 13.068 6.59867 13.6667 7.33333 13.6667C8.068 13.6667 8.66667 13.068 8.66667 12.3333C8.66667 11.5987 8.068 11 7.33333 11Z" fill="#141414"/>
</svg>
