<svg width="24" height="24" viewBox="0 0 24 24" fill="none" xmlns="http://www.w3.org/2000/svg">
<path d="M18.9997 6.66667H15.9997L15.3237 4.86533C15.129 4.34533 14.6317 4 14.0757 4H9.92367C9.36767 4 8.87034 4.34533 8.67567 4.86533L7.99967 6.66667H4.99967C3.52634 6.66667 2.33301 7.86 2.33301 9.33333V18C2.33301 19.4733 3.52634 20.6667 4.99967 20.6667H18.9997C20.473 20.6667 21.6663 19.4733 21.6663 18V9.33333C21.6663 7.86 20.473 6.66667 18.9997 6.66667Z" stroke="#141414" stroke-width="1.5" stroke-linecap="round" stroke-linejoin="round"/>
<path d="M11.9997 17.3333C14.0247 17.3333 15.6663 15.6917 15.6663 13.6667C15.6663 11.6416 14.0247 10 11.9997 10C9.97463 10 8.33301 11.6416 8.33301 13.6667C8.33301 15.6917 9.97463 17.3333 11.9997 17.3333Z" stroke="#141414" stroke-width="1.5" stroke-linecap="round" stroke-linejoin="round"/>
<path d="M5.66602 11C6.2183 11 6.66602 10.5523 6.66602 10C6.66602 9.44772 6.2183 9 5.66602 9C5.11373 9 4.66602 9.44772 4.66602 10C4.66602 10.5523 5.11373 11 5.66602 11Z" fill="#141414"/>
</svg>
