<svg width="24" height="24" viewBox="0 0 24 24" fill="none" xmlns="http://www.w3.org/2000/svg">
<path d="M22 8.50195V5.00195C22 4.47152 21.7893 3.96281 21.4142 3.58774C21.0391 3.21267 20.5304 3.00195 20 3.00195H4C3.46957 3.00195 2.96086 3.21267 2.58579 3.58774C2.21071 3.96281 2 4.47152 2 5.00195V21.288C2.00002 21.4284 2.04167 21.5656 2.11969 21.6824C2.1977 21.7991 2.30858 21.8901 2.43831 21.9438C2.56803 21.9976 2.71077 22.0116 2.84849 21.9842C2.9862 21.9568 3.1127 21.8892 3.212 21.79L5.414 19.588C5.78899 19.2129 6.29761 19.0021 6.828 19.002H10" stroke="black" stroke-width="1.5" stroke-linecap="round" stroke-linejoin="round"/>
<path d="M17 13.3334V15.1667L18.3333 16" stroke="#141414" stroke-width="1.5" stroke-linecap="round" stroke-linejoin="round"/>
<path d="M17 20C19.7614 20 22 17.7614 22 15C22 12.2386 19.7614 10 17 10C14.2386 10 12 12.2386 12 15C12 17.7614 14.2386 20 17 20Z" stroke="#141414" stroke-width="1.5" stroke-linecap="round" stroke-linejoin="round"/>
</svg>
