<svg width="24" height="24" viewBox="0 0 24 24" fill="none" xmlns="http://www.w3.org/2000/svg">
<path d="M19.431 5.23608C19.0123 4.31075 18.0817 3.66675 17.0003 3.66675H15.667" stroke="#141414" stroke-width="1.5" stroke-linecap="round" stroke-linejoin="round"/>
<path d="M7.71289 21.6667H16.9996C18.4729 21.6667 19.6662 20.4734 19.6662 19V9.71338" stroke="#141414" stroke-width="1.5" stroke-linecap="round" stroke-linejoin="round"/>
<path d="M8.33301 3.66675H6.99967C5.52634 3.66675 4.33301 4.86008 4.33301 6.33341V19.0001C4.33301 19.3907 4.41701 19.7627 4.56901 20.0974" stroke="#141414" stroke-width="1.5" stroke-linecap="round" stroke-linejoin="round"/>
<path d="M14.333 1.66675H9.66634C8.92996 1.66675 8.33301 2.2637 8.33301 3.00008V4.33342C8.33301 5.06979 8.92996 5.66675 9.66634 5.66675H14.333C15.0694 5.66675 15.6663 5.06979 15.6663 4.33342V3.00008C15.6663 2.2637 15.0694 1.66675 14.333 1.66675Z" stroke="#141414" stroke-width="1.5" stroke-linecap="round" stroke-linejoin="round"/>
<path d="M3 21.6668L21.3333 3.3335" stroke="#141414" stroke-width="1.5" stroke-linecap="round" stroke-linejoin="round"/>
</svg>
