<svg width="24" height="24" viewBox="0 0 24 24" fill="none" xmlns="http://www.w3.org/2000/svg">
<path d="M17.9517 9.18808C17.7037 6.10275 15.149 3.66675 11.9997 3.66675C8.68634 3.66675 5.99967 6.35342 5.99967 9.66675C5.99967 10.1334 6.06501 10.5814 6.16501 11.0174C4.03567 11.1067 2.33301 12.8494 2.33301 15.0001C2.33301 17.2094 4.12367 19.0001 6.33301 19.0001H16.6663C19.4277 19.0001 21.6663 16.7614 21.6663 14.0001C21.6663 11.6854 20.0863 9.75742 17.9517 9.18808Z" stroke="#141414" stroke-width="1.5" stroke-linecap="round" stroke-linejoin="round"/>
<path d="M12.9395 10.6667C13.8555 9.644 15.1848 9 16.6661 9C17.1101 9 17.5421 9.07867 17.9515 9.188" stroke="#141414" stroke-width="1.5" stroke-linecap="round" stroke-linejoin="round"/>
</svg>
