<svg width="24" height="24" viewBox="0 0 24 24" fill="none" xmlns="http://www.w3.org/2000/svg">
<path d="M8.43 13.32H4.57C3.64 13.32 2.73 13.01 2 12.45" stroke="#141414" stroke-width="1.5" stroke-linecap="round" stroke-linejoin="round"/>
<path d="M11.3103 8.11997C12.5103 7.20997 13.9803 6.64997 15.6103 6.61997C19.6803 6.51997 23.0503 9.69997 23.1503 13.73C23.2503 17.76 20.0403 21.1 15.9703 21.2C11.9003 21.3 8.53029 18.12 8.43029 14.09C8.41029 13.08 8.58029 12.12 8.94029 11.24" stroke="#141414" stroke-width="1.5" stroke-linecap="round" stroke-linejoin="round"/>
<path d="M2 3H9.83C10.75 3 11.63 3.36 12.28 4L14.94 6.61" stroke="#141414" stroke-width="1.5" stroke-linecap="round" stroke-linejoin="round"/>
<path d="M9.44016 6.37012L12.3202 9.22012C13.0202 9.91012 13.0202 11.0401 12.3202 11.7301C11.6202 12.4201 10.4802 12.4201 9.78016 11.7301L7.84016 9.81012C7.27016 10.3601 6.49016 10.6901 5.63016 10.6901C4.77016 10.6901 3.98016 10.3501 3.41016 9.79012" stroke="#141414" stroke-width="1.5" stroke-linecap="round" stroke-linejoin="round"/>
<path d="M17.8204 11.0801L13.6104 16.7401" stroke="#141414" stroke-width="1.5" stroke-linecap="round" stroke-linejoin="round"/>
<circle cx="13.3604" cy="11.54" r="1.25" fill="#141414"/>
<circle cx="18.21" cy="16.28" r="1.25" fill="#141414"/>
</svg>
