<svg width="24" height="24" viewBox="0 0 24 24" fill="none" xmlns="http://www.w3.org/2000/svg">
<path d="M16.5869 3.74756H21.1372" stroke="#141414" stroke-width="1.5" stroke-linecap="round" stroke-linejoin="round"/>
<path d="M3 3.74756H12.857" stroke="#141414" stroke-width="1.5" stroke-linecap="round" stroke-linejoin="round"/>
<path d="M16.5545 13.4874V9.99215M16.5545 9.99215V3.74762C16.5545 2.7779 15.7766 2 14.8175 2C13.8584 2 13.0805 2.78856 13.0805 3.74762V9.00112L10.0222 9.48065C8.10409 9.76837 7.14503 9.91755 6.47369 10.3225C5.35479 10.9938 4.54492 12.0062 4.54492 13.4767C4.54492 14.4997 4.80067 15.1924 5.40807 17.0359C5.80235 18.2081 5.99416 18.7942 6.31385 19.263C6.836 20.0303 7.60325 20.5844 8.49837 20.8402C9.04184 21 9.64924 21 10.8854 21H12.2813C14.0609 21 14.9454 21 15.702 20.6697C16.043 20.5205 16.3626 20.318 16.661 20.0729C17.3004 19.5401 17.6947 18.7409 18.4939 17.1425C19.1333 15.8531 19.4636 15.203 19.4743 14.5317C19.4743 14.2333 19.4423 13.9243 19.357 13.6366C19.1759 12.9865 18.6964 12.4431 17.748 11.3561L16.5651 10.0028L16.5545 9.99215Z" stroke="#141414" stroke-width="1.5" stroke-linecap="round" stroke-linejoin="round"/>
</svg>
