<svg width="24" height="24" viewBox="0 0 24 24" fill="none" xmlns="http://www.w3.org/2000/svg">
<path d="M5.50977 7.91H9.92977C10.6398 7.91 11.2298 7.32 11.2298 6.6V2.13" stroke="#141414" stroke-width="1.5" stroke-linecap="round" stroke-linejoin="round"/>
<path d="M13.9796 21.05H18.9896C20.4196 21.05 21.5796 19.87 21.5796 18.42V4.68C21.5796 3.23 20.4196 2 18.9896 2H11.7496C11.4096 2 11.0696 2.13 10.8396 2.38L5.76965 7.52C5.51965 7.77 5.38965 8.1 5.38965 8.45V13.44" stroke="#141414" stroke-width="1.5" stroke-linecap="round" stroke-linejoin="round"/>
<path d="M13.5898 11.53H17.6298" stroke="#141414" stroke-width="1.5" stroke-linecap="round" stroke-linejoin="round"/>
<path d="M15.6104 7H17.6304" stroke="#141414" stroke-width="1.5" stroke-linecap="round" stroke-linejoin="round"/>
<path d="M7.53 22.07C10.0318 22.07 12.06 20.0419 12.06 17.54C12.06 15.0382 10.0318 13.01 7.53 13.01C5.02815 13.01 3 15.0382 3 17.54C3 20.0419 5.02815 22.07 7.53 22.07Z" stroke="#141414" stroke-width="1.5" stroke-linecap="round" stroke-linejoin="round"/>
<path d="M6 17.3863L7 18.5L9 16.5" stroke="#141414" stroke-width="1.5" stroke-linecap="round" stroke-linejoin="round"/>
</svg>
