<svg width="24" height="24" viewBox="0 0 24 24" fill="none" xmlns="http://www.w3.org/2000/svg">
<path d="M6.77051 4.61596C8.17317 3.40129 10.0025 2.66663 11.9998 2.66663C16.4118 2.66663 19.9998 6.25463 19.9998 10.6666C19.9998 13.7426 19.5158 16.4973 18.6825 18.9506" stroke="#141414" stroke-width="1.5" stroke-linecap="round" stroke-linejoin="round"/>
<path d="M2.54395 15.6039C3.93061 13.3479 3.99995 11.0932 3.99995 10.6666C3.99995 9.45058 4.27195 8.29725 4.75995 7.26392" stroke="#141414" stroke-width="1.5" stroke-linecap="round" stroke-linejoin="round"/>
<path d="M15.8269 13.5226C15.4563 16.5012 14.5163 19.0692 13.2256 21.2639" stroke="#141414" stroke-width="1.5" stroke-linecap="round" stroke-linejoin="round"/>
<path d="M5.16309 18.8533C6.79509 16.8813 8.00042 14.2213 8.00042 10.6666C8.00042 8.45729 9.79109 6.66663 12.0004 6.66663C14.0324 6.66663 15.7111 8.18263 15.9671 10.144" stroke="#141414" stroke-width="1.5" stroke-linecap="round" stroke-linejoin="round"/>
<path d="M8.73438 20.824C10.633 18.3253 11.9997 15.016 11.9997 10.6666" stroke="#141414" stroke-width="1.5" stroke-linecap="round" stroke-linejoin="round"/>
</svg>
