<svg width="24" height="24" viewBox="0 0 24 24" fill="none" xmlns="http://www.w3.org/2000/svg">
<path d="M3 10.3334V6.33341C3 4.86008 4.19333 3.66675 5.66667 3.66675H8.268C9.07733 3.66675 9.84133 4.03341 10.348 4.66408L11.152 5.66675H18.3333C19.8067 5.66675 21 6.86008 21 8.33341V10.3334" stroke="#141414" stroke-width="1.5" stroke-linecap="round" stroke-linejoin="round"/>
<path d="M3.60282 10.3335H20.3975C21.7121 10.3335 22.6681 11.5788 22.3295 12.8482L20.8615 18.3535C20.5508 19.5215 19.4935 20.3335 18.2855 20.3335H5.71615C4.50815 20.3335 3.45082 19.5215 3.14015 18.3535L1.67215 12.8482C1.33349 11.5788 2.29082 10.3335 3.60415 10.3335H3.60282Z" stroke="#141414" stroke-width="1.5" stroke-linecap="round" stroke-linejoin="round"/>
</svg>
