<svg width="24" height="24" viewBox="0 0 24 24" fill="none" xmlns="http://www.w3.org/2000/svg">
<path d="M12 7V21.6667" stroke="#141414" stroke-width="1.5" stroke-linecap="round" stroke-linejoin="round"/>
<path d="M5 4.66671C5 3.37871 6.04533 2.33337 7.33333 2.33337C10.7853 2.33337 12 7.00004 12 7.00004H7.33333C6.04533 7.00004 5 5.95471 5 4.66671Z" stroke="#141414" stroke-width="1.5" stroke-linecap="round" stroke-linejoin="round"/>
<path d="M16.6667 7.00004H12C12 7.00004 13.2147 2.33337 16.6667 2.33337C17.9547 2.33337 19 3.37871 19 4.66671C19 5.95471 17.9547 7.00004 16.6667 7.00004Z" stroke="#141414" stroke-width="1.5" stroke-linecap="round" stroke-linejoin="round"/>
<path d="M19 11V19C19 20.4733 17.8067 21.6667 16.3333 21.6667H7.66667C6.19333 21.6667 5 20.4733 5 19V11" stroke="#141414" stroke-width="1.5" stroke-linecap="round" stroke-linejoin="round"/>
<path d="M20.333 7H3.66634C2.92996 7 2.33301 7.59695 2.33301 8.33333V9.66667C2.33301 10.403 2.92996 11 3.66634 11H20.333C21.0694 11 21.6663 10.403 21.6663 9.66667V8.33333C21.6663 7.59695 21.0694 7 20.333 7Z" stroke="#141414" stroke-width="1.5" stroke-linecap="round" stroke-linejoin="round"/>
</svg>
