<svg width="24" height="24" viewBox="0 0 24 24" fill="none" xmlns="http://www.w3.org/2000/svg">
<path d="M5.92676 20.3026L13.4468 12.7812C14.4881 11.7399 16.1761 11.7399 17.2174 12.7812L20.3321 15.8959" stroke="#141414" stroke-width="1.5" stroke-linecap="round" stroke-linejoin="round"/>
<path d="M17.667 3.66663H6.33366C4.8609 3.66663 3.66699 4.86053 3.66699 6.33329V17.6666C3.66699 19.1394 4.8609 20.3333 6.33366 20.3333H17.667C19.1398 20.3333 20.3337 19.1394 20.3337 17.6666V6.33329C20.3337 4.86053 19.1398 3.66663 17.667 3.66663Z" stroke="#141414" stroke-width="1.5" stroke-linecap="round" stroke-linejoin="round"/>
<path d="M12.211 8.67726L10.527 8.11593L9.96569 6.43193C9.78302 5.88793 8.88302 5.88793 8.70036 6.43193L8.13902 8.11593L6.45502 8.67726C6.18302 8.76793 5.99902 9.02259 5.99902 9.30926C5.99902 9.59593 6.18302 9.85059 6.45502 9.94126L8.13902 10.5026L8.70036 12.1866C8.79102 12.4586 9.04702 12.6426 9.33369 12.6426C9.62036 12.6426 9.87502 12.4586 9.96702 12.1866L10.5284 10.5026L12.2124 9.94126C12.4844 9.85059 12.6684 9.59593 12.6684 9.30926C12.6684 9.02259 12.4844 8.76793 12.2124 8.67726H12.211Z" fill="#141414"/>
</svg>
