<svg width="24" height="24" viewBox="0 0 24 24" fill="none" xmlns="http://www.w3.org/2000/svg">
<path d="M10.3337 2.66675C9.41499 2.66675 8.66699 3.41475 8.66699 4.33341C8.66699 5.25208 9.41499 6.00008 10.3337 6.00008C11.2523 6.00008 12.0003 5.25208 12.0003 4.33341C12.0003 3.41475 11.2523 2.66675 10.3337 2.66675Z" fill="#141414"/>
<path d="M13.5919 9.12796L7.89457 16.8773C7.24657 17.7573 7.8759 19 8.96923 19H20.3639C21.4572 19 22.0852 17.7573 21.4386 16.8773L15.7412 9.12796C15.2079 8.40396 14.1239 8.40396 13.5919 9.12796Z" stroke="#141414" stroke-width="1.5" stroke-linecap="round" stroke-linejoin="round"/>
<path d="M10.3083 13.5933L7.47101 9.75463C7.07101 9.2133 6.26301 9.2133 5.86301 9.75463L2.17901 14.7386C1.69101 15.3986 2.16301 16.3333 2.98301 16.3333H8.29501" stroke="#141414" stroke-width="1.5" stroke-linecap="round" stroke-linejoin="round"/>
</svg>
