<svg width="24" height="24" viewBox="0 0 24 24" fill="none" xmlns="http://www.w3.org/2000/svg">
<path d="M8.78223 16.3241L15.7236 9.39076C16.2449 8.86942 17.0889 8.86942 17.6089 9.39076L21.6662 13.4481" stroke="#141414" stroke-width="1.5" stroke-linecap="round" stroke-linejoin="round"/>
<path d="M2.33301 9V17.6667C2.33301 19.14 3.52634 20.3333 4.99967 20.3333H16.333" stroke="#141414" stroke-width="1.5" stroke-linecap="round" stroke-linejoin="round"/>
<path d="M8.99935 16.3335H18.9993C20.4721 16.3335 21.666 15.1396 21.666 13.6668V6.3335C21.666 4.86074 20.4721 3.66683 18.9993 3.66683L8.99935 3.66683C7.52659 3.66683 6.33268 4.86074 6.33268 6.3335L6.33268 13.6668C6.33268 15.1396 7.52659 16.3335 8.99935 16.3335Z" stroke="#141414" stroke-width="1.5" stroke-linecap="round" stroke-linejoin="round"/>
<path d="M10.6663 9.33342C9.93167 9.33342 9.33301 8.73475 9.33301 8.00008C9.33301 7.26541 9.93167 6.66675 10.6663 6.66675C11.401 6.66675 11.9997 7.26541 11.9997 8.00008C11.9997 8.73475 11.401 9.33342 10.6663 9.33342Z" fill="#141414"/>
</svg>
