<svg width="24" height="24" viewBox="0 0 24 24" fill="none" xmlns="http://www.w3.org/2000/svg">
<path d="M5.0166 19.9852L13.1153 11.8852C14.1566 10.8439 15.8446 10.8439 16.8859 11.8852L20.3339 15.3332" stroke="#141414" stroke-width="1.5" stroke-linecap="round" stroke-linejoin="round"/>
<path d="M17.667 3.66663H6.33366C4.8609 3.66663 3.66699 4.86053 3.66699 6.33329V17.6666C3.66699 19.1394 4.8609 20.3333 6.33366 20.3333H17.667C19.1398 20.3333 20.3337 19.1394 20.3337 17.6666V6.33329C20.3337 4.86053 19.1398 3.66663 17.667 3.66663Z" stroke="#141414" stroke-width="1.5" stroke-linecap="round" stroke-linejoin="round"/>
<path d="M8.33366 11.3333C9.25413 11.3333 10.0003 10.5871 10.0003 9.66667C10.0003 8.74619 9.25413 8 8.33366 8C7.41318 8 6.66699 8.74619 6.66699 9.66667C6.66699 10.5871 7.41318 11.3333 8.33366 11.3333Z" fill="#141414"/>
</svg>
