<svg width="24" height="24" viewBox="0 0 24 24" fill="none" xmlns="http://www.w3.org/2000/svg">
<path d="M4.57484 6.33325H5.42551C6.12551 6.33325 6.70551 6.87325 6.75484 7.57192L7.56418 18.9052C7.61884 19.6772 7.00818 20.3332 6.23484 20.3332H3.76551C2.99218 20.3332 2.38018 19.6772 2.43618 18.9052L3.24551 7.57192C3.29484 6.87459 3.87618 6.33325 4.57484 6.33325Z" stroke="#141414" stroke-width="1.5" stroke-linecap="round" stroke-linejoin="round"/>
<path d="M5.33398 3.46404C5.74198 2.7867 6.48465 2.33337 7.33398 2.33337H9.66732C10.5953 2.33337 11.398 1.7907 11.7727 1.00537" stroke="#141414" stroke-width="1.5" stroke-linecap="round" stroke-linejoin="round"/>
<path d="M10.345 11.6281L14.9997 7.66675V13.3334L21.6664 7.66675V19.0001C21.6664 19.7361 21.069 20.3334 20.333 20.3334H6.23438" stroke="#141414" stroke-width="1.5" stroke-linecap="round" stroke-linejoin="round"/>
<path d="M17 16H17.6667" stroke="#141414" stroke-width="1.5" stroke-linecap="round" stroke-linejoin="round"/>
<path d="M11.667 16H12.3337" stroke="#141414" stroke-width="1.5" stroke-linecap="round" stroke-linejoin="round"/>
</svg>
