<svg width="24" height="24" viewBox="0 0 24 24" fill="none" xmlns="http://www.w3.org/2000/svg">
<path d="M8.33301 3.72266V17.7227" stroke="#141414" stroke-width="1.5" stroke-linecap="round" stroke-linejoin="round"/>
<path d="M15.666 6.27734V20.2773" stroke="#141414" stroke-width="1.5" stroke-linecap="round" stroke-linejoin="round"/>
<path d="M3.37701 4.76804L7.95301 3.75071C8.20101 3.69604 8.45967 3.71204 8.69834 3.79871L15.301 6.20004C15.5397 6.28671 15.7983 6.30404 16.0463 6.24804L20.0437 5.36004C20.877 5.17471 21.6663 5.80804 21.6663 6.66138V17.9307C21.6663 18.556 21.2317 19.0974 20.6223 19.232L16.0463 20.2494C15.7983 20.304 15.5397 20.288 15.301 20.2014L8.69834 17.8C8.45967 17.7134 8.20101 17.696 7.95301 17.752L3.95567 18.64C3.12234 18.8254 2.33301 18.192 2.33301 17.3387V6.06938C2.33301 5.44404 2.76767 4.90271 3.37701 4.76804Z" stroke="#141414" stroke-width="1.5" stroke-linecap="round" stroke-linejoin="round"/>
</svg>
