<svg width="24" height="24" viewBox="0 0 24 24" fill="none" xmlns="http://www.w3.org/2000/svg">
<path d="M16.0449 6.65697C14.7176 4.46788 12.3188 3 9.57212 3C5.3903 3 2 6.3903 2 10.5733C2 11.9503 2.37333 13.2388 3.01697 14.3515C3.46545 15.1939 2.96242 17.1842 2 18.1455C3.30545 18.2158 5.02667 17.6267 5.79394 17.1285C6.30424 17.423 7.11515 17.8145 8.17455 18.0145C8.3103 18.04 8.45576 18.0352 8.59394 18.0533" stroke="#141414" stroke-width="1.5" stroke-linecap="round" stroke-linejoin="round"/>
<path d="M16.5456 9.66187C19.5577 9.66187 22.0001 12.1043 22.0001 15.1164C22.0001 16.1091 21.7311 17.0364 21.268 17.8388C20.9444 18.4449 21.308 19.8788 22.0001 20.5722C21.0595 20.6231 19.8208 20.1976 19.2668 19.84C18.8995 20.0522 18.3153 20.3334 17.5517 20.4788C17.2256 20.5407 16.8886 20.5734 16.5444 20.5734C13.5311 20.5734 11.0898 18.131 11.0898 15.1188C11.0898 12.1055 13.5323 9.66429 16.5444 9.66429L16.5456 9.66187Z" stroke="#141414" stroke-width="1.5" stroke-linecap="round" stroke-linejoin="round"/>
</svg>
