<svg width="24" height="24" viewBox="0 0 24 24" fill="none" xmlns="http://www.w3.org/2000/svg">
<path d="M11.9997 2.33337C6.66101 2.33337 2.33301 6.66137 2.33301 12C2.33301 13.7587 2.81034 15.4027 3.63034 16.8227C4.20367 17.8974 3.55967 20.4387 2.33301 21.6667C3.99967 21.7574 6.19567 21.004 7.17701 20.3694C7.82901 20.7454 8.86234 21.244 10.2157 21.5C10.793 21.6094 11.3903 21.6667 11.9997 21.6667C17.3383 21.6667 21.6663 17.3387 21.6663 12C21.6663 6.66137 17.3383 2.33337 11.9997 2.33337Z" stroke="#141414" stroke-width="1.5" stroke-linecap="round" stroke-linejoin="round"/>
<path opacity="0.75" d="M11.9993 13.3334C11.2633 13.3334 10.666 12.7347 10.666 12.0001C10.666 11.2654 11.2633 10.6667 11.9993 10.6667C12.7353 10.6667 13.3327 11.2654 13.3327 12.0001C13.3327 12.7347 12.7353 13.3334 11.9993 13.3334Z" fill="#141414"/>
<path d="M7.33333 13.3334C6.59733 13.3334 6 12.7347 6 12.0001C6 11.2654 6.59733 10.6667 7.33333 10.6667C8.06933 10.6667 8.66667 11.2654 8.66667 12.0001C8.66667 12.7347 8.06933 13.3334 7.33333 13.3334Z" fill="#141414"/>
<path opacity="0.5" d="M16.6663 13.3334C15.9303 13.3334 15.333 12.7347 15.333 12.0001C15.333 11.2654 15.9303 10.6667 16.6663 10.6667C17.4023 10.6667 17.9997 11.2654 17.9997 12.0001C17.9997 12.7347 17.4023 13.3334 16.6663 13.3334Z" fill="#141414"/>
</svg>
