<svg width="24" height="24" viewBox="0 0 24 24" fill="none" xmlns="http://www.w3.org/2000/svg">
<path d="M8.43 13.32H4.57C3.64 13.32 2.73 13.01 2 12.45" stroke="#141414" stroke-width="1.5" stroke-linecap="round" stroke-linejoin="round"/>
<path d="M11.0794 7.99995C12.1794 7.15995 13.5394 6.64995 15.0294 6.61995C18.7694 6.52995 21.8694 9.44995 21.9594 13.1599C22.0494 16.8699 19.0994 19.9399 15.3594 20.0299C11.6194 20.1199 8.5194 17.1999 8.4294 13.4899C8.4094 12.5599 8.5694 11.6799 8.8994 10.8699" stroke="#141414" stroke-width="1.5" stroke-linecap="round" stroke-linejoin="round"/>
<path d="M2 3H9.83C10.75 3 11.63 3.36 12.28 4L14.94 6.61" stroke="#141414" stroke-width="1.5" stroke-linecap="round" stroke-linejoin="round"/>
<path d="M9.44016 6.37012L12.3202 9.22012C13.0202 9.91012 13.0202 11.0401 12.3202 11.7301C11.6202 12.4201 10.4802 12.4201 9.78016 11.7301L7.84016 9.81012C7.27016 10.3601 6.49016 10.6901 5.63016 10.6901C4.77016 10.6901 3.98016 10.3501 3.41016 9.79012" stroke="#141414" stroke-width="1.5" stroke-linecap="round" stroke-linejoin="round"/>
<path d="M15.6903 10.1899C16.4603 10.6399 16.7203 11.6199 16.2703 12.3899C15.8203 13.1599 14.8403 13.4199 14.0703 12.9699L14.4203 16.6699" stroke="#141414" stroke-width="1.5" stroke-linecap="round" stroke-linejoin="round"/>
<path d="M14.0703 12.97L16.7703 14.54" stroke="#141414" stroke-width="1.5" stroke-linecap="round" stroke-linejoin="round"/>
<path d="M14.8203 9.68018L18.7103 11.9402" stroke="#141414" stroke-width="1.5" stroke-linecap="round" stroke-linejoin="round"/>
</svg>
