<svg width="24" height="24" viewBox="0 0 24 24" fill="none" xmlns="http://www.w3.org/2000/svg">
<path d="M3.62252 8.20683H8.26012C9.01084 8.20683 9.62012 7.5889 9.62012 6.82752V2.14062" stroke="#141414" stroke-width="1.5" stroke-linecap="round" stroke-linejoin="round"/>
<path d="M19.5 21.3789C20.1104 20.8732 20.5 20.1036 20.5 19.2414V4.75862C20.5 3.23448 19.2828 2 17.78 2H10.183C9.82264 2 9.47584 2.14483 9.22152 2.40414L3.89848 7.80276C3.6428 8.06207 3.5 8.41241 3.5 8.77793V19.2414C3.5 20.2736 4.05828 21.1729 4.88546 21.646" stroke="#141414" stroke-width="1.5" stroke-linecap="round" stroke-linejoin="round"/>
<path d="M15.6227 22.5C15.4017 22.5 15.2227 22.3209 15.2227 22.1V17.9C15.2227 17.6791 15.4017 17.5 15.6227 17.5H17.4381C17.659 17.5 17.8381 17.6791 17.8381 17.9V18.0589C17.8381 18.2798 17.659 18.4589 17.4381 18.4589H16.2587V19.5685H17.2561C17.477 19.5685 17.6561 19.7476 17.6561 19.9685V20.1274C17.6561 20.3483 17.477 20.5274 17.2561 20.5274H16.2727V22.1C16.2727 22.3209 16.0936 22.5 15.8727 22.5H15.6227Z" fill="#141414"/>
<path d="M11.1383 22.5C10.9174 22.5 10.7383 22.3209 10.7383 22.1V17.9C10.7383 17.6791 10.9174 17.5 11.1383 17.5H12.3973C12.7519 17.5 13.0599 17.5662 13.3213 17.6986C13.5873 17.831 13.7926 18.0183 13.9373 18.2603C14.0866 18.4977 14.1613 18.7785 14.1613 19.1027V20.8904C14.1613 21.21 14.0866 21.4909 13.9373 21.7329C13.7926 21.9749 13.5873 22.1644 13.3213 22.3014C13.0599 22.4338 12.7519 22.5 12.3973 22.5H11.1383ZM11.7883 21.5411H12.3973C12.6119 21.5411 12.7846 21.4817 12.9153 21.363C13.0459 21.2443 13.1113 21.0868 13.1113 20.8904V19.1027C13.1113 18.911 13.0459 18.7557 12.9153 18.637C12.7846 18.5183 12.6119 18.4589 12.3973 18.4589H11.7883V21.5411Z" fill="#141414"/>
<path d="M7.1998 22.5C6.97889 22.5 6.7998 22.3209 6.7998 22.1V17.9C6.7998 17.6791 6.97889 17.5 7.1998 17.5H8.33783C8.69716 17.5 9.00983 17.5662 9.27583 17.6986C9.5465 17.831 9.75416 18.016 9.89883 18.2534C10.0482 18.4909 10.1228 18.7694 10.1228 19.089C10.1228 19.4041 10.0482 19.6826 9.89883 19.9247C9.7495 20.1621 9.54183 20.347 9.27583 20.4795C9.00983 20.6119 8.69716 20.6781 8.33783 20.6781H7.8498V22.1C7.8498 22.3209 7.67072 22.5 7.4498 22.5H7.1998ZM7.8498 19.7534H8.33783C8.56183 19.7534 8.73916 19.6941 8.86983 19.5753C9.00516 19.4521 9.07283 19.29 9.07283 19.089C9.07283 18.8881 9.00516 18.7283 8.86983 18.6096C8.73916 18.4863 8.56183 18.4247 8.33783 18.4247H7.8498V19.7534Z" fill="#141414"/>
</svg>
