<svg width="24" height="24" viewBox="0 0 24 24" fill="none" xmlns="http://www.w3.org/2000/svg">
<path d="M15.1298 14.1948L13.6084 16.0961C11.2524 14.7108 9.28845 12.7481 7.90445 10.3921L9.80578 8.87076C10.2644 8.50409 10.4178 7.87343 10.1791 7.33743L8.44578 3.43476C8.18845 2.85609 7.55111 2.54943 6.93911 2.70809L3.63911 3.56409C3.00178 3.73076 2.58978 4.34809 2.68045 5.00009C3.86978 13.4721 10.5284 20.1308 19.0018 21.3214C19.6538 21.4108 20.2711 20.9988 20.4364 20.3628L21.2924 17.0628C21.4511 16.4508 21.1444 15.8148 20.5671 15.5574L16.6644 13.8241C16.1284 13.5854 15.4991 13.7388 15.1311 14.1961L15.1298 14.1948Z" stroke="#141414" stroke-width="1.5" stroke-linecap="round" stroke-linejoin="round"/>
</svg>
