<svg width="24" height="24" viewBox="0 0 24 24" fill="none" xmlns="http://www.w3.org/2000/svg">
<path d="M6.01367 21.9551C7.67367 21.9551 9.01367 20.6151 9.01367 18.9551C9.01367 17.2951 7.67367 15.9551 6.01367 15.9551C4.35367 15.9551 3.01367 17.2951 3.01367 18.9551C3.01367 20.6151 4.35367 21.9551 6.01367 21.9551Z" stroke="#141414" stroke-width="1.5" stroke-linecap="round" stroke-linejoin="round"/>
<path d="M12.0137 4.95508H8.51367C6.58367 4.95508 5.01367 6.52508 5.01367 8.45508C5.01367 10.3851 6.58367 11.9551 8.51367 11.9551H15.5137C17.4437 11.9551 19.0137 13.5251 19.0137 15.4551C19.0137 17.3851 17.4437 18.9551 15.5137 18.9551H12.0137" stroke="#141414" stroke-width="1.5" stroke-linecap="round" stroke-linejoin="round"/>
<path d="M20.6138 6.49492C21.4638 4.90492 20.8138 2.82492 19.1138 2.22492C18.7738 2.10492 18.4138 2.04492 18.0338 2.04492C17.8438 2.04492 17.6538 2.06492 17.4738 2.09492C15.4638 2.44492 14.5338 4.83492 15.5438 6.59492L17.0338 9.19492C17.5138 10.0349 18.7238 10.0149 19.1838 9.16492L20.6138 6.49492Z" stroke="#141414" stroke-width="1.5" stroke-linecap="round" stroke-linejoin="round"/>
<path d="M18.0236 5.97484C18.5096 5.97484 18.9036 5.58085 18.9036 5.09484C18.9036 4.60883 18.5096 4.21484 18.0236 4.21484C17.5375 4.21484 17.1436 4.60883 17.1436 5.09484C17.1436 5.58085 17.5375 5.97484 18.0236 5.97484Z" fill="#141414"/>
</svg>
