<svg width="24" height="24" viewBox="0 0 24 24" fill="none" xmlns="http://www.w3.org/2000/svg">
<path d="M7.66699 6.99992V3.66659C7.66699 2.93059 8.26433 2.33325 9.00033 2.33325H15.0003C15.7363 2.33325 16.3337 2.93059 16.3337 3.66659V6.99992" stroke="#141414" stroke-width="1.5" stroke-linecap="round" stroke-linejoin="round"/>
<path d="M7.66667 17.6667H5.66667C4.19333 17.6667 3 16.4733 3 15V9.66667C3 8.19333 4.19333 7 5.66667 7H18.3333C19.8067 7 21 8.19333 21 9.66667V15C21 16.4733 19.8067 17.6667 18.3333 17.6667H16.3333" stroke="#141414" stroke-width="1.5" stroke-linecap="round" stroke-linejoin="round"/>
<path d="M16.3337 13V20.3333C16.3337 21.0693 15.7363 21.6667 15.0003 21.6667H9.00033C8.26433 21.6667 7.66699 21.0693 7.66699 20.3333V13H16.3337Z" stroke="#141414" stroke-width="1.5" stroke-linecap="round" stroke-linejoin="round"/>
</svg>
