<svg width="24" height="24" viewBox="0 0 24 24" fill="none" xmlns="http://www.w3.org/2000/svg">
<path d="M12.0003 14.3334C13.289 14.3334 14.3337 13.2887 14.3337 12.0001C14.3337 10.7114 13.289 9.66675 12.0003 9.66675C10.7117 9.66675 9.66699 10.7114 9.66699 12.0001C9.66699 13.2887 10.7117 14.3334 12.0003 14.3334Z" stroke="#141414" stroke-width="1.5" stroke-linecap="round" stroke-linejoin="round"/>
<path d="M15.2924 20.276C14.3537 21.364 13.2217 22 12.0004 22C8.76303 22 6.1377 17.5227 6.1377 12C6.1377 6.47733 8.76303 2 12.0004 2C15.2377 2 17.863 6.47733 17.863 12C17.863 13.8453 17.5697 15.5747 17.059 17.0573" stroke="#141414" stroke-width="1.5" stroke-linecap="round" stroke-linejoin="round"/>
<path d="M10.6213 6.19334C11.072 6.15734 11.5333 6.13867 12 6.13867C17.5227 6.13867 22 8.76267 22 12.0013C22 15.24 17.5227 17.864 12 17.864C6.47733 17.864 2 15.2373 2 12C2 9.84401 3.98533 7.96001 6.94267 6.94134" stroke="#141414" stroke-width="1.5" stroke-linecap="round" stroke-linejoin="round"/>
</svg>
