<svg width="24" height="24" viewBox="0 0 24 24" fill="none" xmlns="http://www.w3.org/2000/svg">
<path d="M17.666 7H21.666" stroke="#141414" stroke-width="1.5" stroke-linecap="round" stroke-linejoin="round"/>
<path d="M2.33301 7H11.6663" stroke="#141414" stroke-width="1.5" stroke-linecap="round" stroke-linejoin="round"/>
<path d="M14.666 10C16.3229 10 17.666 8.65685 17.666 7C17.666 5.34315 16.3229 4 14.666 4C13.0092 4 11.666 5.34315 11.666 7C11.666 8.65685 13.0092 10 14.666 10Z" stroke="#141414" stroke-width="1.5" stroke-linecap="round" stroke-linejoin="round"/>
<path d="M6.33301 17H2.33301" stroke="#141414" stroke-width="1.5" stroke-linecap="round" stroke-linejoin="round"/>
<path d="M21.6663 17H12.333" stroke="#141414" stroke-width="1.5" stroke-linecap="round" stroke-linejoin="round"/>
<path d="M9.33301 20C10.9899 20 12.333 18.6569 12.333 17C12.333 15.3431 10.9899 14 9.33301 14C7.67615 14 6.33301 15.3431 6.33301 17C6.33301 18.6569 7.67615 20 9.33301 20Z" stroke="#141414" stroke-width="1.5" stroke-linecap="round" stroke-linejoin="round"/>
</svg>
