<svg width="24" height="24" viewBox="0 0 24 24" fill="none" xmlns="http://www.w3.org/2000/svg">
<g clip-path="url(#clip0_12_1065)">
<path d="M12.5 3L12.5 1.5M10 4.5L9 3.5" stroke="#141414" stroke-width="1.5" stroke-linecap="round" stroke-linejoin="round"/>
<path d="M10.1221 22.8495C11.3149 21.5888 11.5138 21.5446 11.8764 21.3614C12.2389 21.1782 13.8504 20.8214 14.7755 20.3403C17.7685 18.7835 17.583 17.6303 17.3358 16.0928C17.0617 14.3879 15.6364 12.2521 14.6323 11.4048L18.2606 7.77656C18.878 7.15914 18.791 6.06247 18.1591 5.4306C17.5272 4.79865 16.4414 4.72257 15.824 5.33999L9.5916 11.5724L9.42034 9.16532C9.4454 8.30109 8.81617 7.58174 7.95152 7.52599C7.13211 7.47319 6.42295 8.05507 6.31861 8.86581L6.06803 10.8119M6.06803 10.8119C6.01897 11.2261 5.96081 11.6929 5.88504 12.2332M6.06803 10.8119L5.88504 12.2332M6.06803 10.8119C6.16883 9.96147 6.23148 9.33294 6.33098 8.74561M4.18293 16.9103L4.82267 16.2705C5.64032 15.5092 5.56769 14.4063 5.831 12.6099C5.85 12.4804 5.86794 12.355 5.88504 12.2332M5.88504 12.2332L5.65828 13.9942" stroke="#141414" stroke-width="1.5" stroke-linecap="round" stroke-linejoin="round"/>
</g>
<defs>
<clipPath id="clip0_12_1065">
<rect width="24" height="24" fill="white"/>
</clipPath>
</defs>
</svg>
