<svg width="24" height="24" viewBox="0 0 24 24" fill="none" xmlns="http://www.w3.org/2000/svg">
<path d="M11.1087 3.74833C11.4797 3.02041 12.5197 3.02041 12.8907 3.74833L15.0782 8.04074C15.2234 8.32565 15.4961 8.52394 15.8119 8.57424L20.5668 9.33151C21.3727 9.45987 21.6938 10.4474 21.1175 11.0252L17.7135 14.4383C17.488 14.6644 17.3841 14.9846 17.4338 15.3001L18.184 20.0635C18.3111 20.8702 17.47 21.4808 16.7423 21.1102L12.4536 18.9254C12.1684 18.7801 11.831 18.7801 11.5458 18.9254L7.25707 21.1102C6.52941 21.4808 5.68827 20.8702 5.81533 20.0635L6.56562 15.3001C6.6153 14.9846 6.51135 14.6644 6.28585 14.4383L2.88185 11.0252C2.30558 10.4474 2.62671 9.45987 3.43262 9.33151L8.1875 8.57424C8.5033 8.52394 8.776 8.32565 8.92119 8.04074L11.1087 3.74833Z" stroke="#141414" stroke-width="1.5" stroke-linejoin="round"/>
</svg>
