<svg width="24" height="24" viewBox="0 0 24 24" fill="none" xmlns="http://www.w3.org/2000/svg">
<path d="M13.2104 2.03L16.8604 3.2C17.1504 3.29 17.3404 3.56 17.3404 3.86V8.39C17.3404 10.49 14.0904 11.69 13.2104 11.97C13.0704 12.02 12.9204 12.02 12.7804 11.97C11.9104 11.69 8.65039 10.49 8.65039 8.39V3.86C8.65039 3.56 8.85039 3.29 9.13039 3.2L12.7804 2.03C12.9204 1.99 13.0704 1.99 13.2004 2.03H13.2104Z" stroke="#141414" stroke-width="1.5" stroke-linecap="round" stroke-linejoin="round"/>
<path d="M5 13.5H3C2.45 13.5 2 13.95 2 14.5V21C2 21.55 2.45 22 3 22H5C5.55 22 6 21.55 6 21V14.5C6 13.95 5.55 13.5 5 13.5Z" stroke="#141414" stroke-width="1.5" stroke-linecap="round" stroke-linejoin="round"/>
<path d="M6 14.5H11.75C12.44 14.5 13 15.06 13 15.75C13 16.44 12.44 17 11.75 17H9.5" stroke="#141414" stroke-width="1.5" stroke-linecap="round" stroke-linejoin="round"/>
<path d="M11 17.0001H14.69C15.54 17.0001 16.37 16.7301 17.05 16.2301L19.68 14.3001C20.25 13.8601 21.06 13.9101 21.58 14.4201C22.17 15.0101 22.13 15.9801 21.49 16.5201L17.09 20.1001C16.38 20.6801 15.48 21.0001 14.56 21.0001H6" stroke="#141414" stroke-width="1.5" stroke-linecap="round" stroke-linejoin="round"/>
</svg>
