<svg width="24" height="24" viewBox="0 0 24 24" fill="none" xmlns="http://www.w3.org/2000/svg">
<path d="M2.33301 5.66663H9.78101C10.1343 5.66663 10.4743 5.80663 10.7237 6.05729L18.4477 13.7813C19.489 14.8226 19.489 16.5106 18.4477 17.552L14.2183 21.7813C13.177 22.8226 11.489 22.8226 10.4477 21.7813L2.72367 14.0573C2.47301 13.8066 2.33301 13.468 2.33301 13.1146V5.66663Z" stroke="#141414" stroke-width="1.5" stroke-linecap="round" stroke-linejoin="round"/>
<path d="M4.33301 2.33329V1.66663H11.781C12.1343 1.66663 12.4743 1.80663 12.7237 2.05729L20.4477 9.78129C21.0237 10.3573 21.281 11.1306 21.2197 11.884" stroke="#141414" stroke-width="1.5" stroke-linecap="round" stroke-linejoin="round"/>
<path d="M6.99967 12C7.92015 12 8.66634 11.2538 8.66634 10.3333C8.66634 9.41282 7.92015 8.66663 6.99967 8.66663C6.0792 8.66663 5.33301 9.41282 5.33301 10.3333C5.33301 11.2538 6.0792 12 6.99967 12Z" fill="#141414"/>
</svg>
