<svg width="24" height="24" viewBox="0 0 24 24" fill="none" xmlns="http://www.w3.org/2000/svg">
<path d="M12 12.0001L16.3333 7.66675" stroke="#141414" stroke-width="1.5" stroke-linecap="round" stroke-linejoin="round"/>
<path d="M16.333 7.66671V4.66671L19.6663 1.33337V4.33337H22.6663L19.333 7.66671H16.333Z" stroke="#141414" stroke-width="1.5" stroke-linecap="round" stroke-linejoin="round"/>
<path d="M13.813 2.50937C13.225 2.39737 12.6197 2.33337 11.9997 2.33337C6.66101 2.33337 2.33301 6.66137 2.33301 12C2.33301 17.3387 6.66101 21.6667 11.9997 21.6667C17.3383 21.6667 21.6663 17.3387 21.6663 12C21.6663 11.38 21.6023 10.7747 21.4903 10.1867" stroke="#141414" stroke-width="1.5" stroke-linecap="round" stroke-linejoin="round"/>
<path d="M12.865 6.42004C12.581 6.37604 12.2957 6.33337 11.9997 6.33337C8.87034 6.33337 6.33301 8.87071 6.33301 12C6.33301 15.1294 8.87034 17.6667 11.9997 17.6667C15.129 17.6667 17.6663 15.1294 17.6663 12C17.6663 11.704 17.6223 11.4187 17.5797 11.1347" stroke="#141414" stroke-width="1.5" stroke-linecap="round" stroke-linejoin="round"/>
</svg>
