<svg width="24" height="24" viewBox="0 0 24 24" fill="none" xmlns="http://www.w3.org/2000/svg">
<path d="M11.0029 11.0032L6.00293 6.00317" stroke="#141414" stroke-width="1.5"/>
<path d="M5.00293 7.50317L7.50293 5.00317L4.50293 3.50317L3.50293 4.50317L5.00293 7.50317Z" stroke="#141414" stroke-width="1.5" stroke-linejoin="round"/>
<path d="M19.9732 8.97317C20.9832 7.96317 21.2432 6.48317 20.7632 5.23317L19.3432 6.65317H17.3432V4.65317L18.7632 3.23317C17.5132 2.75317 16.0332 3.01317 15.0232 4.02317C14.0132 5.03317 13.7532 6.51317 14.2332 7.76317L7.76317 14.2332C6.51317 13.7432 5.03317 14.0132 4.02317 15.0232C3.01317 16.0332 2.75317 17.5132 3.23317 18.7632L4.65317 17.3432H6.65317V19.3432L5.23317 20.7632C6.48317 21.2432 7.96317 20.9832 8.97317 19.9732C9.98317 18.9632 10.2432 17.4832 9.76317 16.2332L16.2332 9.76317C17.4832 10.2432 18.9632 9.98317 19.9732 8.97317Z" stroke="#141414" stroke-width="1.5" stroke-linejoin="round"/>
<path d="M11.8027 14.5032L17.4027 20.1032C17.9327 20.6332 18.7827 20.6332 19.3127 20.1032L20.1027 19.3132C20.6327 18.7832 20.6327 17.9332 20.1027 17.4032L14.5027 11.8032" stroke="#141414" stroke-width="1.5" stroke-linejoin="round"/>
</svg>
