<svg width="24" height="24" viewBox="0 0 24 24" fill="none" xmlns="http://www.w3.org/2000/svg">
<path d="M19.8879 5.90425C18.8979 4.60425 17.5679 3.53425 15.9679 2.83425C10.9179 0.634245 5.03795 2.93425 2.83795 7.98425C1.91795 10.0942 1.77795 12.3542 2.30795 14.4242" stroke="#141414" stroke-width="1.5" stroke-linecap="round" stroke-linejoin="round"/>
<path d="M3.76758 17.6443C5.27758 19.8443 7.70758 21.4743 10.7976 21.9043C14.1276 22.3643 17.5176 21.0243 19.6376 18.4043C21.5937 15.9864 22.2459 13.1387 21.8486 10.5" stroke="#141414" stroke-width="1.5" stroke-linecap="round" stroke-linejoin="round"/>
<path d="M18 6.5H20.5L20.4912 4" stroke="#141414" stroke-width="1.5" stroke-linecap="round" stroke-linejoin="round"/>
<path d="M6.2437 17.7503L3.7437 17.6443L3.6377 20.1443" stroke="#141414" stroke-width="1.5" stroke-linecap="round" stroke-linejoin="round"/>
<path d="M12.1891 7.52923L15.5556 8.64C15.8203 8.72769 16 8.98103 16 9.26359V13.5703C16 15.5677 13.0024 16.7077 12.1986 16.9708C12.0662 17.0097 11.9338 17.0097 11.8014 16.9708C10.9976 16.6979 8 15.5677 8 13.5703V9.26359C8 8.98103 8.17967 8.71795 8.44444 8.64L11.8109 7.52923C11.9338 7.49026 12.0756 7.49026 12.1986 7.52923H12.1891Z" stroke="#141414" stroke-width="1.5" stroke-linecap="round" stroke-linejoin="round"/>
</svg>
