<svg width="24" height="24" viewBox="0 0 24 24" fill="none" xmlns="http://www.w3.org/2000/svg">
<path d="M2 8.18568C2 5.87502 3.66533 3.90169 5.94267 3.51235L14.692 2.01902C15.2707 1.92035 15.8467 2.21235 16.1093 2.73769L16.18 2.87902" stroke="#141414" stroke-width="1.5" stroke-linecap="round" stroke-linejoin="round"/>
<path d="M20 15.8523V18.519C20 19.9923 18.8067 21.1856 17.3333 21.1856H4.66667C3.19333 21.1856 2 19.9923 2 18.519V8.51896C2 7.04563 3.19333 5.85229 4.66667 5.85229H17.3333C18.8067 5.85229 20 7.04563 20 8.51896V11.1856" stroke="#141414" stroke-width="1.5" stroke-linecap="round" stroke-linejoin="round"/>
<path d="M20 15.8523H16.3333C15.0453 15.8523 14 14.807 14 13.519C14 12.2297 15.0453 11.1857 16.3333 11.1857H20C20.736 11.1857 21.3333 11.783 21.3333 12.519V14.519C21.3333 15.255 20.736 15.8523 20 15.8523Z" stroke="#141414" stroke-width="1.5" stroke-linecap="round" stroke-linejoin="round"/>
</svg>
