<svg width="24" height="24" viewBox="0 0 24 24" fill="none" xmlns="http://www.w3.org/2000/svg">
<path d="M12.6797 4.84C13.4497 3.17 15.1497 2 17.1097 2C19.8197 2 21.9997 4.17 21.9997 6.87C21.9997 8.99 20.6597 10.78 18.7897 11.46" stroke="#141414" stroke-width="1.5" stroke-linecap="round"/>
<path d="M5.24 11.47C3.35 10.78 2 8.99 2 6.87C2 4.17 4.2 2 6.89 2C8.86 2 10.57 3.17 11.33 4.84" stroke="#141414" stroke-width="1.5" stroke-linecap="round"/>
<path d="M18.521 13.7101C19.611 9.98006 17.431 5.83006 13.561 4.97006C13.261 4.90006 12.951 4.86006 12.641 4.83006C12.431 4.81006 12.231 4.81006 12.021 4.81006C11.811 4.81006 11.601 4.81006 11.401 4.83006C6.961 5.19006 4.341 9.68006 5.521 13.7001C5.691 14.2801 5.931 14.8501 6.271 15.4101L7.201 16.9401L9.051 19.9701L9.121 20.0801C10.451 22.2501 13.611 22.2501 14.941 20.0801L15.011 19.9701L16.861 16.9401L17.791 15.4101C18.121 14.8601 18.371 14.2901 18.541 13.7001" stroke="#141414" stroke-width="1.5" stroke-linecap="round"/>
<path d="M9.28023 13.35C9.99023 13.35 10.5702 12.77 10.5702 12.06C10.5702 11.35 9.99023 10.77 9.28023 10.77C8.57023 10.77 7.99023 11.35 7.99023 12.06C7.99023 12.77 8.57023 13.35 9.28023 13.35Z" fill="#141414"/>
<path d="M14.7509 13.35C15.4609 13.35 16.0409 12.77 16.0409 12.06C16.0409 11.35 15.4609 10.77 14.7509 10.77C14.0409 10.77 13.4609 11.35 13.4609 12.06C13.4609 12.77 14.0409 13.35 14.7509 13.35Z" fill="#141414"/>
<path d="M21.0509 18.08L14.2109 17.98L17.8809 21.99" stroke="#141414" stroke-width="1.5" stroke-linecap="round" stroke-linejoin="round"/>
<path d="M2.99023 18.08L9.82023 17.98L6.16023 21.99" stroke="#141414" stroke-width="1.5" stroke-linecap="round" stroke-linejoin="round"/>
</svg>
