<svg width="24" height="24" viewBox="0 0 24 24" fill="none" xmlns="http://www.w3.org/2000/svg">
<g clip-path="url(#clip0_12_2252)">
<path d="M3.1 12.5C3.03 12.08 3 11.64 3 11.19V8.28C3 6.64 3 5.82 3.4 5.29C3.81 4.75 4.72 4.49 6.55 3.97C7.8 3.62 8.9 3.19 9.78 2.8C10.97 2.27 11.57 2 12 2C12.43 2 13.02 2.27 14.22 2.8C15.1 3.19 16.2 3.62 17.45 3.97C19.28 4.49 20.19 4.75 20.59 5.29C21 5.82 21 6.64 21 8.28V11.19C21 11.64 20.97 12.08 20.9 12.5" stroke="#141414" stroke-width="1.5" stroke-linecap="round"/>
<path d="M18.9199 18.6201V18.8001C18.9199 20.5201 17.5299 21.9201 15.8199 21.9201C15.5599 21.9201 15.2999 21.8901 15.0399 21.8401H15.0199L14.6899 21.7101L6.52992 18.5301L6.39992 18.3101C5.75992 17.2801 5.41992 16.0801 5.41992 14.8601C5.41992 11.2501 8.32992 8.31006 11.9099 8.31006C14.6399 8.31006 17.0599 9.99006 17.9599 12.5201C17.9899 12.5801 18.0099 12.6501 18.0299 12.7101C18.0299 12.7101 18.0299 12.7101 18.0399 12.7301L18.0699 12.8101L18.1399 13.0501C18.1899 13.2201 18.2399 13.3901 18.2899 13.5601C18.3399 13.7301 18.3799 13.8901 18.4199 14.0601C18.4599 14.2201 18.4899 14.3901 18.5299 14.5501C18.8499 16.0601 18.8999 17.3001 18.8999 18.1701C18.9099 18.3301 18.9099 18.4801 18.9099 18.6101H18.9199V18.6201Z" stroke="#141414" stroke-width="1.5" stroke-linecap="round" stroke-linejoin="round"/>
<path d="M18.9107 18.18L11.0607 15.14C10.8107 14.84 10.4707 14.28 10.4707 13.72C10.4707 13.16 10.9207 12.71 11.4607 12.71H18.0507C18.0507 12.71 18.0607 12.72 18.0607 12.73L18.0907 12.81L18.1607 13.05C18.2107 13.22 18.2607 13.39 18.3107 13.56C18.3607 13.73 18.4007 13.89 18.4407 14.06C18.4807 14.22 18.5107 14.39 18.5507 14.55C18.8707 16.06 18.9207 17.3 18.9207 18.17H18.9107V18.18Z" stroke="#141414" stroke-width="1.5" stroke-linecap="round" stroke-linejoin="round"/>
</g>
<defs>
<clipPath id="clip0_12_2252">
<rect width="24" height="24" fill="white"/>
</clipPath>
</defs>
</svg>
