<svg width="24" height="24" viewBox="0 0 24 24" fill="none" xmlns="http://www.w3.org/2000/svg">
<path d="M3.32 9.7002L2.56 10.8702C2.19 11.4402 2 12.1002 2 12.7802V16.0502C2 17.1902 2.74 17.9302 3.8 17.9302" stroke="#141414" stroke-width="1.5" stroke-miterlimit="10" stroke-linecap="round"/>
<path d="M20.2704 17.9201C21.3004 17.9201 22.0004 17.1601 22.0004 16.0401V13.8301C22.0004 13.2601 21.6104 12.7601 21.0504 12.6201L17.0004 11.6101L15.7604 10.0801C14.6204 8.68011 12.9004 7.86011 11.0904 7.86011H10.1904" stroke="#141414" stroke-width="1.5" stroke-miterlimit="10" stroke-linecap="round"/>
<path d="M17.6304 20.1102C18.8404 20.1102 19.8204 19.1302 19.8204 17.9202C19.8204 16.7102 18.8404 15.7302 17.6304 15.7302C16.4204 15.7302 15.4404 16.7102 15.4404 17.9202C15.4404 19.1302 16.4204 20.1102 17.6304 20.1102Z" stroke="#141414" stroke-width="1.5" stroke-linejoin="round"/>
<path d="M5.99957 20.1102C7.20957 20.1102 8.18957 19.1302 8.18957 17.9202C8.18957 16.7102 7.20957 15.7302 5.99957 15.7302C4.78957 15.7302 3.80957 16.7102 3.80957 17.9202C3.80957 19.1302 4.78957 20.1102 5.99957 20.1102Z" stroke="#141414" stroke-width="1.5" stroke-linejoin="round"/>
<path d="M2.46973 11.6201H17.0097" stroke="#141414" stroke-width="1.5" stroke-miterlimit="10"/>
<path d="M8.71973 17.9202H15.2897" stroke="#141414" stroke-width="1.5" stroke-miterlimit="10"/>
<path d="M8.03027 6.25H3.53027" stroke="#141414" stroke-width="1.5" stroke-miterlimit="10" stroke-linecap="round"/>
<path d="M5.78027 8.5V4" stroke="#141414" stroke-width="1.5" stroke-miterlimit="10" stroke-linecap="round"/>
</svg>
