<svg width="24" height="24" viewBox="0 0 24 24" fill="none" xmlns="http://www.w3.org/2000/svg">
<path d="M5.29 18.5099C7.11 18.5099 8.58 17.0399 8.58 15.2199C8.58 13.3999 7.11 11.9299 5.29 11.9299C3.47 11.9299 2 13.3999 2 15.2199C2 17.0399 3.47 18.5099 5.29 18.5099Z" stroke="#141414" stroke-width="1.5" stroke-miterlimit="10"/>
<path d="M18.7099 18.5099C20.5299 18.5099 21.9999 17.0399 21.9999 15.2199C21.9999 13.3999 20.5299 11.9299 18.7099 11.9299C16.8899 11.9299 15.4199 13.3999 15.4199 15.2199C15.4199 17.0399 16.8899 18.5099 18.7099 18.5099Z" stroke="#141414" stroke-width="1.5" stroke-miterlimit="10"/>
<path d="M18.7101 11.93V8.88L15.8301 6" stroke="#141414" stroke-width="1.5" stroke-linecap="round" stroke-linejoin="round"/>
<path d="M9.24023 15.22H13.1902C14.0202 15.22 14.8002 14.83 15.3002 14.17L17.3302 11.46" stroke="#141414" stroke-width="1.5" stroke-linecap="round" stroke-linejoin="round"/>
<path d="M17.8105 11.9299L15.5605 9.67989C14.6505 8.76989 13.2405 8.60989 12.1605 9.29989C12.1605 9.29989 12.1505 9.29989 12.1405 9.30989L10.5705 10.3199C10.1905 10.6499 9.66047 10.7399 9.20047 10.5499L3.98047 8.63989" stroke="#141414" stroke-width="1.5" stroke-linecap="round" stroke-linejoin="round"/>
</svg>
