<svg width="24" height="24" viewBox="0 0 24 24" fill="none" xmlns="http://www.w3.org/2000/svg">
<path d="M21.4492 19.6699H21.9792" stroke="#141414" stroke-width="1.5" stroke-miterlimit="10" stroke-linecap="round"/>
<path d="M15.4894 8.09L17.5494 4.29L13.7394 5.98L12.3294 2L10.9194 5.98L7.10938 4.29L9.16937 8.09" stroke="#141414" stroke-width="1.5" stroke-linecap="round" stroke-linejoin="round"/>
<path d="M16.5099 19.6699C15.4299 19.6699 14.6699 18.9199 14.6699 17.7599V14.4299C14.6699 13.7399 14.8699 13.0599 15.2499 12.4799L16.4699 10.5899C16.9399 9.85992 17.7399 9.41992 18.6099 9.41992H21.9899" stroke="#141414" stroke-width="1.5" stroke-miterlimit="10" stroke-linecap="round"/>
<path d="M18.7495 21.8999C19.9795 21.8999 20.9795 20.8999 20.9795 19.6699C20.9795 18.4399 19.9795 17.4399 18.7495 17.4399C17.5195 17.4399 16.5195 18.4399 16.5195 19.6699C16.5195 20.8999 17.5195 21.8999 18.7495 21.8999Z" stroke="#141414" stroke-width="1.5" stroke-linecap="round" stroke-linejoin="round"/>
<path d="M22.0001 13.24H15.0801" stroke="#141414" stroke-width="1.5" stroke-miterlimit="10" stroke-linecap="round"/>
<path d="M9.16008 21.9C11.0001 21.9 12.4901 20.41 12.4901 18.57C12.4901 16.73 11.0001 15.24 9.16008 15.24C7.32008 15.24 5.83008 16.73 5.83008 18.57C5.83008 20.41 7.32008 21.9 9.16008 21.9Z" stroke="#141414" stroke-width="1.5" stroke-miterlimit="10" stroke-linecap="round"/>
<path d="M9.16 15.24V12.15L6.25 9.23999" stroke="#141414" stroke-width="1.5" stroke-linecap="round" stroke-linejoin="round"/>
<path d="M2.01953 18.56H3.58953C4.42953 18.56 5.21953 18.17 5.72953 17.5L7.77953 14.76" stroke="#141414" stroke-width="1.5" stroke-linecap="round" stroke-linejoin="round"/>
<path d="M2 13.2801L2.52 12.6001H2.54C3.63 11.8901 5.07 12.0501 5.98 12.9701L7.78 14.7701L8.26 15.2401" stroke="#141414" stroke-width="1.5" stroke-linecap="round" stroke-linejoin="round"/>
</svg>
