<svg width="24" height="24" viewBox="0 0 24 24" fill="none" xmlns="http://www.w3.org/2000/svg">
<path d="M17.3998 3C18.4998 3 19.4898 3.67 19.8998 4.68L21.8198 9.44C21.8798 9.6 21.9198 9.77 21.9198 9.94V16.2C21.9198 16.94 21.3198 17.54 20.5798 17.54H4.42984C3.68984 17.54 3.08984 16.94 3.08984 16.2V9.94C3.08984 9.77 3.11984 9.6 3.18984 9.44L5.10984 4.68C5.51984 3.67 6.50984 3 7.60984 3H13.7698" stroke="#141414" stroke-width="1.5" stroke-linecap="round" stroke-linejoin="round"/>
<path d="M17.5703 17.53V19.65C17.5703 20.45 18.2203 21.1 19.0203 21.1H20.4703C21.2703 21.1 21.9203 20.45 21.9203 19.65V15.23" stroke="#141414" stroke-width="1.5" stroke-miterlimit="10" stroke-linecap="round"/>
<path d="M7.43008 17.53V19.65C7.43008 20.45 6.78008 21.1 5.98008 21.1H4.53008C3.73008 21.1 3.08008 20.45 3.08008 19.65V15.23" stroke="#141414" stroke-width="1.5" stroke-miterlimit="10" stroke-linecap="round"/>
<path d="M6.70977 15.36C7.50977 15.36 8.15977 14.71 8.15977 13.91C8.15977 13.11 7.50977 12.46 6.70977 12.46C5.90977 12.46 5.25977 13.11 5.25977 13.91C5.25977 14.71 5.90977 15.36 6.70977 15.36Z" fill="#141414"/>
<path d="M18.2898 15.36C19.0898 15.36 19.7398 14.71 19.7398 13.91C19.7398 13.11 19.0898 12.46 18.2898 12.46C17.4898 12.46 16.8398 13.11 16.8398 13.91C16.8398 14.71 17.4898 15.36 18.2898 15.36Z" fill="#141414"/>
<path d="M2 9.56995H23" stroke="#141414" stroke-width="1.5" stroke-linecap="round" stroke-linejoin="round"/>
<path d="M11.8996 7.34L13.7596 5.69L11.5996 4.9L13.7596 3" stroke="#141414" stroke-width="1.5" stroke-linecap="round" stroke-linejoin="round"/>
</svg>
