<svg width="24" height="24" viewBox="0 0 24 24" fill="none" xmlns="http://www.w3.org/2000/svg">
<path d="M2 16.48C3.36 17.03 5.77 17.66 8.73 16.94C8.82 16.92 8.92 16.89 9.01 16.87C9.92 16.63 10.87 16.26 11.86 15.73C11.86 15.73 12.99 16.4 14.71 16.87C14.92 16.94 15.13 16.98 15.36 17.03C17.25 17.45 19.67 17.54 22.09 16.4" stroke="#141414" stroke-width="1.5" stroke-linecap="round" stroke-linejoin="round"/>
<path d="M2 21.1599C3.36 21.7099 5.77 22.3399 8.73 21.6199C8.82 21.5999 8.92 21.5699 9.01 21.5499C9.92 21.3099 10.87 20.9399 11.86 20.4099C11.86 20.4099 12.99 21.0799 14.71 21.5499C14.92 21.6199 15.13 21.6599 15.36 21.7099C17.25 22.1299 19.67 22.2199 22.09 21.0799" stroke="#141414" stroke-width="1.5" stroke-linecap="round" stroke-linejoin="round"/>
<path d="M16.47 2L15.25 3.3" stroke="#141414" stroke-width="1.5" stroke-linecap="round" stroke-linejoin="round"/>
<path d="M20.7208 2.02002L18.8008 4.04002" stroke="#141414" stroke-width="1.5" stroke-linecap="round" stroke-linejoin="round"/>
<path d="M22.0193 5.06006L20.2793 6.93006" stroke="#141414" stroke-width="1.5" stroke-linecap="round" stroke-linejoin="round"/>
<path d="M14.8988 16.93H17.6988C18.2188 16.93 18.6388 16.51 18.6388 15.99V11.61C18.6388 11.53 18.6288 11.44 18.5988 11.36C18.5888 11.34 18.5788 11.3 18.5588 11.28L17.2188 7.94002C16.9387 7.24002 16.2388 6.77002 15.4788 6.77002H8.61875C7.84875 6.77002 7.15875 7.24002 6.86875 7.94002L5.52875 11.28C5.52875 11.28 5.51875 11.34 5.50875 11.36C5.48875 11.44 5.46875 11.53 5.46875 11.61V15.99C5.46875 16.51 5.88875 16.93 6.39875 16.93H8.80875" stroke="#141414" stroke-width="1.5" stroke-linejoin="round"/>
<path d="M18.6387 15.9901V15.3201" stroke="#141414" stroke-width="1.5" stroke-miterlimit="10" stroke-linecap="round"/>
<path d="M15.5898 17.0999V16.9299" stroke="#141414" stroke-width="1.5" stroke-miterlimit="10" stroke-linecap="round"/>
<path d="M5.45898 15.9901V15.3201" stroke="#141414" stroke-width="1.5" stroke-miterlimit="10" stroke-linecap="round"/>
<path d="M8.5 17.0199V16.9299" stroke="#141414" stroke-width="1.5" stroke-miterlimit="10" stroke-linecap="round"/>
<path d="M7.99828 15.4101C8.55828 15.4101 9.00828 14.9601 9.00828 14.4001C9.00828 13.8401 8.55828 13.3901 7.99828 13.3901C7.43828 13.3901 6.98828 13.8401 6.98828 14.4001C6.98828 14.9601 7.43828 15.4101 7.99828 15.4101Z" fill="#141414"/>
<path d="M16.1096 15.4101C16.6696 15.4101 17.1196 14.9601 17.1196 14.4001C17.1196 13.8401 16.6696 13.3901 16.1096 13.3901C15.5496 13.3901 15.0996 13.8401 15.0996 14.4001C15.0996 14.9601 15.5496 15.4101 16.1096 15.4101Z" fill="#141414"/>
<path d="M4.69922 11.3501H19.3992" stroke="#141414" stroke-width="1.5" stroke-linecap="round" stroke-linejoin="round"/>
</svg>
