<svg width="24" height="24" viewBox="0 0 24 24" fill="none" xmlns="http://www.w3.org/2000/svg">
<path d="M10.0395 16.57H4.26953C3.57953 16.57 3.01953 16.01 3.01953 15.32V9.48C3.01953 9.36 3.02953 9.24 3.06953 9.13C3.07953 9.08 3.08953 9.05 3.10953 9.01L4.89953 4.56C5.27953 3.62 6.20953 3 7.23953 3H13.9895" stroke="#141414" stroke-width="1.5" stroke-linecap="round" stroke-linejoin="round"/>
<path d="M7.06953 16.5599V18.5399C7.06953 19.2899 6.45953 19.8899 5.71953 19.8899H4.36953C3.61953 19.8899 3.01953 19.2799 3.01953 18.5399V14.4099" stroke="#141414" stroke-width="1.5" stroke-miterlimit="10" stroke-linecap="round"/>
<path d="M6.38906 14.5301C7.13906 14.5301 7.73906 13.9201 7.73906 13.1801C7.73906 12.4401 7.12906 11.8301 6.38906 11.8301C5.64906 11.8301 5.03906 12.4401 5.03906 13.1801C5.03906 13.9201 5.64906 14.5301 6.38906 14.5301Z" fill="#141414"/>
<path d="M10.04 9.12988H3.06H2" stroke="#141414" stroke-width="1.5" stroke-linecap="round" stroke-linejoin="round"/>
<path d="M17 8C17.8255 8 18.5 7.3255 18.5 6.5C18.5 5.6745 17.8255 5 17 5C16.1745 5 15.5 5.6745 15.5 6.5C15.5 7.3255 16.1745 8 17 8Z" stroke="#141414" stroke-width="1.5"/>
<path d="M15 6.5L13 6.5" stroke="#141414" stroke-width="1.5" stroke-linecap="round" stroke-linejoin="round"/>
<path d="M21 6.5L19 6.5" stroke="#141414" stroke-width="1.5" stroke-linecap="round" stroke-linejoin="round"/>
<path d="M14.8824 18.5C14.2549 18.5 13 18.2 13 17C13 16.3343 13.0518 15.6697 13.155 15.0121L13.6761 11.6901C13.8287 10.7171 14.667 10 15.6519 10H18.3481C19.333 10 20.1713 10.7171 20.3239 11.6901L20.845 15.0121C20.9482 15.6697 21 16.3343 21 17C21 17.5 20.6235 18.5 19.1176 18.5" stroke="#141414" stroke-width="1.5" stroke-linecap="round"/>
<path d="M17 17.5V20" stroke="#141414" stroke-width="1.5" stroke-linecap="round" stroke-linejoin="round"/>
</svg>
