<svg width="24" height="24" viewBox="0 0 24 24" fill="none" xmlns="http://www.w3.org/2000/svg">
<path d="M4.11 10.24C3.98 10.37 3.86 10.51 3.76 10.67L2.56 12.53C2.19 13.1 2 13.76 2 14.44V17.71C2 18.85 2.74 19.58 3.8 19.58" stroke="#141414" stroke-width="1.5" stroke-miterlimit="10" stroke-linecap="round"/>
<path d="M19.7698 13.96L16.9998 13.27L15.7598 11.74C15.2698 11.14 14.6698 10.64 14.0098 10.28" stroke="#141414" stroke-width="1.5" stroke-miterlimit="10" stroke-linecap="round"/>
<path d="M20.2695 19.57C21.2995 19.57 21.9995 18.81 21.9995 17.7" stroke="#141414" stroke-width="1.5" stroke-miterlimit="10" stroke-linecap="round"/>
<path d="M17.6197 21.7599C18.8297 21.7599 19.8097 20.7799 19.8097 19.5699C19.8097 18.3599 18.8297 17.3799 17.6197 17.3799C16.4097 17.3799 15.4297 18.3599 15.4297 19.5699C15.4297 20.7799 16.4097 21.7599 17.6197 21.7599Z" stroke="#141414" stroke-width="1.5" stroke-linecap="round" stroke-linejoin="round"/>
<path d="M5.99957 21.7599C7.20957 21.7599 8.18957 20.7799 8.18957 19.5699C8.18957 18.3599 7.20957 17.3799 5.99957 17.3799C4.78957 17.3799 3.80957 18.3599 3.80957 19.5699C3.80957 20.7799 4.78957 21.7599 5.99957 21.7599Z" stroke="#141414" stroke-width="1.5" stroke-linecap="round" stroke-linejoin="round"/>
<path d="M2.46973 13.27H16.9997" stroke="#141414" stroke-width="1.5" stroke-miterlimit="10" stroke-linecap="round"/>
<path d="M8.71973 19.5701H15.2797" stroke="#141414" stroke-width="1.5" stroke-miterlimit="10" stroke-linecap="round"/>
<path d="M12.5997 6.52V5.41C12.5997 4.78 12.5997 4.47 12.4497 4.26C12.2997 4.06 11.9497 3.96 11.2497 3.76C10.7697 3.62 10.3497 3.46 10.0097 3.31C9.54973 3.11 9.31973 3 9.15973 3C8.99973 3 8.76973 3.1 8.30973 3.31C7.96973 3.46 7.54973 3.62 7.06973 3.76C6.36973 3.96 6.01973 4.06 5.86973 4.26C5.71973 4.46 5.71973 4.78 5.71973 5.41V6.52C5.71973 8.67 7.65973 9.96 8.62973 10.47C8.85973 10.59 8.97973 10.65 9.16973 10.65C9.35973 10.65 9.47973 10.59 9.70973 10.47C10.6797 9.96 12.6197 8.67 12.6197 6.52H12.5997Z" stroke="#141414" stroke-width="1.5" stroke-linecap="round"/>
<path d="M16.7695 13.12L18.9295 10.24L21.9995 9.5" stroke="#141414" stroke-width="1.5" stroke-miterlimit="10" stroke-linecap="round"/>
</svg>
