<svg width="24" height="24" viewBox="0 0 24 24" fill="none" xmlns="http://www.w3.org/2000/svg">
<path d="M19.3692 15.33V16.17C19.3692 16.81 18.8392 17.34 18.1992 17.34H4.11922C3.46922 17.34 2.94922 16.82 2.94922 16.17V11.68C2.94922 11.53 2.97922 11.38 3.02922 11.25L4.69922 6.67996C5.05922 5.78996 5.91922 5.20996 6.87922 5.20996H7.99922" stroke="#141414" stroke-width="1.5" stroke-linecap="round" stroke-linejoin="round"/>
<path d="M15.5801 17.3298V19.1798C15.5801 19.8798 16.1501 20.4398 16.8401 20.4398H18.1001C18.8001 20.4398 19.3601 19.8698 19.3601 19.1798V15.3198" stroke="#141414" stroke-width="1.5" stroke-miterlimit="10" stroke-linecap="round"/>
<path d="M6.74094 17.3298V19.1798C6.74094 19.8798 6.17094 20.4398 5.48094 20.4398H4.22094C3.52094 20.4398 2.96094 19.8698 2.96094 19.1798V15.3198" stroke="#141414" stroke-width="1.5" stroke-miterlimit="10" stroke-linecap="round"/>
<path d="M6.10961 15.3501C6.80961 15.3501 7.36961 14.7801 7.36961 14.0901C7.36961 13.4001 6.79961 12.8301 6.10961 12.8301C5.41961 12.8301 4.84961 13.4001 4.84961 14.0901C4.84961 14.7801 5.41961 15.3501 6.10961 15.3501Z" fill="#141414"/>
<path d="M2 11.3501C2 11.3501 5.02 10.9901 9.06 10.8901" stroke="#141414" stroke-width="1.5" stroke-linecap="round" stroke-linejoin="round"/>
<path d="M16.1303 13.62C16.3803 13.75 16.6803 13.75 16.9303 13.62C18.2703 12.92 22.4903 10.4 22.4903 6.29C22.4903 4.48 21.0403 3.01 19.2303 3C18.1403 3.01 17.1303 3.56 16.5303 4.46C15.9303 3.56 14.9103 3.01 13.8303 3C12.0203 3.01 10.5703 4.48 10.5703 6.29C10.5703 10.4 14.7903 12.93 16.1303 13.62Z" stroke="#141414" stroke-width="1.5" stroke-linecap="round" stroke-linejoin="round"/>
</svg>
