<svg width="24" height="24" viewBox="0 0 24 24" fill="none" xmlns="http://www.w3.org/2000/svg">
<path d="M3.8 19.7601C2.74 19.7601 2 19.0201 2 17.8801V14.6201C2 13.9401 2.19 13.2801 2.57 12.7101L3.77 10.8501C3.89 10.6701 4.02 10.5101 4.17 10.3701" stroke="#141414" stroke-width="1.5" stroke-linecap="round" stroke-linejoin="round"/>
<path d="M13.8604 10.3799C14.5804 10.7499 15.2304 11.2699 15.7604 11.9199L17.0104 13.4499L21.0604 14.4599C21.6204 14.6099 22.0104 15.0999 22.0104 15.6799V17.8799C22.0104 18.9899 21.3004 19.7599 20.2804 19.7599" stroke="#141414" stroke-width="1.5" stroke-linecap="round" stroke-linejoin="round"/>
<path d="M17.6304 21.9501C18.8404 21.9501 19.8204 20.9701 19.8204 19.7601C19.8204 18.5501 18.8404 17.5701 17.6304 17.5701C16.4204 17.5701 15.4404 18.5501 15.4404 19.7601C15.4404 20.9701 16.4204 21.9501 17.6304 21.9501Z" stroke="#141414" stroke-width="1.5" stroke-linecap="round" stroke-linejoin="round"/>
<path d="M5.99957 21.9501C7.20957 21.9501 8.18957 20.9701 8.18957 19.7601C8.18957 18.5501 7.20957 17.5701 5.99957 17.5701C4.78957 17.5701 3.80957 18.5501 3.80957 19.7601C3.80957 20.9701 4.78957 21.9501 5.99957 21.9501Z" stroke="#141414" stroke-width="1.5" stroke-linecap="round" stroke-linejoin="round"/>
<path d="M2.46973 13.45H17.0097" stroke="#141414" stroke-width="1.5" stroke-linecap="round" stroke-linejoin="round"/>
<path d="M8.71973 19.76H15.2897" stroke="#141414" stroke-width="1.5" stroke-linecap="round" stroke-linejoin="round"/>
<path d="M13.1096 6.21V4.88C13.1096 4.13 13.1096 3.75 12.9196 3.51C12.7296 3.27 12.3196 3.15 11.4796 2.91C10.9096 2.75 10.3996 2.55 9.99961 2.37C9.44961 2.13 9.17961 2 8.97961 2C8.77961 2 8.50961 2.12 7.95961 2.37C7.55961 2.55 7.04961 2.74 6.47961 2.91C5.63961 3.15 5.21961 3.27 5.03961 3.51C4.84961 3.75 4.84961 4.13 4.84961 4.88V6.21C4.84961 8.79 7.16961 10.33 8.32961 10.94C8.60961 11.09 8.74961 11.16 8.96961 11.16C9.18961 11.16 9.33961 11.09 9.60961 10.94C10.7696 10.33 13.0896 8.78 13.0896 6.21H13.1096Z" stroke="#141414" stroke-width="1.5" stroke-linecap="round"/>
</svg>
