<svg width="24" height="24" viewBox="0 0 24 24" fill="none" xmlns="http://www.w3.org/2000/svg">
<path d="M20.02 16.06C21.05 16.06 21.75 15.3 21.75 14.18V11.97C21.75 11.4 21.36 10.9 20.8 10.76L16.75 9.75L15.51 8.22C14.37 6.82 12.65 6 10.84 6H5.61C4.76 6 3.97 6.43 3.51 7.15L2.31 9.01C1.94 9.58 1.75 10.24 1.75 10.92V14.19C1.75 15.33 2.49 16.07 3.55 16.07" stroke="#141414" stroke-width="1.5" stroke-miterlimit="10"/>
<path d="M17.3804 18.2501C18.5904 18.2501 19.5704 17.2701 19.5704 16.0601C19.5704 14.8501 18.5904 13.8701 17.3804 13.8701C16.1704 13.8701 15.1904 14.8501 15.1904 16.0601C15.1904 17.2701 16.1704 18.2501 17.3804 18.2501Z" stroke="#141414" stroke-width="1.5" stroke-linejoin="round"/>
<path d="M5.74957 18.2501C6.95957 18.2501 7.93957 17.2701 7.93957 16.0601C7.93957 14.8501 6.95957 13.8701 5.74957 13.8701C4.53957 13.8701 3.55957 14.8501 3.55957 16.0601C3.55957 17.2701 4.53957 18.2501 5.74957 18.2501Z" stroke="#141414" stroke-width="1.5" stroke-linejoin="round"/>
<path d="M2.21973 9.75H16.7597" stroke="#141414" stroke-width="1.5" stroke-miterlimit="10"/>
<path d="M8.46973 16.0601H15.0397" stroke="#141414" stroke-width="1.5" stroke-miterlimit="10"/>
</svg>
