<svg width="24" height="24" viewBox="0 0 24 24" fill="none" xmlns="http://www.w3.org/2000/svg">
<path d="M16.2797 19.55C15.1897 19.55 14.4297 18.79 14.4297 17.62V14.26C14.4297 13.56 14.6197 12.88 14.9997 12.29L16.2397 10.38C16.7097 9.63995 17.5197 9.19995 18.3997 9.19995H21.7497" stroke="#141414" stroke-width="1.5" stroke-miterlimit="10" stroke-linecap="round"/>
<path d="M18.5391 21.8C19.7791 21.8 20.7891 20.79 20.7891 19.55C20.7891 18.31 19.7791 17.3 18.5391 17.3C17.2991 17.3 16.2891 18.31 16.2891 19.55C16.2891 20.79 17.2991 21.8 18.5391 21.8Z" stroke="#141414" stroke-width="1.5" stroke-miterlimit="10" stroke-linecap="round"/>
<path d="M21.7502 13.0601H14.9102" stroke="#141414" stroke-width="1.5" stroke-miterlimit="10" stroke-linecap="round"/>
<path d="M21.7498 19.54H21.3398" stroke="#141414" stroke-width="1.5" stroke-miterlimit="10" stroke-linecap="round"/>
<path d="M9.47976 19.5299C10.5398 19.5299 11.2498 18.7499 11.2498 17.5999V15.3299C11.2498 14.7499 10.8498 14.2299 10.2798 14.0899L6.12977 13.0499L4.85977 11.4799C4.04977 10.4899 2.96977 9.77994 1.75977 9.43994" stroke="#141414" stroke-width="1.5" stroke-miterlimit="10" stroke-linecap="round"/>
<path d="M6.7693 21.7801C8.0093 21.7801 9.0093 20.7801 9.0093 19.5401C9.0093 18.3001 8.0093 17.3 6.7693 17.3C5.5293 17.3 4.5293 18.3001 4.5293 19.5401C4.5293 20.7801 5.5293 21.7801 6.7693 21.7801Z" stroke="#141414" stroke-width="1.5" stroke-miterlimit="10" stroke-linecap="round"/>
<path d="M1.75 13.0601H6.14" stroke="#141414" stroke-width="1.5" stroke-miterlimit="10" stroke-linecap="round"/>
<path d="M1.75 19.53H4.37" stroke="#141414" stroke-width="1.5" stroke-miterlimit="10" stroke-linecap="round"/>
<path d="M14.9112 7.84L16.9713 4.04L13.1612 5.73L11.7512 1.75L10.3412 5.73L6.53125 4.04L8.59125 7.84" stroke="#141414" stroke-width="1.5" stroke-linecap="round" stroke-linejoin="round"/>
</svg>
