<svg width="24" height="24" viewBox="0 0 24 24" fill="none" xmlns="http://www.w3.org/2000/svg">
<path d="M20.27 19.85C21.3 19.85 22 19.09 22 17.97V15.76C22 15.19 21.61 14.69 21.05 14.55L17 13.54L15.76 12.01C14.62 10.61 12.9 9.79004 11.09 9.79004H5.86C5.01 9.79004 4.22 10.22 3.76 10.94L2.56 12.8C2.19 13.37 2 14.03 2 14.71V17.98C2 19.12 2.74 19.86 3.8 19.86" stroke="#141414" stroke-width="1.5" stroke-miterlimit="10"/>
<path d="M17.6295 22.0402C18.8395 22.0402 19.8195 21.0602 19.8195 19.8502C19.8195 18.6402 18.8395 17.6602 17.6295 17.6602C16.4195 17.6602 15.4395 18.6402 15.4395 19.8502C15.4395 21.0602 16.4195 22.0402 17.6295 22.0402Z" stroke="#141414" stroke-width="1.5" stroke-linejoin="round"/>
<path d="M6.00055 22.0402C7.21055 22.0402 8.19055 21.0602 8.19055 19.8502C8.19055 18.6402 7.21055 17.6602 6.00055 17.6602C4.79055 17.6602 3.81055 18.6402 3.81055 19.8502C3.81055 21.0602 4.79055 22.0402 6.00055 22.0402Z" stroke="#141414" stroke-width="1.5" stroke-linejoin="round"/>
<path d="M2.4707 13.54H17.0107" stroke="#141414" stroke-width="1.5" stroke-miterlimit="10"/>
<path d="M8.7207 19.8501H15.2907" stroke="#141414" stroke-width="1.5" stroke-miterlimit="10"/>
<path d="M18.3598 7.34008C18.3598 8.17008 17.6798 8.85008 16.8498 8.85008C16.0198 8.85008 15.3398 8.17008 15.3398 7.34008C15.3398 6.51008 16.0198 5.83008 16.8498 5.83008C17.6798 5.83008 18.3598 6.51008 18.3598 7.34008Z" stroke="#141414" stroke-width="1.5"/>
<path d="M18.4307 11.19C18.5107 11.07 18.6207 10.97 18.7407 10.89L18.9207 10.79C19.1407 10.68 19.4007 10.64 19.6407 10.7L20.2907 10.88C20.6707 10.99 20.8607 11.04 21.0307 10.97C21.2007 10.9 21.3007 10.73 21.5007 10.38L21.7607 9.92C21.9507 9.6 22.0407 9.44 22.0207 9.26C22.0007 9.09 21.8807 8.95 21.6307 8.67L21.0807 8.06C20.9507 7.89 20.8507 7.59 20.8507 7.33C20.8507 7.07 20.9407 6.77 21.0807 6.6L21.6307 5.99C21.8807 5.71 22.0007 5.57 22.0207 5.4C22.0407 5.23 21.9507 5.07 21.7607 4.74L21.5007 4.28C21.3007 3.94 21.2007 3.76 21.0307 3.69C20.8607 3.62 20.6707 3.68 20.2907 3.78L19.6407 3.96C19.4007 4.02 19.1407 3.98 18.9207 3.87L18.7407 3.77C18.5507 3.65 18.4007 3.47 18.3207 3.26L18.1407 2.73C18.0207 2.38 17.9707 2.2 17.8307 2.1C17.6907 2 17.5107 2 17.1407 2H16.5507C16.1807 2 16.0007 2 15.8607 2.1C15.7207 2.2 15.6607 2.38 15.5507 2.73L15.3707 3.26C15.2907 3.47 15.1407 3.65 14.9507 3.77L14.7707 3.87C14.5507 3.98 14.2907 4.02 14.0507 3.96L13.4007 3.78C13.0207 3.67 12.8307 3.62 12.6607 3.69C12.4907 3.76 12.3907 3.93 12.1907 4.28L11.9307 4.74C11.7407 5.06 11.6507 5.22 11.6707 5.4C11.6907 5.57 11.8107 5.71 12.0607 5.99L12.6107 6.6C12.7407 6.77 12.8407 7.07 12.8407 7.33C12.8407 7.46 12.8207 7.59 12.7807 7.72" stroke="#141414" stroke-width="1.5" stroke-linecap="round"/>
</svg>
