<svg width="24" height="24" viewBox="0 0 24 24" fill="none" xmlns="http://www.w3.org/2000/svg">
<path d="M20.0687 17.5344H3.93081C3.18813 17.5344 2.58594 16.9362 2.58594 16.1983V9.9384C2.58594 9.76837 2.61852 9.59994 2.6821 9.44208L4.59933 4.67986C5.00774 3.66519 5.99677 3 7.09659 3H16.9029C18.0027 3 18.9917 3.66534 19.4001 4.67986L21.3174 9.44208C21.3809 9.59994 21.4135 9.76837 21.4135 9.9384V16.1983C21.4135 16.9362 20.8115 17.5344 20.0687 17.5344Z" stroke="#141414" stroke-width="1.5" stroke-linejoin="round"/>
<path d="M17.0693 17.5345V19.6552C17.0693 20.455 17.7177 21.1034 18.5176 21.1034H19.9659C20.7658 21.1034 21.4142 20.455 21.4142 19.6552V15.2324" stroke="#141414" stroke-width="1.5" stroke-miterlimit="10" stroke-linecap="round"/>
<path d="M6.93077 17.5345V19.6552C6.93077 20.455 6.28237 21.1034 5.48249 21.1034H4.03421C3.23433 21.1034 2.58594 20.455 2.58594 19.6552V15.2324" stroke="#141414" stroke-width="1.5" stroke-miterlimit="10" stroke-linecap="round"/>
<path d="M6.20706 15.3621C7.00693 15.3621 7.65534 14.7137 7.65534 13.9139C7.65534 13.114 7.00693 12.4656 6.20706 12.4656C5.4072 12.4656 4.75879 13.114 4.75879 13.9139C4.75879 14.7137 5.4072 15.3621 6.20706 15.3621Z" fill="#141414"/>
<path d="M17.793 15.3621C18.5929 15.3621 19.2413 14.7137 19.2413 13.9139C19.2413 13.114 18.5929 12.4656 17.793 12.4656C16.9931 12.4656 16.3447 13.114 16.3447 13.9139C16.3447 14.7137 16.9931 15.3621 17.793 15.3621Z" fill="#141414"/>
<path d="M1.5 9.56885H22.5" stroke="#141414" stroke-width="1.5" stroke-linecap="round" stroke-linejoin="round"/>
</svg>
