<svg width="24" height="24" viewBox="0 0 24 24" fill="none" xmlns="http://www.w3.org/2000/svg">
<path d="M5.29 21.9599C7.11 21.9599 8.58 20.4899 8.58 18.6699C8.58 16.8499 7.11 15.3799 5.29 15.3799C3.47 15.3799 2 16.8499 2 18.6699C2 20.4899 3.47 21.9599 5.29 21.9599Z" stroke="#141414" stroke-width="1.5" stroke-miterlimit="10"/>
<path d="M18.7197 21.9599C20.5397 21.9599 22.0097 20.4899 22.0097 18.6699C22.0097 16.8499 20.5397 15.3799 18.7197 15.3799C16.8997 15.3799 15.4297 16.8499 15.4297 18.6699C15.4297 20.4899 16.8997 21.9599 18.7197 21.9599Z" stroke="#141414" stroke-width="1.5" stroke-miterlimit="10"/>
<path d="M18.7195 15.38V12.33L15.9395 9.55005" stroke="#141414" stroke-width="1.5" stroke-linecap="round" stroke-linejoin="round"/>
<path d="M9.24023 18.6699H13.1902C14.0202 18.6699 14.8002 18.2799 15.3002 17.6199L17.3302 14.9099" stroke="#141414" stroke-width="1.5" stroke-linecap="round" stroke-linejoin="round"/>
<path d="M17.8202 15.3801L15.5702 13.1301C14.6602 12.2201 13.2502 12.0601 12.1702 12.7501C12.1702 12.7501 12.1602 12.7501 12.1502 12.7601L10.5802 13.7701C10.2002 14.1001 9.67023 14.1901 9.21023 14.0001L3.99023 12.0901" stroke="#141414" stroke-width="1.5" stroke-linecap="round" stroke-linejoin="round"/>
<path fill-rule="evenodd" clip-rule="evenodd" d="M3 2C3 1.58579 3.33579 1.25 3.75 1.25H7.25006C7.66427 1.25 8.00006 1.58579 8.00006 2C8.00006 2.41421 7.66427 2.75 7.25006 2.75H3.75C3.33579 2.75 3 2.41421 3 2Z" fill="#141414"/>
<path fill-rule="evenodd" clip-rule="evenodd" d="M5.5 1.25C5.91421 1.25 6.25 1.58579 6.25 2V6.28C6.25 6.69421 5.91421 7.03 5.5 7.03C5.08579 7.03 4.75 6.69421 4.75 6.28V2C4.75 1.58579 5.08579 1.25 5.5 1.25Z" fill="#141414"/>
<path fill-rule="evenodd" clip-rule="evenodd" d="M20.5098 1.25C20.924 1.25 21.2598 1.58579 21.2598 2V6.28C21.2598 6.69421 20.924 7.03 20.5098 7.03C20.0956 7.03 19.7598 6.69421 19.7598 6.28V2C19.7598 1.58579 20.0956 1.25 20.5098 1.25Z" fill="#141414"/>
<path fill-rule="evenodd" clip-rule="evenodd" d="M8.80865 2.60526C9.35802 1.01297 11.6193 1.04003 12.1304 2.64499L13.2156 6.05233C13.3413 6.44701 13.1232 6.86886 12.7285 6.99455C12.3338 7.12025 11.912 6.90219 11.7863 6.50751L10.7012 3.10017C10.6281 2.87088 10.3051 2.86703 10.2266 3.09449L9.04318 6.52453C8.90808 6.9161 8.48113 7.124 8.08957 6.9889C7.69801 6.85381 7.4901 6.42686 7.6252 6.0353L8.80865 2.60526Z" fill="#141414"/>
<path fill-rule="evenodd" clip-rule="evenodd" d="M14.4473 1.45995C14.7732 1.20432 15.2447 1.26129 15.5003 1.58721L18.8103 5.80721C19.066 6.13313 19.009 6.60457 18.6831 6.86021C18.3571 7.11584 17.8857 7.05887 17.6301 6.73295L14.3201 2.51295C14.0644 2.18704 14.1214 1.71559 14.4473 1.45995Z" fill="#141414"/>
<path fill-rule="evenodd" clip-rule="evenodd" d="M18.6831 1.45995C19.009 1.71559 19.066 2.18704 18.8103 2.51295L15.5003 6.73295C15.2447 7.05887 14.7732 7.11584 14.4473 6.86021C14.1214 6.60457 14.0644 6.13313 14.3201 5.80721L17.6301 1.58721C17.8857 1.26129 18.3571 1.20432 18.6831 1.45995Z" fill="#141414"/>
<path fill-rule="evenodd" clip-rule="evenodd" d="M8.41992 5C8.41992 4.58579 8.75571 4.25 9.16992 4.25H11.9999C12.4141 4.25 12.7499 4.58579 12.7499 5C12.7499 5.41421 12.4141 5.75 11.9999 5.75H9.16992C8.75571 5.75 8.41992 5.41421 8.41992 5Z" fill="#141414"/>
</svg>
