<svg width="24" height="24" viewBox="0 0 24 24" fill="none" xmlns="http://www.w3.org/2000/svg">
<path fill-rule="evenodd" clip-rule="evenodd" d="M3 2C3 1.58579 3.33579 1.25 3.75 1.25H7.25006C7.66427 1.25 8.00006 1.58579 8.00006 2C8.00006 2.41421 7.66427 2.75 7.25006 2.75H3.75C3.33579 2.75 3 2.41421 3 2Z" fill="#141414"/>
<path fill-rule="evenodd" clip-rule="evenodd" d="M5.5 1.25C5.91421 1.25 6.25 1.58579 6.25 2V6.28C6.25 6.69421 5.91421 7.03 5.5 7.03C5.08579 7.03 4.75 6.69421 4.75 6.28V2C4.75 1.58579 5.08579 1.25 5.5 1.25Z" fill="#141414"/>
<path fill-rule="evenodd" clip-rule="evenodd" d="M20.5098 1.25C20.924 1.25 21.2598 1.58579 21.2598 2V6.28C21.2598 6.69421 20.924 7.03 20.5098 7.03C20.0956 7.03 19.7598 6.69421 19.7598 6.28V2C19.7598 1.58579 20.0956 1.25 20.5098 1.25Z" fill="#141414"/>
<path fill-rule="evenodd" clip-rule="evenodd" d="M8.80865 2.60526C9.35802 1.01297 11.6193 1.04003 12.1304 2.64499L13.2156 6.05233C13.3413 6.44701 13.1232 6.86886 12.7285 6.99455C12.3338 7.12025 11.912 6.90219 11.7863 6.50751L10.7012 3.10017C10.6281 2.87088 10.3051 2.86703 10.2266 3.09449L9.04318 6.52453C8.90808 6.9161 8.48113 7.124 8.08957 6.9889C7.69801 6.85381 7.4901 6.42686 7.6252 6.0353L8.80865 2.60526Z" fill="#141414"/>
<path fill-rule="evenodd" clip-rule="evenodd" d="M14.4473 1.45995C14.7732 1.20432 15.2447 1.26129 15.5003 1.58721L18.8103 5.80721C19.066 6.13313 19.009 6.60457 18.6831 6.86021C18.3571 7.11584 17.8857 7.05887 17.6301 6.73295L14.3201 2.51295C14.0644 2.18704 14.1214 1.71559 14.4473 1.45995Z" fill="#141414"/>
<path fill-rule="evenodd" clip-rule="evenodd" d="M18.6831 1.45995C19.009 1.71559 19.066 2.18704 18.8103 2.51295L15.5003 6.73295C15.2447 7.05887 14.7732 7.11584 14.4473 6.86021C14.1214 6.60457 14.0644 6.13313 14.3201 5.80721L17.6301 1.58721C17.8857 1.26129 18.3571 1.20432 18.6831 1.45995Z" fill="#141414"/>
<path fill-rule="evenodd" clip-rule="evenodd" d="M8.41992 5C8.41992 4.58579 8.75571 4.25 9.16992 4.25H11.9999C12.4141 4.25 12.7499 4.58579 12.7499 5C12.7499 5.41421 12.4141 5.75 11.9999 5.75H9.16992C8.75571 5.75 8.41992 5.41421 8.41992 5Z" fill="#141414"/>
<path d="M20.27 19.79C21.3 19.79 22 19.03 22 17.91V15.7C22 15.13 21.61 14.63 21.05 14.49L17 13.48L15.76 11.95C14.62 10.55 12.9 9.72998 11.09 9.72998H5.86C5.01 9.72998 4.22 10.16 3.76 10.88L2.56 12.74C2.19 13.31 2 13.97 2 14.65V17.92C2 19.06 2.74 19.8 3.8 19.8" stroke="#141414" stroke-width="1.5" stroke-miterlimit="10"/>
<path d="M17.6295 21.9801C18.8395 21.9801 19.8195 21.0001 19.8195 19.7901C19.8195 18.5801 18.8395 17.6001 17.6295 17.6001C16.4195 17.6001 15.4395 18.5801 15.4395 19.7901C15.4395 21.0001 16.4195 21.9801 17.6295 21.9801Z" stroke="#141414" stroke-width="1.5" stroke-linejoin="round"/>
<path d="M6.01031 21.9801C7.22031 21.9801 8.20031 21.0001 8.20031 19.7901C8.20031 18.5801 7.22031 17.6001 6.01031 17.6001C4.80031 17.6001 3.82031 18.5801 3.82031 19.7901C3.82031 21.0001 4.80031 21.9801 6.01031 21.9801Z" stroke="#141414" stroke-width="1.5" stroke-linejoin="round"/>
<path d="M2.48047 13.48H17.0105" stroke="#141414" stroke-width="1.5" stroke-miterlimit="10"/>
<path d="M8.73047 19.79H15.3005" stroke="#141414" stroke-width="1.5" stroke-miterlimit="10"/>
</svg>
