<svg width="24" height="24" viewBox="0 0 24 24" fill="none" xmlns="http://www.w3.org/2000/svg">
<path d="M3.93945 20.42V5.58C3.93945 4.15 5.08945 3 6.51945 3H12.3295C13.7595 3 14.9095 4.15 14.9095 5.58V20.42" stroke="#141414" stroke-width="1.5" stroke-linecap="round" stroke-linejoin="round"/>
<path d="M2 20.4199H16.84" stroke="#141414" stroke-width="1.5" stroke-linecap="round" stroke-linejoin="round"/>
<path d="M4 7.39014H14.5" stroke="#141414" stroke-width="1.5" stroke-linecap="round" stroke-linejoin="round"/>
<path d="M18.7809 5.58008L21.6309 8.43008C21.8709 8.67008 22.0109 9.00008 22.0109 9.34008V15.2601C22.0109 16.3301 21.1409 17.2001 20.0709 17.2001C19.0009 17.2001 18.1309 16.3301 18.1309 15.2601V13.9701" stroke="#141414" stroke-width="1.5" stroke-linecap="round" stroke-linejoin="round"/>
<path d="M20.3906 7.18994V9.44994C20.3906 10.1599 20.9706 10.7399 21.6806 10.7399H22.0006" stroke="#141414" stroke-width="1.5" stroke-linecap="round" stroke-linejoin="round"/>
<path d="M8 17V12L9.82178 12C10.6502 12 11.3218 12.6716 11.3218 13.5V15.5C11.3218 16.3284 10.6502 17 9.82178 17H8Z" stroke="#141414" stroke-width="1.5" stroke-linejoin="round"/>
</svg>
