<svg width="24" height="24" viewBox="0 0 24 24" fill="none" xmlns="http://www.w3.org/2000/svg">
<path d="M19.23 16.62C20.27 15.12 21 13.32 21 11.19V8.28C21 6.64 21 5.82 20.59 5.29C20.19 4.75 19.28 4.49 17.45 3.97C16.2 3.62 15.1 3.19 14.22 2.8C13.02 2.27 12.42 2 12 2C11.58 2 10.97 2.27 9.78 2.8C8.9 3.19 7.8 3.62 6.55 3.97C4.72 4.49 3.81 4.75 3.4 5.29C3 5.82 3 6.64 3 8.28V11.19C3 13.32 3.73 15.12 4.77 16.62" stroke="#141414" stroke-width="1.5" stroke-linecap="round"/>
<path d="M5.2207 22.0298C5.4907 21.0598 7.1307 20.2898 7.8907 19.8598C10.4007 18.4198 13.5907 18.4198 16.1107 19.8598C16.8707 20.2898 18.5107 21.0598 18.7807 22.0298" stroke="#141414" stroke-width="1.5" stroke-linecap="round" stroke-linejoin="round"/>
<path d="M15.1707 12.0898C15.2507 12.3698 15.2907 12.6698 15.2907 12.9698C15.2907 14.8498 13.7607 16.3798 11.8807 16.3798C10.0007 16.3798 8.4707 14.8498 8.4707 12.9698C8.4707 12.6698 8.5107 12.3998 8.5807 12.1198" stroke="#141414" stroke-width="1.5"/>
<path d="M7.62046 8.62989C7.38046 9.67989 8.47046 10.2099 8.47046 10.2099H15.5305C15.5305 10.2099 16.6205 9.67989 16.3805 8.62989C16.2305 7.96989 14.5305 7.08989 13.2905 6.53989C12.6905 6.26989 12.3905 6.13989 12.0005 6.13989C11.6105 6.13989 11.3105 6.26989 10.7105 6.53989C9.47046 7.08989 7.78046 7.96989 7.62046 8.62989Z" stroke="#141414" stroke-width="1.5" stroke-linecap="round" stroke-linejoin="round"/>
<path d="M8.37049 10.21C7.72049 10.7 7.52049 11.9 8.88049 12.2C9.79049 12.4 10.8005 12.61 11.3705 12.73C11.6005 12.78 11.7205 12.8 11.8405 12.8C11.9605 12.8 12.0805 12.78 12.3105 12.73C12.8805 12.61 13.8905 12.4 14.8005 12.2C16.1705 11.9 15.9605 10.7 15.3105 10.21" stroke="#141414" stroke-width="1.5" stroke-linecap="round" stroke-linejoin="round"/>
</svg>
