<svg width="24" height="24" viewBox="0 0 24 24" fill="none" xmlns="http://www.w3.org/2000/svg">
<path d="M6.27977 7.27002H10.6298H14.5598V9.78002H17.2098V11.33H19.2298V9.71002H20.7298L21.9798 12.09V16.87L20.9498 19.02H19.3498V17.35H17.2898V20.15H10.6298L7.17977 17.26H4.50977V13.12V8.56002H6.27977V7.27002Z" stroke="#141414" stroke-width="1.5" stroke-linecap="round" stroke-linejoin="round"/>
<path d="M10.6094 4.18994L10.6294 7.26994" stroke="#141414" stroke-width="1.5" stroke-linecap="round" stroke-linejoin="round"/>
<path d="M6.60938 4H14.7494" stroke="#141414" stroke-width="1.5" stroke-linecap="round" stroke-linejoin="round"/>
<path d="M2 13H4.51" stroke="#141414" stroke-width="1.5" stroke-linecap="round" stroke-linejoin="round"/>
<path d="M2 8.55005V17" stroke="#141414" stroke-width="1.5" stroke-linecap="round" stroke-linejoin="round"/>
<path d="M7.55992 13.4099C7.91338 13.4099 8.19992 13.1233 8.19992 12.7699C8.19992 12.4164 7.91338 12.1299 7.55992 12.1299C7.20646 12.1299 6.91992 12.4164 6.91992 12.7699C6.91992 13.1233 7.20646 13.4099 7.55992 13.4099Z" fill="#141414"/>
<path d="M10.6791 13.4099C11.0325 13.4099 11.3191 13.1233 11.3191 12.7699C11.3191 12.4164 11.0325 12.1299 10.6791 12.1299C10.3256 12.1299 10.0391 12.4164 10.0391 12.7699C10.0391 13.1233 10.3256 13.4099 10.6791 13.4099Z" fill="#141414"/>
<path d="M13.8002 13.4099C14.1536 13.4099 14.4402 13.1233 14.4402 12.7699C14.4402 12.4164 14.1536 12.1299 13.8002 12.1299C13.4467 12.1299 13.1602 12.4164 13.1602 12.7699C13.1602 13.1233 13.4467 13.4099 13.8002 13.4099Z" fill="#141414"/>
</svg>
