<svg width="24" height="24" viewBox="0 0 24 24" fill="none" xmlns="http://www.w3.org/2000/svg">
<path d="M2.4707 13.29H17.0007" stroke="#141414" stroke-width="1.5" stroke-miterlimit="10" stroke-linecap="round"/>
<path d="M4.44 9.87988C4.31 10.0099 3.86 10.5199 3.76 10.6799L2.56 12.5399C2.19 13.1099 2 13.7699 2 14.4499V17.7199C2 18.8599 2.74 19.5899 3.8 19.5899" stroke="#141414" stroke-width="1.5" stroke-miterlimit="10" stroke-linecap="round"/>
<path d="M20.2697 19.59C21.2997 19.59 21.9997 18.83 21.9997 17.72V15.51C21.9997 14.94 21.6097 14.44 21.0497 14.3L16.9997 13.29L15.7597 11.76C15.2697 11.16 14.3097 10.22 13.6797 9.76001" stroke="#141414" stroke-width="1.5" stroke-miterlimit="10" stroke-linecap="round"/>
<path d="M17.6295 21.7799C18.8395 21.7799 19.8195 20.7999 19.8195 19.5899C19.8195 18.3799 18.8395 17.3999 17.6295 17.3999C16.4195 17.3999 15.4395 18.3799 15.4395 19.5899C15.4395 20.7999 16.4195 21.7799 17.6295 21.7799Z" stroke="#141414" stroke-width="1.5" stroke-linecap="round" stroke-linejoin="round"/>
<path d="M6.01031 21.7799C7.22031 21.7799 8.20031 20.7999 8.20031 19.5899C8.20031 18.3799 7.22031 17.3999 6.01031 17.3999C4.80031 17.3999 3.82031 18.3799 3.82031 19.5899C3.82031 20.7999 4.80031 21.7799 6.01031 21.7799Z" stroke="#141414" stroke-width="1.5" stroke-linecap="round" stroke-linejoin="round"/>
<path d="M8.7207 19.5901H15.2807" stroke="#141414" stroke-width="1.5" stroke-miterlimit="10" stroke-linecap="round"/>
<path d="M3.4 6.75C2.79 7.15 2.58 7.25 2 7.64" stroke="#141414" stroke-width="1.5" stroke-miterlimit="10" stroke-linecap="round"/>
<path d="M18.4798 9.96002C17.4298 8.64002 16.0998 7.55002 14.5898 6.77002" stroke="#141414" stroke-width="1.5" stroke-miterlimit="10" stroke-linecap="round"/>
<path d="M12.1808 6.19V3.91C10.3608 3.91 8.99078 3 8.99078 3C8.99078 3 7.62078 3.91 5.80078 3.91V6.19C5.80078 9.38 8.99078 10.29 8.99078 10.29C8.99078 10.29 12.1808 9.38 12.1808 6.19Z" stroke="#141414" stroke-width="1.5" stroke-linecap="round" stroke-linejoin="round"/>
</svg>
