<svg width="24" height="24" viewBox="0 0 24 24" fill="none" xmlns="http://www.w3.org/2000/svg">
<path d="M5.29 21.9799C7.11 21.9799 8.58 20.5099 8.58 18.6899C8.58 16.8699 7.11 15.3999 5.29 15.3999C3.47 15.3999 2 16.8699 2 18.6899C2 20.5099 3.47 21.9799 5.29 21.9799Z" stroke="#141414" stroke-width="1.5" stroke-miterlimit="10"/>
<path d="M18.7099 21.9799C20.5299 21.9799 21.9999 20.5099 21.9999 18.6899C21.9999 16.8699 20.5299 15.3999 18.7099 15.3999C16.8899 15.3999 15.4199 16.8699 15.4199 18.6899C15.4199 20.5099 16.8899 21.9799 18.7099 21.9799Z" stroke="#141414" stroke-width="1.5" stroke-miterlimit="10"/>
<path d="M18.7097 15.4001V12.3501L15.9297 9.57007" stroke="#141414" stroke-width="1.5" stroke-linecap="round" stroke-linejoin="round"/>
<path d="M9.24023 18.6899H13.1902C14.0202 18.6899 14.8002 18.2999 15.3002 17.6399L17.3302 14.9299" stroke="#141414" stroke-width="1.5" stroke-linecap="round" stroke-linejoin="round"/>
<path d="M17.8105 15.4001L15.5605 13.1501C14.6505 12.2401 13.2405 12.0801 12.1605 12.7701C12.1605 12.7701 12.1505 12.7701 12.1405 12.7801L10.5705 13.7901C10.1905 14.1201 9.66047 14.2101 9.20047 14.0201L3.98047 12.1101" stroke="#141414" stroke-width="1.5" stroke-linecap="round" stroke-linejoin="round"/>
<path d="M14.6405 5.58V3.02C12.6005 3.02 11.0605 2 11.0605 2C11.0605 2 9.52047 3.02 7.48047 3.02V5.58C7.48047 9.16 11.0605 10.18 11.0605 10.18C11.0605 10.18 14.6405 9.16 14.6405 5.58Z" stroke="#141414" stroke-width="1.5" stroke-linecap="round" stroke-linejoin="round"/>
<path d="M5.22031 6.79004C4.61031 7.19004 4.40031 7.29004 3.82031 7.68004" stroke="#141414" stroke-width="1.5" stroke-miterlimit="10" stroke-linecap="round"/>
<path d="M20.8607 9.89996C19.8107 8.57996 18.4807 7.48996 16.9707 6.70996" stroke="#141414" stroke-width="1.5" stroke-miterlimit="10" stroke-linecap="round"/>
</svg>
