<svg width="24" height="24" viewBox="0 0 24 24" fill="none" xmlns="http://www.w3.org/2000/svg">
<path d="M4.11 9.68994C3.98 9.81994 3.86 9.95994 3.76 10.1199L2.56 11.9799C2.19 12.5499 2 13.2099 2 13.8899V17.1599C2 18.2999 2.74 19.0299 3.8 19.0299" stroke="#141414" stroke-width="1.5" stroke-miterlimit="10" stroke-linecap="round"/>
<path d="M20.2698 19.02C21.2998 19.02 21.9998 18.26 21.9998 17.15V14.94C21.9998 14.37 21.6098 13.87 21.0498 13.73L16.9998 12.72L15.7598 11.19C15.2698 10.59 14.6698 10.09 14.0098 9.72998" stroke="#141414" stroke-width="1.5" stroke-miterlimit="10" stroke-linecap="round"/>
<path d="M17.6197 21.2098C18.8297 21.2098 19.8097 20.2298 19.8097 19.0198C19.8097 17.8098 18.8297 16.8298 17.6197 16.8298C16.4097 16.8298 15.4297 17.8098 15.4297 19.0198C15.4297 20.2298 16.4097 21.2098 17.6197 21.2098Z" stroke="#141414" stroke-width="1.5" stroke-linecap="round" stroke-linejoin="round"/>
<path d="M5.99957 21.2098C7.20957 21.2098 8.18957 20.2298 8.18957 19.0198C8.18957 17.8098 7.20957 16.8298 5.99957 16.8298C4.78957 16.8298 3.80957 17.8098 3.80957 19.0198C3.80957 20.2298 4.78957 21.2098 5.99957 21.2098Z" stroke="#141414" stroke-width="1.5" stroke-linecap="round" stroke-linejoin="round"/>
<path d="M2.46973 12.72H16.9997" stroke="#141414" stroke-width="1.5" stroke-miterlimit="10" stroke-linecap="round"/>
<path d="M8.71973 19.02H15.2797" stroke="#141414" stroke-width="1.5" stroke-miterlimit="10" stroke-linecap="round"/>
<path d="M12.2104 4.64C13.3004 6.77 12.4204 9.63 9.93041 10.05C6.67041 10.77 4.49041 6.75 6.94041 4.38C7.07041 4.25 7.43041 3.91 7.58041 3.8C7.58041 4.13 8.11041 5.36 8.60041 5.36C9.97041 5.36 9.70041 3.35 9.52041 2C10.6604 2.6 11.6304 3.45 12.2004 4.64H12.2104Z" stroke="#141414" stroke-width="1.5" stroke-linejoin="round"/>
</svg>
