<svg width="24" height="24" viewBox="0 0 24 24" fill="none" xmlns="http://www.w3.org/2000/svg">
<path d="M8.37891 10.1707H9.1769V12.2328H10.0302V10.1707H10.8282V15.2391H10.0302V12.9597H9.1769V15.2391H8.37891V10.1707Z" fill="#141414"/>
<path d="M11.7891 14.038V13.7496H12.5436V14.0972C12.5436 14.4607 12.7017 14.591 12.9545 14.591C13.2073 14.591 13.3653 14.4607 13.3653 14.0854C13.3653 13.6666 13.2073 13.398 12.6859 12.9397C12.0182 12.3511 11.801 11.9403 11.801 11.3596C11.801 10.5616 12.2118 10.0994 12.99 10.0994C13.7683 10.0994 14.1475 10.5616 14.1475 11.3754V11.5847H13.393V11.324C13.393 10.9606 13.2468 10.8223 12.994 10.8223C12.7412 10.8223 12.595 10.9606 12.595 11.3082C12.595 11.6756 12.7609 11.9442 13.2824 12.4025C13.95 12.9871 14.1594 13.394 14.1594 14.0261C14.1594 14.8517 13.7406 15.3139 12.9584 15.3139C12.1763 15.3139 11.7852 14.8517 11.7852 14.038H11.7891Z" fill="#141414"/>
<path d="M15.127 10.1707H16.3081C17.1338 10.1707 17.4893 10.5539 17.4893 11.3361V11.6482C17.4893 12.1696 17.3234 12.5015 16.9679 12.6476V12.6634C17.3669 12.7859 17.4972 13.1612 17.4972 13.734V14.6228C17.4972 14.8678 17.5051 15.0495 17.5841 15.2391H16.7743C16.7308 15.1087 16.7032 15.0297 16.7032 14.6149V13.6866C16.7032 13.2165 16.5649 13.0624 16.2054 13.0624H15.9289V15.2352H15.1309V10.1667L15.127 10.1707ZM16.2133 12.3434C16.5096 12.3434 16.6913 12.2131 16.6913 11.8062V11.4151C16.6913 11.0516 16.5689 10.8936 16.2844 10.8936H15.921V12.3434H16.2094H16.2133Z" fill="#141414"/>
<path d="M18.5527 10.1707H19.726C20.524 10.1707 20.9151 10.6131 20.9151 11.4229V11.9246C20.9151 12.7345 20.524 13.1769 19.726 13.1769H19.3507V15.2391H18.5527V10.1707ZM19.726 12.4501C19.9788 12.4501 20.1171 12.3355 20.1171 11.9721V11.3716C20.1171 11.0081 19.9788 10.8936 19.726 10.8936H19.3507V12.4501H19.726Z" fill="#141414"/>
<path d="M20.5547 4H3.44532C2.09481 4 1 5.09481 1 6.44532V18.0359C1 19.3864 2.09481 20.4812 3.44532 20.4812H20.5547C21.9052 20.4812 23 19.3864 23 18.0359V6.44532C23 5.09481 21.9052 4 20.5547 4Z" stroke="#141414" stroke-width="1.5" stroke-linecap="round" stroke-linejoin="round"/>
<path d="M5.89453 20.3943V4" stroke="#141414" stroke-width="1.18513" stroke-linejoin="round"/>
<path d="M3.85229 11.1462H2.95554C2.64355 11.1462 2.39062 11.3992 2.39062 11.7112V12.6079C2.39062 12.9199 2.64355 13.1728 2.95554 13.1728H3.85229C4.16428 13.1728 4.4172 12.9199 4.4172 12.6079V11.7112C4.4172 11.3992 4.16428 11.1462 3.85229 11.1462Z" fill="#141414"/>
<path d="M2.95898 13.9275H3.85178" stroke="#141414" stroke-width="0.592566" stroke-linecap="round" stroke-linejoin="round"/>
<path d="M8.56836 6.44531H9.05821" stroke="#141414" stroke-width="1.18513" stroke-linecap="round" stroke-linejoin="round"/>
<path d="M14.9414 6.44531H15.4313" stroke="#141414" stroke-width="1.18513" stroke-linecap="round" stroke-linejoin="round"/>
</svg>
