<svg width="24" height="24" viewBox="0 0 24 24" fill="none" xmlns="http://www.w3.org/2000/svg">
<path d="M11.4404 21.9999C13.2604 21.9999 14.7304 20.5299 14.7304 18.7099C14.7304 16.8899 13.2604 15.4199 11.4404 15.4199C9.62039 15.4199 8.15039 16.8899 8.15039 18.7099C8.15039 20.5299 9.62039 21.9999 11.4404 21.9999Z" stroke="#141414" stroke-width="1.5" stroke-miterlimit="10"/>
<path d="M11.4405 15.42V12.37L8.56055 9.48999" stroke="#141414" stroke-width="1.5" stroke-linecap="round" stroke-linejoin="round"/>
<path d="M2 18.71H5.92C6.75 18.71 7.53 18.32 8.03 17.66L10.06 14.95" stroke="#141414" stroke-width="1.5" stroke-linecap="round" stroke-linejoin="round"/>
<path d="M2.00977 14.0701C2.44977 14.2201 2.93977 14.1201 3.29977 13.8101L4.86977 12.8001L4.88977 12.7901C5.96977 12.1001 7.37977 12.2601 8.28977 13.1701L10.0598 14.9501L10.5398 15.4201" stroke="#141414" stroke-width="1.5" stroke-linecap="round" stroke-linejoin="round"/>
<path d="M14.9502 9.30006C15.2302 8.99006 15.2102 8.52006 14.9102 8.25006C14.6102 7.98006 14.1402 8.00006 13.8602 8.31006C13.5802 8.62006 13.6002 9.09006 13.9002 9.36006C14.2002 9.63006 14.6702 9.61006 14.9502 9.30006Z" fill="#141414"/>
<path d="M13.7096 7.06995C14.2796 6.44995 14.2396 5.48995 13.6296 4.92995C13.0196 4.36995 12.0596 4.40995 11.4896 5.02995C10.9196 5.64995 10.9596 6.60995 11.5696 7.16995C12.1796 7.72995 13.1396 7.68995 13.7096 7.06995Z" fill="#141414"/>
<path d="M21.9898 7.15V17.58H16.8398V7.15C16.8398 6.56 17.1098 6 17.5798 5.64L18.4998 4.94V2H20.3298V4.94L21.2498 5.64C21.7198 6 21.9898 6.56 21.9898 7.15Z" stroke="#141414" stroke-width="1.5" stroke-linecap="round" stroke-linejoin="round"/>
<path d="M18.9609 10.5701V13.2601" stroke="#141414" stroke-width="1.5" stroke-linecap="round" stroke-linejoin="round"/>
</svg>
