<svg width="24" height="24" viewBox="0 0 24 24" fill="none" xmlns="http://www.w3.org/2000/svg">
<path d="M14.9502 9.30006C15.2302 8.99006 15.2102 8.52006 14.9102 8.25006C14.6102 7.98006 14.1402 8.00006 13.8602 8.31006C13.5802 8.62006 13.6002 9.09006 13.9002 9.36006C14.2002 9.63006 14.6702 9.61006 14.9502 9.30006Z" fill="#141414"/>
<path d="M13.7096 7.06995C14.2796 6.44995 14.2396 5.48995 13.6296 4.92995C13.0196 4.36995 12.0596 4.40995 11.4896 5.02995C10.9196 5.64995 10.9596 6.60995 11.5696 7.16995C12.1796 7.72995 13.1396 7.68995 13.7096 7.06995Z" fill="#141414"/>
<path d="M2 9.66992H3.23C5.04 9.66992 6.76 10.4899 7.9 11.8899L9.14 13.4199H9.15L13.19 14.4299C13.75 14.5699 14.14 15.0699 14.14 15.6399V17.8499C14.14 18.9699 13.44 19.7299 12.41 19.7299" stroke="#141414" stroke-width="1.5" stroke-miterlimit="10" stroke-linecap="round"/>
<path d="M9.77008 21.92C10.9801 21.92 11.9601 20.94 11.9601 19.73C11.9601 18.52 10.9801 17.54 9.77008 17.54C8.56008 17.54 7.58008 18.52 7.58008 19.73C7.58008 20.94 8.56008 21.92 9.77008 21.92Z" stroke="#141414" stroke-width="1.5" stroke-linecap="round" stroke-linejoin="round"/>
<path d="M9.15 13.4199H9.14H2" stroke="#141414" stroke-width="1.5" stroke-miterlimit="10" stroke-linecap="round"/>
<path d="M2 19.73H7.43" stroke="#141414" stroke-width="1.5" stroke-miterlimit="10" stroke-linecap="round"/>
<path d="M21.9898 7.15V17.58H16.8398V7.15C16.8398 6.56 17.1098 6 17.5798 5.64L18.4998 4.94V2H20.3298V4.94L21.2498 5.64C21.7198 6 21.9898 6.56 21.9898 7.15Z" stroke="#141414" stroke-width="1.5" stroke-linecap="round" stroke-linejoin="round"/>
<path d="M18.9609 10.5701V13.2601" stroke="#141414" stroke-width="1.5" stroke-linecap="round" stroke-linejoin="round"/>
</svg>
