<svg width="24" height="24" viewBox="0 0 24 24" fill="none" xmlns="http://www.w3.org/2000/svg">
<path d="M5.04 22.7299C6.86 22.7299 8.33 21.2599 8.33 19.4399C8.33 17.6199 6.86 16.1499 5.04 16.1499C3.22 16.1499 1.75 17.6199 1.75 19.4399C1.75 21.2599 3.22 22.7299 5.04 22.7299Z" stroke="#141414" stroke-width="1.5" stroke-miterlimit="10"/>
<path d="M18.4599 22.7299C20.2799 22.7299 21.7499 21.2599 21.7499 19.4399C21.7499 17.6199 20.2799 16.1499 18.4599 16.1499C16.6399 16.1499 15.1699 17.6199 15.1699 19.4399C15.1699 21.2599 16.6399 22.7299 18.4599 22.7299Z" stroke="#141414" stroke-width="1.5" stroke-miterlimit="10"/>
<path d="M18.4601 16.15V13.1L15.5801 10.22" stroke="#141414" stroke-width="1.5" stroke-linecap="round" stroke-linejoin="round"/>
<path d="M8.99023 19.4399H12.9402C13.7702 19.4399 14.5502 19.0499 15.0502 18.3899L17.0802 15.6799" stroke="#141414" stroke-width="1.5" stroke-linecap="round" stroke-linejoin="round"/>
<path d="M17.5605 16.1499L15.3105 13.8999C14.4005 12.9899 12.9905 12.8299 11.9105 13.5199C11.9105 13.5199 11.9005 13.5199 11.8905 13.5299L10.3205 14.5399C9.94047 14.8699 9.41047 14.9599 8.95047 14.7699L3.73047 12.8599" stroke="#141414" stroke-width="1.5" stroke-linecap="round" stroke-linejoin="round"/>
<path d="M8.9893 8.75012C8.9893 7.05012 11.1993 6.34012 11.1993 4.66012C11.1993 3.53012 10.2093 2.62012 8.9893 2.62012C7.9093 2.62012 6.9693 3.33012 6.7793 4.28012M8.8693 11.0501V10.5001" stroke="#141414" stroke-width="1.25" stroke-linecap="round" stroke-linejoin="round"/>
</svg>
