<svg width="24" height="24" viewBox="0 0 24 24" fill="none" xmlns="http://www.w3.org/2000/svg">
<g clip-path="url(#clip0_12_2438)">
<path d="M3.55 18.9799C2.49 18.9799 1.75 18.2399 1.75 17.0999V13.8299C1.75 13.1499 1.94 12.4899 2.31 11.9199L3.51 10.0599C3.97 9.34992 4.76 8.91992 5.61 8.91992H5.95" stroke="#141414" stroke-width="1.5" stroke-miterlimit="10" stroke-linecap="round"/>
<path d="M10.8398 8.91992C12.6498 8.91992 14.3698 9.72992 15.5098 11.1399L16.7498 12.6699L20.8098 13.6799C21.3598 13.8199 21.7498 14.3199 21.7498 14.8899V17.0999C21.7498 18.2099 21.0498 18.9799 20.0198 18.9799" stroke="#141414" stroke-width="1.5" stroke-miterlimit="10" stroke-linecap="round"/>
<path d="M17.3795 21.16C18.5895 21.16 19.5695 20.18 19.5695 18.97C19.5695 17.76 18.5895 16.78 17.3795 16.78C16.1695 16.78 15.1895 17.76 15.1895 18.97C15.1895 20.18 16.1695 21.16 17.3795 21.16Z" stroke="#141414" stroke-width="1.5" stroke-linecap="round" stroke-linejoin="round"/>
<path d="M5.75055 21.16C6.96055 21.16 7.94055 20.18 7.94055 18.97C7.94055 17.76 6.96055 16.78 5.75055 16.78C4.54055 16.78 3.56055 17.76 3.56055 18.97C3.56055 20.18 4.54055 21.16 5.75055 21.16Z" stroke="#141414" stroke-width="1.5" stroke-linecap="round" stroke-linejoin="round"/>
<path d="M2.2207 12.6699H16.7607" stroke="#141414" stroke-width="1.5" stroke-miterlimit="10" stroke-linecap="round"/>
<path d="M8.4707 18.98H15.0407" stroke="#141414" stroke-width="1.5" stroke-miterlimit="10" stroke-linecap="round"/>
<path d="M8.39047 8.24012C8.39047 6.96012 10.0605 6.43012 10.0605 5.16012C10.0605 4.31012 9.31047 3.62012 8.39047 3.62012C7.58047 3.62012 6.87047 4.16012 6.73047 4.87012M8.38047 10.2901V9.87012" stroke="#141414" stroke-width="1.25" stroke-linecap="round" stroke-linejoin="round"/>
</g>
<defs>
<clipPath id="clip0_12_2438">
<rect width="21.5" height="18.91" fill="white" transform="translate(1 3)"/>
</clipPath>
</defs>
</svg>
