<svg width="24" height="24" viewBox="0 0 24 24" fill="none" xmlns="http://www.w3.org/2000/svg">
<path d="M5.29 22.0001C7.11 22.0001 8.58 20.581 8.58 18.824C8.58 17.067 7.11 15.6479 5.29 15.6479C3.47 15.6479 2 17.067 2 18.824C2 20.581 3.47 22.0001 5.29 22.0001Z" stroke="#141414" stroke-width="1.5" stroke-miterlimit="10"/>
<path d="M18.7002 22.0001C20.5202 22.0001 21.9902 20.581 21.9902 18.824C21.9902 17.067 20.5202 15.6479 18.7002 15.6479C16.8802 15.6479 15.4102 17.067 15.4102 18.824C15.4102 20.581 16.8802 22.0001 18.7002 22.0001Z" stroke="#141414" stroke-width="1.5" stroke-miterlimit="10"/>
<path d="M18.7001 15.6478V12.7035L15.8301 9.93286" stroke="#141414" stroke-width="1.5" stroke-linecap="round" stroke-linejoin="round"/>
<path d="M9.24023 18.8239H13.1902C14.0202 18.8239 14.8002 18.4474 15.3002 17.8102L17.3302 15.1941" stroke="#141414" stroke-width="1.5" stroke-linecap="round" stroke-linejoin="round"/>
<path d="M17.7997 15.6479L15.5497 13.4758C14.6397 12.5973 13.2297 12.4429 12.1497 13.109C12.1497 13.109 12.1397 13.109 12.1297 13.1186L10.5597 14.084C10.1797 14.4025 9.64973 14.4894 9.18973 14.306L3.96973 12.4622" stroke="#141414" stroke-width="1.5" stroke-linecap="round" stroke-linejoin="round"/>
<path d="M14.104 4.32578L13.2631 4.04578L12.9822 3.204C12.8916 2.932 12.4409 2.932 12.3502 3.204L12.0693 4.04578L11.2284 4.32578C11.0924 4.37111 11 4.49823 11 4.64223C11 4.78623 11.0924 4.91334 11.2284 4.95867L12.0693 5.23867L12.3502 6.08045C12.3956 6.21645 12.5227 6.308 12.6658 6.308C12.8089 6.308 12.9369 6.21556 12.9813 6.08045L13.2622 5.23867L14.1031 4.95867C14.2391 4.91334 14.3316 4.78623 14.3316 4.64223C14.3316 4.49823 14.24 4.37111 14.104 4.32578Z" fill="#141414"/>
<path d="M9.72678 8.60312L8.71719 8.26455L8.37994 7.24667C8.27108 6.91778 7.72999 6.91778 7.62114 7.24667L7.28389 8.26455L6.27429 8.60312C6.111 8.65793 6 8.81164 6 8.98577C6 9.15989 6.111 9.31359 6.27429 9.3684L7.28389 9.70698L7.62114 10.7248C7.67556 10.8893 7.82818 11 8 11C8.17182 11 8.32551 10.8882 8.37887 10.7248L8.71612 9.70698L9.72573 9.3684C9.88901 9.31359 10 9.15989 10 8.98577C10 8.81164 9.89007 8.65793 9.72678 8.60312Z" fill="#141414"/>
<path d="M18.8893 9.22225C19.2575 9.22225 19.556 8.92377 19.556 8.55558C19.556 8.18739 19.2575 7.88892 18.8893 7.88892C18.5211 7.88892 18.2227 8.18739 18.2227 8.55558C18.2227 8.92377 18.5211 9.22225 18.8893 9.22225Z" fill="#141414"/>
</svg>
