<svg width="24" height="24" viewBox="0 0 24 24" fill="none" xmlns="http://www.w3.org/2000/svg">
<g clip-path="url(#clip0_12_2499)">
<path d="M2.75 13.4299H17.28" stroke="#141414" stroke-width="1.5" stroke-miterlimit="10" stroke-linecap="round"/>
<path d="M4.7193 10.02C4.5893 10.15 4.1393 10.66 4.0393 10.82L2.8393 12.68C2.4693 13.25 2.2793 13.91 2.2793 14.59V17.86C2.2793 19 3.0193 19.73 4.0793 19.73" stroke="#141414" stroke-width="1.5" stroke-miterlimit="10" stroke-linecap="round"/>
<path d="M20.5509 19.7299C21.5809 19.7299 22.2809 18.9699 22.2809 17.8599V15.6499C22.2809 15.0799 21.8909 14.5799 21.3309 14.4399L17.2809 13.4299L16.0409 11.8999C15.5509 11.2999 14.5909 10.3599 13.9609 9.8999" stroke="#141414" stroke-width="1.5" stroke-miterlimit="10" stroke-linecap="round"/>
<path d="M17.9107 21.92C19.1207 21.92 20.1007 20.94 20.1007 19.73C20.1007 18.52 19.1207 17.54 17.9107 17.54C16.7007 17.54 15.7207 18.52 15.7207 19.73C15.7207 20.94 16.7007 21.92 17.9107 21.92Z" stroke="#141414" stroke-width="1.5" stroke-linecap="round" stroke-linejoin="round"/>
<path d="M6.28961 21.92C7.49961 21.92 8.47961 20.94 8.47961 19.73C8.47961 18.52 7.49961 17.54 6.28961 17.54C5.07961 17.54 4.09961 18.52 4.09961 19.73C4.09961 20.94 5.07961 21.92 6.28961 21.92Z" stroke="#141414" stroke-width="1.5" stroke-linecap="round" stroke-linejoin="round"/>
<path d="M9 19.73H15.56" stroke="#141414" stroke-width="1.5" stroke-miterlimit="10" stroke-linecap="round"/>
<path d="M12.4601 6.32989V4.04989C10.6401 4.04989 9.27008 3.13989 9.27008 3.13989C9.27008 3.13989 7.90008 4.04989 6.08008 4.04989V6.32989C6.08008 9.51989 9.27008 10.4299 9.27008 10.4299C9.27008 10.4299 12.4601 9.51989 12.4601 6.32989Z" stroke="#141414" stroke-width="1.5" stroke-linecap="round" stroke-linejoin="round"/>
<path d="M15.5 9C15.78 9 16 8.78 16 8.5C16 8.22 15.78 8 15.5 8C15.22 8 15 8.22 15 8.5C15 8.78 15.22 9 15.5 9Z" fill="#141414"/>
<path d="M3.86 7.8L3.36 7.63L3.19 7.12C3.14 6.96 2.87 6.96 2.81 7.12L2.64 7.63L2.14 7.8C2.06 7.83 2 7.9 2 7.99C2 8.08 2.06 8.15 2.14 8.18L2.64 8.35L2.81 8.86C2.84 8.94 2.91 9 3 9C3.09 9 3.16 8.94 3.19 8.86L3.36 8.35L3.86 8.18C3.94 8.15 4 8.08 4 7.99C4 7.9 3.95 7.83 3.86 7.8Z" fill="#141414"/>
<path d="M15.86 2.8L15.36 2.63L15.19 2.12C15.14 1.96 14.87 1.96 14.81 2.12L14.64 2.63L14.14 2.8C14.06 2.83 14 2.9 14 2.99C14 3.08 14.06 3.15 14.14 3.18L14.64 3.35L14.81 3.86C14.84 3.94 14.91 4 15 4C15.09 4 15.16 3.94 15.19 3.86L15.36 3.35L15.86 3.18C15.94 3.15 16 3.08 16 2.99C16 2.9 15.94 2.83 15.86 2.8Z" fill="#141414"/>
</g>
<defs>
<clipPath id="clip0_12_2499">
<rect width="24" height="24" fill="white"/>
</clipPath>
</defs>
</svg>
