<svg width="24" height="24" viewBox="0 0 24 24" fill="none" xmlns="http://www.w3.org/2000/svg">
<g clip-path="url(#clip0_12_2513)">
<path d="M5.29 22.56C7.11 22.56 8.58 21.09 8.58 19.27C8.58 17.45 7.11 15.98 5.29 15.98C3.47 15.98 2 17.45 2 19.27C2 21.09 3.47 22.56 5.29 22.56Z" stroke="#141414" stroke-width="1.5" stroke-miterlimit="10"/>
<path d="M18.7099 22.56C20.5299 22.56 21.9999 21.09 21.9999 19.27C21.9999 17.45 20.5299 15.98 18.7099 15.98C16.8899 15.98 15.4199 17.45 15.4199 19.27C15.4199 21.09 16.8899 22.56 18.7099 22.56Z" stroke="#141414" stroke-width="1.5" stroke-miterlimit="10"/>
<path d="M18.7097 15.9801V12.9301L15.9297 10.1501" stroke="#141414" stroke-width="1.5" stroke-linecap="round" stroke-linejoin="round"/>
<path d="M9.24023 19.27H13.1902C14.0202 19.27 14.8002 18.88 15.3002 18.22L17.3302 15.51" stroke="#141414" stroke-width="1.5" stroke-linecap="round" stroke-linejoin="round"/>
<path d="M17.8105 15.9799L15.5605 13.7299C14.6505 12.8199 13.2405 12.6599 12.1605 13.3499C12.1605 13.3499 12.1505 13.3499 12.1405 13.3599L10.5705 14.3699C10.1905 14.6999 9.66047 14.7899 9.20047 14.5999L3.98047 12.6899" stroke="#141414" stroke-width="1.5" stroke-linecap="round" stroke-linejoin="round"/>
<path d="M14.6405 6.16008V3.60008C12.6005 3.60008 11.0605 2.58008 11.0605 2.58008C11.0605 2.58008 9.52047 3.60008 7.48047 3.60008V6.16008C7.48047 9.74008 11.0605 10.7601 11.0605 10.7601C11.0605 10.7601 14.6405 9.74008 14.6405 6.16008Z" stroke="#141414" stroke-width="1.5" stroke-linecap="round" stroke-linejoin="round"/>
<path d="M17.3203 8.34009C17.6003 8.34009 17.8203 8.12009 17.8203 7.84009C17.8203 7.56009 17.6003 7.34009 17.3203 7.34009C17.0403 7.34009 16.8203 7.56009 16.8203 7.84009C16.8203 8.12009 17.0403 8.34009 17.3203 8.34009Z" fill="#141414"/>
<path d="M5.76039 8.38008L5.26039 8.21008L5.09039 7.70008C5.04039 7.54008 4.77039 7.54008 4.71039 7.70008L4.54039 8.21008L4.04039 8.38008C3.96039 8.41008 3.90039 8.48008 3.90039 8.57008C3.90039 8.66008 3.96039 8.73008 4.04039 8.76008L4.54039 8.93008L4.71039 9.44008C4.74039 9.52008 4.81039 9.58008 4.90039 9.58008C4.99039 9.58008 5.06039 9.52008 5.09039 9.44008L5.26039 8.93008L5.76039 8.76008C5.84039 8.73008 5.90039 8.66008 5.90039 8.57008C5.90039 8.48008 5.85039 8.41008 5.76039 8.38008Z" fill="#141414"/>
<path d="M17.7604 2.8L17.2604 2.63L17.0904 2.12C17.0404 1.96 16.7704 1.96 16.7104 2.12L16.5404 2.63L16.0404 2.8C15.9604 2.83 15.9004 2.9 15.9004 2.99C15.9004 3.08 15.9604 3.15 16.0404 3.18L16.5404 3.35L16.7104 3.86C16.7404 3.94 16.8104 4 16.9004 4C16.9904 4 17.0604 3.94 17.0904 3.86L17.2604 3.35L17.7604 3.18C17.8404 3.15 17.9004 3.08 17.9004 2.99C17.9004 2.9 17.8404 2.83 17.7604 2.8Z" fill="#141414"/>
</g>
<defs>
<clipPath id="clip0_12_2513">
<rect width="24" height="24" fill="white"/>
</clipPath>
</defs>
</svg>
