<svg width="24" height="24" viewBox="0 0 24 24" fill="none" xmlns="http://www.w3.org/2000/svg">
<g clip-path="url(#clip0_12_2453)">
<path d="M6.30078 3.8C6.30078 2.81 7.11078 2 8.10078 2H8.46078C10.6108 2 12.3508 3.74 12.3508 5.89V7.04H9.54078C7.75078 7.04 6.30078 5.59 6.30078 3.8Z" stroke="#141414" stroke-width="1.5" stroke-linejoin="round"/>
<path d="M18.3898 3.8C18.3898 2.81 17.5798 2 16.5898 2H16.2298C14.0798 2 12.3398 3.74 12.3398 5.89V7.04H15.1498C16.9398 7.04 18.3898 5.59 18.3898 3.8Z" stroke="#141414" stroke-width="1.5" stroke-linejoin="round"/>
<path d="M18.8598 19.0301H5.60977C4.99977 19.0301 4.50977 18.5401 4.50977 17.9301V12.7901C4.50977 12.6501 4.53977 12.5101 4.58977 12.3801L6.15977 8.47009C6.49977 7.64009 7.30977 7.09009 8.20977 7.09009H16.2698C17.1698 7.09009 17.9898 7.64009 18.3198 8.47009L19.8898 12.3801C19.9398 12.5101 19.9698 12.6501 19.9698 12.7901V17.9301C19.9698 18.5401 19.4798 19.0301 18.8698 19.0301H18.8598Z" stroke="#141414" stroke-width="1.5" stroke-linejoin="round"/>
<path d="M16.3984 19.0301V20.7701C16.3984 21.4301 16.9284 21.9601 17.5884 21.9601H18.7784C19.4384 21.9601 19.9684 21.4301 19.9684 20.7701V17.1401" stroke="#141414" stroke-width="1.5" stroke-miterlimit="10" stroke-linecap="round"/>
<path d="M8.07 19.0301V20.7701C8.07 21.4301 7.54 21.9601 6.88 21.9601H5.69C5.03 21.9601 4.5 21.4301 4.5 20.7701V17.1401" stroke="#141414" stroke-width="1.5" stroke-miterlimit="10" stroke-linecap="round"/>
<path d="M7.47906 17.2401C8.13906 17.2401 8.66906 16.7101 8.66906 16.0501C8.66906 15.3901 8.13906 14.8601 7.47906 14.8601C6.81906 14.8601 6.28906 15.3901 6.28906 16.0501C6.28906 16.7101 6.81906 17.2401 7.47906 17.2401Z" fill="#141414"/>
<path d="M16.9888 17.2401C17.6488 17.2401 18.1788 16.7101 18.1788 16.0501C18.1788 15.3901 17.6488 14.8601 16.9888 14.8601C16.3288 14.8601 15.7988 15.3901 15.7988 16.0501C15.7988 16.7101 16.3288 17.2401 16.9888 17.2401Z" fill="#141414"/>
<path d="M3.60938 12.48H20.8594" stroke="#141414" stroke-width="1.5" stroke-linecap="round" stroke-linejoin="round"/>
<path d="M21.7409 8.8L21.2409 8.63L21.0709 8.12C21.0209 7.96 20.7509 7.96 20.6909 8.12L20.5209 8.63L20.0209 8.8C19.9409 8.83 19.8809 8.9 19.8809 8.99C19.8809 9.08 19.9409 9.15 20.0209 9.18L20.5209 9.35L20.6909 9.86C20.7209 9.94 20.7909 10 20.8809 10C20.9709 10 21.0409 9.94 21.0709 9.86L21.2409 9.35L21.7409 9.18C21.8209 9.15 21.8809 9.08 21.8809 8.99C21.8809 8.9 21.8209 8.83 21.7409 8.8Z" fill="#141414"/>
<path d="M5.35 5.16009L4.71 4.95009L4.5 4.31009C4.43 4.10009 4.09 4.10009 4.02 4.31009L3.81 4.95009L3.17 5.16009C3.07 5.19009 3 5.29009 3 5.40009C3 5.51009 3.07 5.61009 3.17 5.64009L3.81 5.85009L4.02 6.49009C4.05 6.59009 4.15 6.66009 4.26 6.66009C4.37 6.66009 4.47 6.59009 4.5 6.49009L4.71 5.85009L5.35 5.64009C5.45 5.61009 5.52 5.51009 5.52 5.40009C5.52 5.29009 5.45 5.19009 5.35 5.16009Z" fill="#141414"/>
<path d="M3.7907 8.58995C3.9707 8.58995 4.1107 8.44995 4.1107 8.26995C4.1107 8.08995 3.9707 7.94995 3.7907 7.94995C3.6107 7.94995 3.4707 8.08995 3.4707 8.26995C3.4707 8.44995 3.6107 8.58995 3.7907 8.58995Z" fill="#141414"/>
</g>
<defs>
<clipPath id="clip0_12_2453">
<rect width="24" height="24" fill="white"/>
</clipPath>
</defs>
</svg>
