<svg width="24" height="24" viewBox="0 0 24 24" fill="none" xmlns="http://www.w3.org/2000/svg">
<path d="M21.19 19.53C21.19 19.82 21.07 20.08 20.88 20.27C20.69 20.46 20.43 20.58 20.14 20.58H3.61C3.03 20.58 2.57 20.11 2.57 19.53C2.57 19.24 2.69 18.98 2.87 18.79C3.06 18.6 3.32 18.48 3.61 18.48H3.66C2.61 16.9 2 15.01 2 12.97C2 7.47 6.47 3 11.98 3C17.49 3 21.96 7.47 21.96 12.98C21.96 15.02 21.35 16.92 20.3 18.5C20.81 18.57 21.2 19 21.2 19.53H21.19Z" stroke="#141414" stroke-width="1.5" stroke-linecap="round" stroke-linejoin="round"/>
<path d="M11.9806 18.0701C14.7918 18.0701 17.0706 15.7913 17.0706 12.9801C17.0706 10.169 14.7918 7.89014 11.9806 7.89014C9.1695 7.89014 6.89062 10.169 6.89062 12.9801C6.89062 15.7913 9.1695 18.0701 11.9806 18.0701Z" stroke="#141414" stroke-width="1.5" stroke-linecap="round" stroke-linejoin="round"/>
<path d="M12.0895 15.0502C13.2328 15.0502 14.1595 14.1234 14.1595 12.9802C14.1595 11.8369 13.2328 10.9102 12.0895 10.9102C10.9463 10.9102 10.0195 11.8369 10.0195 12.9802C10.0195 14.1234 10.9463 15.0502 12.0895 15.0502Z" fill="#141414"/>
<path d="M11.9805 3V4.88" stroke="#141414" stroke-width="1.5" stroke-linecap="round" stroke-linejoin="round"/>
<path d="M16.9202 4.33984L15.9902 5.95984" stroke="#141414" stroke-width="1.5" stroke-linecap="round" stroke-linejoin="round"/>
<path d="M20.5399 7.94995L18.9199 8.89995" stroke="#141414" stroke-width="1.5" stroke-linecap="round" stroke-linejoin="round"/>
<path d="M21.8898 12.8901L20.0098 12.9101" stroke="#141414" stroke-width="1.5" stroke-linecap="round" stroke-linejoin="round"/>
<path d="M7.46094 4.33984L8.39094 5.95984" stroke="#141414" stroke-width="1.5" stroke-linecap="round" stroke-linejoin="round"/>
<path d="M3.83008 7.94995L5.45008 8.89995" stroke="#141414" stroke-width="1.5" stroke-linecap="round" stroke-linejoin="round"/>
<path d="M2.49023 12.8901L4.36023 12.9101" stroke="#141414" stroke-width="1.5" stroke-linecap="round" stroke-linejoin="round"/>
</svg>
