<svg width="24" height="24" viewBox="0 0 24 24" fill="none" xmlns="http://www.w3.org/2000/svg">
<g clip-path="url(#clip0_12_2244)">
<path d="M15.5702 12.37C15.5702 14.35 13.9702 15.95 11.9902 15.95C10.0102 15.95 8.41016 14.35 8.41016 12.37C8.41016 10.39 10.0102 8.79004 11.9902 8.79004C13.9702 8.79004 15.5702 10.39 15.5702 12.37Z" stroke="#141414" stroke-width="1.5"/>
<path d="M19.23 16.62C20.27 15.12 21 13.32 21 11.19V8.28C21 6.64 21 5.82 20.59 5.29C20.19 4.75 19.28 4.49 17.45 3.97C16.2 3.62 15.1 3.19 14.22 2.8C13.02 2.27 12.42 2 12 2C11.58 2 10.97 2.27 9.78 2.8C8.9 3.19 7.8 3.62 6.55 3.97C4.72 4.49 3.81 4.75 3.4 5.29C3 5.82 3 6.64 3 8.28V11.19C3 13.32 3.73 15.12 4.77 16.62" stroke="#141414" stroke-width="1.5" stroke-linecap="round"/>
<path d="M5.2207 22.03C5.4907 21.06 7.1307 20.29 7.8907 19.86C10.4007 18.42 13.5907 18.42 16.1107 19.86C16.8707 20.29 18.5107 21.06 18.7807 22.03" stroke="#141414" stroke-width="1.5" stroke-linecap="round" stroke-linejoin="round"/>
</g>
<defs>
<clipPath id="clip0_12_2244">
<rect width="24" height="24" fill="white"/>
</clipPath>
</defs>
</svg>
