<svg width="24" height="24" viewBox="0 0 24 24" fill="none" xmlns="http://www.w3.org/2000/svg">
<g clip-path="url(#clip0_12_2218)">
<g clip-path="url(#clip1_12_2218)">
<path d="M19.03 16.42C20.07 14.92 20.81 13.11 20.81 10.97V8.05001C20.81 6.40001 20.81 5.58001 20.4 5.05001C20 4.51001 19.09 4.25001 17.25 3.73001C16 3.38001 14.89 2.95001 14.01 2.56001C12.81 2.03001 12.2 1.76001 11.78 1.76001C11.36 1.76001 10.75 2.03001 9.55 2.56001C8.67 2.95001 7.56 3.38001 6.31 3.73001C4.47 4.25001 3.56 4.51001 3.15 5.05001C2.75 5.58001 2.75 6.40001 2.75 8.05001V10.97C2.75 13.11 3.48 14.91 4.53 16.42" stroke="#141414" stroke-width="1.5" stroke-linecap="round"/>
<path d="M16.3008 9.32999C16.3008 8.87999 16.2008 8.41999 16.0108 8.00999C15.6808 7.28999 15.1408 6.67999 14.4608 6.23999C14.3408 6.15999 14.2208 6.07999 14.0908 6.01999C13.6808 5.75999 12.9508 5.54999 12.4808 5.48999C12.4608 5.48999 12.4308 5.48999 12.4108 5.48999H11.2008C11.2008 5.48999 11.1308 5.48999 11.1008 5.48999C10.0708 5.65999 9.13082 6.01999 8.37082 6.76999C8.23082 6.89999 8.09082 7.04999 7.98082 7.20999C7.92082 7.28999 7.87082 7.35999 7.81082 7.43999C7.41082 8.02999 7.30082 8.74999 7.33082 9.46999V12.56C7.34082 13.03 7.48082 13.28 7.78082 13.74L8.14082 14.3C8.37082 14.66 8.62082 15.02 8.89082 15.35C9.43082 16.02 9.87082 16.34 10.7308 16.53C11.2508 16.64 12.1208 16.67 12.6508 16.59C13.6308 16.44 14.2008 16.05 14.8408 15.27C15.3608 14.64 16.2508 13.33 16.3108 12.48L16.3008 9.32999Z" stroke="#141414" stroke-width="1.5" stroke-miterlimit="10"/>
<path d="M16.2903 12.3799L14.6103 12.8699C12.7703 13.3999 10.8403 13.3999 9.00031 12.8699L7.32031 12.3799" stroke="#141414" stroke-width="1.5" stroke-miterlimit="10"/>
<path d="M7.51953 9.75008C9.02953 9.30008 10.6295 9.19008 12.0495 9.20008C13.4795 9.18008 15.0795 9.30008 16.5795 9.75008" stroke="#141414" stroke-width="1.5" stroke-miterlimit="10"/>
<path d="M4.33008 21.75C5.07008 21.06 6.22008 20.5 6.85008 20.13C9.86008 18.4 13.6801 18.4 16.7001 20.13C17.3301 20.49 18.4801 21.04 19.2201 21.75" stroke="#141414" stroke-width="1.5" stroke-linecap="round" stroke-linejoin="round"/>
</g>
</g>
<defs>
<clipPath id="clip0_12_2218">
<rect width="24" height="24" fill="white"/>
</clipPath>
<clipPath id="clip1_12_2218">
<rect width="19.56" height="21.5" fill="white" transform="translate(2 1)"/>
</clipPath>
</defs>
</svg>
