<svg width="24" height="24" viewBox="0 0 24 24" fill="none" xmlns="http://www.w3.org/2000/svg">
<path d="M3.8 18.4601C2.75 18.4601 2 17.7201 2 16.5801V13.3101C2 12.6301 2.2 11.9701 2.56 11.4001L3.76 9.5401C3.94 9.2601 4.17 9.0301 4.43 8.8501" stroke="#141414" stroke-width="1.5" stroke-miterlimit="10" stroke-linecap="round"/>
<path d="M14.5391 9.48999C14.9891 9.79999 15.3991 10.18 15.7591 10.62L17.0091 12.15L21.0591 13.16C21.6191 13.3 22.0091 13.8 22.0091 14.37V16.58C22.0091 17.69 21.2991 18.46 20.2691 18.46" stroke="#141414" stroke-width="1.5" stroke-miterlimit="10" stroke-linecap="round"/>
<path d="M17.6295 20.64C18.8395 20.64 19.8195 19.66 19.8195 18.45C19.8195 17.24 18.8395 16.26 17.6295 16.26C16.4195 16.26 15.4395 17.24 15.4395 18.45C15.4395 19.66 16.4195 20.64 17.6295 20.64Z" stroke="#141414" stroke-width="1.5" stroke-linecap="round" stroke-linejoin="round"/>
<path d="M6.00055 20.64C7.21055 20.64 8.19055 19.66 8.19055 18.45C8.19055 17.24 7.21055 16.26 6.00055 16.26C4.79055 16.26 3.81055 17.24 3.81055 18.45C3.81055 19.66 4.79055 20.64 6.00055 20.64Z" stroke="#141414" stroke-width="1.5" stroke-linecap="round" stroke-linejoin="round"/>
<path d="M2.4707 12.1501H17.0107" stroke="#141414" stroke-width="1.5" stroke-miterlimit="10" stroke-linecap="round"/>
<path d="M8.7207 18.4502H15.2907" stroke="#141414" stroke-width="1.5" stroke-miterlimit="10" stroke-linecap="round"/>
<path d="M10.1201 3.50489L10.7339 4.75225C10.8131 4.92055 11.0408 5.08884 11.2289 5.11854L12.3476 5.30664C13.0604 5.42544 13.2287 5.95012 12.7139 6.46491L11.8427 7.33609C11.6942 7.48458 11.615 7.77167 11.6645 7.97957L11.912 9.05864C12.11 9.91992 11.6546 10.2466 10.9022 9.80112L9.85285 9.17744C9.66475 9.06854 9.34796 9.06854 9.15987 9.17744L8.11049 9.80112C7.35811 10.2466 6.90273 9.91002 7.10072 9.05864L7.34821 7.97957C7.39771 7.77167 7.30862 7.48458 7.17002 7.33609L6.29884 6.46491C5.78406 5.95012 5.95235 5.42544 6.66513 5.30664L7.7838 5.11854C7.9719 5.08884 8.18969 4.92055 8.27879 4.75225L8.89257 3.50489C9.22916 2.8317 9.77365 2.8317 10.1102 3.50489H10.1201Z" fill="#141414"/>
</svg>
