<svg width="24" height="24" viewBox="0 0 24 24" fill="none" xmlns="http://www.w3.org/2000/svg">
<path d="M20.27 19.6C21.3 19.6 22 18.84 22 17.72V15.51C22 14.94 21.61 14.44 21.05 14.3L17 13.29L15.76 11.76C14.62 10.36 12.9 9.54004 11.09 9.54004H5.86C5.01 9.54004 4.22 9.97004 3.76 10.69L2.56 12.55C2.19 13.12 2 13.78 2 14.46V17.73C2 18.87 2.74 19.61 3.8 19.61" stroke="#141414" stroke-width="1.5" stroke-miterlimit="10"/>
<path d="M17.6304 21.7902C18.8404 21.7902 19.8204 20.8102 19.8204 19.6002C19.8204 18.3902 18.8404 17.4102 17.6304 17.4102C16.4204 17.4102 15.4404 18.3902 15.4404 19.6002C15.4404 20.8102 16.4204 21.7902 17.6304 21.7902Z" stroke="#141414" stroke-width="1.5" stroke-linejoin="round"/>
<path d="M5.99957 21.7902C7.20957 21.7902 8.18957 20.8102 8.18957 19.6002C8.18957 18.3902 7.20957 17.4102 5.99957 17.4102C4.78957 17.4102 3.80957 18.3902 3.80957 19.6002C3.80957 20.8102 4.78957 21.7902 5.99957 21.7902Z" stroke="#141414" stroke-width="1.5" stroke-linejoin="round"/>
<path d="M2.46973 13.29H17.0097" stroke="#141414" stroke-width="1.5" stroke-miterlimit="10"/>
<path d="M8.71973 19.6001H15.2897" stroke="#141414" stroke-width="1.5" stroke-miterlimit="10"/>
<path d="M11.8496 7.11C12.1496 4.79 14.1296 3 16.5296 3C19.1296 3 21.2396 5.11 21.2396 7.71C21.2396 9.33 20.4196 10.77 19.1696 11.61" stroke="#141414" stroke-width="1.5" stroke-linecap="round" stroke-linejoin="round"/>
<path d="M16.5195 5.88989V7.60989H18.1395" stroke="#141414" stroke-width="1.5" stroke-linecap="round" stroke-linejoin="round"/>
</svg>
