<svg width="24" height="24" viewBox="0 0 24 24" fill="none" xmlns="http://www.w3.org/2000/svg">
<path d="M16.8594 5.46997V7.18997H18.4794" stroke="#141414" stroke-width="1.5" stroke-linecap="round" stroke-linejoin="round"/>
<path d="M17.1595 11.78C19.8602 11.78 22.0495 9.59067 22.0495 6.89C22.0495 4.18933 19.8602 2 17.1595 2C14.4589 2 12.2695 4.18933 12.2695 6.89C12.2695 9.59067 14.4589 11.78 17.1595 11.78Z" stroke="#141414" stroke-width="1.5" stroke-linecap="round" stroke-linejoin="round"/>
<path d="M10.9599 21.9399C12.7799 21.9399 14.2499 20.4699 14.2499 18.6499C14.2499 16.8299 12.7799 15.3599 10.9599 15.3599C9.13992 15.3599 7.66992 16.8299 7.66992 18.6499C7.66992 20.4699 9.13992 21.9399 10.9599 21.9399Z" stroke="#141414" stroke-width="1.5" stroke-miterlimit="10"/>
<path d="M10.9597 15.36V12.31L8.17969 9.53003" stroke="#141414" stroke-width="1.5" stroke-linecap="round" stroke-linejoin="round"/>
<path d="M2.05078 18.6501H5.44078C6.27078 18.6501 7.05078 18.2601 7.55078 17.6001L9.58078 14.8901" stroke="#141414" stroke-width="1.5" stroke-linecap="round" stroke-linejoin="round"/>
<path d="M10.1 15.36L7.99 13.11C7.13 12.2 5.81 12.04 4.79 12.73C4.79 12.73 4.79 12.73 4.77 12.74L3.29 13.75C2.93 14.08 2.43 14.17 2 13.98" stroke="#141414" stroke-width="1.5" stroke-linecap="round" stroke-linejoin="round"/>
</svg>
