<svg width="24" height="24" viewBox="0 0 24 24" fill="none" xmlns="http://www.w3.org/2000/svg">
<path d="M6.41914 22.6899C6.41914 22.6899 6.36914 22.5799 6.36914 22.4799V18.2099C6.36914 18.1099 6.38914 18.0399 6.41914 17.9999C6.45914 17.9599 6.51914 17.9399 6.60914 17.9399H8.15914C8.58914 17.9399 8.93914 18.0799 9.19914 18.3499C9.45914 18.6199 9.58914 18.9999 9.58914 19.4799C9.58914 20.1299 9.34914 20.5699 8.87914 20.7699C8.93914 20.8299 9.00914 20.9399 9.07914 21.0799L9.66914 22.4599C9.68914 22.5199 9.69914 22.5699 9.69914 22.5999C9.69914 22.6899 9.63914 22.7399 9.51914 22.7399H9.00914C8.85914 22.7399 8.75914 22.7199 8.70914 22.6899C8.65914 22.6599 8.60914 22.5899 8.56914 22.4899L8.14914 21.4299C8.06914 21.2499 8.00914 21.1299 7.94914 21.0699C7.89914 21.0199 7.79914 20.9899 7.66914 20.9899H7.35914V22.4699C7.35914 22.5699 7.33914 22.6399 7.30914 22.6799C7.27914 22.7199 7.21914 22.7399 7.12914 22.7399H6.61914C6.52914 22.7399 6.46914 22.7199 6.42914 22.6799L6.41914 22.6899ZM8.10914 20.0699C8.25914 20.0699 8.37914 20.0199 8.46914 19.9199C8.55914 19.8199 8.60914 19.6799 8.60914 19.4999C8.60914 19.3199 8.56914 19.1799 8.47914 19.0799C8.38914 18.9799 8.26914 18.9299 8.11914 18.9299H7.35914V20.0799H8.11914L8.10914 20.0699Z" fill="#141414"/>
<path d="M11.1092 22.6999C11.1092 22.6999 11.0592 22.5899 11.0592 22.4899V18.9199H10.1892C10.0992 18.9199 10.0292 18.8999 9.99922 18.8599C9.96922 18.8199 9.94922 18.7499 9.94922 18.6399V18.2099C9.94922 18.1099 9.96922 18.0299 9.99922 17.9999C10.0292 17.9599 10.0992 17.9399 10.1892 17.9399H12.9092C12.9992 17.9399 13.0692 17.9599 13.0992 17.9999C13.1292 18.0399 13.1492 18.1099 13.1492 18.2099V18.6399C13.1492 18.7399 13.1292 18.8199 13.0992 18.8599C13.0692 18.8999 12.9992 18.9199 12.9092 18.9199H12.0392V22.4899C12.0392 22.5899 12.0192 22.6599 11.9892 22.6999C11.9492 22.7399 11.8892 22.7599 11.7992 22.7599H11.2992C11.2092 22.7599 11.1492 22.7399 11.1092 22.6999Z" fill="#141414"/>
<path d="M13.9598 22.25C13.6598 21.93 13.5098 21.49 13.5098 20.92V19.52C13.5098 18.96 13.6598 18.51 13.9598 18.19C14.2598 17.87 14.6798 17.71 15.2298 17.71C15.7798 17.71 16.2098 17.87 16.5098 18.19C16.8098 18.51 16.9598 18.95 16.9598 19.52V20.92C16.9598 21.48 16.8098 21.93 16.5098 22.25C16.2098 22.57 15.7798 22.73 15.2298 22.73C14.6798 22.73 14.2598 22.57 13.9598 22.25ZM14.6698 21.55C14.7898 21.69 14.9798 21.76 15.2198 21.76C15.4598 21.76 15.6498 21.69 15.7698 21.55C15.8898 21.41 15.9598 21.21 15.9598 20.94V19.5C15.9598 19.23 15.8998 19.03 15.7698 18.89C15.6398 18.75 15.4598 18.68 15.2198 18.68C14.9798 18.68 14.7898 18.75 14.6698 18.89C14.5498 19.03 14.4798 19.23 14.4798 19.5V20.94C14.4798 21.21 14.5398 21.41 14.6698 21.55Z" fill="#141414"/>
<path d="M3.11914 8.27989H7.80914C8.56914 8.27989 9.18914 7.64989 9.18914 6.87989V2.13989" stroke="#141414" stroke-width="1.5" stroke-linecap="round" stroke-linejoin="round"/>
<path d="M19.19 21.61C19.81 21.1 20.2 20.32 20.2 19.45V4.79C20.2 3.25 18.97 2 17.45 2H9.76C9.4 2 9.04 2.15 8.79 2.41L3.4 7.87C3.14 8.13 3 8.49 3 8.86V19.45C3 20.49 3.56 21.4 4.4 21.88" stroke="#141414" stroke-width="1.5" stroke-linecap="round" stroke-linejoin="round"/>
</svg>
