<svg width="24" height="24" viewBox="0 0 24 24" fill="none" xmlns="http://www.w3.org/2000/svg">
<g clip-path="url(#clip0_12_2480)">
<path d="M6.05945 7.06568C6.67945 7.06568 7.17945 6.56568 7.17945 5.94568C7.17945 5.32568 6.67945 4.82568 6.05945 4.82568C5.43945 4.82568 4.93945 5.32568 4.93945 5.94568C4.93945 6.56568 5.43945 7.06568 6.05945 7.06568Z" stroke="#141414" stroke-width="1.5" stroke-linecap="round" stroke-linejoin="round"/>
<path d="M9.79037 19.8755C10.2804 20.3355 10.7804 20.7855 11.2804 21.2355C12.4004 22.2355 14.0904 22.2555 15.2804 21.3355C17.6404 19.5055 19.6404 17.5055 21.4704 15.1455C22.3904 13.9555 22.3704 12.2655 21.3704 11.1455C18.6504 8.10553 15.8004 5.31553 12.6704 2.62553C12.3604 2.35553 11.9804 2.19553 11.5804 2.15553C9.78037 1.99553 4.61037 1.65553 3.21037 3.05553C1.78037 4.47553 2.12037 9.65553 2.29037 11.4455C2.33037 11.8555 2.49037 12.2355 2.76037 12.5355C3.22037 13.0755 3.71037 13.6255 4.18037 14.1455" stroke="#141414" stroke-width="1.5" stroke-linecap="round"/>
<path d="M11.24 17.0156C13.59 17.0156 15.51 15.1056 15.51 12.7456C15.51 10.3856 13.6 8.47559 11.24 8.47559C8.88 8.47559 6.97 10.3856 6.97 12.7456C6.97 13.3756 7.11 13.9656 7.35 14.5056L2 19.8556V21.9856H4.13V20.5656H5.55V19.1456H6.97L9.48 16.6356C10.01 16.8756 10.61 17.0156 11.24 17.0156Z" stroke="#141414" stroke-width="1.5" stroke-linecap="round" stroke-linejoin="round"/>
<path d="M13.1302 12.4957L11.4902 10.8557" stroke="#141414" stroke-width="1.5" stroke-linecap="round" stroke-linejoin="round"/>
</g>
<defs>
<clipPath id="clip0_12_2480">
<rect width="24" height="24" fill="white"/>
</clipPath>
</defs>
</svg>
