<svg width="24" height="24" viewBox="0 0 24 24" fill="none" xmlns="http://www.w3.org/2000/svg">
<path d="M3.8 17.37C2.75 17.37 2 16.63 2 15.49V12.22C2 11.54 2.2 10.88 2.57 10.31L3.77 8.44004C4.23 7.73004 5.02 7.29004 5.87 7.29004H11.11C11.44 7.29004 11.77 7.32004 12.09 7.38004C13.53 7.61004 14.85 8.37004 15.79 9.52004L17.04 11.05L21.1 12.07C21.65 12.21 22.05 12.71 22.05 13.28V15.49C22.05 16.61 21.34 17.37 20.31 17.37" stroke="#141414" stroke-width="1.5" stroke-miterlimit="10"/>
<path d="M17.6597 19.5599C18.8697 19.5599 19.8497 18.5799 19.8497 17.3699C19.8497 16.1599 18.8697 15.1799 17.6597 15.1799C16.4497 15.1799 15.4697 16.1599 15.4697 17.3699C15.4697 18.5799 16.4497 19.5599 17.6597 19.5599Z" stroke="#141414" stroke-width="1.5" stroke-linejoin="round"/>
<path d="M6.01031 19.5599C7.22031 19.5599 8.20031 18.5799 8.20031 17.3699C8.20031 16.1599 7.22031 15.1799 6.01031 15.1799C4.80031 15.1799 3.82031 16.1599 3.82031 17.3699C3.82031 18.5799 4.80031 19.5599 6.01031 19.5599Z" stroke="#141414" stroke-width="1.5" stroke-linejoin="round"/>
<path d="M2.46973 11.05H4.30973" stroke="#141414" stroke-width="1.5" stroke-miterlimit="10" stroke-linecap="round"/>
<path d="M6.5 11.05H8.34" stroke="#141414" stroke-width="1.5" stroke-miterlimit="10" stroke-linecap="round"/>
<path d="M10.54 11.05H12.38" stroke="#141414" stroke-width="1.5" stroke-miterlimit="10" stroke-linecap="round"/>
<path d="M14.5703 11.05H16.4103" stroke="#141414" stroke-width="1.5" stroke-miterlimit="10" stroke-linecap="round"/>
<path d="M8.74023 17.3701H15.3202" stroke="#141414" stroke-width="1.5" stroke-miterlimit="10"/>
<path d="M12.1302 7.36C12.1302 7.36 12.1202 7.37 12.0902 7.38C11.7702 7.32 11.4402 7.29 11.1102 7.29H6.81023C6.78023 7.22 6.76023 7.14 6.74023 7.06L7.32023 5.6C7.46023 5.23 7.81023 5 8.20023 5H10.7102C11.1302 5 11.5002 5.27 11.6202 5.67L12.1302 7.36Z" stroke="#141414" stroke-width="1.5" stroke-miterlimit="10" stroke-linecap="round"/>
</svg>
