<svg width="24" height="24" viewBox="0 0 24 24" fill="none" xmlns="http://www.w3.org/2000/svg">
<path d="M11.7494 13.5901C9.75945 13.4001 7.72945 13.8301 5.96945 14.8801C4.69945 15.6401 1.35945 17.1901 3.38945 19.1201C4.37945 20.0701 5.48945 20.7401 6.87945 20.7401H12.6494" stroke="#141414" stroke-width="1.5" stroke-linecap="round" stroke-linejoin="round"/>
<path d="M14.8988 6.8C14.8988 9.04 13.0888 10.85 10.8488 10.85C8.60883 10.85 6.79883 9.04 6.79883 6.8C6.79883 4.56 8.60883 2.75 10.8488 2.75C13.0888 2.75 14.8988 4.56 14.8988 6.8Z" stroke="#141414" stroke-width="1.5"/>
<path d="M19.1192 20.7501V18.2201C20.3492 17.6801 21.1992 16.4501 21.1992 15.0201C21.1992 13.5901 20.3492 12.3601 19.1192 11.8101V13.8301L17.6992 15.2401L16.2892 13.8301V11.8101C15.0592 12.3601 14.1992 13.5901 14.1992 15.0201C14.1992 16.4501 15.0592 17.6801 16.2892 18.2201V20.7501" stroke="#141414" stroke-width="1.5" stroke-linecap="round" stroke-linejoin="round"/>
</svg>
