<svg width="24" height="24" viewBox="0 0 24 24" fill="none" xmlns="http://www.w3.org/2000/svg">
<g clip-path="url(#clip0_12_2430)">
<path d="M11.7194 20.22C12.3594 20.26 12.8494 20.51 13.1994 20.77C14.0594 21.42 15.1894 21.63 16.2294 21.35C20.2394 20.25 21.2394 15.02 19.1894 15.44C16.7794 15.92 11.7294 16.2 11.7294 16.2H11.7594C11.7594 16.2 6.70944 15.92 4.29944 15.44C2.23944 15.03 3.23944 20.25 7.25944 21.35C8.29944 21.63 9.42944 21.42 10.2894 20.77C10.6394 20.51 11.1294 20.27 11.7694 20.22H11.7394H11.7194Z" stroke="#141414" stroke-width="1.5" stroke-linejoin="round"/>
<path d="M18.38 8.5C20.44 8.98 21.73 9.67 21.73 10.45C21.73 11.89 17.23 13.42 11.71 13.42C6.19 13.42 1.75 11.88 1.75 10.44C1.75 9.68 3 8.99 5.01 8.52" stroke="#141414" stroke-width="1.5" stroke-linejoin="round"/>
<path d="M4.51953 9.2799C4.51953 9.2799 11.1195 11.6999 18.9195 9.4099L17.2795 4.2899C16.9695 3.3299 15.9795 2.7699 14.9995 2.9999L12.2195 3.6399C11.8995 3.7199 11.5595 3.7099 11.2395 3.6099L8.58953 2.8299C7.57953 2.5299 6.52953 3.0899 6.19953 4.0899L4.52953 9.2799H4.51953Z" stroke="#141414" stroke-width="1.5" stroke-linejoin="round"/>
<path d="M9.23091 17.82C8.68091 17.53 7.80091 17.27 6.82091 17.76C6.47091 17.93 6.35091 18.38 6.58091 18.69C6.86091 19.07 7.34091 19.49 8.04091 19.42C8.63091 19.37 9.06091 19.1 9.35091 18.84C9.67091 18.55 9.61091 18.03 9.22091 17.82H9.23091Z" fill="#141414"/>
<path d="M14.0604 17.82C14.6104 17.53 15.4904 17.27 16.4704 17.76C16.8204 17.93 16.9404 18.38 16.7104 18.69C16.4304 19.07 15.9504 19.49 15.2504 19.42C14.6604 19.37 14.2304 19.1 13.9404 18.84C13.6204 18.55 13.6804 18.03 14.0704 17.82H14.0604Z" fill="#141414"/>
</g>
<defs>
<clipPath id="clip0_12_2430">
<rect width="21.49" height="20.22" fill="white" transform="translate(1 2)"/>
</clipPath>
</defs>
</svg>
