<svg width="24" height="24" viewBox="0 0 24 24" fill="none" xmlns="http://www.w3.org/2000/svg">
<g clip-path="url(#clip0_12_2190)">
<path d="M5.29 22.0275C7.11 22.0275 8.58 20.5575 8.58 18.7375C8.58 16.9175 7.11 15.4475 5.29 15.4475C3.47 15.4475 2 16.9175 2 18.7375C2 20.5575 3.47 22.0275 5.29 22.0275Z" stroke="#141414" stroke-width="1.5" stroke-miterlimit="10"/>
<path d="M18.7099 22.0275C20.5299 22.0275 21.9999 20.5575 21.9999 18.7375C21.9999 16.9175 20.5299 15.4475 18.7099 15.4475C16.8899 15.4475 15.4199 16.9175 15.4199 18.7375C15.4199 20.5575 16.8899 22.0275 18.7099 22.0275Z" stroke="#141414" stroke-width="1.5" stroke-miterlimit="10"/>
<path d="M18.7101 15.4476V12.3976L15.8301 9.51758" stroke="#141414" stroke-width="1.5" stroke-linecap="round" stroke-linejoin="round"/>
<path d="M9.24023 18.7375H13.1902C14.0202 18.7375 14.8002 18.3475 15.3002 17.6875L17.3302 14.9775" stroke="#141414" stroke-width="1.5" stroke-linecap="round" stroke-linejoin="round"/>
<path d="M17.8105 15.4475L15.5605 13.1975C14.6505 12.2875 13.2405 12.1275 12.1605 12.8175C12.1605 12.8175 12.1505 12.8175 12.1405 12.8275L10.5705 13.8375C10.1905 14.1675 9.66047 14.2575 9.20047 14.0675L3.98047 12.1575" stroke="#141414" stroke-width="1.5" stroke-linecap="round" stroke-linejoin="round"/>
<path d="M10.3208 9.18C10.1708 9.18 10.0208 9.13 9.90078 9.03L7.85078 6.21L4.60078 7.09C4.43078 7.09 4.27078 7.02 4.14078 6.9C4.02078 6.78 3.94078 6.62 3.93078 6.45L3.80078 3.67C3.80078 3.56 3.82078 3.44 3.88078 3.34C3.93078 3.24 4.01078 3.15 4.11078 3.09C4.21078 3.03 4.32078 3 4.44078 3C4.56078 3 4.67078 3.03 4.77078 3.09L7.88078 5.81H12.2508C12.3608 5.85 12.4608 5.9 12.5408 5.98C12.6208 6.06 12.6808 6.15 12.7208 6.26C12.7508 6.37 12.7608 6.48 12.7408 6.59C12.7208 6.7 12.6708 6.8 12.6008 6.89L10.8308 9C10.7708 9.07 10.6908 9.12 10.6008 9.15C10.5108 9.18 10.4208 9.2 10.3308 9.19L10.3208 9.18Z" stroke="#141414" stroke-width="1.5" stroke-miterlimit="10"/>
</g>
<defs>
<clipPath id="clip0_12_2190">
<rect width="24" height="24" fill="white"/>
</clipPath>
</defs>
</svg>
