<svg width="24" height="24" viewBox="0 0 24 24" fill="none" xmlns="http://www.w3.org/2000/svg">
<path d="M16.5099 19.6899C15.4299 19.6899 14.6699 18.9399 14.6699 17.7799V14.4499C14.6699 13.7599 14.8699 13.0799 15.2499 12.4999L16.4699 10.6099C16.9399 9.87994 17.7399 9.43994 18.6099 9.43994H21.9899" stroke="#141414" stroke-width="1.5" stroke-miterlimit="10" stroke-linecap="round"/>
<path d="M18.7495 21.92C19.9795 21.92 20.9795 20.92 20.9795 19.69C20.9795 18.46 19.9795 17.46 18.7495 17.46C17.5195 17.46 16.5195 18.46 16.5195 19.69C16.5195 20.92 17.5195 21.92 18.7495 21.92Z" stroke="#141414" stroke-width="1.5" stroke-linecap="round" stroke-linejoin="round"/>
<path d="M22.0001 13.26H15.0801" stroke="#141414" stroke-width="1.5" stroke-miterlimit="10" stroke-linecap="round"/>
<path d="M21.4502 19.6899H21.9802" stroke="#141414" stroke-width="1.5" stroke-miterlimit="10" stroke-linecap="round"/>
<path d="M9.16008 21.92C11.0001 21.92 12.4901 20.43 12.4901 18.59C12.4901 16.75 11.0001 15.26 9.16008 15.26C7.32008 15.26 5.83008 16.75 5.83008 18.59C5.83008 20.43 7.32008 21.92 9.16008 21.92Z" stroke="#141414" stroke-width="1.5" stroke-miterlimit="10" stroke-linecap="round"/>
<path d="M9.16 15.26V12.17L6.25 9.26001" stroke="#141414" stroke-width="1.5" stroke-linecap="round" stroke-linejoin="round"/>
<path d="M2.01953 18.59H3.58953C4.42953 18.59 5.21953 18.2 5.72953 17.53L7.77953 14.79" stroke="#141414" stroke-width="1.5" stroke-linecap="round" stroke-linejoin="round"/>
<path d="M2 13.3001L2.52 12.6201L2.54 12.6101C3.63 11.9101 5.07 12.0701 5.98 12.9901L7.78 14.7901L8.26 15.2601" stroke="#141414" stroke-width="1.5" stroke-linecap="round" stroke-linejoin="round"/>
<path d="M15.7602 5.83V4.62C15.7602 3.94 15.7602 3.59 15.5902 3.37C15.4202 3.15 15.0402 3.04 14.2802 2.82C13.7602 2.67 13.3002 2.49 12.9302 2.33C12.4302 2.11 12.1802 2 12.0002 2C11.8202 2 11.5702 2.11 11.0702 2.33C10.7002 2.49 10.2402 2.67 9.72023 2.82C8.96023 3.04 8.57023 3.15 8.41023 3.37C8.24023 3.59 8.24023 3.94 8.24023 4.62V5.83C8.24023 8.18 10.3602 9.58 11.4102 10.14C11.6602 10.27 11.7902 10.34 12.0002 10.34C12.2102 10.34 12.3302 10.27 12.5902 10.14C13.6502 9.58 15.7602 8.17 15.7602 5.83Z" stroke="#141414" stroke-width="1.5" stroke-linecap="round"/>
</svg>
