<svg width="24" height="24" viewBox="0 0 24 24" fill="none" xmlns="http://www.w3.org/2000/svg">
<path d="M3.68359 4C3.68359 2.9 4.58359 2 5.68359 2H10.5736C11.6736 2 12.5736 2.9 12.5736 4V18.67H3.68359V4Z" stroke="#141414" stroke-width="1.5" stroke-linecap="round" stroke-linejoin="round"/>
<path d="M12.5742 5.33008H13.6842" stroke="#141414" stroke-width="1.5" stroke-linecap="round" stroke-linejoin="round"/>
<path d="M2.57422 5.33008H3.68422" stroke="#141414" stroke-width="1.5" stroke-linecap="round" stroke-linejoin="round"/>
<path d="M12.5742 10.8899H13.6842" stroke="#141414" stroke-width="1.5" stroke-linecap="round" stroke-linejoin="round"/>
<path d="M2.57422 10.8899H3.68422" stroke="#141414" stroke-width="1.5" stroke-linecap="round" stroke-linejoin="round"/>
<path d="M12.5742 16.4399H13.6842" stroke="#141414" stroke-width="1.5" stroke-linecap="round" stroke-linejoin="round"/>
<path d="M2.57422 16.4399H3.68422" stroke="#141414" stroke-width="1.5" stroke-linecap="round" stroke-linejoin="round"/>
<path d="M8.13477 18.67V22" stroke="#141414" stroke-width="1.5" stroke-linecap="round" stroke-linejoin="round"/>
<path d="M8.13484 16.45C9.05716 16.45 9.80484 15.7023 9.80484 14.78C9.80484 13.8577 9.05716 13.11 8.13484 13.11C7.21253 13.11 6.46484 13.8577 6.46484 14.78C6.46484 15.7023 7.21253 16.45 8.13484 16.45Z" fill="#141414"/>
<path d="M8.13484 11.9999C9.05716 11.9999 9.80484 11.2522 9.80484 10.3299C9.80484 9.4076 9.05716 8.65991 8.13484 8.65991C7.21253 8.65991 6.46484 9.4076 6.46484 10.3299C6.46484 11.2522 7.21253 11.9999 8.13484 11.9999Z" fill="#141414"/>
<path d="M8.13484 7.55997C9.05716 7.55997 9.80484 6.81229 9.80484 5.88997C9.80484 4.96766 9.05716 4.21997 8.13484 4.21997C7.21253 4.21997 6.46484 4.96766 6.46484 5.88997C6.46484 6.81229 7.21253 7.55997 8.13484 7.55997Z" fill="#141414"/>
<path d="M17.894 7.80005C18.934 7.80005 20.084 8.81005 20.014 10.54C19.944 12.2 18.954 12.89 16.834 12.89L20.364 16.03" stroke="#141414" stroke-width="1.5" stroke-linecap="round" stroke-linejoin="round"/>
<path d="M16.834 10.4001H21.354" stroke="#141414" stroke-width="1.5" stroke-linecap="round" stroke-linejoin="round"/>
<path d="M16.834 7.80005H21.424" stroke="#141414" stroke-width="1.5" stroke-linecap="round" stroke-linejoin="round"/>
</svg>
