<svg width="24" height="24" viewBox="0 0 24 24" fill="none" xmlns="http://www.w3.org/2000/svg">
<g clip-path="url(#clip0_12_2488)">
<path d="M6.10395 2.72C3.75395 3.25 2.00395 5.35 2.00395 7.86C2.00395 8.16 1.98395 8.19 2.03395 8.48M6.10395 2.72L4.34395 2M6.10395 2.72L5.51395 4.35M12.004 10.21C12.354 9.5 12.554 8.71 12.554 7.87C12.554 5.26 11.104 3.14 8.60395 2.72M12.004 10.21L13.724 9.04M12.004 10.21L11.084 8.45M2.89395 10.79C3.84395 12.2 5.45395 13.13 7.28395 13.13C8.63395 13.13 9.52395 12.96 10.464 12.13M2.89395 10.79H4.93395M2.89395 10.79V12.84" stroke="#141414" stroke-width="1.5" stroke-linecap="round" stroke-linejoin="round"/>
<path d="M2.01367 15.1599V17.9099C2.01367 19.0499 2.75367 19.7899 3.81367 19.7899" stroke="#141414" stroke-width="1.5" stroke-miterlimit="10" stroke-linecap="round"/>
<path d="M20.2835 19.7801C21.3135 19.7801 22.0135 19.0201 22.0135 17.9001V15.6901C22.0135 15.1201 21.6235 14.6201 21.0635 14.4801L17.0135 13.4701L15.7735 11.9401C15.6335 11.7701 15.2635 11.2601 15.1035 11.1101" stroke="#141414" stroke-width="1.5" stroke-miterlimit="10" stroke-linecap="round"/>
<path d="M17.6431 21.9701C18.8531 21.9701 19.8331 20.9901 19.8331 19.7801C19.8331 18.5701 18.8531 17.5901 17.6431 17.5901C16.4331 17.5901 15.4531 18.5701 15.4531 19.7801C15.4531 20.9901 16.4331 21.9701 17.6431 21.9701Z" stroke="#141414" stroke-width="1.5" stroke-linecap="round" stroke-linejoin="round"/>
<path d="M6.01422 21.9701C7.22422 21.9701 8.20422 20.9901 8.20422 19.7801C8.20422 18.5701 7.22422 17.5901 6.01422 17.5901C4.80422 17.5901 3.82422 18.5701 3.82422 19.7801C3.82422 20.9901 4.80422 21.9701 6.01422 21.9701Z" stroke="#141414" stroke-width="1.5" stroke-linecap="round" stroke-linejoin="round"/>
<path d="M12.6641 13.47H17.0141" stroke="#141414" stroke-width="1.5" stroke-miterlimit="10" stroke-linecap="round"/>
<path d="M8.73438 19.78H15.3044" stroke="#141414" stroke-width="1.5" stroke-miterlimit="10" stroke-linecap="round"/>
</g>
<defs>
<clipPath id="clip0_12_2488">
<rect width="24" height="24" fill="white"/>
</clipPath>
</defs>
</svg>
