<svg width="24" height="24" viewBox="0 0 24 24" fill="none" xmlns="http://www.w3.org/2000/svg">
<g clip-path="url(#clip0_12_2376)">
<path d="M6.87 8.5H5.61C4.76 8.5 3.97 8.93 3.51 9.65L2.31 11.51C1.94 12.08 1.75 12.74 1.75 13.42V16.69C1.75 17.83 2.49 18.57 3.55 18.57" stroke="#141414" stroke-width="1.5" stroke-linecap="round" stroke-linejoin="round"/>
<path d="M20.0207 18.56C21.0507 18.56 21.7507 17.8 21.7507 16.68V14.47C21.7507 13.9 21.3607 13.4 20.8007 13.26L16.7507 12.25L15.5107 10.72C15.0307 10.13 14.3507 9.39 13.7207 9" stroke="#141414" stroke-width="1.5" stroke-linecap="round" stroke-linejoin="round"/>
<path d="M17.3795 20.7501C18.5895 20.7501 19.5695 19.7701 19.5695 18.5601C19.5695 17.3501 18.5895 16.3701 17.3795 16.3701C16.1695 16.3701 15.1895 17.3501 15.1895 18.5601C15.1895 19.7701 16.1695 20.7501 17.3795 20.7501Z" stroke="#141414" stroke-width="1.5" stroke-linecap="round" stroke-linejoin="round"/>
<path d="M5.75055 20.7501C6.96055 20.7501 7.94055 19.7701 7.94055 18.5601C7.94055 17.3501 6.96055 16.3701 5.75055 16.3701C4.54055 16.3701 3.56055 17.3501 3.56055 18.5601C3.56055 19.7701 4.54055 20.7501 5.75055 20.7501Z" stroke="#141414" stroke-width="1.5" stroke-linecap="round" stroke-linejoin="round"/>
<path d="M2.2207 12.25H9.6907" stroke="#141414" stroke-width="1.5" stroke-linecap="round" stroke-linejoin="round"/>
<path d="M8.4707 18.5601H15.0407" stroke="#141414" stroke-width="1.5" stroke-linecap="round" stroke-linejoin="round"/>
<path d="M12.8691 3.75H9.36914" stroke="#141414" stroke-width="1.5" stroke-linecap="round" stroke-linejoin="round"/>
<path d="M12.8691 6.21997H9.36914" stroke="#141414" stroke-width="1.5" stroke-linecap="round" stroke-linejoin="round"/>
<path d="M12.5694 11.25L9.35938 8.65H9.79938C12.7594 8.65 12.7594 3.75 9.79938 3.75" stroke="#141414" stroke-width="1.5" stroke-linecap="round" stroke-linejoin="round"/>
</g>
<defs>
<clipPath id="clip0_12_2376">
<rect width="21.5" height="18.5" fill="white" transform="translate(1 3)"/>
</clipPath>
</defs>
</svg>
