<svg width="24" height="24" viewBox="0 0 24 24" fill="none" xmlns="http://www.w3.org/2000/svg">
<g clip-path="url(#clip0_12_2390)">
<path d="M2.2207 13.1101H16.7507" stroke="#141414" stroke-width="1.5" stroke-miterlimit="10" stroke-linecap="round"/>
<path d="M4.19 9.69995C4.06 9.82995 3.61 10.34 3.51 10.5L2.31 12.36C1.94 12.93 1.75 13.59 1.75 14.27V17.54C1.75 18.68 2.49 19.41 3.55 19.41" stroke="#141414" stroke-width="1.5" stroke-miterlimit="10" stroke-linecap="round"/>
<path d="M20.0197 19.4101C21.0497 19.4101 21.7497 18.6501 21.7497 17.5401V15.3301C21.7497 14.7601 21.3597 14.2601 20.7997 14.1201L16.7497 13.1101L15.5097 11.5801C15.0197 10.9801 14.0597 10.0401 13.4297 9.58008" stroke="#141414" stroke-width="1.5" stroke-miterlimit="10" stroke-linecap="round"/>
<path d="M17.3795 21.6C18.5895 21.6 19.5695 20.62 19.5695 19.41C19.5695 18.2 18.5895 17.22 17.3795 17.22C16.1695 17.22 15.1895 18.2 15.1895 19.41C15.1895 20.62 16.1695 21.6 17.3795 21.6Z" stroke="#141414" stroke-width="1.5" stroke-linecap="round" stroke-linejoin="round"/>
<path d="M5.76031 21.6C6.97031 21.6 7.95031 20.62 7.95031 19.41C7.95031 18.2 6.97031 17.22 5.76031 17.22C4.55031 17.22 3.57031 18.2 3.57031 19.41C3.57031 20.62 4.55031 21.6 5.76031 21.6Z" stroke="#141414" stroke-width="1.5" stroke-linecap="round" stroke-linejoin="round"/>
<path d="M8.4707 19.4102H15.0307" stroke="#141414" stroke-width="1.5" stroke-miterlimit="10" stroke-linecap="round"/>
<path d="M11.9308 6.01007V3.73007C10.1108 3.73007 8.74078 2.82007 8.74078 2.82007C8.74078 2.82007 7.37078 3.73007 5.55078 3.73007V6.01007C5.55078 9.20007 8.74078 10.1101 8.74078 10.1101C8.74078 10.1101 11.9308 9.20007 11.9308 6.01007Z" stroke="#141414" stroke-width="1.5" stroke-linecap="round" stroke-linejoin="round"/>
<path d="M18.9298 4.65004L18.6698 4.77004C17.8598 5.14004 17.5098 6.10004 17.8798 6.91004L18.3498 7.94004C18.7198 8.75004 19.6798 9.10004 20.4898 8.73004L20.7498 8.61004C21.5598 8.24004 21.9098 7.28004 21.5398 6.47004L21.0698 5.44004C20.6998 4.63004 19.7398 4.28004 18.9298 4.65004Z" stroke="#141414" stroke-width="1.5" stroke-miterlimit="10" stroke-linecap="round"/>
<path d="M19.0994 1.75L19.7694 3.2C19.8394 3.36 19.8094 3.54 19.6794 3.68L18.7994 4.63L17.4594 4.7C17.2694 4.7 17.1094 4.61 17.0294 4.46L16.3594 3.01" stroke="#141414" stroke-width="1.5" stroke-miterlimit="10" stroke-linecap="round"/>
</g>
<defs>
<clipPath id="clip0_12_2390">
<rect width="21.5" height="21.35" fill="white" transform="translate(1 1)"/>
</clipPath>
</defs>
</svg>
