<svg width="24" height="24" viewBox="0 0 24 24" fill="none" xmlns="http://www.w3.org/2000/svg">
<path d="M10.8594 9.66779L12.1894 8.44779C11.3794 5.62779 12.9894 3.19779 15.1494 2.34779C16.4494 1.84779 17.9594 1.89779 19.0594 2.42779C18.6794 2.81779 18.1394 3.32779 17.6594 3.81779C17.1494 4.32779 16.6294 4.81779 16.3594 5.15779C15.2294 6.98779 17.3294 8.60779 18.7694 7.64779C19.0094 7.48779 19.3694 7.05779 19.7894 6.65779C20.3994 6.06779 20.9294 5.51779 21.5294 4.92779C22.1194 6.30779 22.1094 7.68779 21.6194 8.86779C21.1394 10.0178 20.1994 10.9778 19.1194 11.5278C18.0194 11.9078 16.9294 12.2378 15.5294 11.7978L14.2094 13.1078" stroke="#141414" stroke-width="1.5" stroke-linecap="round" stroke-linejoin="round"/>
<path d="M13.8497 21.9379C13.2197 21.9379 12.6097 21.6979 12.1297 21.2279L8.76969 17.9079C8.64969 17.7879 8.57969 17.6079 8.57969 17.4279V16.8379L7.80969 16.7479C7.65969 16.7279 7.51969 16.6679 7.40969 16.5579L5.86969 15.0379C5.74969 14.9179 5.67969 14.7479 5.67969 14.5679C5.67969 14.3879 5.74969 14.2279 5.86969 14.0979L7.20969 12.7679L8.37969 11.6179C8.63969 11.3579 9.04969 11.3579 9.30969 11.6179L10.8397 13.1379C10.9497 13.2479 11.0197 13.3879 11.0297 13.5379L11.1197 14.2979H11.7197C11.9097 14.2979 12.0597 14.3579 12.1997 14.4879L15.5597 17.8079C16.0197 18.2679 16.2697 18.8779 16.2697 19.5179C16.2697 20.1579 16.0097 20.7679 15.5597 21.2279C15.0797 21.6979 14.4697 21.9379 13.8397 21.9379H13.8497Z" stroke="#141414" stroke-width="1.5" stroke-linecap="round" stroke-linejoin="round"/>
<path d="M2 7.06787L7.22 12.7879" stroke="#141414" stroke-width="1.5" stroke-linecap="round" stroke-linejoin="round"/>
</svg>
