<svg width="24" height="24" viewBox="0 0 24 24" fill="none" xmlns="http://www.w3.org/2000/svg">
<path d="M3.76 8.93994L2.56 10.7999C2.19 11.3699 2 12.0299 2 12.7099V15.9799C2 17.1199 2.74 17.8599 3.8 17.8599" stroke="#141414" stroke-width="1.5" stroke-linecap="round" stroke-linejoin="round"/>
<path d="M20.28 17.86C21.31 17.86 22.01 17.1 22.01 15.98V13.77C22.01 13.2 21.62 12.7 21.06 12.56L17 11.55L15.75 10.02" stroke="#141414" stroke-width="1.5" stroke-linecap="round" stroke-linejoin="round"/>
<path d="M17.6402 20.0499C18.8502 20.0499 19.8302 19.0699 19.8302 17.8599C19.8302 16.6499 18.8502 15.6699 17.6402 15.6699C16.4302 15.6699 15.4502 16.6499 15.4502 17.8599C15.4502 19.0699 16.4302 20.0499 17.6402 20.0499Z" stroke="#141414" stroke-width="1.5" stroke-linecap="round" stroke-linejoin="round"/>
<path d="M6.01031 20.0499C7.22031 20.0499 8.20031 19.0699 8.20031 17.8599C8.20031 16.6499 7.22031 15.6699 6.01031 15.6699C4.80031 15.6699 3.82031 16.6499 3.82031 17.8599C3.82031 19.0699 4.80031 20.0499 6.01031 20.0499Z" stroke="#141414" stroke-width="1.5" stroke-linecap="round" stroke-linejoin="round"/>
<path d="M12.9102 17.8599H15.2902" stroke="#141414" stroke-width="1.5" stroke-linecap="round" stroke-linejoin="round"/>
<path d="M8.40039 17.8599H9.97039" stroke="#141414" stroke-width="1.5" stroke-linecap="round" stroke-linejoin="round"/>
<path d="M4.88965 3.57C5.78965 2.58 6.84965 2 7.98965 2C11.1796 2 13.7596 6.48 13.7596 12.01C13.7596 17.54 11.1696 22.02 7.98965 22.02C7.52965 22.02 7.07965 21.93 6.63965 21.75" stroke="#141414" stroke-width="1.5" stroke-linecap="round"/>
<path d="M6.1399 5.49002L3.6099 5.60002C3.3599 5.61002 3.1499 5.42002 3.1399 5.17002L3.0299 2.64002C3.0099 2.24002 3.4899 2.01002 3.7899 2.29002L6.4299 4.71002C6.7299 4.98002 6.5499 5.48002 6.1399 5.50002V5.49002Z" fill="#141414"/>
<path d="M10.22 7.70996H5.85C5 7.70996 4.21 8.14996 3.75 8.86996" stroke="#141414" stroke-width="1.5" stroke-linecap="round" stroke-linejoin="round"/>
<path d="M15.7504 9.95994C15.1304 9.17994 14.3304 8.57994 13.4404 8.18994" stroke="#141414" stroke-width="1.5" stroke-linecap="round" stroke-linejoin="round"/>
<path d="M2.7998 12.1899L11.0198 12.3299" stroke="#141414" stroke-width="1.5" stroke-miterlimit="10" stroke-linecap="round"/>
</svg>
