<svg width="48" height="48" viewBox="0 0 48 48" fill="none" xmlns="http://www.w3.org/2000/svg">
<path d="M23.5716 8.00729C17.6288 8.18635 12.1725 11.5337 9.4652 17.114C7.64678 20.8636 7.50061 26.7106 9.14065 30.3263C11.3426 35.1813 16.1329 38.945 21.171 39.7775C33.282 41.7787 43.2149 29.9236 39.0242 18.4772C37.5377 14.4161 33.3925 10.2181 29.5946 8.93215C27.5919 8.25406 25.552 7.94761 23.5716 8.00729ZM23.4477 9.82542C24.3653 9.86053 24.5199 10.2181 23.525 10.7819C21.6496 11.8442 19.1281 14.4297 17.8735 16.5964C17.1551 17.8367 16.3128 20.0164 15.9996 21.4238L15.4268 23.9787L14.637 22.7248C13.5242 20.9874 12.6075 16.9871 12.9806 15.4839C13.4048 13.7726 17.7685 10.8661 21.0471 10.1233C22.0599 9.89413 22.8967 9.80485 23.4477 9.82542ZM32.0255 12.8819C32.7157 12.9125 33.2563 13.3152 34.1932 14.3238C35.0355 15.2301 36.2618 17.144 36.9184 18.587C37.5967 20.0776 38.0446 21.8787 37.9559 22.7564L37.8008 24.3077L35.8655 21.9569C33.4782 19.0565 30.3319 16.9891 27.1019 16.2046C23.4244 15.3119 24.6195 14.375 31.2669 12.9601C31.5513 12.8999 31.7956 12.8718 32.0255 12.8819ZM23.8654 16.9098C27.3139 16.792 31.1118 20.3755 31.1118 23.9942C31.1118 26.2698 29.5203 28.8628 27.3496 30.1227C24.9901 31.4919 22.9824 31.5506 20.7067 30.3263C14.4225 26.9459 16.0234 18.3167 23.1841 16.9886C23.409 16.9453 23.6367 16.919 23.8654 16.9098ZM21.3107 19.2455L21.1249 19.9507H22.2551L20.3821 26.173L20.0893 26.517L19.517 26.6163L18.9879 27.7529L27.9065 27.7719L29.5169 23.8377L28.4332 23.8533L28.077 24.9973C28.077 24.9973 27.7024 26.0872 27.3516 26.3219C26.8972 26.6264 25.3409 26.5326 25.3409 26.5326L23.6761 26.503L25.4757 20.0606L26.6837 20.0445L26.8695 19.2611L21.3107 19.2455ZM9.80608 23.6652L12.3613 26.4864C15.0389 29.4521 18.2709 31.4488 21.3573 32.0351C22.3641 32.2257 23.1841 32.5567 23.1841 32.7714C23.1841 32.987 22.3036 33.5227 21.218 33.9626C17.6862 35.393 15.6582 35.4903 14.1723 34.3076C12.4312 32.9208 9.80608 27.5487 9.80608 25.3735V23.6652ZM32.3971 24.7155C33.0516 24.6392 34.5881 27.9184 34.9211 30.7652C35.1837 33.0136 35.1292 33.139 33.2022 34.6838C32.1043 35.564 30.4578 36.6087 29.5481 36.9879C28.6384 37.3666 26.9245 37.8245 25.7393 38.0221L23.5869 38.3827L27.0241 34.9501C30.3587 31.6168 32.1028 28.4199 32.1028 25.6559C32.1028 25.0274 32.2138 24.7365 32.3971 24.7155Z" fill="#121212"/>
</svg>
