<svg width="48" height="48" viewBox="0 0 48 48" fill="none" xmlns="http://www.w3.org/2000/svg">
<path d="M26.1146 17.8335H21.2886M26.1146 17.8335C26.0523 17.4 26.1766 17.0904 26.3618 16.7806C26.6091 16.4711 27.0422 16.2853 27.6607 16.2853H46.3447C46.6542 16.2233 46.778 16.4093 46.6542 16.7189L46.0354 17.7098C45.9737 17.7715 45.9117 17.8335 45.7259 17.8335M26.1146 17.8335H45.7259M21.2886 17.8335C21.3506 17.4 21.2269 17.0904 21.0414 16.7806C20.7321 16.4711 20.2988 16.2853 19.7422 16.2853H1.05851C0.748972 16.2233 0.625472 16.4093 0.748972 16.7189L1.36752 17.7098C1.42927 17.7715 1.49155 17.8335 1.67706 17.8335M21.2886 17.8335H1.67706M1.67706 17.8335H2.04835L2.1101 18.0813L2.72865 19.0099C2.79067 19.134 2.91417 19.196 3.09994 19.134M3.09994 19.134H3.40922L3.90427 20.1246C3.90427 20.1866 4.08978 20.2486 4.46107 20.3721L12.5656 22.6014L13.1224 23.5921C13.1844 23.7778 13.3699 23.9636 13.6174 24.0256L21.2889 26.0071L23.7016 23.9636L26.1146 26.0071M3.09994 19.134L14.731 18.5766M26.1146 26.0071L33.786 24.0256C34.0333 23.9636 34.2191 23.7778 34.2808 23.5921L34.8376 22.6014L42.9424 20.3721C43.3134 20.2484 43.4992 20.1863 43.4992 20.1246L43.994 19.134H44.3035M26.1146 26.0071V23.9016M44.3035 19.134C44.4888 19.1957 44.6125 19.134 44.6746 19.0099L45.2934 18.0813L45.3549 17.8335H45.7259M44.3035 19.134L32.6102 18.5766M4.27556 20.3104L14.731 19.3195M8.04941 21.3633L14.2977 19.9388M10.6476 22.1064L14.669 20.4344M12.5656 22.6637L15.2261 20.9917M13.1844 23.7781L16.0301 21.6108M14.8548 24.3354L16.8345 22.1681M16.4012 24.707L17.7623 22.7255M17.9478 25.1408L18.8139 23.159M19.6182 25.5738L19.9895 23.5308M21.2886 25.8839V23.9019M23.7013 23.9639V20.3724M43.1282 20.3104L32.6104 19.3195M39.4155 21.3633L33.0435 19.9388M36.7556 22.1064L32.6724 20.3724M34.8376 22.6637L32.1777 20.9917M34.2191 23.7781L31.3733 21.6108M32.5487 24.3354L30.507 22.1064M31.0018 24.707L29.5792 22.7255M29.4549 25.1408L28.5891 23.159M27.785 25.5738L27.4134 23.5308M15.6591 21.2393L16.2777 20.4344M16.4012 21.8586L17.391 20.3724M17.2675 22.4779L18.3191 20.4344M18.2573 22.9115L19.3092 20.4344M19.4327 23.4686L20.4843 20.4962M20.8556 23.8401L21.5361 20.4344M22.2167 24.0882L22.526 20.4344M31.7444 21.2393L31.1255 20.4344M31.0018 21.8586L30.0739 20.4344M30.136 22.4779L29.0838 20.4344M29.1461 22.9115L28.0325 20.4344M27.9702 23.4686L26.9187 20.4962M26.5476 23.8401L25.8671 20.4344M25.1865 24.0882L24.877 20.4344" stroke="#121212" stroke-width="0.498515" stroke-miterlimit="2.613" stroke-linejoin="round"/>
<path fill-rule="evenodd" clip-rule="evenodd" d="M32.6102 20.3723V17.8335H14.731V20.3723H32.6102Z" fill="#121212" stroke="#121212" stroke-width="0.498515" stroke-miterlimit="2.613" stroke-linejoin="round"/>
<path d="M11.885 16.2236C12.8749 18.577 14.4215 20.4345 16.5249 21.8587C18.6904 23.3449 21.1028 24.0882 23.7013 24.0882C26.2996 24.0882 28.6505 23.3449 30.8165 21.9207C31.8681 21.2396 32.7345 20.3724 33.538 19.4436C34.3426 18.5147 34.9611 17.4621 35.4565 16.2854" stroke="#121212" stroke-width="0.498515" stroke-miterlimit="2.613" stroke-linejoin="round"/>
<path fill-rule="evenodd" clip-rule="evenodd" d="M8.42046 27.5317L9.84361 30.8137H9.34855L8.85377 29.5753H7.67841L7.18336 30.8137H6.87408L8.29696 27.5317H8.42046ZM8.79175 29.3275L8.23469 28.1506L7.7399 29.3275H8.79175ZM11.6995 30.5659C11.514 30.7517 11.2045 30.8754 10.8952 30.8754L10.4622 30.814L10.1529 30.5662L10.2149 30.1946H10.2766C10.4622 30.5042 10.7097 30.6899 11.019 30.6899C11.2045 30.6899 11.3282 30.6284 11.452 30.4427C11.5758 30.3189 11.6375 30.1326 11.6375 29.9473C11.6375 29.761 11.5758 29.6373 11.452 29.5138L10.9572 29.266C10.7097 29.2045 10.5242 29.0802 10.4622 29.0187C10.2766 28.833 10.2149 28.6472 10.2149 28.4614C10.2149 28.1513 10.3384 27.9656 10.5242 27.7798C10.7099 27.594 10.8955 27.5325 11.2047 27.5325C11.5143 27.5325 11.6998 27.594 11.8853 27.7798L11.7615 28.1513C11.6378 27.8418 11.4523 27.7183 11.143 27.7183C10.9575 27.7183 10.8337 27.7798 10.772 27.9041C10.6482 27.9656 10.5862 28.0899 10.5862 28.2756C10.5862 28.4614 10.6479 28.6472 10.772 28.7709L11.3288 28.9567C11.5145 29.0805 11.7 29.2045 11.8238 29.2663C11.9476 29.3905 12.0093 29.5763 12.0093 29.8236C12.0102 29.9618 11.9832 30.0987 11.93 30.2263C11.8768 30.3538 11.7984 30.4693 11.6995 30.5659ZM14.7311 27.7175L14.7928 27.9033L13.803 27.8413V30.8137H13.3699V27.8413L12.3181 27.9033L12.3798 27.7175L12.3181 27.5932H14.7928L14.7311 27.7175ZM15.7206 30.3186C15.9682 30.5659 16.2774 30.6897 16.5867 30.6897C17.0198 30.6897 17.391 30.5039 17.6386 30.1323C17.8243 29.8228 17.9478 29.5135 17.8858 29.204C17.8858 28.7704 17.8241 28.3989 17.6386 28.1508C17.391 27.8413 17.0818 27.6555 16.6485 27.6555C16.2154 27.6555 15.9059 27.8413 15.6586 28.1508C15.4551 28.4869 15.348 28.8726 15.3491 29.2655C15.3496 29.699 15.4734 30.0706 15.7206 30.3186ZM14.8546 29.2037C14.8546 28.7079 15.0403 28.2748 15.3493 27.9648C15.6589 27.6552 16.0919 27.5317 16.5867 27.5317C17.0818 27.5317 17.5148 27.6555 17.8241 27.9033C18.1951 28.2128 18.3809 28.5844 18.3809 29.1417C18.3809 29.699 18.1951 30.0706 17.8858 30.3801C17.5766 30.6897 17.1435 30.8754 16.5867 30.8754C16.0919 30.8754 15.6589 30.7517 15.3493 30.4424C15.0406 30.1323 14.8546 29.699 14.8546 29.2037ZM21.7837 30.8137H21.5979L19.3707 28.2748H19.309V30.8137H19.0617V27.5932H19.2472L21.4744 30.0083V27.5932H21.7837V30.8137ZM24.2582 27.5935C24.815 28.6467 25.2483 29.4512 25.6198 30.0708L26.981 27.5935H27.0424L27.4135 30.814H26.981L26.7337 28.3989C26.1769 29.4515 25.7436 30.2566 25.5578 30.7519H25.4958L25.1868 30.2566L24.2584 28.3989L24.0732 30.814H23.7016L24.1967 27.5935H24.2582ZM30.507 30.8137H30.2598L29.7644 29.5753H28.5271L28.094 30.8137H27.723L29.2076 27.5317H29.3319L30.6925 30.8137H30.507ZM29.6407 29.3275L29.1459 28.1506L28.6506 29.3275H29.6407ZM31.6209 27.7793V29.0797L32.2394 29.0182C32.4247 28.9562 32.549 28.8939 32.6725 28.8324L32.8583 28.3989C32.8583 28.0273 32.6725 27.8415 32.3014 27.7795L31.6209 27.7793ZM32.2392 27.5935C32.9197 27.5935 33.2293 27.8413 33.2293 28.3366C33.2293 28.5844 33.1055 28.7702 32.9197 28.9559C32.7345 29.0797 32.5487 29.1417 32.3012 29.2037L33.538 30.8137H33.0432L31.8059 29.2652H31.6206V30.8137H31.2491V27.5932L32.2392 27.5935ZM34.5901 30.8137V27.8413L33.6 27.9033V27.5932H35.951V27.9033L35.0232 27.8413V30.8137H34.5901ZM36.9414 27.5935V30.814H36.5083V27.5935H36.9414ZM40.5912 30.8137H40.4054L38.1785 28.2748H38.1165V30.8137H37.8692V27.5932H37.993L40.2819 30.0083V27.5932H40.5915L40.5912 30.8137Z" fill="#121212"/>
<path fill-rule="evenodd" clip-rule="evenodd" d="M15.9508 18.3123L16.665 19.9593H16.4164L16.1681 19.3379H15.5782L15.3299 19.9593H15.1749L15.8888 18.3123H15.9508ZM16.1371 19.213L15.8578 18.6229L15.6095 19.213H16.1371ZM17.5963 19.8347C17.5032 19.9278 17.3479 19.99 17.1926 19.99L16.9753 19.959L16.82 19.8345L16.8513 19.6482H16.8823C16.9753 19.8037 17.0996 19.8968 17.2547 19.8968C17.3477 19.8968 17.41 19.8657 17.472 19.7725C17.534 19.7102 17.565 19.6172 17.565 19.5239C17.565 19.4306 17.534 19.3686 17.472 19.3063L17.2237 19.182C17.0994 19.151 17.0063 19.0887 16.9753 19.0577C16.8823 18.9647 16.8513 18.8714 16.8513 18.7782C16.8513 18.6229 16.9131 18.5298 17.0063 18.4363C17.0994 18.3433 17.1926 18.312 17.3479 18.312C17.5032 18.312 17.5963 18.343 17.6895 18.4363L17.6275 18.6229C17.5655 18.4676 17.4722 18.4053 17.3172 18.4053C17.2239 18.4053 17.1619 18.4363 17.1309 18.4986C17.0689 18.5298 17.0379 18.5919 17.0379 18.6849C17.0379 18.7779 17.0689 18.8714 17.1309 18.9335L17.4102 19.0265C17.5032 19.0885 17.5965 19.1508 17.6585 19.1818C17.7205 19.244 17.7516 19.3371 17.7516 19.4614C17.7516 19.6174 17.6895 19.7415 17.5963 19.8347ZM19.1174 18.4053L19.1484 18.4986L18.6518 18.4676V19.959H18.4345V18.4676L17.9068 18.4986L17.9379 18.4053L17.9068 18.3433H19.1484L19.1174 18.4053ZM19.614 19.7105C19.7383 19.8347 19.8934 19.8968 20.0487 19.8968C20.266 19.8968 20.4523 19.8037 20.5763 19.6172C20.6693 19.4619 20.7316 19.3063 20.7006 19.151C20.7006 18.9335 20.6696 18.7469 20.5763 18.6229C20.452 18.4676 20.297 18.3743 20.0797 18.3743C19.8624 18.3743 19.7071 18.4676 19.5828 18.6229C19.4898 18.7782 19.4277 18.9647 19.4277 19.182C19.4277 19.3993 19.49 19.5862 19.614 19.7105ZM19.1794 19.1513C19.1794 18.9027 19.2724 18.6851 19.4277 18.5298C19.5828 18.3743 19.8001 18.3123 20.0487 18.3123C20.2972 18.3123 20.5143 18.3743 20.6696 18.4986C20.8556 18.6539 20.9489 18.8404 20.9489 19.12C20.9489 19.3996 20.8559 19.5862 20.7006 19.7415C20.5453 19.8968 20.3282 19.99 20.0487 19.99C19.8003 19.99 19.5828 19.9278 19.4277 19.7727C19.2727 19.6174 19.1794 19.3996 19.1794 19.1513ZM22.6561 19.959H22.5631L21.4455 18.6849H21.4145V19.959H21.2902V18.3433H21.3832L22.5008 19.5552V18.3433H22.6558L22.6561 19.959ZM23.8979 18.3433C24.177 18.8717 24.3948 19.2753 24.5811 19.5862L25.2643 18.3433H25.295L25.4813 19.959H25.2643L25.14 18.7472C24.8604 19.2753 24.6431 19.6794 24.5498 19.9278H24.5191L24.3635 19.6794L23.8982 18.7472L23.8052 19.959H23.6189L23.8674 18.3433H23.8979ZM27.0332 19.959H26.9095L26.6612 19.3376H26.0402L25.8227 19.959H25.6364L26.3816 18.312H26.4436L27.1268 19.959H27.0332ZM26.5989 19.213L26.3506 18.6229L26.1023 19.213H26.5989ZM27.5921 18.4363V19.0887L27.9027 19.0577C27.996 19.0267 28.0578 18.9957 28.1198 18.9647L28.2131 18.7472C28.2131 18.5609 28.1198 18.4676 27.934 18.4363H27.5921ZM27.9025 18.3433C28.2438 18.3433 28.3994 18.4676 28.3994 18.7161C28.3994 18.8404 28.3374 18.9337 28.2438 19.027C28.1508 19.089 28.0575 19.12 27.9337 19.1513L28.5541 19.9593H28.3058L27.6854 19.1823H27.5921V19.9593H27.4058V18.3435L27.9025 18.3433ZM29.0823 19.959V18.4676L28.5854 18.4986V18.3433H29.7647V18.4986L29.2993 18.4676V19.959H29.0823ZM30.2619 18.3433V19.959H30.0445V18.3433H30.2619ZM32.0933 19.959H32L30.8828 18.6849H30.8515V19.959H30.7272V18.3433H30.7892L31.9378 19.5552V18.3433H32.0933V19.959Z" fill="white"/>
</svg>
