<svg width="48" height="48" viewBox="0 0 48 48" fill="none" xmlns="http://www.w3.org/2000/svg">
<path d="M24.0556 31.1503C24.3159 31.6378 25.0727 31.4995 25.1807 31.0093C25.492 31.4605 26.2128 31.2499 26.2815 30.7753C26.583 31.1021 27.181 30.9713 27.3165 30.5481C27.3146 30.5543 27.3185 30.5419 27.3165 30.5481C29.5349 29.641 31.1585 27.9999 31.7935 26.0408C31.9283 25.9848 32.0461 25.895 32.1356 25.7801C32.8216 25.9406 33.5883 26.2615 33.8708 25.4992C34.4763 25.6597 35.7461 26.0799 36.1303 25.0582C37.0181 25.1786 38.3091 25.2587 38.4708 24.3359C39.2374 24.3359 40.5687 24.2155 40.5687 23.3328C41.3356 23.3328 42.6669 22.811 42.5055 22.2092C43.1916 22.1291 44.1199 21.4069 44.1199 20.9255C44.8057 20.725 45.5726 20.2032 45.4109 19.5213C45.8142 19.2805 46.5003 18.9996 46.5003 18.5986C46.5003 18.1976 46.1776 17.8763 45.8142 17.8763C45.4509 17.8763 44.079 17.959 43.5949 17.959C43.1111 17.959 37.26 17.8786 35.8881 17.959C34.5163 18.0391 32.7811 18.0768 31.9336 17.9968C31.3094 17.9369 29.1827 17.8158 27.9057 18.1553C25.2013 16.8227 21.8 16.8224 19.0949 18.1553C17.8183 17.8161 15.6912 17.9372 15.0667 17.9961C14.2192 18.0765 12.4844 18.0384 11.1122 17.9584C9.7403 17.878 3.8892 17.9584 3.40507 17.9584C2.92094 17.9584 1.54909 17.8757 1.18574 17.8757C0.822402 17.8757 0.500305 18.1969 0.500305 18.5979C0.500305 18.9993 1.1864 19.2802 1.59 19.5207C1.4283 20.2029 2.19524 20.7243 2.88101 20.9248C2.88101 21.4062 3.809 22.1285 4.4951 22.2085C4.33372 22.8107 5.66532 23.3321 6.43193 23.3321C6.43193 24.2145 7.76353 24.3353 8.53015 24.3353C8.69153 25.258 9.98286 25.1779 10.8706 25.0575C11.2549 26.0795 12.5249 25.6593 13.1302 25.4986C13.4127 26.2612 14.1793 25.9399 14.8654 25.7794C14.959 25.9005 15.0768 25.9845 15.2074 26.0402C15.8425 27.9996 17.4664 29.6407 19.6844 30.5478C19.6824 30.5416 19.686 30.554 19.6844 30.5478C19.8199 30.9709 20.418 31.1018 20.7194 30.775C20.7882 31.2495 21.509 31.4598 21.8203 31.009C21.928 31.4992 22.6851 31.6375 22.945 31.1499C23.0068 31.6059 23.9938 31.6059 24.0556 31.1503Z" fill="#121212"/>
<path d="M16.5198 25.9404C16.7571 26.4798 17.507 26.3675 17.9561 26.1992C18.5552 27.1053 19.5516 27.8429 20.7784 28.2885L19.8039 29.9309C17.9097 29.1103 16.5074 27.7368 15.8893 26.1194C16.1081 26.0954 16.3212 26.0349 16.5198 25.9404Z" fill="white"/>
<path d="M19.6629 30.3572C17.5715 29.4791 16.0343 27.9428 15.3977 26.1012C15.5028 26.124 15.6118 26.1328 15.7208 26.1308C16.3443 27.8061 17.7843 29.2297 19.7319 30.075C19.6927 30.1644 19.6693 30.2599 19.6629 30.3572ZM20.7571 30.4064C20.7569 30.4074 20.7565 30.4083 20.7561 30.4093C20.4462 31.1677 19.5267 30.7289 19.9427 30.0129L20.9336 28.3431C21.1152 28.4043 21.3015 28.459 21.492 28.5078C21.4959 28.5335 20.7679 30.3719 20.7571 30.4064ZM21.8049 30.6424C21.6131 31.4011 20.6933 31.1696 20.9097 30.4594L21.6972 28.5566C21.8845 28.599 22.0753 28.6348 22.2694 28.6637C22.2714 28.6709 21.8049 30.6424 21.8049 30.6424ZM22.8848 30.7621C22.8164 31.5784 21.8085 31.4369 21.9892 30.6238C21.9892 30.6245 22.4393 28.692 22.4409 28.6878C22.6301 28.7116 22.822 28.7298 23.0167 28.7409C23.0236 28.7584 22.8855 30.7459 22.8848 30.7621ZM23.0603 30.7498C23.0603 30.7501 23.1676 28.7737 23.1693 28.7689C23.3578 28.7767 23.6364 28.7822 23.8305 28.7627C23.8396 28.7796 23.9647 30.7293 23.9666 30.7452C24.0275 31.5443 23.0121 31.5605 23.0603 30.7498ZM1.16419 18.3556C1.25454 18.2869 1.44897 18.2905 1.6948 18.2769C2.94555 18.2769 5.85097 18.3573 6.41595 18.3573C6.98093 18.3573 10.9757 18.7986 11.6009 18.9994C11.8834 19.0798 11.944 19.3604 11.6009 19.3806C11.2579 19.4008 6.99337 19.4613 6.38812 19.4613C5.91873 19.4613 3.47714 19.4532 2.066 19.1749C1.30266 19.0242 0.892833 18.5613 1.16419 18.3556ZM2.53802 19.8415C3.26437 19.8616 6.89582 19.8818 7.31972 19.8616C7.74329 19.8415 11.032 19.6611 11.4153 19.641C12.2445 19.5977 12.5129 19.9648 11.6373 20.1627C11.1934 20.2633 7.09779 20.7245 3.99073 20.6643C3.40545 20.6845 2.61887 20.3834 2.4169 20.1025C2.21526 19.8216 2.4372 19.8415 2.53802 19.8415ZM3.95046 21.1659C4.45489 21.1659 10.4065 20.7245 11.6576 20.4638C12.7456 20.2991 12.5001 20.855 12.0608 20.9452C11.6916 21.021 7.27913 21.8679 5.03983 21.908C4.29318 21.8881 3.42575 21.1857 3.95046 21.1659ZM5.46341 22.4095C6.16979 22.3291 10.8706 21.587 12.1417 21.2459C13.2913 20.9497 13.0592 21.7094 12.6461 21.8279C12.2782 21.9334 8.27194 22.903 7.35998 22.9515C6.97331 22.9717 6.58559 22.9457 6.20514 22.874C4.91676 22.6178 5.46341 22.4095 5.46341 22.4095ZM7.35998 23.4527C7.8644 23.3525 11.96 22.4294 13.1302 21.9884C13.7005 21.7908 13.872 22.3477 13.5135 22.5098C13.2916 22.61 10.1443 23.9139 8.65132 23.9943C8.10663 23.9943 7.0991 23.7027 7.35998 23.4527ZM14.0379 22.61C13.5741 22.8307 10.7495 24.0145 9.65983 24.2554C9.50861 24.2954 9.34887 24.3618 9.36163 24.4454C9.45852 25.086 11.4638 24.5411 11.6029 24.4969C12.3741 24.2511 13.9463 23.6773 14.6131 23.0312C14.4517 22.9511 14.0785 22.6904 14.0379 22.61ZM14.8854 23.2923C14.5829 23.4928 12.6055 24.5164 11.6978 24.797C11.2235 24.9542 11.7227 25.4392 12.6491 25.1765C13.673 25.0186 15.1679 23.814 15.4101 23.5933C15.289 23.5331 15.0268 23.3726 14.8854 23.2923ZM15.8137 23.8342C15.4481 24.0829 14.7443 24.5476 14.2975 24.8442C14.1132 24.9665 13.6733 25.2084 13.6828 25.4017C13.6874 25.4942 13.8641 25.6696 14.6717 25.378C15.1738 25.1736 15.7816 24.7579 16.2979 24.0148C16.197 23.9842 15.9345 23.8941 15.8137 23.8342ZM16.7214 24.1349C16.5322 24.3231 16.2877 24.5802 16.0484 24.8171C15.8281 25.0997 15.3371 25.3031 15.506 25.6296C15.689 25.983 16.2651 25.4743 16.4726 25.2797C16.7659 25.004 17.0491 24.6398 17.1555 24.2752C17.0141 24.2352 16.8527 24.1951 16.7214 24.1349Z" fill="white"/>
<path d="M9.70038 18.1967C10.2251 18.1967 12.0002 18.3172 12.6461 18.3172C14.5014 18.3172 17.0121 17.9917 18.7378 18.3442C19.8104 18.5632 19.9643 18.8721 19.9643 19.2041C19.9643 19.636 19.6013 19.8954 19.344 20.0829C19.0415 20.3036 18.1132 20.8452 18.0729 22.2497C17.831 22.1494 17.488 22.0892 17.7302 21.5876C18.1528 20.7469 19.1031 19.7229 17.4779 19.2868C17.2216 19.2181 16.9057 19.1732 16.5197 19.1602C15.3296 19.1201 13.6035 19.1113 13.0182 19.0111C12.4333 18.9108 10.2248 18.3979 9.76094 18.338C9.55898 18.3168 9.55898 18.2166 9.70038 18.1967Z" fill="white"/>
<path d="M14.3646 19.4166C14.7881 19.4166 16.0854 19.4078 16.5204 19.4283C17.7237 19.4853 18.5829 20.0682 17.7139 21.1622C17.5436 21.376 17.0886 21.8242 16.907 21.9847C16.7456 22.1051 16.4428 21.9043 16.705 21.6035C16.362 21.804 15.9384 21.764 16.14 21.3028C15.8372 21.5436 15.3331 21.5635 15.6356 20.9418C15.434 21.1023 14.869 21.0824 15.232 20.6007C14.9295 20.701 14.5865 20.5203 14.8084 20.2196C14.4251 20.2801 14.2032 19.9989 14.6068 19.7785C14.2235 19.8778 14.1227 19.4365 14.3646 19.4166ZM13.1809 19.2034C13.0176 19.193 12.3089 19.0784 12.3259 19.4583C12.3429 19.8384 13.1302 19.6949 13.2919 19.6649C13.5898 19.6099 13.8277 19.5195 13.8209 19.3967C13.814 19.2708 13.5037 19.2236 13.1809 19.2034ZM13.2097 19.8547C13.0375 19.8677 12.4186 19.8375 12.5151 20.1851C12.5456 20.2944 12.7731 20.5158 13.5341 20.3319C13.8677 20.2511 14.0405 20.0734 14.0405 19.9322C14.0405 19.8088 13.5921 19.8257 13.2097 19.8547ZM13.6984 20.4191C13.576 20.4393 12.8664 20.4874 12.9852 20.8432C13.0683 21.0912 13.196 21.0128 13.4123 21.0385C13.5551 21.0554 14.6124 20.7592 14.4471 20.422C14.398 20.3218 14.087 20.3556 13.6984 20.4191ZM14.0493 20.9233C13.3456 21.2074 13.3547 21.3998 13.3868 21.5036C13.4186 21.6078 13.7413 21.7363 14.4091 21.4118C14.7472 21.2475 14.7515 21.0606 14.6683 20.9285C14.5646 20.7628 14.302 20.8211 14.0493 20.9233ZM14.542 21.4011C13.8094 21.655 13.8513 21.8867 13.9092 22.0228C13.9731 22.1731 14.2045 22.3333 14.816 21.9459C15.1852 21.7122 15.4255 21.5163 15.3597 21.3607C15.3001 21.2195 14.9508 21.2562 14.542 21.4011ZM14.8287 22.1308C14.6366 22.2467 14.5492 22.4036 14.6703 22.5823C14.887 22.9025 15.5259 22.3375 15.6863 22.1647C15.8055 22.0364 15.8818 21.9017 15.8143 21.8031C15.7446 21.7015 15.5279 21.7093 14.8287 22.1308ZM15.9855 22.1852C15.1325 22.6177 15.2143 22.8274 15.3331 22.9169C15.4644 23.0158 15.7737 23.1196 16.2909 22.5253C16.5178 22.2649 16.3931 21.9798 15.9855 22.1852ZM16.4114 22.6389C16.2314 22.8391 15.8094 23.1408 16.1361 23.3657C16.4114 23.5551 16.5728 23.3472 16.7083 23.2183C17.4919 22.4687 17.2327 21.9941 16.4114 22.6389Z" fill="white"/>
<path d="M18.9856 18.7099C19.5846 19.0077 19.8324 19.3241 19.2173 19.7563C19.142 19.8091 19.235 19.9402 19.3103 19.8875C19.9872 19.4123 19.8416 18.9192 19.0579 18.5664C18.9754 18.5254 18.9034 18.6689 18.9856 18.7099Z" fill="#121212"/>
<path d="M27.2075 25.5003C27.2075 24.8604 26.5447 24.2205 25.8085 23.9998C25.6118 23.9555 25.6429 23.7817 25.7961 23.713C25.9434 23.6466 26.8026 23.051 26.7905 22.3007C26.7905 21.5726 25.9309 20.4692 23.4268 20.4692C21.9538 20.4692 20.7263 20.8003 19.9898 21.4184C20.1613 21.5508 20.3581 21.7494 20.3581 21.97V26.0083C20.3335 26.2512 20.2108 26.4497 20.014 26.6704C20.6752 27.1371 21.8592 27.5824 23.5591 27.5769C25.3758 27.5326 27.2075 27.0007 27.2075 25.5003Z" fill="white"/>
<path d="M23.5512 23.5567C24.3326 23.5567 24.966 23.0537 24.966 22.4331C24.966 21.8126 24.3326 21.3096 23.5512 21.3096C22.7699 21.3096 22.1365 21.8126 22.1365 22.4331C22.1365 23.0537 22.7699 23.5567 23.5512 23.5567Z" fill="#121212"/>
<path d="M23.7336 26.6646C24.6095 26.6646 25.3195 26.1336 25.3195 25.4785C25.3195 24.8235 24.6095 24.2925 23.7336 24.2925C22.8577 24.2925 22.1476 24.8235 22.1476 25.4785C22.1476 26.1336 22.8577 26.6646 23.7336 26.6646Z" fill="#121212"/>
<path d="M17.4052 23.5405C17.4605 23.2668 17.5493 23.0008 17.6677 22.7453C17.6609 22.7352 17.4511 22.4683 16.9342 23.2111C16.6488 23.6209 17.1528 23.7859 17.4052 23.5405ZM17.3885 24.8021C17.1758 25.0478 16.9751 25.2542 16.8425 25.4189C16.5656 25.7632 17.2861 26.1877 17.6743 25.6981C17.5398 25.4133 17.4437 25.112 17.3885 24.8021ZM27.3186 18.3829C27.4327 18.3186 27.5529 18.2654 27.6773 18.224C25.094 17.0132 21.9067 17.0132 19.3237 18.224C19.4579 18.2702 19.5784 18.323 19.6822 18.3829C22.0743 17.3468 24.9473 17.356 27.3186 18.3829Z" fill="white"/>
<path d="M28.5078 21.5688C28.2177 20.5656 27.4937 20.1575 27.2128 19.9622C26.6482 19.57 26.6789 18.9903 27.1614 18.4906C24.856 17.5243 22.1179 17.5354 19.8396 18.4906C20.3221 18.9903 20.3525 19.57 19.7882 19.9622C19.5074 20.1575 18.783 20.5656 18.4933 21.5688C20.9558 19.0453 26.0452 19.0449 28.5078 21.5688ZM30.4813 25.9407C30.2436 26.48 29.4937 26.3677 29.0449 26.1994C28.4459 27.1056 27.4495 27.8431 26.2223 28.2887L27.1971 29.9311C29.0914 29.1106 30.4934 27.737 31.112 26.1197C30.8931 26.0957 30.6799 26.0352 30.4813 25.9407Z" fill="white"/>
<path d="M27.3382 30.3572C29.4295 29.4791 30.967 27.9428 31.6034 26.1012C31.4972 26.1235 31.3888 26.1334 31.2803 26.1308C30.6567 27.8061 29.2168 29.2297 27.2691 30.075C27.3083 30.1644 27.3317 30.2599 27.3382 30.3572ZM26.2436 30.4064L26.2449 30.4093C26.5549 31.1677 27.4744 30.7289 27.0583 30.0129L26.0675 28.3431C25.8858 28.4043 25.6999 28.459 25.509 28.5078C25.5051 28.5335 26.2331 30.3719 26.2436 30.4064ZM25.1958 30.6424C25.3879 31.4011 26.3074 31.1696 26.091 30.4594C26.091 30.4594 25.3447 28.6553 25.3035 28.5566C25.1166 28.599 24.9257 28.6348 24.7316 28.6637C24.7297 28.6709 25.1958 30.6424 25.1958 30.6424ZM24.1162 30.7621C24.1846 31.5784 25.1922 31.4369 25.0115 30.6238C25.0118 30.6245 24.5617 28.692 24.5598 28.6878C24.3706 28.7116 24.1784 28.7298 23.984 28.7409C23.9774 28.7584 24.1156 30.7459 24.1162 30.7621ZM45.8368 18.3556C45.7465 18.2869 45.5521 18.2905 45.3062 18.2769C44.0555 18.2769 41.1501 18.3573 40.5851 18.3573C40.0201 18.3573 36.0253 18.7986 35.4001 18.9994C35.1176 19.0798 35.0571 19.3604 35.4001 19.3806C35.7432 19.4008 40.0073 19.4613 40.6126 19.4613C41.0823 19.4613 43.5239 19.4532 44.9347 19.1749C45.6987 19.0242 46.1085 18.5613 45.8368 18.3556ZM44.4627 19.8415C43.7363 19.8616 40.1052 19.8818 39.6813 19.8616C39.2577 19.8415 35.969 19.6611 35.5857 19.641C34.7566 19.5977 34.4878 19.9648 35.3638 20.1627C35.8073 20.2633 39.9033 20.7245 43.01 20.6643C43.5949 20.6845 44.3818 20.3834 44.5838 20.1025C44.7858 19.8216 44.5638 19.8415 44.4627 19.8415ZM43.0506 21.1659C42.5462 21.1659 36.5946 20.7245 35.3435 20.4638C34.2554 20.2991 34.5009 20.855 34.9402 20.9452C35.3094 21.021 39.7216 21.8679 41.9612 21.908C42.7075 21.8881 43.575 21.1857 43.0506 21.1659ZM41.5376 22.4095C40.8316 22.3291 36.1304 21.587 34.8597 21.2459C33.7101 20.9497 33.9418 21.7094 34.3553 21.8279C34.7229 21.9334 38.7291 22.903 39.6411 22.9515C40.0277 22.9717 40.4155 22.9457 40.7959 22.874C42.0843 22.6178 41.5376 22.4095 41.5376 22.4095ZM39.6411 23.4527C39.1366 23.3525 35.041 22.4294 33.8708 21.9884C33.3009 21.7908 33.1291 22.3477 33.4875 22.5098C33.7094 22.61 36.8567 23.9139 38.3497 23.9943C38.8944 23.9943 39.9019 23.7027 39.6411 23.4527ZM32.9628 22.61C33.4266 22.8307 36.2515 24.0145 37.3409 24.2554C37.4921 24.2954 37.6518 24.3618 37.6391 24.4454C37.5422 25.086 35.5369 24.5411 35.3978 24.4969C34.6269 24.2511 33.0544 23.6773 32.3877 23.0312C32.5494 22.9511 32.9225 22.6904 32.9628 22.61ZM32.1153 23.2923C32.4178 23.4928 34.3952 24.5164 35.3029 24.797C35.7772 24.9542 35.278 25.4392 34.3517 25.1765C33.3278 25.0186 31.8328 23.814 31.5906 23.5933C31.712 23.5331 31.9742 23.3726 32.1153 23.2923ZM31.1876 23.8342C31.5529 24.0829 32.257 24.5476 32.7039 24.8442C32.8881 24.9665 33.3281 25.2084 33.3186 25.4017C33.314 25.4942 33.1372 25.6696 32.3297 25.378C31.8276 25.1736 31.2197 24.7579 30.7035 24.0148C30.804 23.9842 31.0662 23.8941 31.1876 23.8342ZM30.2793 24.1349C30.4685 24.3231 30.7133 24.5802 30.9526 24.8171C31.1732 25.0997 31.6642 25.3031 31.495 25.6296C31.312 25.983 30.7359 25.4743 30.5287 25.2797C30.2354 25.004 29.952 24.6398 29.8456 24.2752C29.987 24.2352 30.1484 24.1951 30.2793 24.1349Z" fill="white"/>
<path d="M37.3006 18.1967C36.7759 18.1967 35.0007 18.3172 34.3549 18.3172C32.4992 18.3172 29.9886 17.9917 28.2632 18.3442C27.1905 18.5632 27.0367 18.8721 27.0367 19.2041C27.0367 19.636 27.3994 19.8954 27.6567 20.0829C27.9594 20.3036 28.8878 20.8452 28.928 22.2497C29.1699 22.1494 29.513 22.0892 29.2711 21.5876C28.8482 20.7469 27.8982 19.7229 29.5234 19.2868C29.7797 19.2181 30.0956 19.1732 30.4819 19.1602C31.6721 19.1201 33.3981 19.1113 33.983 19.0111C34.568 18.9108 36.7765 18.3979 37.2404 18.338C37.442 18.3168 37.442 18.2166 37.3006 18.1967Z" fill="white"/>
<path d="M32.636 19.4166C32.2125 19.4166 30.9152 19.4078 30.4802 19.4283C29.2769 19.4853 28.4177 20.0682 29.2868 21.1622C29.457 21.376 29.912 21.8242 30.0936 21.9847C30.255 22.1051 30.5578 21.9043 30.2953 21.6035C30.6387 21.804 31.0622 21.764 30.8606 21.3028C31.163 21.5436 31.6675 21.5635 31.365 20.9418C31.5666 21.1023 32.1316 21.0824 31.7683 20.6007C32.0711 20.701 32.4141 20.5203 32.1919 20.2196C32.5755 20.2801 32.7974 19.9989 32.3935 19.7785C32.7775 19.8778 32.8783 19.4365 32.636 19.4166ZM33.82 19.2034C33.9834 19.193 34.692 19.0784 34.675 19.4583C34.658 19.8384 33.8708 19.6949 33.7091 19.6649C33.4112 19.6099 33.1732 19.5195 33.1801 19.3967C33.187 19.2708 33.4973 19.2236 33.82 19.2034ZM33.7915 19.8547C33.9634 19.8677 34.5827 19.8375 34.4858 20.1851C34.4554 20.2944 34.2282 20.5158 33.4671 20.3319C33.1333 20.2511 32.9608 20.0734 32.9608 19.9322C32.9608 19.8088 33.4089 19.8257 33.7915 19.8547ZM33.3022 20.4191C33.4246 20.4393 34.1343 20.4874 34.0154 20.8432C33.9323 21.0912 33.8046 21.0128 33.5883 21.0385C33.4455 21.0554 32.3883 20.7592 32.5536 20.422C32.603 20.3218 32.914 20.3556 33.3022 20.4191ZM32.9516 20.9233C33.655 21.2074 33.6459 21.3998 33.6141 21.5036C33.582 21.6078 33.2596 21.7363 32.5919 21.4118C32.2537 21.2475 32.2491 21.0606 32.3323 20.9285C32.4364 20.7628 32.6989 20.8211 32.9516 20.9233ZM32.4586 21.4011C33.1912 21.655 33.1493 21.8867 33.0914 22.0228C33.0275 22.1731 32.7961 22.3333 32.1843 21.9459C31.8151 21.7122 31.5748 21.5163 31.641 21.3607C31.7009 21.2195 32.0498 21.2562 32.4586 21.4011ZM32.1719 22.1308C32.364 22.2467 32.4514 22.4036 32.3303 22.5823C32.1139 22.9025 31.4747 22.3375 31.3143 22.1647C31.1954 22.0364 31.1189 21.9017 31.1863 21.8031C31.256 21.7015 31.473 21.7093 32.1719 22.1308ZM31.0154 22.1852C31.8684 22.6177 31.7866 22.8274 31.6678 22.9169C31.5365 23.0158 31.2272 23.1196 30.71 22.5253C30.4832 22.2649 30.6079 21.9798 31.0154 22.1852ZM30.5892 22.6389C30.7693 22.8391 31.1912 23.1408 30.8648 23.3657C30.5892 23.5551 30.4278 23.3472 30.2927 23.2183C29.509 22.4687 29.7683 21.9941 30.5892 22.6389Z" fill="white"/>
<path d="M28.0154 18.7099C27.4164 19.0077 27.1686 19.3241 27.784 19.7563C27.859 19.8091 27.766 19.9402 27.6907 19.8875C27.0141 19.4123 27.1598 18.9192 27.9434 18.5664C28.0256 18.5254 28.0976 18.6689 28.0154 18.7099Z" fill="#121212"/>
<path d="M29.5958 23.5409C29.5401 23.2671 29.4518 23.0012 29.3329 22.7457C29.3398 22.7356 29.5496 22.4687 30.0665 23.2115C30.3523 23.6213 29.8482 23.7863 29.5958 23.5409ZM29.6122 24.8025C29.8249 25.0482 30.0259 25.2546 30.1585 25.4193C30.4354 25.7636 29.7149 26.188 29.3267 25.6985C29.4613 25.4118 29.5581 25.1117 29.6122 24.8025Z" fill="white"/>
</svg>
