<svg width="48" height="48" viewBox="0 0 48 48" fill="none" xmlns="http://www.w3.org/2000/svg">
<path d="M39.6243 22.1942L37.5511 26.0071H28.8319V28.6789H19.0598V26.0071H8.26783L10.3411 22.1942H19.06V19.5221H28.8321V22.1942H39.6243ZM43.7811 20.6359H30.4731V18.228C30.4731 18.0921 30.3555 17.9819 30.2109 17.9819H17.6718C17.5273 17.9819 17.4099 18.0919 17.4099 18.228V20.6359H7.87153C7.72701 20.6359 7.54979 20.7459 7.47644 20.8818L3.97332 27.3229C3.89974 27.4586 3.95721 27.5686 4.10197 27.5686H17.4099V29.9769C17.4099 30.1124 17.5273 30.2223 17.6718 30.2223H30.2109C30.3555 30.2223 30.4731 30.1124 30.4731 29.9769V27.5686H40.0113C40.1559 27.5686 40.333 27.4586 40.4067 27.3229L43.909 20.8818C43.983 20.7459 43.9254 20.6359 43.7811 20.6359Z" fill="#121212"/>
</svg>
