<svg width="48" height="48" viewBox="0 0 48 48" fill="none" xmlns="http://www.w3.org/2000/svg">
<path d="M33.7083 12.0693C31.0844 8.79877 27.5927 7 23.8531 7C20.1135 7 16.6218 8.79877 13.9979 12.0693C11.4256 15.2887 10 19.5608 10 24.0884C10 28.6159 11.4153 32.888 13.9979 36.1074C16.6218 39.3779 20.1135 41.1767 23.8531 41.1767C27.5927 41.1767 31.0844 39.3779 33.7083 36.1074C36.2806 32.888 37.7062 28.6159 37.7062 24.0884C37.7062 19.5608 36.2806 15.2887 33.7083 12.0693ZM23.8531 8.53305C30.5059 8.53305 35.9397 15.258 36.1359 23.6182L23.8531 14.5324L11.5702 23.6182C11.7665 15.258 17.2003 8.53305 23.8531 8.53305ZM35.8777 27.3486C35.7227 28.2889 35.4955 29.1985 35.2062 30.0774L23.8531 21.6866L12.5 30.0774C12.2107 29.2087 11.9834 28.2889 11.8285 27.3486L23.8531 18.457L35.8777 27.3486ZM23.8531 39.6539C19.7003 39.6539 16.0226 37.0375 13.8016 33.0311L23.8531 25.5907L33.9046 33.0311C31.6835 37.0375 28.0059 39.6539 23.8531 39.6539Z" fill="#121212"/>
</svg>
