<svg width="48" height="48" viewBox="0 0 48 48" fill="none" xmlns="http://www.w3.org/2000/svg">
<path fill-rule="evenodd" clip-rule="evenodd" d="M14.291 35.1395L14.351 35.1618L16.693 35.323C16.791 35.3383 16.8585 35.34 16.9541 35.3424C16.9886 35.3433 17.0269 35.3442 17.0716 35.346C19.9253 35.4583 22.5439 35.5458 25.4396 35.5634C25.7293 35.5634 25.992 35.5556 26.2534 35.5478C26.5124 35.5402 26.7702 35.5325 27.0519 35.5325C28.9359 35.4596 30.8186 35.3574 32.6993 35.226C32.8443 35.209 33.1472 35.1893 33.506 35.166C34.3072 35.1139 35.3864 35.0437 35.6033 34.9456L35.6308 34.9228C35.7122 34.8672 35.8312 34.7999 35.9156 34.7605L35.9397 34.7397C35.9899 34.7033 36.0008 34.6986 36.0347 34.6839C36.0446 34.6797 36.0564 34.6746 36.0716 34.6676L36.0942 34.6482C36.1437 34.6111 36.1541 34.6065 36.1862 34.5924C36.1963 34.588 36.2084 34.5827 36.2244 34.5751L36.2484 34.5551L36.7325 34.2562C36.7829 34.2271 36.8199 34.2028 36.8566 34.1786C36.8934 34.1543 36.93 34.1302 36.9796 34.1017L37.4464 33.7964C37.4664 33.7838 37.483 33.775 37.4995 33.7662C37.5194 33.7557 37.539 33.7453 37.564 33.7287L38.1374 33.3398L38.194 33.2924C38.2805 33.2227 38.3463 33.1783 38.4336 33.1193L38.454 33.1055C38.4923 33.0796 38.5222 33.0573 38.5504 33.0363C38.5943 33.0036 38.6341 32.9739 38.695 32.9382L38.75 32.8893C38.7819 32.8567 38.7834 32.8565 38.7908 32.8554C38.7952 32.8548 38.8017 32.8538 38.8177 32.8457L38.8427 32.823C38.9356 32.7446 39.0115 32.6877 39.1016 32.6201C39.1203 32.6061 39.1397 32.5915 39.1599 32.5763C39.1728 32.5665 39.1857 32.5568 39.1984 32.5472C39.2929 32.476 39.382 32.4089 39.4678 32.3282L41.4732 30.4734C41.5836 30.3324 41.6802 30.2213 41.7794 30.1073C41.9081 29.9594 42.041 29.8066 42.2138 29.577C42.2346 29.5494 42.2552 29.5226 42.2754 29.4961C42.3354 29.4178 42.3931 29.3425 42.4498 29.2573C42.4901 29.1967 42.5342 29.1332 42.5792 29.0683C42.6909 28.9075 42.8085 28.7383 42.8882 28.5838C42.9094 28.5428 42.9255 28.5176 42.9424 28.491C42.9568 28.4682 42.9719 28.4445 42.9913 28.4092C43.0057 28.383 43.0154 28.3631 43.024 28.3452C43.0396 28.3132 43.0519 28.2878 43.0826 28.2443L43.1044 28.2173L43.147 28.1207L43.1662 28.0985L43.2993 27.8118L43.3206 27.7869L43.3317 27.75L43.3515 27.7231L43.3592 27.6882L43.3822 27.6583C43.4014 27.5748 43.4379 27.4969 43.4743 27.4191C43.4885 27.3887 43.5027 27.3584 43.5159 27.3277C43.5481 27.2531 43.573 27.1747 43.5981 27.096C43.6106 27.0566 43.6231 27.0172 43.6367 26.978L43.6602 26.9475C43.6779 26.871 43.7 26.7957 43.7226 26.7186C43.7476 26.6336 43.7732 26.5463 43.7943 26.4529L43.8147 26.4246C43.8203 26.3555 43.8336 26.3024 43.8478 26.2456C43.8617 26.1904 43.8764 26.1317 43.8857 26.0515L43.9073 26.0186C43.9073 25.927 43.9185 25.8682 43.9332 25.7905C43.9373 25.7688 43.9416 25.7456 43.9461 25.7199C43.9558 25.6649 43.9602 25.6085 43.9651 25.5455C43.9685 25.5017 43.9722 25.4548 43.978 25.403L44 25.252V24.2924L43.9784 24.1677C43.9722 24.1148 43.9684 24.0664 43.9648 24.0213C43.9598 23.9596 43.9554 23.9039 43.9461 23.8509C43.9353 23.7886 43.9287 23.7444 43.922 23.6996C43.9158 23.6579 43.9095 23.6156 43.8996 23.5576L43.7838 23.0218L43.7622 22.9941C43.7463 22.9183 43.7265 22.8534 43.7071 22.7902C43.6901 22.7345 43.6735 22.6801 43.6602 22.6204L43.6378 22.5927C43.619 22.541 43.6046 22.4955 43.5908 22.4518C43.5692 22.3839 43.549 22.3201 43.5157 22.243C43.5026 22.213 43.4926 22.193 43.4835 22.1749C43.4693 22.1466 43.4574 22.1228 43.4396 22.0722C43.4341 22.0562 43.429 22.0402 43.4238 22.0241C43.4119 21.9867 43.3998 21.9491 43.3822 21.911L43.3614 21.8823L43.3206 21.7811L43.3022 21.7587L43.0735 21.2912L43.0523 21.2647L42.7034 20.6774C42.6832 20.6491 42.6688 20.631 42.6569 20.6161C42.6302 20.5826 42.6164 20.5653 42.5793 20.4849L42.5577 20.4616L42.5175 20.3942L42.4955 20.3691C42.4347 20.298 42.4074 20.2525 42.3633 20.177L42.3142 20.122C42.2516 20.0552 42.2278 20.015 42.1884 19.9483C42.1851 19.9425 42.1816 19.9366 42.1779 19.9305L42.1554 19.9058L41.5603 19.189L41.4499 19.0722L40.9735 18.5704L40.9198 18.5161L40.4036 18.0304C40.4017 18.0342 40.3972 18.0276 40.3928 18.0211C40.3906 18.018 40.3885 18.0149 40.3868 18.013L40.3644 17.9912L38.3794 16.4046L38.3586 16.3852C38.3161 16.3618 38.29 16.3421 38.26 16.3195C38.2399 16.3042 38.218 16.2877 38.1881 16.2678C38.1753 16.2592 38.1641 16.2519 38.154 16.2452C38.1127 16.218 38.0885 16.2021 38.0396 16.162L38.0111 16.1383L37.9471 16.0995L37.9239 16.0765C37.8366 16.0264 37.7574 15.9761 37.6691 15.9116L37.6475 15.8912C37.5869 15.8573 37.5463 15.8335 37.4838 15.7888L37.4614 15.7676C37.3703 15.7159 37.2978 15.6688 37.2058 15.6044L37.1798 15.5823C37.1077 15.5474 37.0784 15.5277 37.0273 15.4933C37.0145 15.4848 37.0004 15.4753 36.984 15.4645C36.9516 15.4433 36.9245 15.428 36.8974 15.4127C36.8701 15.3973 36.8428 15.3819 36.8102 15.3605C36.7647 15.3307 36.7206 15.304 36.677 15.2775C36.6061 15.2344 36.5365 15.1921 36.4646 15.1391L36.4407 15.1191C36.3589 15.0809 36.2336 15.0108 36.1557 14.9544L36.1314 14.9338C36.047 14.8942 35.9286 14.8269 35.847 14.7714L35.8197 14.7485C35.8034 14.7404 35.789 14.7338 35.7752 14.7274C35.7434 14.7127 35.7148 14.6995 35.674 14.6742C35.6504 14.6596 35.6397 14.6513 35.6313 14.6446C35.6172 14.6335 35.6091 14.6272 35.558 14.6051C35.4862 14.5741 35.4324 14.5699 35.3676 14.5649C35.331 14.5621 35.2908 14.559 35.2419 14.5507C34.9672 14.5038 34.4095 14.4658 33.9031 14.4313C33.5883 14.4098 33.2933 14.3897 33.0985 14.3697L33.0096 14.3471C32.8362 14.3471 32.6706 14.3301 32.511 14.3138C32.3737 14.2997 32.2409 14.2861 32.1114 14.2841C31.8299 14.2797 31.6861 14.2652 31.5211 14.2485C31.4405 14.2403 31.3548 14.2316 31.2456 14.2233C31.1258 14.2143 31.0048 14.2105 30.8856 14.2067C30.6962 14.2006 30.5114 14.1947 30.3432 14.1685L28.5303 14.0976C28.4028 14.0827 28.2492 14.0759 28.0955 14.0691C27.9419 14.0623 27.7883 14.0555 27.6608 14.0406C27.531 14.0254 27.3769 14.032 27.2224 14.0386C27.0527 14.0458 26.8825 14.053 26.7435 14.0315C26.4689 13.9888 23.826 14.0002 22.6128 14.0054C22.3586 14.0065 22.1671 14.0073 22.0735 14.0073L20.249 14.0669C20.1598 14.0772 20.0249 14.0739 19.9077 14.0711C19.8642 14.0701 19.8232 14.0691 19.7878 14.0689L18.4559 14.1309L18.3058 14.1513L16.7918 14.2235L16.6688 14.2459L13.5498 14.4705C13.5002 14.474 13.4743 14.4795 13.4488 14.485C13.4161 14.4919 13.3839 14.4988 13.3027 14.5014C13.1584 14.5059 12.897 14.5376 12.7709 14.5564C12.7296 14.5624 12.6871 14.5649 12.6469 14.5673C12.5869 14.5708 12.532 14.5741 12.4938 14.5883C12.4523 14.6036 12.4234 14.6212 12.3921 14.6403C12.368 14.655 12.3425 14.6706 12.3087 14.6867L12.2836 14.7073C12.2316 14.7297 12.2195 14.7375 12.1994 14.7503C12.1883 14.7574 12.1747 14.766 12.1507 14.7796L12.1291 14.7994C12.0885 14.8294 12.0551 14.8484 12.0192 14.8686C11.9977 14.8808 11.9754 14.8934 11.9501 14.9092C11.9021 14.9392 11.8672 14.9561 11.8252 14.9764C11.8128 14.9823 11.7999 14.9886 11.7858 14.9956L11.7586 15.0185C11.7296 15.0434 11.7247 15.0448 11.7145 15.0476C11.709 15.0491 11.702 15.051 11.6888 15.0574L11.666 15.0764C11.5903 15.1338 11.461 15.2055 11.3803 15.2427L11.3571 15.2631C11.3092 15.298 11.2552 15.3285 11.2037 15.3576C11.1801 15.371 11.1569 15.3841 11.1351 15.3971L11.1102 15.4189C11.0054 15.4924 10.9054 15.5611 10.7949 15.6132L10.7704 15.6343L10.7035 15.6749L10.6777 15.6961C10.6474 15.724 10.6436 15.725 10.6347 15.7271C10.6297 15.7283 10.6232 15.7299 10.6098 15.7367L10.5851 15.7583C10.5548 15.7796 10.5299 15.7952 10.5055 15.8105C10.4765 15.8285 10.4481 15.8463 10.4122 15.8727C10.3856 15.8925 10.369 15.9058 10.3564 15.9159C10.3243 15.9417 10.3181 15.9467 10.2374 15.9836L10.2144 16.0034L9.39246 16.5826C9.36561 16.6026 9.35169 16.616 9.33756 16.6297C9.32564 16.6412 9.31357 16.6529 9.29346 16.6687C9.27226 16.6857 9.25007 16.6997 9.22551 16.7153C9.21199 16.7238 9.19776 16.7328 9.18257 16.743L8.6034 17.1883L8.57766 17.2111C8.5359 17.2461 8.50781 17.2676 8.47613 17.2918C8.45869 17.3051 8.44017 17.3193 8.41767 17.337L8.13769 17.5821C8.10025 17.6173 8.0809 17.6305 8.05973 17.6448C8.0435 17.6558 8.02621 17.6675 7.99888 17.6905C7.48228 18.1241 6.8342 18.793 6.40374 19.2573L6.35423 19.3139L5.72655 20.0913L5.70556 20.1151C5.66226 20.1893 5.61852 20.2498 5.572 20.3142C5.54174 20.3561 5.51031 20.3995 5.47706 20.4495C5.45305 20.4857 5.43099 20.52 5.40949 20.5534C5.36257 20.6264 5.31831 20.6952 5.26222 20.7707L5.24242 20.7932C5.20262 20.8806 5.16678 20.9362 5.11035 21.0176L5.08798 21.0459L5.0759 21.0796L5.05709 21.1013C5.05009 21.1168 5.04403 21.1307 5.03839 21.1436C5.01483 21.1976 4.99875 21.2344 4.95353 21.2956L4.93353 21.3209L4.92304 21.3574L4.90264 21.3811L4.7674 21.6662L4.7482 21.6874L4.67573 21.8514L4.65573 21.8795C4.63933 21.9529 4.62003 21.9882 4.59672 22.0308C4.58344 22.055 4.56886 22.0817 4.55276 22.1191C4.53061 22.1712 4.51484 22.2191 4.49854 22.2686C4.48716 22.3031 4.47553 22.3384 4.46128 22.3765L4.4395 22.4016C4.41397 22.5212 4.37592 22.6279 4.33724 22.7364C4.28893 22.8719 4.23964 23.0101 4.21259 23.1794L4.19219 23.2083L4.18229 23.303L4.1615 23.3323C4.16113 23.3489 4.14994 23.4116 4.13442 23.4985C4.09994 23.6916 4.04409 24.0043 4.03794 24.1986C4.03546 24.2775 4.02833 24.3132 4.02132 24.3483C4.01492 24.3803 4.00862 24.4118 4.00606 24.4754C3.98714 24.9391 4.01635 25.1593 4.04094 25.3446C4.05572 25.456 4.06883 25.5548 4.06883 25.6864L4.08943 25.7735L4.09972 25.8749L4.12269 25.9897C4.13108 26.0573 4.14478 26.1076 4.15784 26.1556C4.1747 26.2175 4.19049 26.2755 4.19239 26.3616L4.21377 26.3913C4.22572 26.4729 4.24192 26.534 4.25848 26.5964C4.26744 26.6302 4.27651 26.6643 4.28506 26.7024L4.30684 26.7309C4.31852 26.7875 4.32593 26.8084 4.33584 26.8363C4.34189 26.8534 4.34887 26.8731 4.35832 26.9051C4.36496 26.9276 4.36938 26.9466 4.37358 26.9645C4.38002 26.9921 4.38593 27.0174 4.39852 27.0499C4.41397 27.0897 4.42743 27.1179 4.43969 27.1436C4.46263 27.1917 4.48141 27.231 4.50128 27.3217L4.51989 27.3485C4.53873 27.3932 4.55098 27.4276 4.56303 27.4615C4.57239 27.4879 4.58163 27.5139 4.59375 27.5441L4.61355 27.5649C4.63043 27.6051 4.63626 27.6165 4.64047 27.6285C4.64441 27.6397 4.64692 27.6514 4.65573 27.6877L4.6779 27.7191L4.90264 28.1862L4.92442 28.2132L4.93353 28.2454L4.95709 28.2751C4.9918 28.3267 5.0107 28.3665 5.03236 28.4122C5.03999 28.4283 5.04796 28.4451 5.05709 28.4634L5.07748 28.4912C5.11267 28.5393 5.11826 28.5517 5.13263 28.5835C5.1371 28.5934 5.14242 28.6051 5.14976 28.6205L5.17074 28.6456C5.20447 28.6925 5.21092 28.7065 5.22569 28.7384C5.23017 28.7481 5.23541 28.7595 5.24242 28.7739L5.265 28.8001C5.29056 28.8293 5.29178 28.8339 5.29439 28.8437C5.29582 28.8491 5.29767 28.8561 5.3042 28.8696L5.32479 28.8927C5.36271 28.9449 5.3971 28.9995 5.42776 29.0563L5.44756 29.0781C5.47691 29.1084 5.47748 29.1111 5.47944 29.12C5.48055 29.1251 5.4821 29.1321 5.48954 29.1474L5.50973 29.1707L5.55131 29.2377L5.59983 29.2943C5.65911 29.37 5.71193 29.4414 5.76361 29.5113C5.84554 29.6221 5.9246 29.729 6.02198 29.8428L6.2388 30.12C6.25938 30.1441 6.2743 30.1595 6.28784 30.1735C6.30817 30.1945 6.3254 30.2123 6.35404 30.2516C6.41232 30.3312 6.47685 30.3915 6.54031 30.4508C6.59585 30.5027 6.65058 30.5538 6.69956 30.6164C6.71757 30.6394 6.72837 30.6551 6.7377 30.6686C6.75474 30.6933 6.76692 30.7109 6.80926 30.7538L7.40427 31.3397L7.42644 31.3633C7.50177 31.4061 7.55416 31.4622 7.60981 31.5219C7.63477 31.5487 7.66037 31.5762 7.689 31.6034C7.72571 31.6383 7.74536 31.6512 7.76666 31.6652C7.78328 31.6762 7.8009 31.6878 7.8284 31.711C7.85716 31.735 7.8782 31.7567 7.90082 31.7801C7.91823 31.7981 7.93657 31.817 7.96007 31.8387L8.01393 31.8882C8.07389 31.9227 8.09407 31.9445 8.11971 31.9722C8.13556 31.9893 8.1535 32.0087 8.18422 32.0347L8.52459 32.3121C8.5529 32.3356 8.57448 32.352 8.59475 32.3675C8.62651 32.3918 8.65504 32.4136 8.70122 32.4559L8.7224 32.4751C8.81349 32.5258 8.89606 32.5965 8.97922 32.6715L9.0014 32.6913L9.99836 33.4132L10.0209 33.4324C10.1265 33.4928 10.2209 33.5573 10.3193 33.6246C10.3576 33.6507 10.3964 33.6772 10.4368 33.7041C10.4792 33.7324 10.5213 33.7594 10.563 33.7862C10.6536 33.8444 10.7427 33.9017 10.8322 33.9694L10.852 33.9882C10.8707 33.9966 10.8785 33.9979 10.8837 33.9988C10.8923 34.0002 10.8938 34.0004 10.9248 34.0292L10.9494 34.05C11.0334 34.0896 11.0965 34.1328 11.1626 34.1779C11.2095 34.2099 11.2578 34.2429 11.3161 34.2764C11.3761 34.3108 11.4049 34.3299 11.4477 34.3584C11.4593 34.3661 11.4719 34.3745 11.4864 34.3841C11.5172 34.4042 11.5427 34.4182 11.5677 34.4319C11.5984 34.4487 11.6283 34.465 11.666 34.4918L11.6917 34.5134C11.8046 34.5678 11.8697 34.6025 11.9747 34.6771L12.0024 34.6985C12.0097 34.7022 12.0167 34.7056 12.0234 34.7089C12.0835 34.7387 12.1201 34.7569 12.185 34.7973C12.2094 34.8126 12.2293 34.8236 12.2483 34.8341C12.2786 34.8508 12.3063 34.8661 12.3453 34.8951L12.3699 34.9147C12.5061 34.9791 12.5557 34.9847 12.6557 34.9962C12.6994 35.0012 12.7527 35.0073 12.8271 35.0199L14.0429 35.1319C14.0762 35.1332 14.1058 35.1332 14.1347 35.1331C14.1843 35.1331 14.2316 35.1331 14.291 35.1395ZM22.2651 14.3498C22.2425 14.3529 22.225 14.3552 22.2174 14.3544C21.728 14.3552 21.2631 14.3652 20.7916 14.3754C20.5424 14.3808 20.2913 14.3862 20.0338 14.3903L17.9488 14.4837C17.7482 14.507 17.5381 14.5189 17.3346 14.5304C17.2 14.538 17.0682 14.5455 16.9439 14.556C16.761 14.5715 16.4581 14.6054 16.1091 14.6445C15.3225 14.7325 14.3016 14.8468 13.8934 14.8358L15.2085 15.0665L15.7877 15.0011C21.5767 14.1153 30.2282 14.8153 32.3161 14.9842C32.3937 14.9905 32.4622 14.996 32.5211 15.0007C32.7643 14.9636 33.2272 14.971 33.6029 14.977C33.7716 14.9797 33.9228 14.9822 34.0285 14.9801C33.0828 14.7549 32.0209 14.7051 30.9846 14.6566C30.5593 14.6366 30.1384 14.6169 29.7316 14.5853C28.0899 14.4578 26.5561 14.3899 24.9016 14.3922L22.3817 14.3396C22.3411 14.3396 22.2977 14.3454 22.2651 14.3498ZM42.6908 24.3186L43.6988 24.331C43.7161 24.5391 43.719 24.7417 43.706 24.9357L42.5296 24.9504C42.4864 26.3497 41.9461 27.4928 41.2344 28.5823L39.4054 28.6464C38.691 30.319 34.9138 33.8483 33.6256 34.3496C34.0092 34.3825 34.4376 34.4784 34.8373 34.5679C34.9494 34.5929 35.0593 34.6175 35.1653 34.6401C35.2019 34.6189 35.2387 34.5975 35.2757 34.5761C35.943 34.1891 36.675 33.7646 37.2868 33.3453L38.5041 32.5002L39.0096 32.1107L39.2801 31.9076L39.3668 32.004C38.8524 32.527 35.8375 34.6676 35.2601 34.7264C33.1937 34.9365 31.0119 35.125 28.9455 35.2488C27.2645 35.3494 25.5493 35.3427 23.847 35.3361C23.2889 35.3339 22.7322 35.3317 22.1786 35.3333C21.7281 35.3638 19.9672 35.2955 19.6873 35.2801C19.1419 35.2498 18.5887 35.2281 18.0325 35.2063C17.0693 35.1686 16.0969 35.1305 15.1398 35.047C14.7326 35.0115 14.3329 34.9484 13.935 34.8856C13.5938 34.8318 13.2539 34.7782 12.9114 34.7423C12.738 34.724 12.6692 34.7192 12.606 34.6975C12.5546 34.6799 12.507 34.6512 12.4099 34.5951C10.7302 33.6245 9.22079 32.543 7.80365 31.2959C7.50923 31.037 7.24975 30.7578 6.99005 30.4784C6.88035 30.3604 6.77061 30.2423 6.65818 30.1257L6.66412 30.1196L6.77837 30.0372C6.82546 30.0896 6.83111 30.096 6.83135 30.0958C6.83175 30.0955 6.81683 30.0765 6.95816 30.2261L8.13392 31.3676C8.25117 31.4775 8.37236 31.583 8.49727 31.684L10.0021 32.8396C10.2711 33.0444 10.5636 33.2245 10.8561 33.4045C11.099 33.5541 11.3419 33.7036 11.5711 33.8673L12.0006 34.1401L12.718 34.552C12.8453 34.625 14.1926 34.4292 14.3539 34.3526C13.3621 33.8045 10.891 31.7743 10.334 31.0205C9.54453 30.1679 9.33326 29.8774 8.68716 28.8999C8.68119 28.8866 8.67519 28.8734 8.66923 28.8603C8.63282 28.7801 8.59759 28.7024 8.57786 28.6432L6.78391 28.5765C6.45462 28.0647 6.15504 27.4825 5.90654 26.8586L5.44637 24.9504C5.35299 24.9388 5.19259 24.9424 5.01989 24.9464C4.73704 24.9529 4.42121 24.9601 4.31278 24.9021C4.30423 24.7232 4.308 24.5439 4.32406 24.3655C4.32583 24.3646 4.32803 24.3642 4.3302 24.3638C4.3341 24.3632 4.3379 24.3626 4.33891 24.3588C4.35155 24.3169 4.82163 24.3186 5.09411 24.3195C5.19307 24.3199 5.26597 24.3201 5.28143 24.3182C5.33768 24.1499 5.39196 23.9845 5.44547 23.8214C5.80826 22.7159 6.13543 21.7189 6.79718 20.6907L8.59112 20.6239C8.61047 20.5654 8.64524 20.4889 8.68124 20.4096C8.68762 20.3956 8.69404 20.3815 8.70042 20.3673C9.12235 19.7289 9.3531 19.5099 9.68234 19.1973C9.85727 19.0313 10.06 18.8388 10.334 18.5431C10.891 17.7891 13.3621 15.7587 14.3539 15.2106C14.1926 15.134 12.8453 14.9382 12.718 15.0112L12.0006 15.4231L11.5711 15.6961C11.3424 15.8593 11.1001 16.0085 10.8578 16.1577C10.5648 16.338 10.2717 16.5184 10.0023 16.7238L8.49747 17.8794C8.3725 17.9804 8.25124 18.0859 8.13392 18.1958L6.95816 19.3371C6.81674 19.487 6.83177 19.4677 6.83135 19.4674C6.8311 19.4672 6.82541 19.4736 6.77837 19.526L6.66392 19.4436L6.65798 19.4375C6.77081 19.3205 6.88091 19.2021 6.99097 19.0837C7.25041 18.8046 7.50961 18.5258 7.80365 18.2673C9.22099 17.0204 10.7302 15.9389 12.4099 14.9681C12.507 14.912 12.5546 14.8833 12.6059 14.8657C12.669 14.8441 12.7379 14.8393 12.9114 14.8211C15.1343 14.5883 17.4516 14.4073 19.6873 14.2833C19.8911 14.2721 20.8747 14.2358 21.5735 14.21C21.8348 14.2003 22.0563 14.1922 22.1824 14.1873C24.4248 14.1938 26.6912 14.255 28.9231 14.3887C29.0701 14.3975 29.2193 14.4067 29.3698 14.416C29.9303 14.4507 30.5092 14.4866 31.0608 14.5053C31.4483 14.5185 31.8432 14.5525 32.2364 14.5864C32.5574 14.614 32.8773 14.6416 33.191 14.6576C33.8157 14.6896 34.4891 14.7583 35.1166 14.8223C35.1647 14.8272 35.2126 14.8321 35.2601 14.837C35.8375 14.8958 38.8524 17.0364 39.3668 17.5592L39.2801 17.6558L39.0096 17.4527L38.5041 17.0632L37.2868 16.2181C36.6749 15.7985 35.9428 15.374 35.2754 14.987C35.2385 14.9656 35.2018 14.9443 35.1653 14.9231C35.06 14.9456 34.9509 14.97 34.8396 14.9949C34.4392 15.0846 34.01 15.1808 33.6256 15.2138C34.9138 15.7149 38.7043 18.9482 39.4187 20.6208L41.2475 20.6849C41.9593 21.7742 42.6478 22.9192 42.6908 24.3186ZM25.4391 35.1791C26.1382 35.177 26.8101 35.1749 27.3474 35.169C27.725 35.1413 28.1138 35.1291 28.5039 35.1169C28.9154 35.104 29.3284 35.0911 29.7316 35.0599C30.0976 35.0314 30.4618 35.0103 30.8253 34.9893C31.2435 34.9651 31.6608 34.9409 32.0792 34.9056C32.2967 34.8872 32.5309 34.876 32.7706 34.8645C33.3029 34.8391 33.8622 34.8124 34.3256 34.7021C33.9844 34.6955 32.8736 34.6163 32.5211 34.5627C32.4613 34.5674 32.3917 34.5731 32.3127 34.5794C30.2188 34.7487 21.5736 35.4475 15.7877 34.5621L15.2085 34.4969L13.8934 34.7274C13.9053 34.7338 13.9072 34.7366 13.9086 34.7386C13.9108 34.7418 13.9119 34.7433 13.9462 34.7539C14.168 34.8225 15.4416 34.9135 15.8978 34.9353C16.2469 34.953 16.5956 34.977 16.9439 35.0072C17.0689 35.0178 17.2015 35.0254 17.3368 35.0331C17.5397 35.0446 17.7489 35.0565 17.9488 35.0797L20.0338 35.1731C20.294 35.1772 20.5477 35.1826 20.7995 35.188C21.2684 35.1981 21.7308 35.208 22.2174 35.2088C23.0357 35.1864 24.2751 35.1826 25.4391 35.1791ZM13.7225 28.6896L13.7098 28.6722L13.705 28.6672L13.7225 28.6896ZM11.8081 25.7149L9.99319 25.7209L9.99339 23.8424L11.7695 23.8277C12.0471 23.8347 12.26 23.9194 12.3964 24.0643C12.574 24.2528 12.5815 24.9166 12.5305 25.2122C12.4683 25.5714 12.1455 25.7137 11.8081 25.7149ZM15.718 25.1268L17.4185 25.1328L16.568 23.6206L15.718 25.1268Z" fill="#121212"/>
<path fill-rule="evenodd" clip-rule="evenodd" d="M13.7098 28.6722C13.6686 28.6145 13.6361 28.5509 13.6136 28.4837C13.6023 28.4564 13.5981 28.4373 13.595 28.4235C13.5878 28.3906 13.587 28.3872 13.513 28.3716C13.3853 28.3445 12.5829 28.3465 12.1939 28.3474C12.1057 28.3474 12.0388 28.3478 12.0057 28.3474L8.05174 28.2607C7.98422 28.2589 7.96125 28.2572 7.92957 28.2548C7.91313 28.2536 7.89452 28.2522 7.86621 28.2506C7.80482 28.2469 7.73691 28.2457 7.67018 28.2447C7.59578 28.2444 7.52141 28.2414 7.44722 28.2358C7.33079 28.2245 7.21041 28.2239 7.09081 28.2235L7.01557 28.2231C6.9823 28.1425 6.89557 27.9914 6.83142 27.8794C6.81578 27.8522 6.80152 27.8273 6.78984 27.8063C6.53203 27.3505 6.31541 26.8786 6.15305 26.3953C6.04375 26.0698 5.94039 25.6724 5.90574 25.3039C5.86613 24.8827 5.8699 24.3477 5.93504 24.004L5.67902 24.0966C5.67466 23.816 5.76416 23.4864 5.84633 23.2153L6.46748 21.7391C6.50708 21.6631 6.56609 21.5661 6.62648 21.4669C6.71559 21.32 6.80786 21.1683 6.84508 21.0721L13.2716 20.9287C13.3591 20.901 13.4738 20.7248 13.5696 20.5778C13.6152 20.5081 13.6561 20.4452 13.688 20.4075C14.3513 19.6258 15.0662 18.9334 15.9287 18.3871L16.1867 18.2105L16.1976 18.2053L16.2081 18.2002L17.0118 17.7364L17.0308 17.7251L17.0324 17.7242L17.0706 17.6998C17.1219 17.6685 17.1735 17.6392 17.224 17.6129C19.1023 16.6341 21.5646 16.0702 23.9882 16.0718C26.473 16.0734 29.1667 16.6519 31.0703 17.7576C31.1661 17.8131 31.258 17.8649 31.3441 17.9132C31.4828 17.9915 31.6067 18.0612 31.7077 18.1251L33.4777 19.4872C33.5048 19.5143 33.5252 19.5326 33.5458 19.5508C33.5642 19.567 33.5826 19.5834 33.606 19.6064L33.6606 19.6591C33.6899 19.6872 33.7169 19.7127 33.7359 19.7329C33.7525 19.7508 33.7668 19.768 33.7812 19.7858C33.8006 19.8096 33.8204 19.8335 33.8472 19.8597C34.0416 20.049 34.1382 20.1686 34.318 20.3909C34.4085 20.5028 34.4638 20.5751 34.5333 20.6701C34.5495 20.6925 34.5667 20.7206 34.5849 20.7501C34.6338 20.8293 34.6893 20.9196 34.7509 20.9392C35.4231 20.9317 36.0969 20.9487 36.7707 20.9659C37.1735 20.9762 37.576 20.9863 37.978 20.9913C38.7356 21.0008 40.6895 21.0299 41.1808 21.08C41.2604 21.2317 41.3421 21.3756 41.4237 21.5192C41.591 21.8136 41.7574 22.1061 41.9021 22.4597C42.0688 22.8676 42.3405 23.586 42.3543 24.096L42.1074 24.0663C42.3197 25.486 41.8211 26.8559 41.1299 27.9916L41.1016 28.0364C41.0625 28.0976 41.0372 28.137 41.0237 28.2284C40.7602 28.215 40.4741 28.2312 40.1951 28.2473C40.0729 28.2542 39.9523 28.2611 39.8355 28.2651C39.6886 28.2706 39.5454 28.273 39.3985 28.2738L38.813 28.2863C38.234 28.3009 37.6531 28.3092 37.0723 28.3179C36.209 28.3304 35.3457 28.3431 34.4881 28.3754C34.3931 28.4859 34.3109 28.6037 34.2283 28.7219C34.1572 28.8235 34.086 28.9254 34.0064 29.0232L32.6973 30.34L32.1536 30.7513C31.5924 31.1819 30.981 31.4964 30.3444 31.8134C28.6461 32.6595 26.3504 33.1776 24.1115 33.1879C22.139 33.1972 20.2781 32.8818 18.4832 32.1672L17.9824 31.9581C17.9329 31.9387 17.9163 31.9296 17.8878 31.9142C17.8662 31.9023 17.8444 31.8908 17.8224 31.8797C17.7551 31.8458 17.6937 31.8173 17.627 31.7862C17.5849 31.7668 17.5429 31.7471 17.501 31.7272L17.2227 31.5837L17.2023 31.5736L16.0895 30.9027L16.0716 30.8897L16.0166 30.8481C16.0098 30.8433 16.003 30.8385 15.9962 30.8338C15.9849 30.8261 15.9718 30.8172 15.9598 30.8081L15.8101 30.7079C15.5376 30.5364 14.9642 30.0366 14.7284 29.7911L13.9933 28.9749L13.9801 28.9571C13.9781 28.9543 13.9751 28.9512 13.9722 28.9478L13.9662 28.9409L13.7098 28.6722ZM17.8537 21.1946C17.8537 21.1946 15.042 21.1905 13.8411 21.1954L13.9815 20.9748H34.2119L34.2279 20.9978C34.2749 21.0651 34.3137 21.121 34.357 21.1948L23.3306 21.1954C22 21.1948 20.1694 21.1946 17.8537 21.1946ZM23.4171 23.1094H18.8778V23.8206H20.6294V26.3949H21.6515V23.8206H23.4173L23.4171 23.1094ZM32.3878 23.1094H33.5002L33.4979 25.0849C33.4963 26.2579 32.1968 26.5145 31.2867 26.5204C29.8947 26.5299 29.109 26.1426 29.073 25.0849L29.0756 23.1094H30.2068L30.1941 25.2112C30.2577 25.376 30.3119 25.4518 30.4341 25.5284C30.8822 25.8096 31.8146 25.7583 32.1585 25.5314C32.2694 25.4581 32.3878 25.3156 32.3878 25.2112V23.1094ZM36.1555 23.1139L34.5489 23.1094V26.3949H35.5603L35.5601 23.8206L37.42 26.3947H38.9284V23.1137L37.9621 23.1145V25.7246L36.1555 23.1139ZM24.8675 24.0057C24.9354 24.2247 26.0061 24.3332 26.5967 24.393C26.7682 24.4105 26.8993 24.4237 26.9537 24.4346C27.8238 24.6059 28.2837 24.9386 28.135 25.7809C28.019 26.4466 26.9218 26.4903 26.3664 26.5125L26.335 26.5139C25.2629 26.5573 24.5432 26.4109 24.1642 26.3341C24.1117 26.3232 24.0591 26.3129 24.0064 26.3032V25.5563L24.1763 25.5868C24.976 25.731 26.7985 26.0597 27.1711 25.6789C27.7091 25.1294 26.168 25.0294 25.4811 24.9847C25.3419 24.9756 25.2378 24.9688 25.1932 24.9611C24.4485 24.8314 23.8892 24.6299 24.0064 23.7305C24.2016 22.6347 27.2816 22.9121 27.9349 23.205L27.9309 23.9071C27.6412 23.8454 24.662 23.3438 24.8675 24.0057ZM8.94099 23.1094C9.17563 23.1179 9.69837 23.1145 10.2696 23.1109C11.1939 23.105 12.2457 23.0985 12.414 23.1393C12.676 23.203 13.0368 23.3383 13.2255 23.526C13.5567 23.8551 13.5977 24.1303 13.609 24.716C13.6417 26.4105 12.6223 26.403 11.2321 26.3931C11.0141 26.3915 10.7866 26.3899 10.553 26.3947H8.98257L8.94099 23.1094ZM18.0232 26.3947H19.1455L17.1912 23.1094H15.8982L13.9498 26.3947H15.0289L15.3988 25.6977L17.6951 25.7209L18.0232 26.3947ZM14.3783 28.6322L14.2381 28.4116C18.7043 28.4304 22.7686 28.4245 26.9814 28.4185C29.1694 28.4154 31.3984 28.412 33.7438 28.4122C33.7002 28.4865 33.6614 28.5421 33.6143 28.6098L33.5987 28.6322H14.3783Z" fill="#121212"/>
</svg>
