<svg width="48" height="48" viewBox="0 0 48 48" fill="none" xmlns="http://www.w3.org/2000/svg">
<path d="M45.2257 12.1303H39.7191C35.9461 12.1303 32.7238 14.5471 31.5103 17.902C29.6034 15.9543 26.9419 14.751 24.0051 14.751C21.0683 14.751 18.417 15.9543 16.5101 17.8918C15.2864 14.5369 12.0743 12.1201 8.30126 12.1201H2.78453C1.79539 12.1201 1 12.9155 1 13.9046C1 14.8938 1.79539 15.6892 2.78453 15.6892H8.29107C11.1463 15.6892 13.4611 18.0142 13.4611 20.8592V38.4291C13.4611 39.4183 14.2565 40.2137 15.2456 40.2137C16.2348 40.2137 17.0301 39.4183 17.0301 38.4291V33.1469C18.8861 34.7887 21.3232 35.7982 23.9949 35.7982C26.6666 35.7982 29.1139 34.7887 30.9698 33.1367V38.4291C30.9698 39.4183 31.7652 40.2137 32.7544 40.2137C33.7435 40.2137 34.5389 39.4183 34.5389 38.4291V20.8694C34.5389 18.0142 36.8639 15.6994 39.7089 15.6994H45.2155C46.2046 15.6994 47 14.904 47 13.9148C47 12.9257 46.2046 12.1303 45.2155 12.1303H45.2257ZM24.0051 31.0463C20.8235 31.0463 18.213 28.5989 17.9377 25.4888V24.4283C18.213 21.3181 20.8133 18.8707 24.0051 18.8707C27.1968 18.8707 29.8787 21.3997 30.0725 24.5812V25.346C29.8787 28.5276 27.2376 31.0565 24.0051 31.0565V31.0463Z" fill="url(#paint0_linear_20078_318)"/>
<path d="M20.7726 12.1507C20.8848 12.0895 23.6075 10.7741 27.3907 12.2323C27.6048 12.3139 27.819 12.3547 28.0331 12.3547C28.7469 12.3547 29.4301 11.9162 29.6953 11.2126C30.0522 10.2948 29.5933 9.25467 28.6653 8.90797C23.322 6.85831 19.294 8.90797 19.1309 8.98954C18.2641 9.43823 17.9276 10.5089 18.3763 11.3757C18.825 12.2425 19.8957 12.5892 20.7726 12.1609V12.1507Z" fill="url(#paint1_linear_20078_318)"/>
<defs>
<linearGradient id="paint0_linear_20078_318" x1="24" y1="8.60842" x2="24" y2="40.2137" gradientUnits="userSpaceOnUse">
<stop stop-color="#E2E2E2"/>
<stop offset="1" stop-color="#7C7C7C"/>
</linearGradient>
<linearGradient id="paint1_linear_20078_318" x1="23.9969" y1="4.43095" x2="23.9969" y2="40.6313" gradientUnits="userSpaceOnUse">
<stop stop-color="#E2E2E2"/>
<stop offset="1" stop-color="#7C7C7C"/>
</linearGradient>
</defs>
</svg>
