<svg width="48" height="48" viewBox="0 0 48 48" fill="none" xmlns="http://www.w3.org/2000/svg">
<path d="M23.9999 6C14.0747 6 6 14.0748 6 24C6 33.9252 14.0747 42 23.9999 42C33.9252 42 41.9999 33.9252 41.9999 24C41.9999 14.0748 33.9252 6 23.9999 6ZM10.5956 18.4016C12.7917 13.1625 17.9729 9.47297 23.9999 9.47297C30.027 9.47297 35.2091 13.1631 37.4049 18.4029C37.9908 19.801 36.7541 21.2781 35.2715 20.9625C31.8048 20.2245 27.9621 19.8333 23.9999 19.8333C20.0336 19.8333 16.1933 20.2238 12.7291 20.9613C11.2463 21.2769 10.0095 19.7997 10.5956 18.4016ZM20.9321 35.633C20.9321 36.9863 19.5479 37.8948 18.3037 37.3624C14.9864 35.943 12.3006 33.3233 10.7953 30.0523C10.3106 28.9988 10.8837 27.7556 12.0026 27.451C13.6456 27.0036 15.4412 26.65 17.3283 26.4006C19.2363 26.1485 20.9321 27.6293 20.9321 29.554V35.633ZM24.0002 25.9321C23.0213 25.9321 22.2278 25.1386 22.2278 24.1597C22.2278 23.1808 23.0213 22.3873 24.0002 22.3873C24.9791 22.3873 25.7726 23.1808 25.7726 24.1597C25.7726 25.1386 24.9791 25.9321 24.0002 25.9321ZM37.2069 30.0473C35.7021 33.3207 33.0152 35.9423 29.6962 37.3624C28.452 37.8948 27.0677 36.9864 27.0677 35.633V29.5453C27.0677 27.6217 28.7616 26.1417 30.6689 26.3915C32.5606 26.6394 34.3535 26.9939 36.003 27.447C37.1198 27.7537 37.6906 28.995 37.2069 30.0473Z" fill="url(#paint0_linear_4675_1192)"/>
<defs>
<linearGradient id="paint0_linear_4675_1192" x1="24" y1="1.5" x2="24" y2="42" gradientUnits="userSpaceOnUse">
<stop stop-color="#E2E2E2"/>
<stop offset="1" stop-color="#7C7C7C"/>
</linearGradient>
</defs>
</svg>
