<svg width="48" height="48" viewBox="0 0 48 48" fill="none" xmlns="http://www.w3.org/2000/svg">
<path fill-rule="evenodd" clip-rule="evenodd" d="M45.6871 23.7366C45.6871 28.3053 36.0852 32.0001 24.2423 32.0001C12.3858 32.0001 2.78385 28.3056 2.78385 23.7366C2.78385 19.1678 12.3858 15.459 24.2423 15.459C36.0852 15.459 45.6871 19.1678 45.6871 23.7366Z" fill="white"/>
<path fill-rule="evenodd" clip-rule="evenodd" d="M24.2423 30.576C35.269 30.576 44.2201 27.516 44.2201 23.7366C44.2201 19.9716 35.269 16.9116 24.2423 16.9116C13.2019 16.9116 4.27809 19.9716 4.27809 23.7366C4.27832 27.516 13.2019 30.576 24.2423 30.576Z" fill="#121212"/>
<path fill-rule="evenodd" clip-rule="evenodd" d="M29.4725 25.1042C30.4131 24.2018 30.9385 23.257 32.2947 23.2711C33.1109 23.2851 33.3182 23.9479 33.4565 24.2301L35.2413 21.156H36.3342L33.3737 26.5005C33.3182 26.6132 33.1797 26.8247 33.1937 26.9939C33.2219 27.2618 33.5537 27.1914 33.4292 27.1914C34.024 27.1631 35.1167 26.0069 35.3798 25.725C35.4348 25.6542 35.532 25.5275 35.5871 25.5275C35.6426 25.5275 35.7533 25.5838 35.7533 25.6684C35.7533 25.725 35.6288 25.9363 35.532 26.0632C34.9785 26.7684 34.0655 27.8541 33.0279 27.8823C32.516 27.8823 32.322 27.6708 32.253 27.262C32.0179 27.4733 31.2153 27.84 30.3991 27.84C29.721 27.826 29.4443 27.417 29.3062 27.0928C29.1817 26.8249 29.1262 26.4302 29.223 26.0354C28.8494 26.2329 28.5036 26.2609 28.0055 26.2469C27.4242 26.2327 27.0644 25.9648 26.8848 25.2737C26.2207 26.5148 26.1927 26.5568 25.5151 27.8543H24.3391L25.8471 25.2456C26.0411 24.8929 26.1379 24.611 26.2067 24.3151C26.2484 24.1457 26.1239 23.9905 25.9439 23.9767C25.7503 23.9767 25.4325 24.1742 25.1277 24.4701C25.1277 24.4701 24.3531 25.3162 23.7858 26.1763C23.2459 26.9944 22.3192 27.9249 21.3093 27.9249C20.5759 27.9249 19.9118 27.5161 19.7736 26.7263C19.7736 26.7263 19.7043 26.9095 19.0539 27.2903C18.9987 27.3183 18.8604 27.403 18.8191 27.3749C18.6944 27.2622 18.6253 27.1211 18.6114 27.0222C18.6529 27.0365 18.7359 26.9659 18.9987 26.7544C19.5105 26.3596 19.6213 26.049 19.6213 26.049C19.7456 25.7811 19.9673 25.358 20.1194 25.0619C20.5347 24.2158 21.2538 23.3557 22.4298 23.3134C22.6236 23.3134 22.6788 23.398 22.7203 23.4686C22.8309 23.5532 22.7896 23.7224 22.7896 23.7224C21.9594 23.8493 21.3923 24.3427 21.0463 24.8223C20.839 25.1325 20.6175 25.6402 20.5759 26.0066C20.4929 26.6412 20.7835 27.064 21.2123 27.1629C22.0147 27.2898 22.6788 26.6976 23.2047 25.7811C23.3432 25.5413 23.4399 24.9207 23.4399 24.5823C23.4399 24.2438 23.2599 23.8914 23.1216 23.7502C23.1216 23.5106 23.2737 23.3554 23.4535 23.3554C23.5087 23.3554 23.5642 23.3554 23.6195 23.4118C23.8963 23.6939 24.0486 24.2298 24.0486 24.6386C24.0486 24.7798 24.0486 24.9207 24.0208 25.0619C24.6019 24.3427 25.335 23.412 25.9026 23.2288C26.0131 23.1724 26.1239 23.1724 26.2344 23.1724C27.2721 23.1441 27.1338 24.1031 27.1338 24.1031C27.687 23.4545 28.0745 23.2147 28.5864 23.2428C29.1399 23.2711 29.3335 23.6661 29.3335 23.9762C29.3195 24.3427 29.0572 24.7658 28.6008 24.7798C28.199 24.7798 27.964 24.5823 27.8395 24.2158C27.5767 24.3147 27.4524 24.4979 27.3969 24.8644C27.3136 25.3298 27.6597 25.6965 28.1023 25.6965C28.8634 25.6967 29.1957 25.358 29.4725 25.1042ZM30.3024 19.0267C30.3024 19.4781 28.7526 20.3382 27.4382 20.3382C25.3908 20.3382 23.2601 19.3369 22.2782 19.1113C21.2128 18.8575 20.2443 18.646 19.4832 18.646C16.813 18.646 15.6231 19.8165 15.6786 20.8882C15.7063 21.3252 16.0519 21.6074 16.564 21.5085C17.1176 21.4099 17.8922 20.8739 18.086 20.4085C18.1275 20.3099 18.2382 20.2957 18.2798 20.3239C18.3628 20.3945 18.335 20.4932 18.335 20.4932C18.2658 21.0431 17.4356 22.5661 15.9969 22.5661C15.1945 22.5661 14.6549 21.8046 14.6686 21.0572C14.6824 19.6611 16.0799 18.251 19.5247 18.251C20.1749 18.251 20.9082 18.3073 21.7109 18.4485C22.6375 18.6177 24.948 19.0125 26.8295 19.0408C27.5216 19.0408 28.407 19.069 29.1264 18.9561C29.8873 18.8292 29.7213 18.8009 30.0258 18.8009C30.3024 18.8009 30.3024 18.9138 30.3024 19.0267Z" fill="white"/>
<path fill-rule="evenodd" clip-rule="evenodd" d="M32.3503 23.9342C31.8657 23.8779 31.2569 24.3009 30.759 24.9215C30.51 25.2317 30.2472 25.8239 30.2054 26.1764C30.1504 26.5291 30.2472 26.8816 30.3717 26.9802C30.4962 27.0788 31.0498 27.375 31.9074 26.4868C32.3915 25.9932 32.8619 25.1894 32.8619 25.1894L32.7096 25.1468C33.0002 24.5971 32.9444 24.0046 32.3503 23.9342Z" fill="#121212"/>
<path fill-rule="evenodd" clip-rule="evenodd" d="M22.2365 22.2703C22.2365 22.4255 22.4438 22.5525 22.6238 22.5667C22.5823 22.7217 22.5961 22.7923 22.527 22.7782C22.112 22.7782 21.9459 22.3692 21.9459 22.3692C21.3928 22.4679 20.8532 22.5384 19.7601 22.6513C17.0068 27.192 16.1492 27.9395 14.4611 27.9395C13.2574 27.9395 12.1922 27.1357 12.1645 25.6973C12.1505 24.8232 12.8424 23.7513 14.1291 23.4269C14.2813 23.4269 14.3366 23.4834 14.3366 23.568C14.3366 23.6246 14.2813 23.6949 14.1566 23.7513C13.783 23.8924 13.1329 24.6397 13.1329 25.3308C13.1329 25.8525 13.4512 26.4308 13.9906 26.5574C14.1428 26.6 14.2813 26.5857 14.4196 26.5857C15.7616 26.5857 17.2696 25.0487 18.9022 22.7079C18.6394 22.7219 17.5187 22.8491 17.2419 23.1733C17.1176 23.2719 17.0346 23.2156 17.0068 23.1027C17.0068 23.0744 17.0483 22.9758 17.0901 22.9192C17.5327 22.4115 18.8609 22.2989 19.179 22.2566C20.4242 20.3105 22.029 19.0977 22.361 19.1119C22.4163 19.1119 22.541 19.1966 22.4855 19.3375C22.4715 19.3658 22.3333 19.5207 22.2782 19.563C22.0014 19.8169 21.0605 20.4374 20.0368 22.2C20.867 22.1577 21.8354 21.9885 21.8354 21.9885C21.8354 21.9885 21.7801 21.8052 21.7801 21.65C21.8217 21.0437 22.1675 20.677 22.6103 20.7476C22.8596 20.7899 23.0254 21.0014 23.0254 21.227C23.0254 21.4668 22.8456 21.8193 22.6656 21.9885C22.5408 22.0869 22.4023 22.1857 22.2365 22.2703Z" fill="white"/>
<path fill-rule="evenodd" clip-rule="evenodd" d="M22.167 21.9599C22.167 21.9599 22.3055 21.9742 22.5128 21.7344C22.5958 21.6498 22.7343 21.3959 22.7065 21.2267C22.6926 21.1421 22.6513 21.0435 22.5545 21.0575C22.3467 21.1 22.2222 21.1987 22.167 21.4102C22.0979 21.6357 22.1257 21.7909 22.167 21.9599Z" fill="#121212"/>
</svg>
