<svg width="48" height="48" viewBox="0 0 48 48" fill="none" xmlns="http://www.w3.org/2000/svg">
<g clip-path="url(#clip0_3562_102)">
<path d="M11.766 33.916C11.766 33.916 11.544 33.196 11.154 32.806C10.764 32.416 7.75799 29.41 7.314 28.966C6.87001 28.522 6 27.658 6 26.398C6 25.138 7.062 24.238 8.34599 23.722C9.62999 23.206 30.51 14.734 32.058 14.086C33.606 13.438 35.832 12.442 36.84 11.962C37.848 11.482 40.704 10.1305 40.7985 10.0795C40.893 10.0285 40.944 10 40.989 10C41.034 10 41.076 10.039 41.076 10.09C41.076 10.141 41.043 10.2115 41.0325 10.246C41.022 10.2805 40.158 12.85 39.474 13.726C38.79 14.602 38.454 14.974 35.178 16.126C31.902 17.278 10.026 24.958 9.47398 25.174C8.92199 25.39 7.67398 25.774 7.67398 26.698C7.67398 27.442 8.41798 28.018 8.63398 28.21C8.84998 28.402 14.73 33.916 14.73 33.916L11.766 33.916Z" fill="#121212"/>
<path d="M9.186 27.9548C9.186 27.9548 8.652 27.4598 8.58 27.3878C8.508 27.3158 8.35199 27.0458 8.35199 26.8538C8.35199 26.6618 8.38799 26.1998 9.19799 25.9478C10.008 25.6958 28.914 19.4738 29.946 19.1498C30.978 18.8258 37.0725 16.8038 38.157 16.3178C38.3865 16.2188 38.427 16.1948 38.463 16.1948C38.499 16.1948 38.5455 16.2173 38.5455 16.2728C38.5455 16.3283 38.52 16.3703 38.5005 16.4018C38.481 16.4333 37.437 18.5768 36.825 19.2518C36.213 19.9268 35.664 20.4038 34.548 20.6828C33.432 20.9618 16.035 25.6418 15.9225 25.6733C15.81 25.7048 15.6795 25.8083 15.6795 25.9478C15.6795 26.1773 15.8685 26.1953 15.8685 26.1953L9.186 27.9548Z" fill="#121212"/>
<path d="M9.573 28.297L11.112 29.728L19.095 28.225C19.095 28.225 18.888 28.0945 18.888 27.9437C18.888 27.793 19.0095 27.694 19.1557 27.6647C19.302 27.6355 30.876 25.39 31.596 25.264C32.316 25.138 33.264 24.928 34.038 23.992C34.812 23.056 35.5627 21.8057 35.5875 21.7675C35.6122 21.7292 35.6212 21.7067 35.6212 21.6842C35.6212 21.6617 35.6077 21.6055 35.5492 21.6055C35.4907 21.6055 35.4592 21.619 35.4007 21.6415C35.3422 21.664 9.573 28.297 9.573 28.297Z" fill="#121212"/>
<path d="M32.208 26.1909C32.1753 26.1983 11.478 30.0758 11.478 30.0758L13.272 31.7348L22.845 30.5289C22.845 30.5289 22.665 30.4629 22.665 30.2769C22.665 30.0908 22.842 30.0218 22.944 30.0038C23.046 29.9858 27.87 29.2778 28.437 29.1938C29.004 29.1098 29.937 28.9148 30.723 28.0868C31.509 27.2588 32.283 26.3408 32.313 26.3048C32.343 26.2688 32.3475 26.2463 32.3475 26.2283C32.3475 26.2103 32.325 26.1729 32.28 26.1729C32.268 26.1729 32.241 26.1834 32.208 26.1909Z" fill="#121212"/>
<path d="M13.698 32.1222L15.618 33.9222H28.29L23.55 30.9702L13.698 32.1222Z" fill="#121212"/>
<path d="M13.0419 35.2901C13.0959 35.2841 13.5519 35.2181 13.5519 35.2181V34.6841H10.314V35.2181C10.314 35.2181 10.77 35.2841 10.824 35.2901C10.878 35.2961 11.118 35.3501 11.118 35.6201V36.2981H8.61993V35.6201C8.61993 35.3501 8.85993 35.2961 8.91393 35.2901C8.96793 35.2841 9.42392 35.2181 9.42392 35.2181V34.6841H6.18597V35.2181C6.18597 35.2181 6.64197 35.2841 6.69597 35.2901C6.74997 35.2961 6.98996 35.3501 6.98996 35.6201V37.8027C6.98996 38.0727 6.74997 38.1267 6.69597 38.1327C6.64197 38.1387 6.18597 38.1894 6.18597 38.1894V38.7234H9.42392V38.1894C9.42392 38.1894 8.96793 38.1387 8.91393 38.1327C8.85993 38.1267 8.61993 38.0727 8.61993 37.8027V37.1201H11.118V37.8027C11.118 38.0727 10.878 38.1267 10.824 38.1327C10.77 38.1387 10.314 38.1894 10.314 38.1894V38.7234H13.5519V38.1894C13.5519 38.1894 13.0959 38.1387 13.0419 38.1327C12.9879 38.1267 12.7479 38.0727 12.7479 37.8027V35.6201C12.7479 35.3501 12.9879 35.2961 13.0419 35.2901Z" fill="#121212"/>
<path d="M17.028 34.5522C14.94 34.5522 13.722 35.31 13.722 36.7145C13.722 38.1189 14.94 38.8767 17.028 38.8767C19.116 38.8767 20.334 38.1189 20.334 36.7145C20.334 35.31 19.116 34.5522 17.028 34.5522ZM17.028 38.1305C16.62 38.1305 15.594 38.1425 15.594 36.7145C15.594 35.2865 16.62 35.2984 17.028 35.2984C17.436 35.2984 18.462 35.2865 18.462 36.7145C18.462 38.1425 17.436 38.1305 17.028 38.1305Z" fill="#121212"/>
<path d="M25.065 34.6782H27.666V35.2182C27.666 35.2182 27.213 35.2632 27.1252 35.2745C27.0375 35.2857 26.844 35.3735 26.844 35.621C26.844 35.8685 26.844 38.5707 26.844 38.7282C26.844 38.7282 24.93 38.7282 24.834 38.7282C24.738 38.7282 24.5985 38.7012 24.5175 38.6022C24.4365 38.5032 22.317 35.7312 22.317 35.7312C22.317 35.9787 22.317 37.6797 22.317 37.8372C22.317 37.9947 22.4722 38.1005 22.587 38.1162C22.7017 38.132 23.136 38.1867 23.136 38.1867V38.7282L20.532 38.7283V38.1883C20.532 38.1883 20.985 38.1432 21.0727 38.132C21.1605 38.1207 21.354 38.033 21.354 37.7855C21.354 37.538 21.354 35.7312 21.354 35.5737C21.354 35.4162 21.1987 35.3105 21.084 35.2947C20.9692 35.279 20.535 35.2317 20.535 35.2317V34.6782C20.535 34.6782 23.268 34.6782 23.364 34.6782C23.46 34.6782 23.5995 34.7052 23.6805 34.8042C23.7615 34.9032 25.881 37.6752 25.881 37.6752C25.881 37.4277 25.881 35.7267 25.881 35.5692C25.881 35.4117 25.7257 35.306 25.611 35.2902C25.4962 35.2745 25.065 35.2272 25.065 35.2272" fill="#121212"/>
<path d="M32.1301 34.6782C31.3454 34.6782 27.939 34.6782 27.939 34.6782V35.2317C27.939 35.2317 28.3733 35.279 28.488 35.2947C28.6028 35.3105 28.758 35.4162 28.758 35.5737C28.758 35.7312 28.758 37.538 28.758 37.7855C28.758 38.033 28.5645 38.1207 28.4768 38.132C28.389 38.1432 27.936 38.1882 27.936 38.1882V38.7282L32.1301 38.7282C33.4876 38.7282 34.6335 38.0982 34.6335 36.6852C34.6335 35.2722 33.342 34.6782 32.1301 34.6782ZM31.722 37.9602H30.33V35.4582C30.33 35.4582 31.212 35.4582 31.728 35.4582C32.244 35.4582 32.76 35.6322 32.76 36.6882C32.76 37.7442 32.352 37.9602 31.722 37.9602Z" fill="#121212"/>
<path d="M41.424 38.1271C41.2148 38.1046 41.1068 37.9043 41.0798 37.8638C41.0528 37.8233 39.1673 34.9456 39.093 34.8376C39.0188 34.7296 38.8703 34.6846 38.7938 34.6846C38.7173 34.6846 35.664 34.6846 35.664 34.6846V35.2336C35.664 35.2336 36.3278 35.2988 36.411 35.3078C36.4943 35.3168 36.5798 35.4698 36.5798 35.5216C36.5798 35.5733 36.5505 35.6228 36.5325 35.6543C36.5145 35.6858 35.1848 37.8571 35.115 37.9651C35.0453 38.0731 34.9283 38.1226 34.8428 38.1293C34.7573 38.1361 34.314 38.1759 34.314 38.1759V38.7278H36.894V38.1939L36.372 38.1278C36.255 38.1068 36.222 37.9748 36.222 37.9418C36.222 37.9088 36.24 37.8578 36.273 37.8068C36.2805 37.7953 36.3559 37.6734 36.4681 37.4919H38.9584C39.0782 37.6734 39.1585 37.7953 39.166 37.8068C39.199 37.8578 39.217 37.9088 39.217 37.9418C39.217 37.9748 39.184 38.1068 39.067 38.1278L38.472 38.1759V38.7278H41.97V38.1939C41.97 38.1939 41.6333 38.1496 41.424 38.1271ZM36.9051 36.7838C37.2755 36.1834 37.671 35.5418 37.671 35.5418C37.671 35.5418 38.0947 36.1834 38.4911 36.7838H36.9051Z" fill="#121212"/>
</g>
<defs>
<clipPath id="clip0_3562_102">
<rect width="36" height="28.89" fill="white" transform="translate(6 10)"/>
</clipPath>
</defs>
</svg>
