<svg width="48" height="48" viewBox="0 0 48 48" fill="none" xmlns="http://www.w3.org/2000/svg">
<path d="M25.4763 14.9706C25.4771 14.8084 25.4801 14.7064 25.4815 14.6685C25.9727 14.3921 26.2857 13.9743 26.2857 13.5068C26.2857 12.6746 25.2942 12 24.0713 12C22.8483 12 21.8569 12.6746 21.8569 13.5068C21.8569 13.9743 22.1699 14.3921 22.6611 14.6685C22.6624 14.706 22.6654 14.806 22.6662 14.9653C12.2426 15.3629 4 20.3833 4 26.5193C4 31.0068 8.40831 34.8981 14.8543 36.8206C15.6249 37.0009 15.7612 36.8294 16.1144 36.4353C16.1595 36.3873 16.2464 36.2946 16.3667 36.1655C16.3668 36.1655 16.3668 36.1654 16.3668 36.1654C17.224 35.2459 19.7774 32.4789 21.0077 30.8373C21.275 30.4808 21.8195 30.5215 22.0299 30.9146L23.7985 34.2196C23.9153 34.4379 24.2272 34.4379 24.3441 34.2196L26.1127 30.9146C26.323 30.5215 26.8675 30.4808 27.1348 30.8373C28.6266 32.8277 32.0637 36.4731 32.0637 36.4731L32.1964 36.5832C32.3333 36.7191 33.4617 36.728 33.9229 36.5751C39.9431 34.5793 44 30.8239 44 26.5193C44 20.4113 35.8326 15.4081 25.4763 14.9706ZM14.741 35.3748C10.9502 33.4893 8.49461 30.4759 8.49461 27.0794C8.49461 21.6824 14.6925 17.2518 22.5994 16.7795C22.3272 20.596 20.9914 28.8167 14.741 35.3748ZM33.3552 35.3266C27.1487 28.7814 25.8167 20.5988 25.5437 16.7879C33.3823 17.3048 39.5054 21.715 39.5054 27.0794C39.5054 30.4472 37.0914 33.4383 33.3552 35.3266Z" fill="#121212"/>
</svg>
