<svg width="48" height="48" viewBox="0 0 48 48" fill="none" xmlns="http://www.w3.org/2000/svg">
<path fill-rule="evenodd" clip-rule="evenodd" d="M35.7073 9.90137L35.6547 9.56439L35.3467 9.42005C33.7873 8.69296 29.5584 7 23.988 7C18.731 7 14.6958 8.51642 12.7581 9.42005L12.4496 9.56439L12.397 9.90137C12.0509 12.1266 11.4327 18.0217 13.1595 24.6792C14.9083 31.4205 18.4509 36.6893 23.6891 40.3376L24.0524 40.5909L24.4157 40.3376C29.6534 36.6893 33.196 31.421 34.9453 24.6792C36.6721 18.0217 36.0539 12.1266 35.7073 9.90137Z" fill="#121212"/>
<path fill-rule="evenodd" clip-rule="evenodd" d="M33.7127 24.3584C32.0831 30.6387 28.834 35.5716 24.0524 39.03C19.2708 35.5716 16.0217 30.6382 14.3926 24.3584C12.8064 18.2439 13.2695 12.8012 13.6059 10.4386C15.5484 9.57196 19.2412 8.2793 23.988 8.2793C28.9681 8.2793 32.8144 9.69162 34.4988 10.4391C34.8353 12.8017 35.2983 18.2444 33.7127 24.3584Z" fill="white"/>
<path fill-rule="evenodd" clip-rule="evenodd" d="M15.1019 13.1375L15.8575 12.8569L15.9594 13.1327L14.8862 13.5319L14.3233 12.0075L14.6405 11.8899L15.1019 13.1375ZM16.657 12.9175L16.3136 13.0141L16.4311 11.2927L16.8067 11.1865L17.7951 12.5961L17.4415 12.6959L17.251 12.4019L16.6752 12.5639L16.657 12.9175ZM19.7912 12.1926L19.4811 12.2527L19.2246 10.9192L19.2198 10.9198L19.1795 12.3112L18.8538 12.374L18.3076 11.0963L18.3027 11.0974L18.5592 12.4308L18.2491 12.4909L17.9427 10.8951L18.4278 10.8012L18.9574 12.0032L18.9617 12.0026L19.0035 10.6901L19.4848 10.5968L19.7912 12.1926ZM20.1953 10.4959L20.9777 10.4073C21.3721 10.3628 21.5008 10.5984 21.5196 10.7652C21.5454 10.9965 21.4225 11.077 21.3592 11.1183C21.5647 11.1704 21.6344 11.3217 21.6522 11.4816C21.659 11.5435 21.6536 11.6061 21.6362 11.6658C21.6188 11.7256 21.5898 11.7813 21.5507 11.8298C21.4686 11.9302 21.3876 11.9967 21.0581 12.0338L20.3767 12.111L20.1953 10.4959ZM22.9056 10.2233C23.1197 10.2147 23.6875 10.285 23.7175 11.0475C23.7476 11.81 23.1879 11.9248 22.9733 11.9334C22.7592 11.942 22.1914 11.8717 22.1614 11.1092C22.1313 10.3472 22.6915 10.2319 22.9056 10.2233ZM24.3405 10.2362L25.1593 10.2614C25.5902 10.2743 25.6595 10.5957 25.6552 10.7363C25.6498 10.915 25.5543 11.0663 25.3933 11.1156C25.5242 11.1784 25.5956 11.2305 25.5859 11.5336C25.5784 11.7708 25.5763 11.8298 25.6476 11.8594L25.6466 11.9023L25.2726 11.891C25.2516 11.8132 25.2409 11.7295 25.2463 11.5621C25.2527 11.3399 25.242 11.2541 24.9914 11.2466L24.6415 11.2353L24.6222 11.8712L24.2906 11.861L24.3405 10.2362ZM27.0342 11.1441L27.7082 11.2133L27.6191 12.0853L27.3948 12.0622L27.3814 11.8561C27.2859 11.9463 27.1474 12.0799 26.8534 12.0499C26.4654 12.0096 26.1419 11.6941 26.1993 11.1269C26.2443 10.6853 26.5314 10.2941 27.0745 10.3521C27.5692 10.403 27.7318 10.7449 27.7264 10.9697L27.39 10.9353C27.3964 10.872 27.302 10.6574 27.0643 10.6332C26.8244 10.6086 26.5851 10.7524 26.5422 11.1666C26.4971 11.6077 26.7257 11.7477 26.9553 11.7708C27.0288 11.7783 27.2794 11.7746 27.3819 11.4553L27.0068 11.4167L27.0342 11.1441ZM28.6472 11.509L28.5195 12.2264L28.1863 12.1663L28.4723 10.5667L28.8055 10.6268L28.6966 11.2326L29.319 11.3442L29.4269 10.7384L29.7607 10.7985L29.4741 12.3981L29.1409 12.338L29.2697 11.6211L28.6472 11.509ZM30.3745 12.6095L30.0445 12.5306L30.4217 10.9504L30.7507 11.0292L30.3745 12.6095ZM32.369 11.4837L32.6717 11.576L32.2 13.1311L31.8764 13.0318L31.5797 11.7306L31.5754 11.729L31.239 12.8381L30.9374 12.7458L31.408 11.1908L31.7498 11.2949L32.0369 12.565L32.0412 12.5666L32.369 11.4837ZM33.0564 13.4493L32.7398 13.3296L33.3102 11.8084L33.6279 11.928L33.0564 13.4493ZM26.2862 16.6104C26.0285 16.4969 25.7505 16.4365 25.469 16.4328C25.183 16.4295 24.898 16.4864 24.6582 16.6195C24.4183 16.7526 23.8264 17.0364 23.2206 17.4823C22.6148 17.9283 21.9956 18.5362 21.701 19.317C21.4069 20.0977 21.2615 20.5892 21.174 20.93C21.0866 21.2707 21.0571 21.4612 20.9954 21.6399C20.9337 21.8186 20.8274 22.0021 20.7383 22.206C20.6487 22.4094 20.5757 22.6326 20.5795 22.8918C20.5833 23.1504 20.5639 23.4536 20.5323 23.7455C20.5006 24.0369 20.4566 24.3164 20.4115 24.5278C20.3665 24.7393 20.3058 24.9823 20.2575 25.2539C20.2024 25.5488 20.176 25.8483 20.1787 26.1484C20.1835 26.4719 20.1642 26.7955 20.1207 27.0992C20.083 27.3831 20.0144 27.6619 19.9163 27.9309C19.8234 28.1751 19.7945 28.3854 19.7612 28.584C19.7279 28.783 19.6904 28.9692 19.5809 29.1651C19.4709 29.3604 19.3217 29.6057 19.172 29.8385C19.0223 30.0714 18.8726 30.292 18.7621 30.439C18.6515 30.586 18.5973 30.7566 18.6317 30.8978C18.666 31.0389 18.7889 31.15 19.0314 31.1779C19.2734 31.2069 19.4822 31.1548 19.6378 31.0555C19.7934 30.9557 19.8959 30.8087 19.9259 30.6466C19.956 30.4841 19.9522 30.2576 19.9608 30.0274C19.9694 29.7967 19.9898 29.5622 20.0676 29.383L20.1454 29.1882L20.2232 28.9929C20.3015 28.8625 20.3574 28.8131 20.4132 28.7718C20.469 28.7305 20.5248 28.6972 20.6037 28.599C20.6825 28.5008 20.8076 28.232 20.9122 27.9315C21.0163 27.6304 21.1 27.2978 21.0962 27.0713C21.09 26.8847 21.1088 26.6981 21.152 26.5165C21.1896 26.3662 21.2443 26.2444 21.3071 26.1301C21.3699 26.0158 21.408 25.886 21.467 25.7883C21.5261 25.6901 21.6055 25.6241 21.7509 25.6386C21.8963 25.652 21.9376 25.7245 21.9548 25.8173C21.972 25.9101 21.9661 26.0233 22.016 26.1194C22.0659 26.2154 22.1163 26.3195 22.1855 26.4113C22.2558 26.5031 22.3454 26.583 22.4753 26.6292C22.6052 26.6753 22.7114 26.7708 22.7656 26.8835C22.7946 26.9393 22.8078 27.002 22.8038 27.0648C22.7998 27.1276 22.7788 27.1881 22.7431 27.2398C22.6642 27.3541 22.5542 27.55 22.4646 27.7496C22.3749 27.9492 22.3057 28.152 22.3073 28.2819C22.3095 28.4112 22.3283 28.6049 22.3073 28.8072C22.2864 29.0095 22.2252 29.2209 22.0664 29.3846C21.9256 29.5274 21.8009 29.6852 21.6945 29.8552C21.6082 29.9984 21.5615 30.1202 21.5631 30.2013C21.5642 30.2818 21.598 30.3869 21.6838 30.4701C21.7697 30.5538 21.9076 30.6161 22.1174 30.6134C22.3272 30.6107 22.4871 30.5667 22.6073 30.4884C22.7275 30.41 22.8058 30.2957 22.852 30.1492C22.8981 30.0027 22.8885 29.8981 22.867 29.8053C22.845 29.7124 22.8117 29.6325 22.8107 29.5354C22.8096 29.4382 22.8396 29.3245 22.874 29.207C22.9083 29.0894 22.947 28.9676 22.9614 28.8539C22.994 28.5259 23.1114 28.2121 23.3022 27.9433C23.4283 27.7635 23.4986 27.609 23.5571 27.4705C23.6156 27.3321 23.6617 27.2103 23.7406 27.096C23.8195 26.9817 23.8511 26.9243 23.8828 26.9076C23.915 26.891 23.9477 26.9146 24.0287 26.9618C24.1098 27.0091 24.1269 27.0574 24.1114 27.1142C24.0958 27.1711 24.0486 27.2366 24.0019 27.3181C23.9547 27.3997 23.8602 27.5387 23.7615 27.6857C23.6628 27.8327 23.5603 27.9878 23.498 28.1021C23.4353 28.2164 23.3972 28.3624 23.4192 28.4831C23.4412 28.6044 23.5233 28.6999 23.7009 28.7133C23.8785 28.7267 24.0153 28.7246 24.1119 28.695C24.208 28.665 24.2638 28.6076 24.2783 28.5105C24.2927 28.4133 24.3228 28.2593 24.3646 28.1048C24.4065 27.9508 24.4607 27.7963 24.5235 27.6981C24.5863 27.5999 24.6254 27.5108 24.6485 27.4335C24.6678 27.3718 24.6777 27.3076 24.678 27.243C24.7762 27.3385 24.8578 27.4507 24.9281 27.5666C24.9994 27.6825 25.0569 27.8027 25.1073 27.9154C25.1577 28.0275 25.272 28.1633 25.4754 28.2652C25.6788 28.3672 25.9701 28.4353 26.3726 28.4128C26.775 28.3903 26.9763 28.3709 27.0884 28.3328C27.2006 28.2947 27.2247 28.2379 27.2719 28.1402C27.3181 28.0425 27.4281 27.8467 27.4817 27.6481C27.5354 27.4496 27.5322 27.2468 27.3529 27.1368C27.3825 26.9747 27.4275 26.7558 27.4968 26.5444C27.566 26.333 27.6604 26.1296 27.7871 25.9981C27.9137 25.8672 28.0886 25.7346 28.2453 25.615C28.4004 25.4953 28.5356 25.388 28.5828 25.3064C28.7948 25.4165 28.9896 25.5549 29.1371 25.7545C29.2858 25.9541 29.3866 26.2154 29.4086 26.5707C29.4119 26.7644 29.4382 26.9457 29.4693 27.1035C29.4999 27.2602 29.5331 27.3938 29.5508 27.4904C29.5686 27.587 29.5707 27.6921 29.5718 27.8016C29.5739 27.9105 29.575 28.0238 29.5938 28.137C29.6169 28.2531 29.6832 28.3561 29.7794 28.4251C29.8728 28.4965 29.9871 28.5351 30.0831 28.5174C30.1792 28.4997 30.2667 28.4096 30.3294 28.2953C30.3922 28.181 30.4303 28.0431 30.4282 27.9299C30.4296 27.8378 30.4018 27.7476 30.3488 27.6723C30.3026 27.6084 30.2463 27.5607 30.1969 27.5129C30.1475 27.4652 30.1153 27.4255 30.1057 27.3648C30.0971 27.3042 30.1121 27.2232 30.1583 27.0933C30.2044 26.9635 30.1948 26.8502 30.1615 26.7579C30.1282 26.6651 30.0703 26.5932 30.0209 26.5454C29.9715 26.4977 29.913 26.3614 29.8701 26.1838C29.8272 26.0067 29.7998 25.7888 29.8127 25.5785C29.8256 25.3682 29.802 25.1261 29.7424 24.9169C29.6828 24.7076 29.5873 24.5311 29.4564 24.4522C29.8272 24.4302 30.25 24.3996 30.6273 24.2885C31.0045 24.1774 31.3356 23.9864 31.5244 23.6441C31.3146 23.6312 31.0726 23.651 30.7813 23.5663C30.4899 23.482 30.1481 23.2931 29.7387 22.8628C29.7682 22.6685 29.7741 22.5387 29.7607 22.4298C29.7472 22.3208 29.7134 22.2323 29.663 22.1201C29.6126 22.0075 29.5466 21.9034 29.5036 21.7343C29.4607 21.5653 29.4408 21.3313 29.4838 20.9584C29.5267 20.5855 29.509 19.9877 29.3496 19.3352C29.1902 18.6832 28.8898 17.976 28.3644 17.3858C28.5029 16.9474 28.5791 16.6469 28.5952 16.4038C28.6133 16.1838 28.5694 15.9632 28.4685 15.7669C28.3687 15.5581 28.1079 15.3848 27.7275 15.2646C27.347 15.1455 26.8459 15.0805 26.2653 15.0891C25.6857 15.0983 24.8556 15.1353 24.1704 15.1256C23.4852 15.116 22.9443 15.0596 22.9411 14.882C22.9389 14.7039 23.0339 14.6218 23.1621 14.5794C23.2904 14.537 23.4519 14.5348 23.5801 14.5166C23.7749 14.5944 24.0497 14.6389 24.3362 14.6625C24.6228 14.6861 24.9211 14.6899 25.1636 14.6861C25.4046 14.6824 25.6289 14.6142 25.866 14.5456C26.1032 14.4769 26.3522 14.4087 26.6425 14.4044C26.3994 14.3272 26.0914 14.2107 25.7759 14.1265C25.4593 14.0422 25.1368 13.9907 24.8631 14.0438C24.7649 13.9483 24.6914 13.8764 24.5782 13.8458C24.465 13.8153 24.3115 13.8254 24.055 13.8941C23.798 13.9628 23.637 13.9896 23.5002 14.0079C23.3634 14.0261 23.2507 14.0363 23.0902 14.0712C22.9298 14.1061 22.7044 14.134 22.5204 14.2215C22.3363 14.3095 22.1936 14.457 22.1973 14.7318C22.2016 15.0065 22.2939 15.248 22.5708 15.417C22.8477 15.5866 23.3086 15.6848 24.0497 15.6729C24.7912 15.6617 25.5961 15.6407 26.2631 15.6751C26.9274 15.7094 27.4538 15.798 27.6341 16.0056C27.8144 16.2133 27.8649 16.3501 27.8386 16.4634C27.8123 16.5771 27.7087 16.6673 27.5815 16.7826C27.4683 16.7842 27.2671 16.7955 27.0337 16.7789C26.7965 16.7644 26.5293 16.7198 26.2862 16.6104Z" fill="#121212"/>
<path fill-rule="evenodd" clip-rule="evenodd" d="M25.5956 27.4552C25.6343 27.3211 25.7003 27.1526 25.7443 26.8929C25.7883 26.6337 25.8113 26.2839 25.7641 25.787C25.6716 25.8193 25.5833 25.8627 25.5012 25.9163C25.401 25.9803 25.3165 26.0659 25.2538 26.1669C25.2351 25.9221 25.2333 25.6763 25.2485 25.4312C25.2619 25.1683 25.2903 24.9214 25.3289 24.7911C25.3665 24.6612 25.3826 24.5963 25.4035 24.5474C25.4255 24.4986 25.4529 24.4659 25.5168 24.4004C25.586 24.3216 25.6244 24.2204 25.6246 24.1155C25.6265 24.0543 25.6155 23.9934 25.5924 23.9368C25.5693 23.8801 25.5346 23.8289 25.4905 23.7865C25.4049 23.7079 25.3333 23.6154 25.2785 23.5129C25.2351 23.4232 25.2162 23.3236 25.2238 23.2242C25.2302 23.119 25.3284 22.972 25.5447 22.833C25.7593 22.6946 26.0925 22.5642 26.5663 22.4917C26.6313 22.4826 26.664 22.5068 26.6678 22.5411C26.672 22.5749 26.649 22.62 26.6007 22.6533C26.5535 22.6865 26.4542 22.7606 26.3544 22.8411C26.2546 22.9215 26.1553 23.0079 26.1081 23.0654C26.0598 23.1222 25.9814 23.2532 25.9863 23.4125C25.9906 23.5724 26.0775 23.7608 26.3624 23.9341C26.6474 24.1074 26.8207 24.1997 26.9682 24.2502C27.1158 24.3001 27.2387 24.3081 27.4244 24.3135C27.368 24.2496 27.2065 24.1171 27.0514 23.9878C26.8963 23.859 26.7466 23.734 26.7139 23.6862C26.6806 23.6384 26.6323 23.5821 26.6205 23.5118C26.6087 23.4415 26.6361 23.3557 26.7558 23.2489C26.8743 23.1421 26.9779 23.0477 27.0573 22.9672C27.1367 22.8872 27.1915 22.8217 27.2156 22.7729C27.3288 22.8276 27.5156 22.914 27.7018 22.994C27.8896 23.0739 28.0747 23.148 28.189 23.1786C28.3022 23.2092 28.424 23.2607 28.5356 23.3283C28.6467 23.3959 28.7492 23.4791 28.8227 23.573C28.959 23.7447 29.245 23.8896 29.5772 23.9615C29.9104 24.0334 30.2887 24.0312 30.6096 23.9089C30.4082 23.844 30.2123 23.7633 30.0236 23.6674C29.772 23.5402 29.5004 23.368 29.3244 23.1609C29.1924 23.0058 29.1087 22.9344 29.0309 22.8942C28.9542 22.8539 28.8844 22.8443 28.7782 22.8137C28.6735 22.7831 28.467 22.7337 28.2523 22.6355C28.0377 22.5379 27.8134 22.3919 27.6728 22.1676C27.5322 21.9439 27.4222 21.6182 27.331 21.3203C27.2398 21.0225 27.1673 20.7526 27.1002 20.6405C27.0342 20.5283 26.9366 20.4248 26.8432 20.2928C26.7311 20.139 26.6548 19.962 26.62 19.775C26.5788 19.5543 26.5296 19.3352 26.4724 19.1182C26.4166 18.9169 26.3538 18.7442 26.2798 18.632C26.2057 18.5199 26.1424 18.3272 26.0807 18.1442C26.0201 17.9613 25.9611 17.7879 25.8951 17.7166C25.783 17.5939 25.6598 17.482 25.5269 17.3823C25.3595 17.2594 25.1599 17.1537 24.9673 17.1483C24.7736 17.143 24.5208 17.232 24.2633 17.3753C24.0057 17.5186 23.7422 17.7171 23.5281 17.9307C23.314 18.1442 23.071 18.3299 22.8628 18.5349C22.654 18.7404 22.4802 18.9652 22.4045 19.2577C22.3288 19.5501 22.2172 19.9316 22.1078 20.281C21.9983 20.6303 21.8904 20.9474 21.8201 21.11C21.7504 21.2731 21.606 21.6106 21.4885 21.9702C21.371 22.3297 21.2803 22.7112 21.3168 22.9613C21.3115 23.1636 21.3308 23.3449 21.3807 23.4673C21.4311 23.5901 21.5127 23.6535 21.6329 23.6191C21.7536 23.5853 21.796 23.4748 21.8427 23.3712C21.8894 23.2677 21.9403 23.1695 22.0772 23.1593C22.214 23.1491 22.2827 23.1641 22.3337 23.1898C22.3841 23.2151 22.4168 23.251 22.4818 23.2827C22.5467 23.3138 22.6283 23.3691 22.7093 23.3943C22.7903 23.419 22.8708 23.4141 22.9341 23.324C22.9969 23.2344 23.0849 23.192 23.1777 23.1748C23.2706 23.1577 23.3672 23.1636 23.4476 23.1705C23.5287 23.1775 23.6092 23.1759 23.6832 23.1448C23.7573 23.1137 23.8249 23.0519 23.8796 22.9376C23.9343 22.8239 24.0138 22.782 24.0862 22.7708C24.1405 22.7637 24.1957 22.769 24.2477 22.7863C24.3545 22.914 24.4538 23.0943 24.5251 23.265C24.5965 23.4356 24.6394 23.5971 24.6324 23.6857C24.6156 23.821 24.5823 23.9539 24.5332 24.0811C24.4735 24.2518 24.3922 24.4141 24.2912 24.5641C24.1887 24.7106 24.0669 24.9188 24.0679 25.1393C24.069 25.3593 24.1935 25.5922 24.5836 25.788C24.5858 25.9335 24.5745 26.0145 24.6249 26.1191C24.6748 26.2232 24.7859 26.3509 25.0311 26.5897C25.1213 26.6691 25.2136 26.8215 25.293 26.9836C25.3713 27.1462 25.4368 27.319 25.4711 27.4397C25.4835 27.4799 25.5098 27.5057 25.535 27.5105C25.565 27.517 25.5881 27.5003 25.5956 27.4552ZM16.6865 12.2701L17.0842 12.158L16.7171 11.594L16.7134 11.5951L16.6865 12.2701ZM20.6686 11.7926L21.0813 11.7464C21.2449 11.7276 21.3308 11.6455 21.3125 11.4808C21.2964 11.3391 21.1693 11.2989 21.048 11.3123L20.6198 11.3611L20.6686 11.7926ZM20.5892 11.0928L20.9836 11.0483C21.1161 11.0333 21.2154 10.97 21.2009 10.8412C21.1859 10.7086 21.0872 10.6786 20.9348 10.6958L20.549 10.7392L20.5892 11.0928ZM22.962 11.6455C23.1445 11.6386 23.3972 11.5151 23.379 11.0606C23.3613 10.6056 23.0994 10.5031 22.917 10.5106C22.7345 10.5181 22.4818 10.641 22.5 11.0955C22.5177 11.55 22.779 11.6525 22.962 11.6455ZM25.0472 10.9753C25.2232 10.9807 25.3102 10.9222 25.3155 10.7612C25.3188 10.6754 25.2839 10.5477 25.0848 10.5412L24.663 10.5283L24.6502 10.963L25.0472 10.9753Z" fill="white"/>
</svg>
