<svg width="48" height="48" viewBox="0 0 48 48" fill="none" xmlns="http://www.w3.org/2000/svg">
<path fill-rule="evenodd" clip-rule="evenodd" d="M24.0891 34.6606C35.1326 34.6606 44.0882 29.8943 44.0882 24.0151C44.0882 18.1359 35.1326 13.3696 24.0891 13.3696C13.0424 13.3696 4.0882 18.1359 4.0882 24.0151C4.0882 29.8943 13.0424 34.6606 24.0891 34.6606Z" fill="#121212"/>
<path fill-rule="evenodd" clip-rule="evenodd" d="M42.0319 24.0073C42.0319 28.7142 33.9951 32.5297 24.0819 32.5297C14.1681 32.5297 6.13184 28.7142 6.13184 24.0073C6.13184 19.3009 14.1683 15.4854 24.0819 15.4854C33.9951 15.4851 42.0319 19.3009 42.0319 24.0073ZM35.5858 20.0173H32.5076L32.1325 21.1056H34.1253L31.8525 21.9045L31.7023 22.3458L35.1994 21.1816L35.5858 20.0173ZM15.9575 21.9274H14.7037C14.7037 21.9274 15.8658 18.7826 15.9591 18.5449C16.125 18.1234 16.2238 18.1526 16.2238 18.1526H14.4918C14.7062 18.2565 14.5161 18.6673 14.5161 18.6673C14.5161 18.6673 13.1289 22.5891 13.0322 22.7851C12.9354 22.9812 12.8631 23.0059 12.8631 23.0059H15.8628L16.2823 21.8445C16.2461 21.9549 15.9575 21.9274 15.9575 21.9274ZM21.2191 23.0011H22.6321C22.6321 23.0011 22.5353 22.8555 22.5956 22.6963C22.6792 22.4752 23.4286 20.4046 23.4286 20.4046L23.7546 23.0011H25.0344L26.712 18.3822C26.712 18.3822 26.7805 18.1655 26.8743 18.1655L25.5144 18.1613C25.5144 18.1613 25.5535 18.3208 25.5046 18.4434C25.457 18.5659 24.6841 20.6617 24.6841 20.6617L24.3823 18.1613H22.9216C22.9216 18.1613 22.9971 18.2838 22.9489 18.4187L21.4003 22.7328C21.4003 22.7328 21.3038 23.0011 21.2191 23.0011ZM27.6784 18.1627C27.6784 18.1627 27.7988 18.3589 27.642 18.8122C27.4847 19.266 26.2536 22.636 26.2536 22.636C26.2536 22.636 26.1566 22.953 26.0237 23.0147L27.9556 23.0126C27.9556 23.0126 30.2973 23.1004 31.022 20.6017C31.022 20.6017 31.9395 18.1382 29.2834 18.163L27.6784 18.1627ZM27.8834 21.8964C27.8834 21.8964 27.8896 21.8946 28.1065 21.8946C28.4349 21.8946 29.0435 21.8211 29.453 20.8101C30.1251 19.1486 29.1871 19.2047 29.1871 19.2047H28.8248L27.8834 21.8964ZM10.7043 26.9141H13.7826L14.1572 25.8256H12.1648L14.4376 25.0269L14.588 24.5861L11.0905 25.7503L10.7043 26.9141ZM16.0993 28.9212C16.0506 28.9212 16.0506 28.7632 16.0506 28.7632L16.6166 27.2378C16.6166 27.2378 17.3222 28.643 17.3704 28.741C17.4187 28.8394 17.3943 28.921 17.3943 28.921H19.0817C18.9206 28.921 18.7547 28.6104 18.7547 28.6104L17.9148 27.0798C19.0899 27.0798 19.4655 25.898 19.4655 25.898C20.0449 24.0186 18.0949 24.0676 18.0949 24.0676H16.0991C16.2438 24.2309 16.1309 24.5743 16.1309 24.5743C16.1309 24.5743 14.8917 28.1712 14.7952 28.4492C14.6984 28.7271 14.5213 28.9207 14.5213 28.9207L16.0993 28.9212ZM17.2953 25.184L16.9683 26.1597H17.2742C17.2742 26.1597 17.87 26.2133 18.0896 25.7323C18.0896 25.7323 18.3468 25.1812 17.6281 25.1812C17.4706 25.1812 17.2953 25.184 17.2953 25.184ZM33.5595 28.9392C33.4391 28.942 33.5231 28.6419 33.5231 28.6419L34.0286 27.2556C34.0286 27.2556 34.7091 28.6613 34.7571 28.7597C34.8056 28.8577 34.7815 28.9392 34.7815 28.9392H36.529C36.3676 28.9392 36.1908 28.6282 36.1908 28.6282L35.3507 27.098C36.526 27.098 36.88 25.958 36.88 25.958C37.497 23.9904 35.5312 24.0856 35.5312 24.0856H33.5513C33.6963 24.249 33.5839 24.5923 33.5839 24.5923C33.5839 24.5923 32.2925 28.2033 32.196 28.4808C32.1352 28.6514 32.039 28.8068 31.9138 28.9362L33.5595 28.9392ZM34.7105 26.1775C34.7105 26.1775 35.3018 26.2226 35.4827 25.7524C35.6964 25.1988 35.1636 25.2131 35.1636 25.2131H34.7266L34.4044 26.1775H34.7105ZM21.5526 29.0418C23.2944 29.0418 24.3311 27.3071 24.3311 26.0629C24.3311 24.7575 23.8024 23.9428 22.5956 23.9428C21.0557 23.9428 20.0511 25.1293 19.7918 26.604C19.5536 27.96 20.308 29.0418 21.5526 29.0418ZM21.6623 27.8947C22.0967 27.9765 22.5745 27.6588 22.8239 26.6447C23.2022 25.1099 22.5051 25.0974 22.3778 25.0814C21.9923 25.0336 21.4777 25.4844 21.2685 26.424C21.1727 26.8531 21.0712 27.7833 21.6623 27.8947ZM24.7446 24.0861C24.7446 24.0861 24.8641 24.1515 24.8641 24.4615V28.6615C24.8641 28.6615 24.8477 28.8912 24.7624 28.9395H26.0565C26.0565 28.9395 26.0565 28.841 26.1849 28.6777C26.3137 28.5143 29.0019 24.8541 29.0019 24.8541C29.0019 24.8541 29.6148 24.0861 29.7757 24.0861H27.9233C27.9233 24.0861 28.0687 24.184 27.9558 24.3636C27.8434 24.5436 26.1965 27.0437 26.1965 27.0437L26.2174 24.5221C26.2174 24.5221 26.2142 24.1177 26.3742 24.084L24.7446 24.0861ZM32.5692 25.2309L32.988 24.0847L29.8492 24.0852C29.8492 24.0852 29.9621 24.1864 29.8171 24.5946C29.6721 25.0036 28.4003 28.4831 28.4003 28.4831C28.4003 28.4831 28.1754 28.9404 28.1113 28.9404H31.3461L31.7324 27.7805C31.7324 27.7805 31.6843 27.8454 31.3784 27.8454H30.0101L30.2999 27.061H31.3618C31.3618 27.061 31.5871 27.0449 31.6356 27.1103L32.0699 25.8707C32.0699 25.8707 32.0382 25.9825 31.7481 25.9825H30.7182L31.0241 25.117H32.328C32.3282 25.117 32.5055 25.0923 32.5692 25.2309ZM16.2067 23.0052H17.7553C17.7553 23.0052 17.7505 22.8846 17.7908 22.8063C17.8643 22.6647 18.0564 22.323 18.0564 22.323H19.615L19.618 22.749C19.618 22.749 19.6259 22.896 19.5112 23.0092H21.0566C21.0566 23.0092 20.9419 22.9438 20.9207 22.7509L20.7266 18.4864C20.7266 18.4864 20.7182 18.2138 20.8461 18.1563H19.313C19.313 18.1563 19.4204 18.291 19.2151 18.5976C19.01 18.9039 16.3911 22.8461 16.3911 22.8461C16.3911 22.8461 16.3392 22.947 16.2067 23.0052ZM19.585 19.8071L18.7244 21.2283H19.597L19.585 19.8071Z" fill="#121212"/>
</svg>
