<svg width="48" height="48" viewBox="0 0 48 48" fill="none" xmlns="http://www.w3.org/2000/svg">
<path d="M24 41.9982C14.0735 41.9982 6 33.9246 6 24C6 14.0754 14.0735 6 24 6C33.9265 6 42 14.0735 42 24C42 33.9265 33.9265 42 24 42V41.9982ZM24 6.55147C14.3787 6.55147 6.55147 14.3787 6.55147 24C6.55147 33.6213 14.3787 41.4485 24 41.4485C33.6213 41.4485 41.4485 33.6213 41.4485 24C41.4485 14.3787 33.6195 6.55147 24 6.55147Z" fill="#121212"/>
<path d="M25.2316 19.0827C25.0166 19.4155 24.6691 19.6563 24.2629 19.7316V20.3585H24.9632C25.4614 20.3585 25.8677 19.9541 25.8677 19.4577C25.8677 18.9614 25.4614 18.5552 24.9632 18.5552H24.2629V19.1894C24.3456 19.1655 24.4228 19.1287 24.4927 19.0846H25.2298L25.2316 19.0827Z" fill="#121212"/>
<path d="M25.2316 17.4923H24.4945C24.4228 17.4482 24.3456 17.4133 24.2647 17.3875V18.0217H24.9651C25.4632 18.0217 25.8695 17.6155 25.8695 17.1173C25.8695 16.6191 25.4632 16.2129 24.9651 16.2129H24.2647V16.8416C24.6691 16.9151 25.0165 17.1559 25.2335 17.4905L25.2316 17.4923Z" fill="#121212"/>
<path d="M23.0607 18.2885C23.0607 18.7132 23.3456 19.0735 23.7335 19.1874V17.3896C23.3456 17.5036 23.0607 17.8639 23.0607 18.2885Z" fill="#121212"/>
<path d="M23.7334 16.8454V16.2148H23.6434C23.3915 16.2148 23.1544 16.3104 22.9743 16.4869L21.4393 18.0237H22.5551C22.6654 17.4262 23.136 16.9538 23.7334 16.8454Z" fill="#121212"/>
<path d="M18.7041 25.6875C17.8695 25.6875 17.193 26.364 17.193 27.1985C17.193 28.0331 17.8695 28.7096 18.7041 28.7096C19.5386 28.7096 20.2151 28.0331 20.2151 27.1985C20.2151 26.364 19.5386 25.6875 18.7041 25.6875Z" fill="#121212"/>
<path d="M37.8989 24.2465C37.8989 24.2465 30.1011 15.1141 28.2482 13.2593L28.2427 13.2538C27.1544 12.1674 25.6563 11.4946 24 11.4946C22.3438 11.4946 20.8382 12.1674 19.7482 13.2538C19.7482 13.2538 19.7482 13.2538 19.7427 13.2593C17.8787 15.1012 10.0993 24.2465 10.0993 24.2465C9.46692 25.0626 9.09192 26.0865 9.09192 27.1987C9.09192 27.3917 9.10295 27.581 9.12501 27.7667C9.29045 29.1748 10.0625 30.399 11.1728 31.1693C11.1728 31.1693 14.4522 33.7281 24.0331 33.7281C33.614 33.7281 36.8217 31.1693 36.8217 31.1693C37.9136 30.4137 38.6783 29.2189 38.8603 27.8402C38.8879 27.6307 38.9026 27.4174 38.9026 27.1987C38.9026 26.0865 38.5257 25.0626 37.8952 24.2465H37.8989ZM15.5515 29.638H12.0055V24.7777H13.0607V28.6178H15.6746L15.5515 29.638ZM18.7041 29.7115C17.318 29.7115 16.1949 28.5884 16.1949 27.2023C16.1949 25.8163 17.318 24.6932 18.7041 24.6932C20.0901 24.6932 21.2132 25.8163 21.2132 27.2023C21.2132 28.5884 20.0901 29.7115 18.7041 29.7115ZM24.5276 25.7906V29.638H23.4724V25.7906H21.9063L22.0294 24.7777H25.9779L26.1011 25.7906H24.5294H24.5276ZM23.9963 22.4137C22.114 22.4137 20.5276 21.1527 20.0331 19.4303L18.5974 20.866H17.8474L19.9044 18.809C19.8824 18.6398 19.8713 18.4671 19.8713 18.2924C19.8713 16.0149 21.7169 14.1693 23.9945 14.1693C25.7169 14.1693 27.193 15.2244 27.8088 16.7244H27.2298C26.6471 15.5277 25.4191 14.7023 23.9982 14.7023C22.0147 14.7023 20.4063 16.3108 20.4063 18.2943V18.3071L22.6011 16.1123C22.8842 15.8365 23.2518 15.6876 23.6434 15.6876H24.9632C25.7537 15.6876 26.3971 16.331 26.3971 17.1215C26.3971 17.6031 26.1581 18.0296 25.7923 18.2906C26.1581 18.5498 26.3971 18.9762 26.3971 19.4579C26.3971 20.2483 25.7537 20.8898 24.9632 20.8898H23.7335V19.7336C23.136 19.6233 22.6654 19.1527 22.5552 18.5553H20.9081L20.4761 18.9873H20.4743C20.7978 20.6398 22.2537 21.8862 24 21.8862C25.4136 21.8862 26.636 21.07 27.2224 19.8825H27.8015C27.1783 21.3696 25.7096 22.4137 23.9963 22.4137ZM31.5331 27.5479C31.5331 28.7428 30.5643 29.7115 29.3695 29.7115C28.1746 29.7115 27.2059 28.7428 27.2059 27.5479V24.809H28.2555V27.5479C28.2555 28.1637 28.7537 28.6619 29.3695 28.6619C29.9853 28.6619 30.4835 28.1637 30.4835 27.5479V24.7759H31.5331V27.5479ZM36.3401 28.9671C36.1912 29.195 35.9688 29.377 35.6728 29.5093C35.375 29.6435 35.0147 29.7097 34.5882 29.7097C34.2206 29.7097 33.864 29.6582 33.5202 29.5535C33.2445 29.4707 33.0129 29.366 32.8235 29.2428L32.9485 28.2171L33.0588 28.3053C33.2592 28.4579 33.4963 28.5792 33.7702 28.6711C34.046 28.763 34.3199 28.809 34.5956 28.809C34.9007 28.809 35.1268 28.7612 35.2739 28.6674C35.4191 28.5737 35.4927 28.4468 35.4927 28.2906C35.4927 28.1766 35.4485 28.0792 35.3621 28.0038C35.2757 27.9285 35.1636 27.8678 35.0294 27.82C34.8934 27.774 34.7114 27.7226 34.4816 27.6674C34.1268 27.581 33.8364 27.4928 33.6103 27.4046C33.3842 27.3182 33.1912 27.1766 33.0276 26.9836C32.8658 26.7906 32.7849 26.5314 32.7849 26.2097C32.7849 25.9285 32.8585 25.6729 33.0037 25.445C33.1507 25.2171 33.3713 25.0369 33.6654 24.9027C33.9596 24.7685 34.3199 24.7023 34.7463 24.7023C35.0441 24.7023 35.3327 24.7391 35.6177 24.8126C35.9007 24.8862 36.1489 24.9928 36.3621 25.1307L36.0294 25.9818C35.5993 25.7281 35.1691 25.6012 34.739 25.6012C34.4375 25.6012 34.2151 25.6527 34.0717 25.7538C33.9283 25.8549 33.8566 25.9891 33.8566 26.1546C33.8566 26.32 33.9393 26.445 34.1066 26.524C34.2721 26.6049 34.5276 26.684 34.8677 26.763C35.2224 26.8512 35.5129 26.9376 35.739 27.0259C35.9651 27.1141 36.1581 27.252 36.3217 27.4413C36.4835 27.6307 36.5644 27.8862 36.5644 28.2079C36.5644 28.4854 36.4908 28.7373 36.3419 28.9652L36.3401 28.9671Z" fill="#121212"/>
</svg>
