<svg width="48" height="48" viewBox="0 0 48 48" fill="none" xmlns="http://www.w3.org/2000/svg">
<path d="M9.62799 27.5654H11.596V23.834H10.4467C9.95862 23.834 9.64373 24.0387 9.3131 24.3063C8.95097 24.6212 7.64418 25.7548 7.64418 25.7548V23.834H6.47909C5.81782 23.834 5.48718 24.0702 5.12506 24.3536C4.8574 24.5425 1 27.5654 1 27.5654H3.34593L5.66037 25.6603V27.5654H7.54971L9.62799 25.6761V27.5654ZM13.9105 27.5654H17.0909V26.605H14.493C14.2569 26.605 13.9892 26.4633 13.9892 25.991V25.928C13.9892 25.5029 14.2096 25.3297 14.4773 25.3297H17.0909V24.3536H13.8475C12.525 24.3536 11.9897 24.9361 11.9897 25.8178V26.1169C11.9897 27.1561 12.5722 27.5654 13.9105 27.5654ZM21.027 27.5654V26.5893H19.4998V23.834H17.5317V27.5812L21.027 27.5654ZM24.8529 26.3216C24.8529 26.5105 24.7742 26.6208 24.5538 26.6208H23.4831C23.2942 26.6208 23.184 26.5578 23.184 26.4318C23.184 26.2901 23.2627 26.1957 23.4831 26.1957H24.8529L24.8529 26.3216ZM26.821 26.3216V25.6131C26.821 24.8101 26.2857 24.3536 25.1521 24.3536H21.6253V25.2825H24.4593C24.7427 25.2825 24.8529 25.3769 24.8529 25.5974V25.6289H22.6015C21.6568 25.6289 21.3261 26.0225 21.3261 26.542V26.6365C21.3104 26.8412 21.3891 27.0459 21.5466 27.1876C21.83 27.4552 22.3495 27.5339 23.0738 27.5339H25.0261C26.2857 27.5654 26.821 27.282 26.821 26.3216ZM29.2141 25.3297H30.4422V24.3536H27.9231C27.5137 24.3536 27.2618 24.574 27.2618 24.9361V27.5812H29.2456V25.3297H29.2141ZM34.3154 25.5029C34.3154 25.6446 34.2524 25.7233 34.032 25.7233H32.6307V25.5974C32.6307 25.4084 32.7094 25.2982 32.9298 25.2982H34.0005C34.1894 25.2982 34.3154 25.3455 34.3154 25.5029ZM36.1732 25.4242V25.2982C36.1732 24.7629 35.8741 24.3536 34.4886 24.3536H32.4575C31.1822 24.3536 30.6469 24.7944 30.6469 25.7391V26.2901C30.6469 27.0931 31.1822 27.5654 32.3158 27.5654H35.9213V26.6208H32.9928C32.7094 26.6208 32.5992 26.542 32.5992 26.3216V26.2901H34.8664C35.6851 26.2901 36.1732 26.0225 36.1732 25.4242ZM41.8097 27.5654V25.7706C41.8097 24.6527 41.2744 24.3536 39.6685 24.3536H36.5353V27.5812H38.5191V25.3927H39.0545C39.6527 25.3927 39.8417 25.7391 39.8417 26.1012V27.5654H41.8097Z" fill="#121212"/>
<path d="M45.4939 21C44.4863 21 43.0535 21.2991 41.4948 21.8659C40.1093 22.3698 38.7868 23.0153 37.543 23.8025C38.7396 23.3617 39.9991 23.1255 41.2744 23.094C43.0378 23.094 44.3131 23.771 42.4552 26.1642C47.9501 22.5744 47.7926 21 45.4939 21Z" fill="#121212"/>
</svg>
