<svg width="48" height="48" viewBox="0 0 48 48" fill="none" xmlns="http://www.w3.org/2000/svg">
<g clip-path="url(#clip0_3053_37)">
<path d="M24.4703 13.0244C22.7032 13.0247 20.9647 13.4688 19.4152 14.3158C17.8657 15.1627 16.5552 16.3852 15.6046 17.8704H0.481506L1.98692 19.3714H14.8191C14.5753 19.9364 14.3819 20.5216 14.241 21.1204H3.74113L5.22805 22.6029H13.998C13.9692 22.9052 13.9536 23.2087 13.9512 23.5123C13.954 23.7926 13.968 24.0727 13.9933 24.3519H6.98226L8.46954 25.8348H14.2221C14.3555 26.4327 14.5412 27.0178 14.777 27.5835H10.2237L11.7288 29.0848H15.5738C16.5189 30.5871 17.8307 31.826 19.3864 32.6856C20.9422 33.5451 22.6912 33.9973 24.4699 33.9999C26.2487 33.9974 27.9979 33.5453 29.5538 32.6857C31.1097 31.8262 32.4216 30.5872 33.3668 29.0848H37.211L38.7168 27.5835H34.1636C34.3994 27.0178 34.585 26.4327 34.7184 25.8348H40.471L41.9579 24.3523H34.9469C34.9722 24.073 34.9862 23.7928 34.989 23.5123C34.9867 23.2087 34.9712 22.9052 34.9426 22.6029H43.7121L45.1991 21.1204H34.6988C34.5582 20.5217 34.365 19.9364 34.1215 19.3714H46.9533L48.459 17.8704H33.336C32.3854 16.3852 31.0749 15.1627 29.5254 14.3158C27.9759 13.4688 26.2373 13.0247 24.4703 13.0244ZM24.4703 14.4462C26.8819 14.4462 29.1948 15.4014 30.9 17.1016C32.6053 18.8018 33.5633 21.1078 33.5633 23.5123C33.5633 25.9168 32.6053 28.2228 30.9 29.923C29.1948 31.6233 26.8819 32.5784 24.4703 32.5784C23.2761 32.5785 22.0937 32.344 20.9904 31.8884C19.8871 31.4328 18.8847 30.765 18.0403 29.9232C17.1959 29.0813 16.526 28.0818 16.069 26.9819C15.6121 25.8819 15.3768 24.7029 15.3768 23.5123C15.3768 22.3217 15.6121 21.1428 16.069 20.0428C16.526 18.9428 17.1959 17.9433 18.0403 17.1015C18.8847 16.2596 19.8871 15.5918 20.9904 15.1362C22.0937 14.6806 23.2761 14.4461 24.4703 14.4462ZM17.2366 21.1623V25.8619H18.2194V22.1629L19.2566 25.8619H20.275L21.3155 22.1629V25.8619H22.2983V21.1623H20.7113L19.7712 24.3682L18.8203 21.1623H17.2366ZM23.3246 21.1623V25.8619H24.3825V21.1623H23.3246ZM25.398 21.1623V25.8619H26.3808V22.7975L28.4937 25.8619H29.5555V21.1623H28.5727V24.3009L26.4276 21.1623H25.398ZM30.6457 21.1623V25.8619H31.704V21.1623H30.6457Z" fill="#121212"/>
</g>
<defs>
<clipPath id="clip0_3053_37">
<rect width="48" height="48" fill="white"/>
</clipPath>
</defs>
</svg>
