<svg width="48" height="48" viewBox="0 0 48 48" fill="none" xmlns="http://www.w3.org/2000/svg">
<path d="M19.0737 28.4142C18.2917 28.4142 17.686 27.7549 17.686 26.9116C17.686 26.1986 18.3377 25.5776 19.0737 25.5776C19.825 25.5776 20.4613 26.1909 20.4613 26.9116C20.4613 27.7549 19.848 28.4142 19.0737 28.4142ZM19.0737 24.4429C17.6553 24.4429 16.5053 25.5469 16.5053 26.9039C16.5053 28.4296 17.5863 29.5412 19.0737 29.5412C20.561 29.5412 21.642 28.4296 21.642 26.9039C21.642 25.5469 20.492 24.4429 19.0737 24.4429ZM9.475 28.4142C8.693 28.4142 8.08733 27.7549 8.08733 26.9116C8.08733 26.1986 8.739 25.5776 9.475 25.5776C10.2187 25.5776 10.8627 26.1986 10.8627 26.9116C10.8627 27.7549 10.257 28.4142 9.475 28.4142ZM9.475 24.4429C8.05667 24.4429 6.90667 25.5469 6.90667 26.9039C6.90667 28.4296 7.98767 29.5412 9.475 29.5412C10.9853 29.5412 12.0433 28.4602 12.0433 26.9039C12.0433 25.5469 10.8933 24.4429 9.475 24.4429ZM44.6037 29.4722H45.792V24.4889H44.6037V29.4722ZM40.1417 25.6312H42.1503C42.1503 25.6312 40.1417 28.2609 40.1187 28.2839V29.4722H43.699V28.3146H41.6443C41.6443 28.3146 43.676 25.6849 43.699 25.6619V24.4889H40.1417V25.6312ZM35.649 25.6312H37.6577C37.6577 25.6312 35.649 28.2609 35.626 28.2839V29.4722H39.2063V28.3146H37.1517C37.1517 28.3146 39.1833 25.6849 39.2063 25.6619V24.4889H35.649V25.6312ZM33.5177 27.9926C33.5177 28.1689 33.3643 28.3222 33.188 28.3222H32.1453C31.969 28.3222 31.8157 28.1766 31.8157 27.9926V24.4889H30.6043V28.1229C30.6043 28.8666 31.2023 29.4722 31.946 29.4722H33.3873C34.131 29.4722 34.729 28.8666 34.729 28.1229V24.4889H33.5177V27.9926ZM12.2963 25.6312H13.5843V29.4799H14.7957V25.6312H16.0837V24.4889H12.2963V25.6312ZM4.14667 26.0146C4.14667 26.0146 3.173 24.5349 3.15 24.4889H2V29.4722H3.16533V26.5129C3.16533 26.5129 4.06233 27.9236 4.14667 28.0462C4.22333 27.9236 5.128 26.5129 5.128 26.5129V29.4722H6.29333V24.4889H5.14333C5.12033 24.5349 4.14667 26.0146 4.14667 26.0146ZM29.83 26.4746H27.254V27.5786H28.5573C28.335 28.0616 27.8597 28.3912 27.3 28.3912C26.5333 28.3912 25.9123 27.7702 25.9123 26.9959C25.9123 26.2292 26.5333 25.6006 27.3 25.6006C27.691 25.6006 28.036 25.7616 28.289 26.0146L29.1017 25.1942C28.6417 24.7266 28.0053 24.4429 27.3 24.4429C25.897 24.4429 24.7623 25.5852 24.7623 26.9959C24.7623 28.3989 25.897 29.5412 27.3 29.5412C28.6953 29.5412 29.8377 28.4066 29.8377 27.0036H29.83V26.4746ZM34.7443 18.6316C35.787 18.7389 37.65 18.8386 38.3937 18.4859C37.8263 18.5779 36.6687 18.5626 35.5723 18.5166C35.2503 18.5089 34.936 18.5012 34.6293 18.4936C34.3763 18.4859 34.1387 18.4782 33.9087 18.4706C34.1233 18.5396 34.5833 18.6162 34.7443 18.6316ZM33.51 18.7849C34.0007 18.9612 35.7487 19.2142 36.1397 19.0302C35.4267 18.9766 34.959 18.9382 34.2613 18.7772C33.9623 18.7236 33.5943 18.7619 33.51 18.7849ZM28.0743 19.4826C28.151 19.5516 28.2353 19.6206 28.3503 19.7049C28.5343 19.8429 28.841 19.9962 29.1017 19.9119C29.0097 19.8122 28.864 19.6742 28.7107 19.5516C28.496 19.3599 28.197 19.4596 28.0743 19.4826ZM28.3887 20.1649C28.3273 20.1036 28.1893 19.9579 28.036 19.8276C27.8597 19.6742 27.5453 19.7202 27.415 19.7432C27.6603 19.9732 28.0053 20.2416 28.3887 20.1649ZM28.726 19.2219L28.7643 19.2449C28.8563 19.3139 28.9483 19.3752 29.0633 19.4519C29.278 19.5822 29.5693 19.7356 29.8837 19.6359C29.784 19.5439 29.5923 19.3982 29.4313 19.2832C29.1937 19.1146 28.8563 19.1836 28.726 19.2219ZM29.4313 18.9842C29.554 19.0609 29.692 19.1452 29.8223 19.2296C30.0293 19.3599 30.3513 19.4826 30.5813 19.3676C30.4663 19.2756 30.2977 19.1529 30.1213 19.0302C29.876 18.8692 29.5617 18.9536 29.4313 18.9842ZM30.1367 18.7926C30.2287 18.8539 30.313 18.9076 30.451 18.9766C30.658 19.0839 31.0643 19.2142 31.2943 19.1299C31.233 19.0916 31.0183 18.9536 30.7423 18.8156C30.566 18.7236 30.267 18.7619 30.1367 18.7926ZM30.8497 18.6469C31.0413 18.7466 31.2177 18.8309 31.44 18.9076C31.5933 18.9612 31.969 19.0379 32.107 18.9766C32.0227 18.9306 31.7697 18.8002 31.463 18.6699C31.4553 18.6699 31.4477 18.6622 31.4323 18.6622C31.2483 18.5779 30.9953 18.6239 30.8497 18.6469ZM31.6853 18.5319C31.8693 18.6086 32.0303 18.6852 32.2373 18.7389C32.3677 18.7696 32.6743 18.8156 32.7893 18.7542C32.7127 18.7236 32.4903 18.6239 32.2297 18.5319C32.0533 18.4859 31.8233 18.5166 31.6853 18.5319ZM32.59 18.4706C32.7893 18.5319 33.004 18.5779 33.211 18.6009C33.349 18.6162 33.6403 18.6392 33.7477 18.5702C33.694 18.5549 33.579 18.5242 33.418 18.4859C33.2033 18.4476 32.8353 18.4629 32.59 18.4706ZM33.165 19.1606C33.2953 19.1989 33.855 19.3369 34.2 19.2219C33.6863 19.0916 33.372 18.9919 33.1113 18.9152C33.027 18.9536 32.8123 18.9996 32.6283 18.9766C32.7127 19.0149 33.0347 19.1222 33.165 19.1606ZM32.3523 19.3982C32.5977 19.5132 32.9963 19.5899 33.28 19.5132C32.9733 19.3676 32.6667 19.2526 32.383 19.1376C32.3217 19.1682 32.107 19.2142 31.8693 19.1759C31.9613 19.2219 32.1377 19.2986 32.3523 19.3982ZM31.5397 19.6206C31.7697 19.7356 32.1147 19.8352 32.3907 19.7356C32.107 19.5592 31.8157 19.4212 31.5473 19.2986C31.486 19.3292 31.2253 19.3829 31.0413 19.3522C31.1333 19.4059 31.325 19.5132 31.5397 19.6206ZM30.8343 19.9349C31.072 20.0806 31.4323 20.1879 31.6547 20.0959C31.44 19.8966 31.072 19.7049 30.8267 19.5669C30.7577 19.5899 30.5047 19.6589 30.313 19.6052C30.4127 19.6742 30.612 19.7969 30.8343 19.9349ZM30.1367 20.3029C30.3743 20.4639 30.6963 20.5252 30.9263 20.4409C30.7117 20.2262 30.3207 19.9809 30.0753 19.8352C29.9987 19.8582 29.7533 19.9272 29.5617 19.8736C29.669 19.9426 29.922 20.1572 30.1367 20.3029ZM28.8717 20.1649C29.324 20.5942 29.646 20.9316 30.221 20.8166C29.9833 20.5866 29.6153 20.3106 29.3547 20.1266C29.2857 20.1419 29.0633 20.2032 28.8717 20.1649ZM28.6877 20.9622C28.7797 21.0466 28.8793 21.1002 28.9867 21.1386C29.1017 21.1769 29.2397 21.1846 29.4007 21.1692C29.4237 21.1692 29.4467 21.1616 29.4697 21.1616C29.2857 20.9239 28.8487 20.5789 28.6263 20.3949C28.5343 20.4179 28.312 20.4332 28.128 20.3642C28.22 20.4486 28.496 20.7859 28.6877 20.9622ZM27.5223 20.4332C27.8827 21.0849 28.059 21.4912 28.6187 21.4146C28.4883 21.1692 28.0207 20.6326 27.8903 20.4869C27.7983 20.4869 27.6297 20.4639 27.5223 20.4332ZM27.2617 20.5482C27.208 20.5406 27.07 20.5176 26.955 20.4792C27.1773 21.1002 27.2693 21.5142 27.7447 21.5219C27.668 21.2766 27.323 20.6556 27.2617 20.5482ZM26.679 20.5942C26.6177 20.6172 26.5487 20.6326 26.4643 20.6402C26.472 20.6632 26.4873 20.7322 26.4873 20.7322C26.5793 21.2152 26.6177 21.3992 26.9397 21.4759C26.932 21.4299 26.6867 20.6172 26.679 20.5942ZM26.1577 20.6632C26.1347 20.6632 25.9507 20.6556 25.943 20.6556C25.9737 21.1079 25.989 21.2842 26.288 21.4146C26.2727 21.3609 26.1577 20.6862 26.1577 20.6632ZM25.621 20.6479C25.529 20.6556 25.46 20.6709 25.391 20.7016V20.7246C25.391 21.0082 25.437 21.1616 25.667 21.2766C25.6593 21.2229 25.644 20.9622 25.644 20.9622C25.644 20.9622 25.621 20.6786 25.621 20.6479ZM25.046 20.9239C25.046 20.9239 24.885 21.0389 24.862 21.0542C24.9157 21.1462 25 21.2229 25.1303 21.2996C25.1303 21.2459 25.115 20.9316 25.115 20.9316C25.115 20.9316 25.115 20.9086 25.115 20.8856C25.092 20.8932 25.046 20.9239 25.046 20.9239ZM24.6627 23.0169C24.7163 23.0706 24.747 23.0936 24.8543 23.1932C24.9463 23.2929 24.954 23.4156 24.9233 23.5306C25.1227 23.4002 25.115 23.2239 25.0843 23.1549C25.0537 23.0936 24.885 22.9249 24.816 22.8789C24.7547 22.8252 24.7087 22.8406 24.6703 22.8712C24.632 22.9019 24.609 22.9556 24.6627 23.0169ZM24.172 21.4989C24.31 21.7136 24.2487 22.2656 23.804 22.4112C24.6167 22.4572 24.862 22.0816 24.862 21.8746C24.8543 21.5832 24.5017 21.3992 24.172 21.4989ZM24.402 23.2239C24.494 23.3236 24.5017 23.4462 24.471 23.5612C24.6703 23.4309 24.6627 23.2546 24.632 23.1856C24.6013 23.1242 24.4327 22.9556 24.3637 22.9096C24.3023 22.8559 24.2563 22.8712 24.218 22.9019C24.1797 22.9326 24.1567 22.9939 24.218 23.0552C24.2717 23.1012 24.3023 23.1242 24.402 23.2239ZM23.781 22.9096C23.7503 22.9402 23.7273 23.0016 23.781 23.0629C23.8347 23.1089 23.873 23.1396 23.9727 23.2316C24.0723 23.3236 24.08 23.4462 24.0493 23.5612C24.241 23.4232 24.2257 23.2469 24.195 23.1856C24.1643 23.1242 23.988 22.9632 23.919 22.9172C23.8577 22.8636 23.8117 22.8789 23.781 22.9096ZM23.2367 23.0629C23.2903 23.1166 23.321 23.1396 23.4207 23.2392C23.5127 23.3389 23.5203 23.4616 23.4897 23.5766C23.689 23.4462 23.6813 23.2699 23.6507 23.2009C23.62 23.1396 23.4513 22.9709 23.3823 22.9249C23.3133 22.8712 23.275 22.8866 23.2367 22.9172C23.206 22.9479 23.183 23.0016 23.2367 23.0629ZM22.976 23.2699C23.068 23.3696 23.0757 23.4922 23.045 23.6072C23.2443 23.4769 23.2367 23.3006 23.206 23.2316C23.1753 23.1702 23.0067 23.0016 22.9377 22.9556C22.8763 22.9019 22.8303 22.9096 22.792 22.9479C22.7613 22.9786 22.7307 23.0399 22.792 23.1012C22.8457 23.1472 22.8763 23.1702 22.976 23.2699ZM22.355 22.9556C22.3243 22.9862 22.3013 23.0476 22.355 23.1089C22.4087 23.1549 22.447 23.1856 22.5467 23.2776C22.6463 23.3696 22.654 23.4922 22.6233 23.6072C22.815 23.4692 22.7997 23.2929 22.769 23.2316C22.7383 23.1702 22.562 23.0092 22.493 22.9632C22.4317 22.9096 22.3857 22.9249 22.355 22.9556ZM21.7877 22.8022C21.757 22.8559 21.6573 23.1242 21.6573 23.3236C21.665 23.3466 21.6803 23.3619 21.688 23.3619C21.7033 23.3619 21.7033 23.3466 21.7187 23.3006C21.803 23.0246 21.9947 22.6872 22.5927 22.4189C22.6003 22.4266 22.6003 22.4572 22.608 22.4802C22.9147 22.3576 23.1753 22.3729 23.4053 22.3576C24.126 22.3192 24.1797 21.5372 23.7887 21.3839C23.7043 21.3532 23.2597 21.1846 22.6923 21.6676C22.7537 21.6752 22.9377 21.7519 22.9377 21.7519C22.7767 21.8056 22.1327 22.1659 21.7877 22.8022ZM16.3443 18.5089C15.9687 18.6316 15.6313 18.8309 15.501 18.8769C15.8767 19.0226 16.398 18.7542 16.697 18.6392C16.5437 18.6469 16.3827 18.5779 16.3443 18.5089ZM16.0607 18.3402C15.5317 18.3326 15.018 18.5166 14.9107 18.5549C15.2633 18.7389 15.9763 18.4322 16.0607 18.3402ZM20.8753 20.6632C20.6607 20.7859 20.4153 20.9392 20.3157 21.0006C20.584 21.0926 21.0363 20.9239 21.297 20.7859C21.1743 20.7859 20.975 20.7322 20.8753 20.6632ZM20.561 20.5176C20.423 20.5022 20.2313 20.4409 20.124 20.3566C19.871 20.4792 19.5873 20.6556 19.4647 20.7169C19.7637 20.8396 20.2543 20.6556 20.561 20.5176ZM21.6267 20.9009C21.435 21.0236 21.205 21.1846 21.113 21.2459C21.3737 21.3072 21.7493 21.1232 21.987 20.9852C21.872 20.9929 21.7187 20.9546 21.6267 20.9009ZM21.4657 21.4299C21.2433 21.4452 21.0823 21.4912 20.906 21.3992C20.63 21.5986 20.3157 21.8822 20.147 21.9819C20.6453 22.0509 21.113 21.7212 21.4657 21.4299ZM21.7877 21.5909C21.527 21.7902 21.2433 22.0662 21.0823 22.1582C21.5577 22.2196 21.987 21.8899 22.3167 21.6062C22.1097 21.6292 21.9563 21.6676 21.7877 21.5909ZM20.6453 21.2536C20.4537 21.2612 20.262 21.2306 20.1087 21.1462C19.779 21.3762 19.434 21.6216 19.25 21.7366C19.6487 21.8592 20.2773 21.5372 20.6453 21.2536ZM18.5523 21.1769C18.8207 21.1922 19.3037 21.0772 19.572 20.9316C19.549 20.9469 19.2807 20.8932 19.2347 20.8319C19.1733 20.8549 18.8283 21.0236 18.5753 21.1156C18.56 21.1232 18.5447 21.1386 18.537 21.1539C18.537 21.1616 18.537 21.1769 18.5523 21.1769ZM18.6213 20.3872C18.8437 20.5252 19.4953 20.3412 19.848 20.1419C19.6563 20.1189 19.4953 20.0576 19.3727 19.9426C19.066 20.1112 18.7747 20.3029 18.6213 20.3872ZM19.0967 19.7279C18.882 19.7126 18.7133 19.6206 18.606 19.5286C18.2533 19.7279 17.9773 19.9119 17.801 20.0116C18.1153 20.1726 18.721 19.9502 19.0967 19.7279ZM18.4067 19.3139C18.169 19.3139 17.9927 19.2142 17.8853 19.1222C17.64 19.2449 17.1877 19.4826 16.9577 19.5976C17.2873 19.7739 17.962 19.5516 18.4067 19.3139ZM17.6247 18.9382C17.387 18.9382 17.2107 18.8309 17.111 18.7312C16.8657 18.8462 16.398 19.0916 16.168 19.1989C16.4823 19.3829 17.1723 19.1682 17.6247 18.9382ZM16.7123 18.3786C16.6433 18.3939 16.5973 18.4092 16.5743 18.4169C16.8197 18.5932 17.1953 18.4629 17.4253 18.3939C17.1033 18.3709 16.8503 18.3479 16.7123 18.3786ZM17.9543 18.4706C17.6937 18.5166 17.4713 18.6009 17.3487 18.6316C17.8163 18.9459 18.3377 18.6316 18.6673 18.5396C18.4373 18.5089 18.1 18.4399 17.9543 18.4706ZM18.9203 18.7159C18.5753 18.8079 18.2687 18.9306 18.192 18.9689C18.2917 19.1222 18.629 19.1299 18.8667 19.0379C19.0507 18.9689 19.2807 18.8692 19.5183 18.7619C19.3727 18.7236 19.0737 18.6776 18.9203 18.7159ZM19.6947 19.0226C19.4033 19.1299 19.089 19.2602 18.8897 19.3676C19.0047 19.5132 19.3803 19.5132 19.6487 19.4212C19.8633 19.3446 20.0857 19.2602 20.354 19.1529C20.1853 19.0686 19.8863 18.9459 19.6947 19.0226ZM20.4537 19.4212C20.1393 19.5362 19.8557 19.6666 19.6717 19.7739C19.779 19.9196 20.147 19.9349 20.377 19.8352C20.5687 19.7509 20.7527 19.6666 20.975 19.5516H20.9673C20.8677 19.4596 20.6453 19.3522 20.4537 19.4212ZM21.0363 19.9196C20.791 20.0192 20.5227 20.1496 20.4153 20.2032C20.745 20.3949 21.1667 20.1956 21.4657 20.0346H21.458C21.3813 19.9502 21.1973 19.8736 21.0363 19.9196ZM21.5807 20.3029C21.389 20.3872 21.2127 20.4716 21.1513 20.5099C21.4197 20.6556 21.7263 20.4792 21.9333 20.3412C21.8643 20.2952 21.7033 20.2492 21.5807 20.3029ZM22.079 20.5942C21.987 20.6402 21.9103 20.6862 21.872 20.7092C22.0867 20.8396 22.309 20.7016 22.4547 20.5942C22.3627 20.5712 22.2093 20.5252 22.079 20.5942ZM22.6463 21.1999C22.562 21.2076 22.4163 21.1616 22.3397 21.1156C22.194 21.2152 22.0253 21.3609 21.9563 21.4069C22.148 21.4606 22.47 21.3226 22.6463 21.1999ZM21.7953 22.4266C21.665 22.5492 20.7373 23.4156 20.6913 23.4616C20.8523 23.4692 21.136 23.4309 21.366 23.2162L21.4273 23.1549L21.5423 23.0476C21.5807 22.8559 21.688 22.6106 21.7953 22.4266ZM20.8753 22.3499C20.5763 22.6182 20.1777 22.9556 19.6717 23.3542C19.8633 23.4616 20.377 23.3926 20.768 23.0322L21.2587 22.5799C21.2587 22.5799 21.458 22.3959 21.4887 22.3729C21.1973 22.4189 21.0363 22.4189 20.8753 22.3499ZM19.94 22.1582C19.5567 22.4726 18.997 22.9172 18.537 23.2009C18.7363 23.3082 19.089 23.3466 19.6717 22.9479C19.894 22.7946 20.216 22.5339 20.607 22.2042C20.2773 22.2809 20.032 22.2196 19.94 22.1582ZM18.9893 21.9282C18.9893 21.9282 18.1537 22.4956 17.6247 22.8406C17.7397 22.9402 18.054 22.9862 18.3223 22.8712C18.514 22.7869 19.3573 22.2119 19.6487 21.9819C19.25 22.0586 19.0507 21.9819 18.9893 21.9282ZM17.5403 20.9929C17.5327 21.0082 17.5403 21.0236 17.5633 21.0236C17.9083 21.0159 18.491 20.8549 18.836 20.6479C18.8053 20.6632 18.4527 20.6096 18.3913 20.5329C18.3223 20.5712 17.893 20.8012 17.5787 20.9392C17.5633 20.9546 17.548 20.9699 17.5403 20.9929ZM16.49 20.7246C16.4823 20.7476 16.4823 20.7629 16.513 20.7629C16.95 20.7706 17.686 20.5866 18.169 20.3182C18.123 20.3412 17.6783 20.2952 17.594 20.1726C17.502 20.2186 16.9423 20.5022 16.5437 20.6709C16.5207 20.6786 16.4977 20.7016 16.49 20.7246ZM15.4933 20.3566C15.4857 20.3796 15.4857 20.3949 15.5163 20.4026C16.0147 20.4332 16.881 20.1802 17.387 19.9119C17.341 19.9349 16.8427 19.8736 16.7507 19.7662C16.6433 19.8122 16.0223 20.1189 15.5623 20.2876C15.524 20.2952 15.501 20.3259 15.4933 20.3566ZM14.489 19.9809C14.4813 20.0039 14.4813 20.0269 14.5197 20.0269C15.0717 20.0499 15.9917 19.8122 16.5207 19.5286C16.467 19.5592 16.0223 19.4979 15.9073 19.3676C15.5393 19.5516 15.133 19.7432 14.5657 19.9119C14.5273 19.9119 14.5043 19.9502 14.489 19.9809ZM13.592 19.5899C13.5767 19.6052 13.5843 19.6206 13.6227 19.6206C14.2053 19.6512 14.972 19.4596 15.6543 19.1376C15.593 19.1682 15.2557 19.1069 15.1713 18.9996C14.7343 19.2066 14.3203 19.3676 13.6763 19.5286C13.6457 19.5439 13.615 19.5669 13.592 19.5899ZM12.235 19.2449C13.109 19.3369 14.535 18.9919 14.9797 18.8156C14.7573 18.8002 14.604 18.7236 14.5503 18.6699C13.8987 18.8769 13.2393 19.0609 12.2657 19.1529C12.2043 19.1529 12.1737 19.2372 12.235 19.2449ZM10.7937 18.6392C10.2263 18.6469 9.705 18.6239 9.314 18.5626C10.74 19.1376 13.707 18.6546 14.6807 18.4092L13.914 18.4706C12.9863 18.5549 11.867 18.6546 10.7937 18.6392ZM25.6133 19.6896C25.5903 19.6896 25.5673 19.6819 25.5443 19.6666C25.4983 19.6282 25.4907 19.5516 25.5213 19.4979C25.5213 19.4979 25.5213 19.4979 25.529 19.4902L25.4293 19.4826C25.299 19.6666 25.4677 19.8276 25.6133 19.6896ZM25.9583 19.4749C25.9353 19.4902 25.9047 19.5286 25.8893 19.5056C25.874 19.4902 25.9353 19.4059 25.8203 19.3062C25.897 19.3292 25.9583 19.3599 25.9583 19.4749ZM25.7973 19.6359C25.782 19.6129 25.7283 19.6129 25.713 19.6282C25.5137 19.8966 25.4063 19.8812 25.368 19.8736C25.5137 19.6742 25.161 19.7892 25.0997 19.7739C25.184 19.7432 25.253 19.7049 25.2837 19.6589C25.3757 19.5132 25.345 19.4289 25.046 19.3982C25.2377 19.3599 25.6287 19.4059 25.69 19.4212C25.7667 19.4366 25.7973 19.4596 25.805 19.5362C25.8203 19.5746 25.8127 19.6052 25.7973 19.6359ZM26.058 19.4826C26.0503 19.3906 25.9967 19.2449 25.943 19.2066C26.0197 19.2142 26.081 19.2756 26.127 19.3369C26.104 19.2526 26.0733 19.1912 26.0427 19.1606L26.035 19.1529C26.0273 19.1529 26.0273 19.1452 26.0197 19.1452C26.012 19.1376 25.9967 19.1299 25.989 19.1222C25.506 18.9689 25.0153 19.0686 24.5707 18.9382C24.586 18.9766 24.609 19.0456 24.632 19.0762C23.7503 19.0379 23.2597 19.3216 22.493 19.4136C22.746 19.6742 23.6813 19.4136 23.919 19.6206C23.482 19.6052 23.114 19.8276 22.6463 19.7202C22.7 19.8122 22.7613 19.8889 22.8457 19.9656C22.9607 20.0116 23.206 20.0192 23.413 19.9886C23.2827 20.0806 22.9683 20.1112 22.976 20.1189C23.0143 20.1572 23.137 20.2262 23.2597 20.2569C22.355 20.3949 22.3397 18.8769 20.7067 18.3096C19.6947 17.9646 18.4833 17.7959 17.042 17.7959C16.49 17.7959 15.6543 17.8189 14.811 17.8726C13.7837 17.9416 10.073 18.4169 8.12567 17.9032C9.78167 18.8079 13.3237 18.2482 14.857 18.1562C19.5567 17.8726 20.952 19.0532 21.4427 19.6129C21.9103 20.1496 22.4853 20.5636 23.1983 20.5559C23.0527 20.6479 22.8993 20.7092 22.7307 20.7476C23.1753 20.8626 23.5663 20.6019 23.5663 20.6019C23.2597 20.9469 22.9223 20.9622 22.562 20.8856C22.5927 21.0236 22.9913 21.1079 23.4053 21.0082C23.942 20.8856 24.3023 20.4102 24.6627 20.4946C24.4557 20.5482 24.1183 20.8166 23.873 21.0772C24.2027 20.8396 24.632 20.7169 24.3177 21.0312C24.6627 20.9469 24.8697 20.7246 25.1917 20.5252C25.6133 20.2492 26.15 20.5176 26.6177 20.3566C26.6943 20.3259 26.7863 20.2952 26.8017 20.1956C26.495 20.2876 26.2037 20.2032 25.8893 20.1956C25.8203 20.1879 25.7513 20.3259 25.69 20.2262C25.6977 20.1956 25.736 20.1496 25.7743 20.1649C26.0197 19.9502 26.3417 19.7969 26.6713 19.9042C26.725 19.8506 26.8017 19.8659 26.8707 19.8429C26.9703 19.8429 27.0623 19.8812 27.116 19.9732C27.1237 19.9272 27.1313 19.8812 27.1313 19.8812C27.139 19.8199 27.1313 19.7662 27.1083 19.7202C27.1083 19.7202 27.1083 19.7126 27.1007 19.7126C27.093 19.7049 27.093 19.6972 27.0853 19.6896C27.07 19.6666 27.0547 19.6512 27.0317 19.6359L27.024 19.6282L27.0163 19.6206C26.9627 19.5822 26.8707 19.5362 26.7327 19.5056C26.6253 19.4826 26.5103 19.4749 26.403 19.4672C26.3187 19.4749 26.2113 19.5132 26.1423 19.4672C26.1193 19.4672 26.081 19.4596 26.058 19.4826ZM39.7507 17.8419C38.3477 18.1486 36.4157 18.0259 34.5373 17.9109C32.5287 17.7806 30.6427 17.7039 29.1707 18.0796C28.3503 18.2866 26.9933 18.8999 26.242 19.0686C26.2803 19.1222 26.3033 19.1912 26.3263 19.2526C26.7403 19.2679 27.0317 19.3446 27.2003 19.4902C27.6373 19.3829 28.933 18.8922 28.933 18.8922C29.7227 18.6469 30.796 18.2406 33.1957 18.2252C34.9897 18.2176 38.3937 18.5396 39.7507 17.8419ZM47.2793 25.1866C47.4327 25.1636 47.5553 25.0716 47.5553 24.8952C47.5553 24.6422 47.3177 24.5886 47.0953 24.5886H46.712V25.6006H46.9267V25.2172H47.0647L47.3407 25.6006H47.6167L47.2793 25.1866ZM46.9267 25.0792V24.7266H47.0877C47.2717 24.7266 47.333 24.7879 47.333 24.9029C47.333 25.0179 47.2487 25.0792 47.1107 25.0792H46.9267ZM47.1183 24.3662C46.7197 24.3662 46.39 24.6882 46.39 25.0946C46.39 25.4932 46.7197 25.8229 47.1183 25.8229C47.517 25.8229 47.8467 25.5009 47.8467 25.0946C47.8467 24.6882 47.517 24.3662 47.1183 24.3662ZM47.1183 25.9762C46.6277 25.9762 46.2367 25.5776 46.2367 25.0946C46.2367 24.6039 46.6353 24.2129 47.1183 24.2129C47.609 24.2129 48 24.6116 48 25.0946C48 25.5776 47.609 25.9762 47.1183 25.9762Z" fill="#121212"/>
</svg>
