<svg width="48" height="48" viewBox="0 0 48 48" fill="none" xmlns="http://www.w3.org/2000/svg">
<path d="M37.6635 24L38.182 23.4815C41.9394 19.7241 41.9394 13.5755 38.182 9.81809C34.4246 6.06064 28.276 6.06064 24.5186 9.81808L24.0001 10.3366L23.4815 9.81808C19.7241 6.06064 13.5756 6.06064 9.81814 9.81808C6.0607 13.5755 6.0607 19.7241 9.81814 23.4815L10.3367 24L9.81814 24.5185C6.0607 28.2759 6.0607 34.4245 9.81814 38.1819C13.5756 41.9394 19.7241 41.9394 23.4815 38.1819L24.0001 37.6634L24.5186 38.1819C28.2761 41.9394 34.4246 41.9394 38.182 38.1819C41.9394 34.4245 41.9394 28.2759 38.182 24.5185L37.6635 24ZM37.636 31.253L33.3831 33.4459L31.2442 37.6671C31.1118 37.9284 30.7629 37.9844 30.5554 37.7776L23.9308 31.1794L17.3312 37.8054C17.1248 38.0126 16.7765 37.9586 16.6425 37.6987L14.4496 33.4459L10.2285 31.307C9.96712 31.1746 9.91112 30.8257 10.1178 30.6182L16.7161 23.9935L10.0901 17.3939C9.88295 17.1876 9.93693 16.8393 10.1968 16.7053L14.4496 14.5124L16.5885 10.2912C16.721 10.0299 17.0698 9.9739 17.2774 10.1806L23.902 16.7789L30.5016 10.1529C30.7079 9.94574 31.0563 9.99968 31.1902 10.2596L33.3831 14.5124L37.6043 16.6513C37.8656 16.7837 37.9216 17.1326 37.7149 17.3401L31.1166 23.9648L37.7426 30.5644C37.9498 30.7707 37.8958 31.119 37.636 31.253Z" fill="#121212"/>
</svg>
