<svg width="48" height="48" viewBox="0 0 48 48" fill="none" xmlns="http://www.w3.org/2000/svg">
<path fill-rule="evenodd" clip-rule="evenodd" d="M24.0006 15.4781C35.016 15.4781 44 19.6387 44 24.739C44 29.8403 35.016 34 24.0006 34C12.9852 34 4 29.8403 4 24.739C4 19.6387 12.9852 15.4781 24.0006 15.4781ZM37.964 20.5424C38.9376 21.7064 38.3938 22.9513 35.3715 24.0027C28.7323 26.3116 17.0703 24.6904 15.984 31.7019C18.3573 32.35 21.0922 32.7209 24.0006 32.7209C33.0515 32.7209 40.4327 29.1364 40.4327 24.7408C40.4327 23.2025 39.5272 21.7631 37.964 20.5424ZM11.7317 30.0392C13.3556 25.5177 16.5947 20.0275 20.5002 16.9445C13.1215 17.7267 7.56734 20.9286 7.56734 24.7408C7.56734 26.7716 9.14415 28.6287 11.7317 30.0392ZM17.2115 25.8733C18.2793 23.3321 20.2846 20.3147 23.0146 18.0544C31.2517 17.4612 38.3505 20.8791 31.5057 22.6371C27.236 23.7345 20.982 23.5103 17.2115 25.8733Z" fill="#121212"/>
</svg>
