<svg width="48" height="48" viewBox="0 0 48 48" fill="none" xmlns="http://www.w3.org/2000/svg">
<path d="M13.8354 9.10954C13.8364 8.56541 14.0505 8.04386 14.4309 7.65903C14.8112 7.27419 15.3268 7.05742 15.8649 7.05615H31.4965C32.6316 7.05615 33.5426 7.97918 33.5426 9.10954V38.8837C33.5426 40.0161 32.6312 40.9363 31.4965 40.9363H15.8653C15.3273 40.9355 14.8115 40.7189 14.4311 40.3342C14.0507 39.9494 13.8366 39.4278 13.8358 38.8837L13.8354 9.10954Z" fill="white"/>
<path d="M14.6784 12.6211V9.1091C14.6791 8.79096 14.8044 8.48606 15.0268 8.2611C15.2493 8.03614 15.5507 7.90943 15.8653 7.90869H31.4969C32.1678 7.90869 32.7001 8.44786 32.7001 9.1091V12.6211H14.6784ZM14.6784 13.4741H32.7001V34.5187H14.6784V13.4741Z" fill="#121212"/>
<path d="M13.8353 9.10932C13.8364 8.56519 14.0505 8.04363 14.4309 7.6588C14.8112 7.27397 15.3268 7.05719 15.8648 7.05593H31.4965C32.6315 7.05593 33.5426 7.97895 33.5426 9.10932V38.8835C33.5426 40.0159 32.6311 40.9361 31.4965 40.9361H15.8652C15.3272 40.9352 14.8115 40.7187 14.4311 40.334C14.0506 39.9492 13.8366 39.4276 13.8357 38.8835L13.8353 9.10932ZM34.5744 9.10932C34.5748 8.70039 34.4956 8.29538 34.3411 7.91747C34.1866 7.53956 33.9599 7.19617 33.6741 6.90696C33.3883 6.61775 33.0488 6.38838 32.6752 6.232C32.3016 6.07562 31.9012 5.99529 31.4969 5.99561H15.8652C15.4608 5.99524 15.0603 6.07553 14.6867 6.23188C14.313 6.38823 13.9735 6.61758 13.6876 6.90679C13.4017 7.19601 13.1749 7.53941 13.0204 7.91735C12.8658 8.29528 12.7865 8.70033 12.7869 9.10932V38.8835C12.7865 39.2924 12.8659 39.6974 13.0204 40.0752C13.175 40.4531 13.4017 40.7964 13.6877 41.0854C13.9736 41.3745 14.3131 41.6037 14.6868 41.7599C15.0605 41.9161 15.4609 41.9962 15.8652 41.9956H31.4969C33.1987 41.9956 34.5744 40.6051 34.5744 38.8835V9.10932Z" fill="#121212"/>
<path d="M14.6784 35.3701V38.8829C14.6791 39.2011 14.8044 39.5061 15.0268 39.7312C15.2492 39.9563 15.5506 40.0832 15.8653 40.0841H31.4969C32.1678 40.0841 32.7001 39.5441 32.7001 38.8829V35.3701H14.6784Z" fill="#121212"/>
<path d="M22.3998 31.1624V26.4836C22.8357 26.469 23.2712 26.4459 23.7062 26.4144C23.5519 26.0489 23.3959 25.6835 23.2072 25.3353C22.9483 25.3705 22.6745 25.3705 22.3994 25.3873V24.4138C21.7642 24.5569 21.1211 24.6613 20.4736 24.7264V31.162C20.4736 32.5882 19.8202 32.9716 19.424 33.2314H23.4482C23.0706 32.9712 22.3998 32.5886 22.3998 31.1624ZM31.755 33.2146C31.4277 32.9012 31.0145 32.4149 30.8095 31.457C30.4295 29.7002 29.6388 27.1797 27.9714 25.3004C29.6048 24.3958 30.6025 22.9705 30.6025 21.2145C30.6191 19.9612 29.9827 18.6391 28.8476 17.857C28.3668 17.5452 27.7993 17.3182 27.1284 17.1777C27.3695 17.7009 27.5238 18.2569 27.559 18.8136C28.2643 19.3696 28.6418 20.2218 28.6418 21.2481C28.6418 22.5534 27.9876 24.0832 25.7009 24.8661C25.8905 25.2308 26.0789 25.6138 26.234 25.9789C26.3543 25.9445 26.4754 25.9085 26.5957 25.8748C27.6607 27.1273 28.5211 29.0922 28.7788 30.9182C28.9684 32.2403 28.5045 32.9008 28.1946 33.2142L31.755 33.2146Z" fill="white"/>
<path d="M27.7478 31.1098C27.4039 30.7968 26.9911 30.31 26.8019 29.3534C26.4228 27.5966 25.6672 25.1269 24.1538 23.3713C24.2223 23.3361 24.2741 23.3193 24.3434 23.2837C26.0626 22.3979 27.1122 20.9185 27.1122 19.11C27.1288 17.84 26.4924 16.5363 25.3574 15.7534C24.4633 15.145 23.2594 14.9004 21.7293 14.9004H15.9337C16.3295 15.1618 16.9825 15.5448 16.9825 16.9706V29.0408C16.9825 30.4854 16.3291 30.85 15.9337 31.1102H19.9575C19.5787 30.85 18.9087 30.4854 18.9087 29.0408V24.3624C20.3188 24.3624 21.6435 24.1875 22.7607 23.8917C23.7759 25.1269 24.5326 27.041 24.7728 28.7966C24.9446 30.1171 24.4973 30.7972 24.1879 31.1094L27.7478 31.1098ZM18.9087 23.2837V15.9791H21.6435C22.6408 15.9971 23.3797 16.2053 23.9654 16.6232C24.7376 17.1783 25.1508 18.0657 25.1508 19.1273C25.1508 20.9181 23.9302 23.1976 18.9087 23.2837Z" fill="white"/>
<path d="M22.3998 22.2397V18.1181H24.5666C24.4168 17.6765 24.1342 17.2933 23.7584 17.0222H19.4244C19.8205 17.2827 20.4739 17.6486 20.4739 19.092V22.7276C21.1962 22.6228 21.8496 22.4667 22.3998 22.2397ZM26.3376 37.7366C26.3376 38.3282 26.6816 38.7789 27.2827 38.7789C27.7133 38.7789 28.1079 38.6564 28.2805 38.4487L28.1768 39.1287C28.0224 39.196 27.7474 39.2852 27.3006 39.2852C26.3376 39.2852 25.6668 38.7101 25.6668 37.7366C25.6668 37.215 25.8734 36.8148 26.1821 36.5538C26.4576 36.3116 26.8355 36.1699 27.3006 36.1699C27.7474 36.1699 28.0228 36.2576 28.1768 36.3437V36.9885C27.9876 36.78 27.7133 36.6751 27.2827 36.6751C26.6816 36.6751 26.3376 37.1278 26.3376 37.7366ZM18.5477 38.4675C18.41 38.1885 18.2897 37.9624 18.0827 37.8759C18.5299 37.7886 18.7535 37.5096 18.771 37.1274C18.771 36.7271 18.5992 36.4313 18.2897 36.3112C18.1001 36.24 17.8429 36.24 17.4649 36.24H15.9681C16.1066 36.3276 16.1917 36.6222 16.1917 36.9012V38.5704C16.1917 38.8141 16.1066 39.1283 15.9681 39.2304H17.0343C16.8978 39.1279 16.8111 38.8137 16.8111 38.5704V38.0316H17.2575C17.499 38.0316 17.6359 38.1357 17.7392 38.3078C17.8943 38.57 18.0154 38.9358 18.2038 39.2124L19.0804 39.23C18.8062 39.0231 18.6859 38.7613 18.5477 38.4675ZM18.1179 37.1438C18.1179 37.44 17.8769 37.5625 17.499 37.5625H16.8111V36.7275H17.499C17.8765 36.7275 18.1179 36.8324 18.1179 37.1438ZM20.2151 38.5191C20.0441 38.3626 19.9575 38.1024 19.9575 37.7366C19.9575 37.3716 20.0441 37.1114 20.2151 36.9369C20.3695 36.7804 20.5765 36.6935 20.8519 36.6935C21.1096 36.6935 21.3165 36.7808 21.4717 36.9369C21.6434 37.1122 21.7293 37.3716 21.7293 37.7366C21.7293 38.1032 21.6434 38.3626 21.4717 38.5191C21.3911 38.6026 21.2946 38.6686 21.1881 38.7132C21.0816 38.7579 20.9672 38.7802 20.8519 38.7789C20.5765 38.7789 20.3695 38.676 20.2151 38.5191ZM20.8349 39.3017C21.2473 39.3017 21.5916 39.18 21.8496 38.953C22.1579 38.6932 22.3827 38.2942 22.3827 37.7366C22.3827 37.1802 22.1579 36.7804 21.8496 36.5006C21.5916 36.2924 21.2473 36.1707 20.8349 36.1707C20.4387 36.1707 20.0952 36.2932 19.8372 36.5006C19.5277 36.7804 19.3041 37.1802 19.3041 37.7366C19.3041 38.2942 19.5277 38.6932 19.8372 38.953C20.0952 39.1796 20.4383 39.3017 20.8349 39.3017ZM24.6865 36.24C24.7562 36.2924 24.7902 36.3437 24.7728 36.4153C24.7728 36.4842 24.7376 36.5882 24.6691 36.6927L24.0853 37.5449L23.4996 36.6751C23.4311 36.5698 23.3627 36.4665 23.3797 36.3793C23.3963 36.328 23.4145 36.2752 23.483 36.24H22.2965C22.5034 36.3276 22.6048 36.4838 22.7603 36.7099L23.7228 38.0852V38.5716C23.7228 38.8149 23.6377 39.1291 23.4996 39.2136H24.5666C24.4289 39.1287 24.3434 38.8149 24.3434 38.5716V38.0852L25.22 36.8328C25.3573 36.6587 25.5473 36.3437 25.7523 36.2404L24.6865 36.24ZM30.3966 38.7441H29.6388V37.9275H30.7742L30.8427 37.4752H29.6388V36.7275H30.3092C30.6875 36.7275 30.9978 36.7451 31.1518 36.9016V36.24H28.7958C28.9335 36.3437 29.0206 36.6587 29.0206 36.9012V38.5704C29.0206 38.8313 28.9335 39.1283 28.7958 39.2304H31.1696L31.2725 38.4999C31.1003 38.7277 30.7742 38.7441 30.3966 38.7441ZM28.9002 10.9008C28.9679 11.0049 29.1235 11.127 29.226 11.179C29.4789 11.319 29.7632 11.3906 30.0515 11.3871C30.4813 11.3871 30.7402 11.1966 30.7402 10.9176C30.7402 10.5874 30.4129 10.5354 29.9146 10.4649C29.2786 10.3789 28.9339 10.0831 28.9339 9.56191C28.9513 9.03955 29.433 8.64008 30.1386 8.64008C30.6191 8.64008 30.946 8.74375 31.1522 8.84822V9.52628C31.0841 9.4042 30.9293 9.31734 30.7742 9.24809C30.5694 9.17838 30.3547 9.14322 30.1386 9.14402C29.7931 9.14402 29.5877 9.28332 29.5877 9.45624C29.5877 9.75244 29.8624 9.78726 30.4635 9.90854C31.0659 10.0318 31.4272 10.292 31.4106 10.8312C31.3932 11.4568 30.9107 11.8747 30.0515 11.8747C29.6728 11.8747 29.1915 11.8046 28.9002 11.6485V10.9008ZM18.6673 11.0389C18.5129 10.7435 18.393 10.5178 18.1698 10.4133C18.651 10.3088 18.8913 10.0314 18.8913 9.61354C18.8913 9.21287 18.7195 8.90026 18.3934 8.77858C18.1864 8.69172 17.9288 8.69172 17.5334 8.69172H15.9503C16.1066 8.79579 16.1917 9.1092 16.1917 9.38739V11.143C16.1917 11.4048 16.1066 11.7354 15.9503 11.8222H17.0862C16.9318 11.7354 16.8448 11.4048 16.8448 11.143V10.5866H17.3272C17.5686 10.5866 17.7052 10.6735 17.8088 10.8656C17.981 11.1426 18.1005 11.526 18.3067 11.8222H19.219C18.9431 11.6313 18.8062 11.3351 18.6673 11.0389ZM18.2204 9.64797C18.2204 9.96178 17.9628 10.0831 17.5682 10.0831H16.8444V9.19566H17.5682C17.9628 9.19566 18.2204 9.31734 18.2204 9.64797ZM20.4221 11.0917C20.2325 10.9172 20.1474 10.6398 20.1474 10.2576C20.1474 9.89213 20.2325 9.61394 20.4221 9.42181C20.5765 9.26571 20.8001 9.16124 21.0751 9.16124C21.3506 9.16124 21.5738 9.26571 21.7293 9.42181C21.9177 9.61354 22.0214 9.89213 22.0214 10.2576C22.0214 10.6398 21.9177 10.9172 21.7293 11.0917C21.5738 11.2478 21.3506 11.3523 21.0751 11.3523C20.8001 11.3523 20.5765 11.2478 20.4221 11.0917ZM21.0751 11.9091C21.5057 11.9091 21.8667 11.787 22.1413 11.5441C22.4682 11.2651 22.6918 10.8484 22.6918 10.2576C22.6918 9.68319 22.4682 9.2485 22.1413 8.97111C21.8667 8.74415 21.5057 8.62207 21.0751 8.62207C20.6457 8.62207 20.284 8.74415 20.0089 8.97111C19.6828 9.2485 19.458 9.68319 19.458 10.2576C19.458 10.8488 19.6828 11.2655 20.0089 11.5441C20.2844 11.787 20.6623 11.9091 21.0751 11.9091ZM25.5473 11.0229C25.3743 11.2478 25.0138 11.3183 24.6172 11.3183H24.0161V9.38779C24.0161 9.12721 24.102 8.79579 24.2397 8.69212H23.1216C23.276 8.79619 23.3627 9.12681 23.3627 9.38779V11.1434C23.3627 11.4224 23.276 11.7178 23.1216 11.8226H25.4436L25.5473 11.0229ZM28.3501 11.0229C28.1768 11.2478 27.8166 11.3351 27.4205 11.3183H26.8015V9.38779C26.8015 9.12721 26.8874 8.79579 27.0425 8.69212H25.9245C26.0788 8.79619 26.1647 9.12681 26.1647 9.38779V11.1434C26.1647 11.4224 26.0788 11.7358 25.9245 11.8391H28.2298L28.3501 11.0229Z" fill="white"/>
</svg>
