<svg width="48" height="48" viewBox="0 0 48 48" fill="none" xmlns="http://www.w3.org/2000/svg">
<path d="M23.5347 38.9824C37.1401 32.9324 37.7536 16.0736 37.6883 11.8655C37.6794 11.2923 37.2966 10.7908 36.7438 10.6387C31.4057 9.16928 25.3592 8.98242 23.5347 8.98242C21.7102 8.98242 15.6637 9.16928 10.3256 10.6387C9.77286 10.7908 9.39 11.2923 9.38112 11.8655C9.31588 16.0736 9.92937 32.9324 23.5347 38.9824Z" fill="#121212"/>
<path d="M10.8102 14.6077L14.1862 14.2318L10.9387 12.658C10.6511 12.5186 10.4675 12.2265 10.4675 11.9083C10.4675 11.5054 10.7592 11.1659 11.1563 11.1065C11.1563 11.1065 15.6462 10.2393 18.4402 10.1628L18.5865 11.643L14.8466 12.107L18.301 13.4457C18.6943 13.5981 18.9693 13.9607 19.0095 14.3797C19.0663 14.9721 18.6431 15.4962 18.0542 15.5627L10.9625 16.3637L10.8102 14.6077ZM27.5366 15.1021C27.5367 15.262 27.4073 15.3897 27.2476 15.3854C25.2272 15.3315 22.9652 15.3356 20.5665 15.4491C19.9808 15.4768 19.4652 15.0503 19.3834 14.4674C19.3199 14.015 19.5348 13.5725 19.9276 13.347L23.0373 11.5618C23.0373 11.5618 20.8655 11.5012 19.7295 11.6179L19.6292 10.1787C19.6292 10.1787 22.1989 9.90748 25.9226 10.0132C26.8077 10.0384 27.5191 10.769 27.5247 11.6554C27.5304 12.5409 27.5359 13.741 27.5366 15.1021ZM25.6284 12.015C25.6069 11.9207 25.4971 11.8757 25.4163 11.9271L22.7426 13.6285C22.6247 13.7035 22.6816 13.8878 22.8221 13.8859L25.4339 13.851C25.5062 13.85 25.565 13.7937 25.5692 13.7215L25.6482 12.3548C25.6482 12.3548 25.6687 12.1911 25.6284 12.015ZM34.9379 11.0087C32.8283 10.5775 30.7528 10.3176 28.8439 10.1681C28.6899 10.156 28.5603 10.2768 28.5591 10.4313L28.5254 15.1647C28.5243 15.3111 28.6416 15.4327 28.7877 15.4387C29.4159 15.4648 30.0114 15.4959 30.5734 15.5299V12.0499L32.9662 12.2468C33.2378 12.2691 33.4908 12.4055 33.6537 12.6262C34.2804 13.4754 34.1116 15.1068 34.0024 15.8054C35.4521 15.953 36.2686 16.0799 36.2686 16.0799L36.3719 12.8228C36.3995 11.9535 35.7914 11.1831 34.9379 11.0087ZM27.4721 26.7611C27.9072 25.9676 27.3213 25.0004 26.4166 25.0186L18.3027 25.182C17.2431 25.2034 16.4882 24.16 16.8399 23.1602L19.1171 16.6869C19.1744 16.524 19.0477 16.3548 18.8754 16.364C18.0736 16.4071 17.3158 16.4596 16.6237 16.5209C10.6863 17.0471 10.9016 18.3172 10.9226 18.4696C11.7206 24.2525 14.2064 32.4605 21.6903 36.7882C21.8079 36.8563 21.9595 36.8131 22.0248 36.6939L27.4721 26.7611ZM23.8485 16.3689L22.1455 20.2434C21.7972 21.0358 22.381 21.9241 23.2465 21.9187L30.131 21.8763C31.378 21.8686 32.2009 23.1825 31.6375 24.2949C29.6679 28.1831 25.2952 34.2168 23.0752 37.1946C22.9839 37.3171 23.0271 37.4926 23.1651 37.5579C23.2539 37.5998 23.3432 37.6412 23.4332 37.682C23.4974 37.7111 23.5722 37.7111 23.6364 37.6821C32.7731 33.5584 35.4649 24.092 36.2241 17.8759C36.375 16.6858 30.1582 16.206 24.0702 16.2235C23.9741 16.2238 23.8872 16.2809 23.8485 16.3689Z" fill="white"/>
</svg>
