<svg width="48" height="48" viewBox="0 0 48 48" fill="none" xmlns="http://www.w3.org/2000/svg">
<path d="M24.4795 42.5132C34.4183 42.5132 42.4717 34.4496 42.4717 24.4994C42.4718 14.5486 34.4183 6.46973 24.4795 6.46973C14.5409 6.46973 6.47168 14.5486 6.47168 24.4993C6.47168 34.4495 14.5409 42.5132 24.4795 42.5132Z" fill="#121212"/>
<path d="M24.479 42.061C34.1685 42.061 42.0197 34.2004 42.0197 24.4993C42.0197 14.7981 34.1685 6.92188 24.479 6.92188C14.7896 6.92188 6.93854 14.7981 6.93854 24.4993C6.93854 34.2004 14.7897 42.061 24.479 42.061Z" fill="white"/>
<path d="M24.4791 41.5308C33.8725 41.5308 41.5057 33.9044 41.5057 24.4998C41.5057 15.0794 33.8725 7.45264 24.4791 7.45264C15.0857 7.45264 7.45264 15.0793 7.45264 24.4998C7.45267 33.9044 15.0857 41.5308 24.4791 41.5308Z" fill="#121212"/>
<path d="M24.4791 35.1359C30.3519 35.1359 35.1031 30.3638 35.1031 24.4993C35.1031 18.6193 30.3519 13.8467 24.4791 13.8467C18.6063 13.8467 13.8395 18.6193 13.8395 24.4993C13.8395 30.3638 18.6063 35.1359 24.4791 35.1359ZM26.442 9.16771C26.8935 9.80734 26.9561 10.6963 26.8314 11.4603C26.6914 12.1624 26.1305 12.5991 25.4917 12.8019C24.4947 12.9266 23.2798 13.1761 22.3918 12.2248C21.8933 11.5229 21.8933 10.6339 22.0801 9.74485C22.3295 8.79353 23.4199 8.54401 24.3078 8.48145C25.0868 8.48152 25.8811 8.60635 26.442 9.16771Z" fill="white"/>
<path d="M25.3046 9.94777C25.367 10.525 25.554 11.414 25.1178 11.9131C24.7284 12.1939 24.1832 12.3029 23.7937 12.0378C23.2797 11.5387 23.3575 10.7745 23.4822 10.135C23.5443 9.76063 23.7937 9.37074 24.1832 9.30844C24.6037 9.24602 25.1802 9.43316 25.3046 9.94777Z" fill="#121212"/>
<path d="M34.0128 12.0841C34.2776 12.8485 34.0128 13.5504 33.6387 14.1742C33.3272 14.7513 32.4549 15.219 31.9875 15.1412C30.9595 14.9541 30.0867 14.3146 29.0744 13.6909L31.0841 10.0566C32.1122 10.618 33.374 10.9456 34.0128 12.0841Z" fill="white"/>
<path d="M32.8134 12.2718C32.8758 12.8488 32.6265 13.4883 32.1123 13.8627C31.6138 14.2526 30.5857 13.4883 30.5857 13.4883L31.7227 11.3828C32.1746 11.6479 32.6888 11.7727 32.8134 12.2718Z" fill="#121212"/>
<path d="M12.1884 15.7027C11.8144 16.1395 11.3627 16.5295 11.3004 17.0908C11.3004 17.2781 11.4716 17.5119 11.6897 17.4807C12.3131 16.966 12.9516 15.89 13.8396 16.1395C14.2913 16.1395 14.7275 16.5918 14.8521 16.9659C15.117 18.1045 14.2913 19.0716 13.528 19.8202L12.8271 19.3835C13.3411 18.9311 14.0889 18.2451 13.7771 17.5431C12.7959 17.0596 12.6401 18.8688 11.6275 18.8688C11.1757 18.8688 10.5682 18.5568 10.4125 18.0423C10.4125 18.0423 10.3501 17.7303 10.3501 17.5275C10.3346 17.1688 10.4903 16.7788 10.6617 16.4513C10.8486 16.1395 11.0512 15.8899 11.0512 15.8899L11.6275 15.2505L12.1884 15.7027ZM10.3501 16.7788C10.2099 16.7945 9.96066 16.8257 9.80496 16.8413C9.83612 16.7321 9.9763 16.3891 9.9763 16.3891L10.4748 16.3111L10.2411 15.9055C10.3501 15.7495 10.428 15.578 10.5371 15.4221L10.8174 15.9367L10.3501 16.7788ZM38.8265 17.59L35.7108 21.0679L35.1189 19.8046L35.8668 19.0871L35.0252 17.6368L34.0752 17.855L33.3583 16.8413L37.9228 16.077L38.8265 17.59Z" fill="white"/>
<path d="M36.3649 18.4476L35.804 17.4339L37.72 17.0596L36.3649 18.4476Z" fill="#121212"/>
<path d="M18.0143 38.4425L17.0642 37.8342L17.2667 37.1638L16.4098 36.5242L15.7867 36.9455C15.5375 36.7271 15.3037 36.5088 15.0701 36.2905L17.547 34.4497L18.8244 35.2141L18.0143 38.4425ZM33.0935 35.8538C33.3273 36.3839 33.1558 36.9455 32.7664 37.2573C32.2679 37.772 31.6916 38.0838 30.9908 38.0217C30.3676 37.9589 29.8534 37.3194 29.6666 36.8205C29.5419 36.3058 29.5419 35.7596 29.9157 35.4171C30.4296 34.9645 30.9284 34.668 31.6293 34.5905C32.2679 34.5905 32.8445 35.2923 33.0935 35.8538Z" fill="white"/>
<path d="M17.5313 36.5554L16.9394 36.1341L17.7807 35.4324L17.5313 36.5554ZM32.1434 36.3217C32.3458 36.7738 32.1277 37.195 31.6447 37.2726C30.9907 37.3975 30.7724 36.6803 30.5543 36.3057C30.3675 35.9312 30.6167 35.417 31.0531 35.3542C31.6917 35.2294 31.894 35.9472 32.1434 36.3217Z" fill="#121212"/>
<path d="M21.3479 38.4583C21.3324 38.7855 21.9399 39.0039 22.1579 38.6607C22.2358 38.4269 22.4384 37.2725 22.5631 36.5708C22.8901 36.6489 23.264 36.727 23.5131 36.7897C23.4354 37.3193 23.3575 38.8009 22.7188 39.363C22.2825 39.6902 21.5816 39.5032 21.1299 39.363C20.1172 39.0038 20.2886 38.1618 20.2886 38.1618L20.756 36.1968L21.7218 36.3992L21.3479 38.4583ZM27.1584 37.1169L27.6102 39.3784L26.6132 39.5814L26.1615 37.3039L25.3825 37.4909L25.2268 36.8046L27.8127 36.2276L27.9997 36.914L27.1584 37.1169Z" fill="white"/>
<path d="M26.3329 15.5469C29.0434 18.4635 30.5389 22.4093 29.3706 26.5891C29.3706 26.5891 29.0278 27.5873 28.9344 27.9929C28.8564 28.3984 28.872 28.7102 28.872 28.7102C28.9965 28.9756 29.4016 29.0533 29.6666 28.991C29.9311 28.7259 29.4639 28.3828 29.7287 28.0553C31.0374 27.9305 32.1277 28.8508 33.1092 29.7085C32.2525 30.7538 30.9595 31.7515 29.6353 31.4242C29.4486 31.1591 30.0558 30.816 29.651 30.5508L20.0083 30.5349C19.7279 30.5508 19.2139 31.3775 18.9178 31.4556C18.4973 31.5491 17.7963 31.5331 17.6094 31.4243C17.2042 31.0183 17.1108 30.3639 16.8461 29.8956C16.5812 29.3187 15.3816 28.7259 15.5842 28.2893C15.6777 28.1333 17.9833 27.7902 19.4632 28.3203C20.0238 28.57 20.6004 29.0846 21.1922 28.9285C21.2232 28.913 21.2701 28.8975 21.3013 28.8195C21.457 27.0102 20.1485 25.0139 18.2324 24.0938C17.6716 23.8286 17.2667 23.7661 16.7214 23.813C16.145 23.844 15.5375 23.9065 15.1482 23.6259C14.8209 23.3764 14.8833 22.5341 15.1325 21.7075C15.257 21.3332 15.4284 20.9276 15.5998 20.6003C16.3788 18.8845 18.8401 20.7093 19.1671 20.8809C19.5878 21.0992 20.0238 21.5671 20.1485 20.9589C20.1173 20.569 19.3541 20.1947 18.8556 19.9295C17.3912 19.1498 16.4566 19.3369 16.9239 18.4478C17.0641 18.1828 17.5313 17.5745 18.1701 17.0286C18.8244 16.4515 19.6499 15.9056 20.2575 15.8277C21.3479 15.7186 22.5162 17.2626 22.5162 17.2626L23.9028 18.8066C24.1677 18.9625 24.3233 18.7909 24.3544 18.6819C24.4323 18.4479 24.2144 18.1982 24.2144 18.1982C24.2144 18.1982 23.5757 17.4185 23.2329 17.0754C22.9059 16.7323 21.94 15.8122 21.94 15.8122C21.5661 15.1571 22.2671 14.9543 22.6564 14.8918C23.9183 14.767 25.3045 14.424 26.3329 15.5469Z" fill="#121212"/>
<path d="M26.3639 28.1957C27.1739 28.1957 27.8284 27.5406 27.8284 26.7296C27.8284 25.9186 27.1739 25.248 26.3639 25.248C25.554 25.248 24.8998 25.9185 24.8998 26.7296C24.8997 27.5407 25.554 28.1957 26.3639 28.1957ZM17.9676 12.178C18.7153 12.646 19.6499 12.9578 20.3978 13.4883L19.1203 14.0964L16.8773 12.9268L16.9084 10.5406L18.0612 9.93213C18.1855 10.5718 17.9832 11.4762 17.9676 12.178ZM17.0641 15.4535L14.743 11.9753L15.7089 11.2891L18.0455 14.7204L17.0641 15.4535Z" fill="white"/>
</svg>
