<svg width="48" height="48" viewBox="0 0 48 48" fill="none" xmlns="http://www.w3.org/2000/svg">
<path d="M24.0014 40.7716L28.7582 14.0862C33.2924 14.0862 34.7216 14.5824 34.9281 16.606C34.9281 16.606 37.9688 15.4745 39.5039 13.1767C33.5177 10.4094 27.5033 10.285 27.5033 10.285L23.9934 14.5489H24.0014L20.4915 10.2837C20.4915 10.2837 14.4771 10.4081 8.49226 13.1753C10.0247 15.4731 13.0667 16.6046 13.0667 16.6046C13.2745 14.5797 14.7024 14.0848 19.2057 14.0808L24.0001 40.7703" fill="#121212"/>
<path d="M24 9.05437C28.8386 9.01692 34.377 9.80069 40.0468 12.2657C40.8043 10.9054 41 10.3036 41 10.3036C34.8006 7.85866 28.9968 7.0214 23.9987 7C19.0005 7.0214 13.198 7.85866 7 10.3049C7 10.3049 7.27618 11.0459 7.95189 12.267C13.6203 9.80069 19.1601 9.01692 23.9987 9.05437" fill="#121212"/>
</svg>
