<svg width="48" height="48" viewBox="0 0 48 48" fill="none" xmlns="http://www.w3.org/2000/svg">
<path d="M18.7793 16.418L11.752 31.2898C11.6448 31.5166 11.8103 31.7777 12.0611 31.7777H15.5768C15.7098 31.7777 15.8308 31.7006 15.8869 31.58L21.2527 20.0352C21.3258 19.878 21.5489 19.8767 21.6237 20.0331L27.1549 31.5835C27.2118 31.7022 27.3317 31.7777 27.4633 31.7777H30.8108C31.0617 31.7777 31.2271 31.5166 31.1199 31.2898L24.0926 16.418C24.0361 16.2984 23.9157 16.2222 23.7835 16.2222H19.0884C18.9562 16.2222 18.8358 16.2984 18.7793 16.418Z" fill="#121212"/>
<path d="M36.433 16.2222H31.7396C31.6065 16.2222 31.4855 16.2994 31.4295 16.42L28.172 23.4334C28.1292 23.5256 28.1296 23.632 28.1732 23.7239L29.9606 27.493C30.06 27.7025 30.3586 27.7011 30.456 27.4906L33.9026 20.0366C33.9754 19.8791 34.1988 19.8776 34.2738 20.0341L39.8045 31.5835C39.8613 31.7022 39.9812 31.7777 40.1128 31.7777H43.4604C43.7112 31.7777 43.8766 31.5166 43.7695 31.2898L36.7421 16.418C36.6856 16.2984 36.5653 16.2222 36.433 16.2222Z" fill="#121212"/>
<path d="M13.1647 26.6792L8.36567 16.4192C8.30944 16.299 8.18871 16.2222 8.05599 16.2222H4.53937C4.28861 16.2222 4.12317 16.4832 4.23019 16.71L10.861 30.761C10.9859 31.0255 11.3638 31.0213 11.4826 30.7539L13.1675 26.9629C13.2077 26.8724 13.2067 26.769 13.1647 26.6792Z" fill="#121212"/>
</svg>
