<svg width="48" height="48" viewBox="0 0 48 48" fill="none" xmlns="http://www.w3.org/2000/svg">
<path d="M39.8115 8.67361C39.2283 8.41084 38.3658 9.35108 38.0742 9.44962C37.2029 9.62081 36.3974 10.0334 35.7495 10.6403C34.6241 11.7489 27.5678 22.3543 25.8756 24.3251C24.972 25.3803 24.2327 26.3206 24.0027 26.3206C23.7727 26.3206 23.0334 25.3803 22.1298 24.3251C20.4376 22.3502 13.3732 11.7489 12.2519 10.6403C11.604 10.0334 10.7984 9.62081 9.92719 9.44962C9.63558 9.35108 8.77716 8.41084 8.18983 8.67361C7.74213 8.87891 8.22679 9.82735 8.22679 9.82735C8.42805 10.4186 10.8842 16.1955 13.3403 21.5496C15.5582 26.378 17.6447 30.5414 18.4621 32.1673C21.7479 38.6874 23.555 39.3648 23.9945 39.373C24.434 39.373 26.2617 38.6915 29.527 32.1673C30.3484 30.5249 32.4349 26.378 34.6528 21.5496C37.1172 16.212 39.5815 10.4186 39.7581 9.82735C39.7705 9.82735 40.2592 8.87891 39.8115 8.67361ZM38.9901 10.0203C37.9099 11.248 30.2704 27.1048 28.5453 30.0363C26.8203 32.9679 24.6188 36.6057 24.0068 36.6057C23.399 36.577 21.218 32.9802 19.4889 30.0363C17.7597 27.0925 10.112 11.248 9.03181 10.0203C8.74841 9.68776 8.05018 9.03903 8.30072 8.89943C8.66627 8.69825 9.5329 9.66723 10.0422 9.79861C10.7551 9.9081 11.4112 10.2519 11.9069 10.7758C12.831 11.6545 14.5273 14.4218 17.5256 18.8931C19.3985 21.6933 20.9593 23.8488 21.8341 24.9492C22.9225 26.3288 23.6741 27.0021 24.0027 27.0021C24.3313 27.0021 25.0788 26.3411 26.1672 24.9492C27.0421 23.8529 28.6028 21.6974 30.4758 18.8931C33.474 14.4218 35.1662 11.6545 36.0986 10.7758C36.5936 10.2512 37.25 9.90719 37.9633 9.79861C38.4808 9.66723 39.3392 8.69825 39.7006 8.89943C39.9635 9.03903 39.2653 9.68776 38.9736 10.0203H38.9901Z" fill="#121212"/>
<path d="M37.2568 10.8819C36.8461 11.5553 35.2442 14.7004 33.1988 18.4121C30.9275 22.5631 28.2126 27.2561 27.6705 28.1717C26.656 29.8838 24.6352 32.803 24.0027 32.8236C23.3743 32.7989 21.3535 29.8838 20.339 28.1675C19.801 27.2561 17.1025 22.5631 14.8148 18.4121C12.7612 14.7168 11.1429 11.5553 10.7568 10.8819C10.3708 10.2086 10.4899 9.97866 11.2908 10.8819C12.486 12.2656 15.3528 17.2501 15.3528 17.2501C15.3528 17.2501 20.298 25.4946 21.0701 26.5868C21.8423 27.679 23.4236 29.7196 23.9945 29.7401C24.5736 29.7196 26.1919 27.6215 26.923 26.5868C27.6541 25.5521 32.6485 17.2501 32.6485 17.2501C32.6485 17.2501 35.5235 12.2779 36.7187 10.9066C37.5197 9.97866 37.647 10.1511 37.2568 10.8819Z" fill="#121212"/>
</svg>
