<svg width="48" height="48" viewBox="0 0 48 48" fill="none" xmlns="http://www.w3.org/2000/svg">
<path d="M24.0256 40.3694C15.0616 40.3694 7.71757 32.9894 7.71757 24.0254C7.71757 22.0094 8.07757 20.1014 8.76157 18.3014L18.3016 37.4894C18.4096 37.7414 18.5896 37.9574 18.8776 37.9574C19.1656 37.9574 19.3456 37.7414 19.4536 37.4894L23.8456 27.6614C23.8816 27.5534 23.9536 27.4454 24.0616 27.4454C24.1696 27.4454 24.2056 27.5534 24.2776 27.6614L28.6696 37.4894C28.7776 37.7414 28.9576 37.9574 29.2456 37.9574C29.5336 37.9574 29.7136 37.7414 29.8216 37.4894L39.3616 18.3014C40.0456 20.1014 40.4056 22.0094 40.4056 24.0254C40.3336 32.9894 32.9896 40.3694 24.0256 40.3694ZM24.0256 20.3174C23.9176 20.3174 23.8816 20.2094 23.8096 20.1014L18.6976 8.58139C20.3536 7.96939 22.1536 7.64539 24.0256 7.64539C25.8976 7.64539 27.6976 7.96939 29.3536 8.58139L24.2416 20.1014C24.1696 20.2454 24.1336 20.3174 24.0256 20.3174ZM18.8056 32.1614C18.6976 32.1614 18.6616 32.0534 18.5896 31.9454L10.3096 15.2414C11.7856 12.9734 13.7656 11.0654 16.1776 9.73339L22.1536 23.0174C22.2256 23.2334 22.4056 23.3054 22.5856 23.3054H25.4656C25.6816 23.3054 25.8256 23.2694 25.9336 23.0174L31.9096 9.73339C34.2856 11.0654 36.3016 12.9734 37.7776 15.2414L29.4256 31.9454C29.3896 32.0534 29.3176 32.1614 29.2096 32.1614C29.1016 32.1614 29.0656 32.0534 28.9936 31.9454L25.8616 24.8174C25.7536 24.5654 25.6096 24.5294 25.3936 24.5294H22.5136C22.2976 24.5294 22.1536 24.5654 22.0456 24.8174L19.0216 31.9454C18.9856 32.0534 18.9136 32.1614 18.8056 32.1614ZM24.0256 42.0254C33.9976 42.0254 42.0256 33.9974 42.0256 24.0254C42.0256 14.0534 33.9976 6.02539 24.0256 6.02539C14.0536 6.02539 6.02557 14.0534 6.02557 24.0254C6.02557 33.9974 14.0536 42.0254 24.0256 42.0254Z" fill="#121212"/>
</svg>
